<?xml version="1.0" standalone="no"?>
<!DOCTYPE svg PUBLIC "-//W3C//DTD SVG 1.1//EN" "http://www.w3.org/Graphics/SVG/1.1/DTD/svg11.dtd" >
<svg xmlns="http://www.w3.org/2000/svg" xmlns:xlink="http://www.w3.org/1999/xlink" version="1.1">
<metadata></metadata>
<defs>
<font id="nermola_scriptregular" horiz-adv-x="911" >
<font-face units-per-em="2048" ascent="1638" descent="-410" />
<missing-glyph horiz-adv-x="409" />
<glyph horiz-adv-x="0" />
<glyph horiz-adv-x="682" />
<glyph unicode=" "  horiz-adv-x="409" />
<glyph unicode="&#x09;" horiz-adv-x="409" />
<glyph unicode="&#xa0;" horiz-adv-x="409" />
<glyph unicode="!" horiz-adv-x="421" d="M4 295q6 -95 47 -166q6 -10 9 -14.5t11.5 -8.5t20.5 -2l6 15q5 14 7.5 31.5t3.5 29.5t1.5 33.5t0.5 30.5q5 185 10 239q19 187 78 416q83 332 217 721q13 41 -5 72t-59 39q-20 5 -30 0.5t-17 -23.5q-7 -13 -16 -43q-173 -532 -246 -913q-52 -255 -39 -457zM39 -80 q-12 -137 41 -258q19 -42 57 -65q19 -14 29 -7t10 29q-2 16 -10 43q-33 109 -33 201v22q2 31 -7.5 45t-37.5 21q-23 8 -34.5 1t-14.5 -32z" />
<glyph unicode="&#x22;" horiz-adv-x="448" d="M8 1362q-22 -104 47 -176q12 -12 27 -21q4 -2 11.5 -1.5t10.5 3.5q2 2 2 23q-2 6 -10 14q-24 30 -14 70q21 78 33 106q18 43 55.5 123t42.5 90q3 7 7.5 19.5t6.5 15.5q0 40 -32 72q-37 37 -54 -8q-29 -60 -102 -232q-22 -60 -31 -98zM172 1251q-18 -81 39 -147 q2 -3 29 -21q6 12 6 13q2 4 2 14q-2 29 -3 44.5t7.5 43.5t14 42t16.5 40q44 106 149 281q17 28 14.5 47t-24.5 43q-17 18 -29 16.5t-24 -22.5q-128 -215 -176 -330q-12 -31 -21 -64z" />
<glyph unicode="#" horiz-adv-x="1591" d="M6 340q15 -47 51 -66q19 10 41 19t38 14.5t42.5 12.5t39 10t43 10.5t40.5 9.5l-12 -41q-29 -122 -27 -180q6 -100 92 -139q1 -1 43 -10q-15 37 -20 45q-21 45 -19 77q4 102 64 271q175 28 303 28l-45 -110q-60 -154 -64 -246q-7 -116 64 -176q12 -9 35 -21q9 20 10 29.5 t-4 30.5q-17 76 2 158q30 131 129 335l4 2h100q41 -1 122 -4t122 -4q63 0 107 15q2 20 -21 32q-27 12 -57 21q-104 36 -260 43q-36 4 -62 4l15 33q20 41 51 98l153 283q12 24 31 24q193 4 295 -22q72 -15 102 -82q2 -5 21 -29q20 22 8 55q-38 102 -135 138q-74 25 -148 28 q-18 2 -52.5 5.5t-49.5 5.5q2 5 5.5 12t4.5 10l234 399q11 19 10 29t-16 23q-14 14 -27 22q-38 20 -61 -10q-46 -63 -56 -80l-219 -375l-16 -30q-204 -20 -369 -33q12 24 17 39q120 260 141 309q15 31 37 88q14 29 -13 53q-16 15 -28 23q-43 24 -62 -19q-30 -61 -39 -84 q-65 -143 -180 -407q-12 -30 -41 -33q-20 -2 -59 -10q-173 -37 -199 -43q-29 -7 -34.5 -22.5t8.5 -41.5l14 -24q24 -30 61 -19q59 17 148 35q5 1 16 2t17 2q-24 -62 -75 -191.5t-77 -197.5q-108 -24 -188 -45q-57 -16 -123 -43q-35 -14 -23 -45zM467 494l10 30 q108 254 144 340q12 30 43 33q49 6 147 19.5t147 19.5q10 2 37 2q-39 -76 -112.5 -217.5t-106.5 -204.5q-54 -4 -157.5 -11t-151.5 -11z" />
<glyph unicode="$" horiz-adv-x="1216" d="M29 20q60 -154 231 -233q5 -3 16.5 -8t16.5 -8v-127q0 -13 5 -20.5t21 -6.5q8 22 24 68l24 69q102 -12 202 6q211 37 389 168q95 69 152 150q90 127 47 280q-20 76 -82 170q-52 73 -160 181q-36 34 -100 98.5t-92 91.5q-27 27 -12 64q108 290 256 616q1 2 12 25 q47 3 71 -9.5t46 -52.5q7 -14 10 -26q36 -90 -2 -201q-33 -87 -105 -176q-38 -52 -43 -80q-4 -23 6 -33.5t33 -7.5q46 8 78 45q84 87 121 199q58 190 -68 340q-50 60 -106 94q10 23 29 62t26 54q29 67 -35 103q-25 14 -41 -10q-3 -5 -8 -16.5t-8 -16.5q-36 -79 -76 -164 l-6 -4q-6 0 -10 -2q-220 -50 -334 -213q-151 -212 -35 -436q13 -27 58 -92q15 -23 6 -50q-74 -214 -92 -272q-125 -397 -177 -700q-6 -31 -14 -93q-52 3 -96 43q-89 83 -92 205q-3 151 125 275q4 3 32 20q36 20 60 6q3 -2 24 -2q4 17 -14 35q-74 64 -166 16 q-57 -33 -106 -102q-109 -148 -41 -322zM387 -164q110 526 281 1008l8 -4q28 -28 117 -115.5t137 -136.5q49 -49 92 -137q68 -158 -21 -306q-60 -98 -180 -180q-162 -110 -381 -129h-53zM588 1245q42 211 252 314l-213 -523q-58 107 -39 209z" />
<glyph unicode="%" horiz-adv-x="1259" d="M2 -244q4 -13 14.5 -22t18 -12t24.5 -9q22 -4 39 25q7 12 19.5 37.5t19.5 38.5q34 60 183.5 321.5t228.5 403.5q354 640 696 1038q12 12 12 27q0 33 -34.5 57.5t-67.5 15.5q-31 -9 -86 -25t-101 -30t-87 -27l-50 -12l-24 29q-80 87 -189 67q-78 -13 -131 -57 q-183 -143 -292 -350q-23 -44 -31 -86q-12 -57 23 -108.5t94 -63.5q71 -12 157 35q81 50 144 135q62 90 71 194q1 12 2.5 18t8 13t18.5 10q47 14 322 97q6 2 26 2l-14 -23q-275 -346 -486 -729q-81 -146 -228.5 -424.5t-170.5 -321.5q-62 -114 -119 -229q-13 -21 -10 -35z M258 1106q18 56 23 65q67 109 90 140q75 104 166 186q81 71 170 82q34 3 69 -10q-5 -2 -12.5 -6t-13 -6t-9.5 -3q-57 -20 -114 -38q-60 -16 -66 -74q-7 -43 -14 -68q-55 -208 -246 -264q-3 -1 -10 -2t-10 -2h-23zM522 -18q-12 -97 76 -148q47 -28 106.5 -19t102.5 52 q117 117 131 258q12 114 -90 158q-15 5 -19 6q34 37 76 43q19 -23 31 -31q3 -3 10 -4t10 2q13 7 13 23q2 8 -6 24q-25 47 -73.5 65t-98.5 -3q-53 -22 -99 -74q-96 -107 -145 -240q-19 -60 -25 -112zM623 -111q-2 42 5.5 81.5t29 83.5t34.5 67t45 74q13 -9 30 -6.5t26 7.5 t25.5 13.5t27.5 11.5q5 -19 4 -22q-10 -79 -14 -93q-24 -85 -101 -165q-43 -46 -112 -52z" />
<glyph unicode="&#x26;" horiz-adv-x="1533" d="M29 -150q40 -106 129 -157t202 -31q56 12 62 14q-5 -21 -12 -38q-12 -39 -33.5 -106.5t-39 -124t-32.5 -107.5q-49 -159 -57 -291q-1 -17 4 -113q0 -24 18 -24q4 1 7.5 4.5t7.5 8.5t6 7q2 3 8 21q2 6 16.5 50t20.5 68q73 341 203 672q12 33 43 47q202 97 368 230 q127 104 195 198q75 102 86 207q13 93 -37 160q-5 9 -9 13.5t-12.5 7.5t-21.5 1q-1 -12 -5 -33t-5 -30q-7 -130 -62 -225q-53 -85 -116 -148q-130 -127 -324 -240q-15 -5 -21 -8q7 21 41 88q1 4 8 16t7 16t-4 17q-21 29 -68 33q-6 0 -11 -1.5t-8 -3t-6.5 -6.5t-5 -7t-4.5 -9 t-4 -8q-7 -11 -10 -22l-74 -168q-8 -23 -22 -29q-90 -42 -150 -61q-66 -20 -96.5 -5t-58.5 79q-53 124 -17 262q34 146 158 301q145 176 366 219q10 2 22.5 2t28 -1t23.5 -1q42 3 21 37q-15 24 -37 43q-15 15 -44.5 43.5t-43.5 44.5q-50 50 -62 119q-18 92 25 200 q63 160 211 289q132 119 272 158q8 2 27 2q-2 -5 -8.5 -15t-8.5 -16q-94 -153 -124 -213q-110 -209 -189 -381q-9 -19 -16 -42.5t-15 -53.5l-12 -45q-6 -26 23 -31l77 101q27 -29 64.5 -32.5t71.5 9.5l22 6q252 87 436 287q62 65 90 143q51 136 -40 244q-60 74 -162 111 l-35 12l22 37q51 69 66 92q24 37 -25 76q-17 11 -27.5 7.5t-27.5 -26.5l-98 -145q-18 -27 -45 -27q-117 0 -226 -53q-158 -76 -303 -244q-84 -100 -123 -217q-70 -209 76 -364l29 -31q3 -3 8 -10.5t8 -10.5q-2 -1 -4.5 -2t-3.5 -1.5t-2 -0.5q-2 -1 -7 -2t-7 -2 q-201 -27 -342 -174q-161 -171 -215 -348q-54 -172 0 -318zM846 862q218 441 381 680q68 -3 139 -31q73 -34 76 -112q3 -79 -53 -174q-58 -96 -172 -187q-150 -118 -312 -170q-2 -1 -10.5 -4t-12 -4t-10.5 -2t-13 0t-13 4z" />
<glyph unicode="'" horiz-adv-x="223" d="M8 1346q-14 -84 10 -136q4 -7 13 -19.5t10 -14.5q20 15 24.5 22t10.5 35q42 198 139 383q10 24 4 37q-17 34 -26 45q-34 40 -58 -6q-3 -8 -22 -48t-27 -63q-65 -160 -78 -235z" />
<glyph unicode="(" horiz-adv-x="571" d="M2 449q0 -303 51 -498q33 -127 92 -209q45 -62 113 -100q24 -10 35 -2q-4 6 -18 24.5t-21 26.5q-79 87 -111 215q-37 126 -47 303q-15 227 17 549q21 230 67 456q45 217 99 353q62 147 120 221q39 50 84 65q43 17 64 0q2 -2 16 -2q13 20 -8 41q-25 32 -62 41t-77 -8 q-69 -29 -127 -108q-95 -129 -152 -330q-50 -186 -92 -486q-40 -272 -43 -552z" />
<glyph unicode=")" horiz-adv-x="593" d="M2 -322q-3 -23 8 -30t33 2q48 23 76 71q34 55 61 113q102 204 193 496q126 407 196 868q35 225 15 387q-13 124 -82 207q-7 9 -20.5 28.5t-20.5 28.5q-30 46 -82 58q-6 1 -16 -1t-13 -5q-3 -4 -2.5 -14.5t4.5 -14.5q23 -41 49 -70q40 -49 56 -116q21 -93 24 -218 q-12 -153 -12 -157q-50 -394 -147 -760q-129 -487 -299 -809q-14 -27 -21 -64z" />
<glyph unicode="*" horiz-adv-x="989" d="M14 1163q35 -30 82 -18q107 31 109 31q4 2 51 12q-4 -10 -20 -31q-63 -65 -170 -180q-7 -7 -19 -23q-14 -22 12 -36q49 -24 86 16q13 13 27 28t30.5 33t26.5 29l23 23q-6 -26 -20 -84.5t-21 -88.5q-23 -107 -12 -202q13 -86 57 -140q6 -6 29 -20l8 4q-16 167 -17 184 q-2 59 27 181q26 108 55 182q40 -96 50 -115q14 -26 63 -96q15 -23 39 -10q4 24 2 37q-6 37 -18 75q-29 80 -91 240q13 20 24 25t44 8q78 12 113 12q131 3 237 -2q25 -2 72 -12.5t59 -12.5h33q0 1 1 4t1 5q-20 20 -29 26q-48 34 -127 51q-99 20 -235 17q-4 0 -13.5 -1 t-17 -0.5t-14.5 3.5q20 16 22 18q103 72 265 148q6 3 104 53q3 2 10 10.5t11 12.5q-5 1 -18 4t-19 2q-55 -7 -95 -17q-165 -48 -327 -162q-1 -1 -33 -20q11 42 51 145q18 49 49 117q11 23 9 36t-21 26q-28 24 -48 21t-34 -42q-25 -67 -115 -297q-2 -7 -12 -31 q-4 8 -9.5 22.5t-8.5 20.5q-12 30 -60 138q-20 45 -82 41q-21 0 -25.5 -9.5t3.5 -29.5q19 -40 51 -115t41 -96q7 -17 12 -35q-6 -1 -13.5 -4t-10.5 -4l-189 -49q-22 -6 -41 -19q-29 -14 -4 -39z" />
<glyph unicode="+" horiz-adv-x="686" d="M2.5 728q-1.5 -15 20.5 -30q35 -25 75 -10l109 39l-14 -47q-59 -185 -91 -297q-23 -83 -20 -158q3 -42 29 -74.5t67 -44.5q4 -2 33 3q-1 3 -1.5 13t-2.5 15q-15 37 -12 76q2 13 5 40t5 40q13 56 33 121.5t35 107t44.5 121t40.5 109.5q5 16 27 20q52 8 89 9.5t82.5 -9.5 t82.5 -39q7 -5 21.5 -12t19.5 -10q11 28 -16 55q-67 64 -166 80q-33 4 -99 8q11 30 15 43l69 193q5 14 6.5 22.5t-3 16.5t-8.5 12t-15 14q-16 13 -31 19q-28 12 -44 5.5t-28 -32.5q-1 -3 -4 -9.5t-4 -9.5l-102 -280q-8 -24 -35 -33q-104 -30 -188 -63q-23 -9 -24.5 -24z" />
<glyph unicode="," horiz-adv-x="190" d="M2.5 -43.5q1.5 -40.5 34.5 -69.5q12 -10 59 -39q-14 -32 -59 -88q-18 -22 -21 -32q-8 -19 1.5 -30t29.5 -7q22 3 39 20q80 77 100 178q9 42 -18 76l-14 25q-8 28 -32 44.5t-52 12.5t-39 -18q-30 -32 -28.5 -72.5z" />
<glyph unicode="-" horiz-adv-x="491" d="M4 500q-6 -26 13.5 -51t45.5 -25q12 0 33 2t31 2q28 2 83.5 5t82.5 5q29 2 82 10t65 9q31 6 47 39q13 34 -18 43q-25 9 -53 6q-15 -1 -43 -5t-41 -5q-142 -9 -289 -15q-17 0 -23 -2q-13 -9 -16 -18z" />
<glyph unicode="." horiz-adv-x="241" d="M2 -70q3 -39 27.5 -70.5t60.5 -41.5q36 -9 68 10l43 29q53 36 32 98q-19 59 -81 92q-33 18 -53.5 14.5t-41.5 -28.5q-3 -4 -16 -19t-18 -24q-7 -12 -21 -60z" />
<glyph unicode="/" horiz-adv-x="1103" d="M8 -203q-14 -47 2 -102q8 -25 25 -27q4 2 8 4.5t7.5 6.5t6 6.5t5.5 8t4 7.5t4 9t3.5 8t3.5 9t3 9q3 7 20.5 52.5t28.5 68.5q123 230 143 264q192 315 537 805q27 39 274 391q17 26 17 45t-15 43q-15 21 -28.5 21.5t-30.5 -19.5q-98 -122 -121 -156q-320 -443 -586 -862 q-176 -279 -253 -440q-18 -37 -58 -152z" />
<glyph unicode="0" horiz-adv-x="1009" d="M2 532q0 -4 5 -67.5t11 -102.5q22 -147 93 -270q65 -105 161 -153q98 -49 192.5 -35.5t172.5 88.5q50 45 115 129q183 261 213 651q15 183 -47 436q-44 184 -113 299q-53 88 -125 123q-10 7 -23 25q-31 50 -77 45q-30 -2 -72 -17q-94 -43 -174 -147q-323 -435 -332 -1004 zM131 494q6 284 83.5 524.5t231.5 454.5q7 9 54 61q41 44 106 59q45 9 72 -22q46 -51 82 -146q64 -158 86 -344q1 -15 5 -52t5 -52.5t2.5 -52.5t-0.5 -52q-12 -351 -174 -641q-62 -116 -160 -200q-52 -45 -100 -60q-66 -20 -111 19q-42 33 -69 73q-70 99 -90 240 q-12 71 -23 191z" />
<glyph unicode="1" horiz-adv-x="843" d="M2.5 -237q0.5 -13 22.5 -25q40 -24 79 -4q49 24 86 39l21 -35q38 -61 113 -80q4 0 24 4q-7 16 -25.5 44t-28 51.5t-7.5 49.5q10 5 12 5q105 35 229 41q1 0 8.5 0.5t9.5 1t8.5 1.5t10 2.5t8.5 3.5t9 5.5t8 7.5q-16 12 -25 14q-7 2 -21.5 6.5t-23 7t-21 4.5t-22.5 1 q-24 0 -50.5 -2.5t-61 -7.5t-50.5 -7q-6 0 -34 -4q4 66 8 101q23 170 92 436q79 295 219 700q131 367 236 555q11 19 0 37q-16 34 -56 53q-23 10 -43 -4q-67 -41 -88 -51q-145 -72 -262 -127q-46 -21 -135 -53q-4 -4 -4 -6q9 -35 35.5 -51t58.5 -4q22 7 127 53 q100 47 172 84l6 -6l-10 -23q-56 -129 -68 -162q-201 -546 -325 -1067q-59 -254 -68 -403v-94q-23 -10 -35 -17q-90 -37 -116 -51q-23 -11 -22.5 -24z" />
<glyph unicode="2" horiz-adv-x="927" d="M1.5 -109.5q0.5 -10.5 14.5 -29.5q52 -66 138 -45q247 71 393 84q86 11 147 -2q44 -9 62 -48q16 -36 35 -61q5 -6 13.5 -10.5t14.5 -3.5q13 7 21 26q3 6 -2 27q-10 42 -54 82q-81 81 -215 84q-109 4 -305 -31q-6 -1 -55 -10q5 8 11 18.5t9 14.5q39 57 110 162t91 135 q230 344 330 526q106 189 143 344q10 48 14.5 73t8.5 73t-4 75q-12 67 -58.5 114.5t-109.5 53.5q-58 6 -127 -4q-234 -43 -396 -184q-103 -93 -127 -203q-32 -143 70 -229q43 -34 82 -25q-2 30 -33 45q-38 16 -45 72q-3 30 4 65q16 90 90 170q156 156 408 203q64 13 119 2 q32 -8 41.5 -18.5t9.5 -40.5q0 -53 -4 -80q-13 -96 -62 -211q-28 -70 -70 -150t-73 -130t-88 -140q-141 -217 -449 -631q-26 -36 -90 -131q-13 -21 -12.5 -31.5z" />
<glyph unicode="3" horiz-adv-x="987" d="M7.5 -211.5q13.5 -41.5 42.5 -70t67 -42.5t73 -8q60 9 115 33q281 127 508 371q141 150 168 352q28 245 -133 412q-97 97 -270 114q-13 1 -39.5 2t-40.5 2q15 18 24 27q135 124 148 137q142 139 204 248q26 44 56 125q23 67 -23.5 135t-128.5 74q-40 3 -73 -2 q-291 -42 -512 -215q-102 -81 -146 -166q-66 -122 47 -227q20 -20 39 -11v11q-2 8 -10 20q-39 52 -6 123q32 62 92 119q229 211 563 256q45 6 88 -13q-2 -7 -5 -21.5t-6 -25.5t-7 -20q-6 -11 -22.5 -40.5t-29 -50t-26.5 -38.5q-99 -133 -297 -293q-65 -54 -225 -182 q-20 -17 -22.5 -31.5t11.5 -36.5q21 -38 47.5 -48t67.5 3q4 2 13.5 5t13.5 5q156 45 303 25q87 -14 135 -56t70 -126q20 -72 10 -154q-21 -179 -139 -315q-123 -147 -342 -301q-115 -82 -211 -121q-57 -24 -97 -17q-7 31 2 107q5 50 5 59q0 17 -10 24.5t-25 2.5 q-50 -13 -66 -70q-14 -49 -0.5 -90.5z" />
<glyph unicode="4" horiz-adv-x="1226" d="M4 627q17 -39 70 -64q25 -12 67 10q107 56 181 89q47 21 96 40t107 39.5t94.5 33t109 36.5t98.5 33h17q-4 -11 -8 -29q-46 -135 -58 -180q-107 -363 -121 -615q-6 -83 13 -172q22 -108 114 -151q1 0 4 -1.5t4.5 -2t4 -1t4.5 -0.5t4.5 0.5t5 2.5t4.5 4q-4 6 -24 41 q-34 46 -43 102q-1 9 -4 43.5t-3 53.5q3 122 29 270q50 269 182 641q8 22 20.5 34.5t35.5 18.5q31 6 112 37q39 15 15 49q-30 39 -74 33q-13 -4 -39 -8v12q92 223 170 358q8 16 18 21q20 11 11 37q-16 36 -52 45q-13 3 -28 -8q-11 -7 -25 -25q-6 -10 -24 -37.5t-29 -47 t-19 -38.5q-86 -191 -141 -327q-12 -31 -43 -39l-338 -105q-16 -5 -100 -30.5t-133 -41.5q18 26 20 29q73 100 239 323.5t253 342.5q22 30 46 65t52.5 77t44.5 65q12 20 11.5 31t-15.5 28q-12 12 -18 16q-17 13 -29 12t-25 -18q-4 -5 -14.5 -19t-17.5 -22 q-107 -146 -174 -235q-358 -447 -521 -654q-31 -38 -127 -161q-17 -25 -10 -41z" />
<glyph unicode="5" horiz-adv-x="1259" d="M5 96.5q13 -75.5 79 -137.5q45 -42 90 -61q304 -138 559 43q262 189 402 489q75 164 67 326q-6 136 -98 231q-171 177 -434 137q-221 -35 -398 -163q-11 -7 -20 -11l8 33q76 206 260 584q10 19 29 22q5 1 15.5 5t15.5 5q231 74 432 82q83 3 196 -18q29 -7 49 10 q-21 26 -22 27q-44 41 -109 57q-84 22 -204 12q-207 -19 -383 -77q-24 -6 -43 2q-18 8 -26 5.5t-17 -18.5q-13 -22 -21 -28q-14 -14 -14 -31q0 -6 -10 -31q-21 -47 -39 -82q-142 -310 -203 -493q-42 -116 -31 -228q2 -38 51 -63q6 -4 34.5 3t33.5 13q4 6 4 23q-1 4 -6 10.5 t-6 9.5q6 9 10 13l18 18q220 196 504 225q116 12 219 -39q73 -39 93 -110q19 -60 12 -137q-15 -122 -68 -234q-130 -272 -381 -457q-141 -104 -266 -114q-126 -11 -209 22q-39 15 -51 54q-18 47 -10 90q11 52 41 104q34 56 102 127q38 38 64 80q14 23 7 34t-34 9 q-63 -3 -117 -47q-97 -78 -145 -170q-43 -80 -30 -155.5z" />
<glyph unicode="6" horiz-adv-x="1224" d="M-81.5 363q1.5 -10 11.5 -15q14 -6 29 14q9 10 38 44.5t46 52.5q4 5 33 39q-4 -38 -8 -109q-10 -218 51 -387q81 -217 284 -278q163 -45 281 61q43 38 88 96q81 111 133 256q50 137 27 275q-40 215 -182 340q-196 174 -424 79l-10 -3l-15 -5q8 24 10 27q65 164 150 303 q116 194 256 315q87 77 184 109q113 33 199 -12q43 -22 58.5 -60.5t0.5 -85.5q-8 -23 -2.5 -33.5t31.5 -23.5q59 71 16 156q-45 85 -130.5 128t-172.5 37q-96 -8 -192 -65q-121 -77 -234 -213q-229 -278 -348 -670q-12 -38 -37 -63q-72 -79 -108 -129q-53 -71 -62 -160 q-3 -10 -1.5 -20zM188 219v55q0 168 52 371q6 26 30 41q77 58 162 84q99 32 186 4q83 -28 136 -110q130 -199 69 -422q-58 -206 -188 -353q-76 -87 -166 -102q-70 -15 -129 29q-47 37 -88 114q-53 112 -64 289z" />
<glyph unicode="7" horiz-adv-x="1095" d="M4 1448q23 -51 76 -57q68 -9 94 -7q141 14 238 29q171 30 428 82q9 1 19 2.5t24 4t24 3.5l-8 -18q-14 -24 -50 -84.5t-60.5 -104.5t-45.5 -86q-71 -136 -217 -442q-15 -29 -47 -37q-23 -4 -276 -59q-11 -2 -32 -10t-32 -11q-21 -8 -18 -26q3 -33 29 -56q3 -3 7 -5t7 -2.5 t7.5 1t7 2t8 3t6.5 3.5q115 35 272 68l-14 -37q-139 -329 -158 -377q-119 -292 -168 -495q-21 -88 -19 -150q3 -46 37 -87t76 -48q4 -1 8.5 0t11 3t9.5 3q-1 2 -4 12.5t-6 12.5q-36 27 -29 86q10 89 51 215q58 191 168 454q25 59 85 194t91 208q17 36 55 33q9 -1 19 -1 t23.5 0.5t21.5 0.5q51 -4 68 -37q2 -4 7.5 -8t6.5 -5q19 13 10 39q-28 76 -106 88l-45 7l8 20q33 63 122 237.5t140 268.5q19 36 42.5 74.5t53.5 87t45 73.5q23 37 19 56q-9 46 -43 76q-20 20 -45 10q-11 -4 -29 -8q-403 -131 -756 -168q-7 -1 -44 -7t-51.5 -6.5t-42 3.5 t-48.5 16q-4 3 -15 1.5t-14 -5.5q-8 -17 -2 -33z" />
<glyph unicode="8" horiz-adv-x="1386" d="M16 342q-45 -161 47 -297q133 -202 363 -205q164 -3 352 62q141 49 205 96q121 89 129 213q4 51 -27 135q-38 91 -137 197q-194 200 -196 202q-125 128 -203 236q-81 117 -37 256q48 151 174 262q150 128 391 197q78 20 140 12q23 -3 75 -20q24 -10 17 -33q-5 -31 -6 -33 q-5 -13 -18 -48.5t-23.5 -60.5t-22.5 -47q-92 -180 -285 -348q-94 -78 -141 -119q-53 -43 -74 -88q-12 -20 -4 -32q10 -15 31 -7q69 27 86 39q218 155 332 297q138 163 190 346q21 68 -8 127q-47 80 -121 105q-88 34 -180 16q-204 -41 -375 -151q-183 -115 -262 -314 q-44 -102 -27 -198q13 -79 56 -140q103 -139 141 -182q48 -54 141.5 -149.5t126.5 -130.5q74 -82 105 -129q65 -103 2 -230q-36 -67 -107 -110q-94 -50 -143 -68q-207 -78 -387 -70q-160 9 -219 162q-28 81 -15 146q46 260 260 421q38 28 80 43q58 25 99 -8q3 -2 13 -4.5 t17 -5.5q-2 7 -3 13.5t-1.5 10t-1.5 5.5q-60 93 -157 80q-67 -12 -123 -56q-206 -155 -269 -395z" />
<glyph unicode="9" horiz-adv-x="1138" d="M10 696q15 -72 67 -122t120 -58q47 -5 112 21q116 43 226 135q136 116 270 313q22 32 63 96.5t62 96.5v-17q-11 -42 -55.5 -212.5t-71.5 -262.5q-81 -277 -211 -500q-79 -134 -160 -206q-54 -50 -90 -60q-22 -5 -47.5 -10.5t-57 -11.5t-47.5 -9q-25 -3 -38 23 q-9 22 -29 35q-14 9 -26 2.5t-9 -23.5q4 -30 18 -47q43 -59 111 -59q47 0 96 6q120 16 195 96q43 40 80 86q217 292 321 637q54 176 127 533q8 40 23.5 119.5t23.5 119.5q10 50 -39 96q-34 26 -53 -6q-9 -16 -29.5 -48t-29.5 -48q-154 -252 -164 -268q-133 -207 -299 -352 q-112 -103 -221 -150q-54 -19 -86 -23q-28 -4 -36.5 2t-16.5 35q-16 78 4 172q99 443 497 699q145 93 305 84q79 -6 136 -47q37 -25 34 -66q0 -34 33 -43q25 23 15 66q-2 6 -17 36q-91 140 -258 152q-157 8 -305 -80q-419 -250 -533 -704q-31 -128 -10 -228z" />
<glyph unicode=":" horiz-adv-x="294" d="M5.5 463q-8.5 -28 0.5 -45q25 -49 86 -62q3 1 9.5 2t9.5 2q78 41 92 117q6 24 -8.5 46t-44.5 36q-22 11 -39 8t-37 -22q-28 -24 -41 -37q-19 -17 -27.5 -45zM135 1169q-48 -83 29 -139q29 -20 61 -13t49 38q4 7 7 16l6.5 19.5t5.5 15.5q-3 30 -28 67.5t-50 47.5 q-29 12 -49 -11q-18 -18 -31 -41z" />
<glyph unicode=";" horiz-adv-x="317" d="M2 180q-7 -111 70 -174l30 -18l11 4q0 35 -4 51q-15 62 2 143q25 128 110 254q13 21 13 32t-15 28q-13 17 -29 26q-47 35 -73 -14q-62 -111 -94 -217q-15 -55 -21 -115zM115 1077q-6 -41 30 -77.5t76 -30.5q54 7 80 53.5t6 97.5q-5 12 -18 34t-19 34q5 3 18 10.5t21 13.5 q-13 38 -40.5 49t-61.5 -8q-11 -7 -25 -4q-46 0 -32 -37q0 -13 0.5 -14.5t-3 -13t-4.5 -13.5q-25 -77 -28 -94zM203 1073q2 5 7.5 18.5t8.5 20.5q4 -4 8 -4q-3 -6 -8 -18.5t-8 -18.5q-2 2 -8 2z" />
<glyph unicode="&#x3c;" horiz-adv-x="845" d="M4 727q-5 -14 6 -39q38 -90 119 -104q169 -29 342 -64q4 -1 22.5 -4t24 -4t22.5 -4t24.5 -5t21.5 -5.5t23.5 -7t21.5 -8.5t22 -11q31 -16 41 -4q4 4 5.5 8t-0.5 10t-2.5 8.5t-5.5 10t-5 8.5q0 2 -4 6q-38 62 -125 86q-28 8 -170 43q-60 15 -143 33v8q12 8 20 12 q312 189 359 218q30 18 62.5 40t72.5 50.5t61 42.5q23 15 26 29.5t-11 39.5q-9 15 -25 31q-23 26 -59 6q-2 -1 -33.5 -23t-48.5 -32q-135 -85 -430 -236q-124 -66 -205 -112q-24 -13 -29 -27z" />
<glyph unicode="=" horiz-adv-x="1040" d="M4 791q12 -63 78 -60q27 2 83 8.5t83 8.5q39 3 117.5 8t117.5 8q176 11 301 -2q18 -3 27 -5t19 -10.5t14 -23.5q2 -4 8 -10q10 -9 21 -6t12 16q0 25 -6 43q-31 83 -115 92q-50 6 -199 16q-24 -1 -154.5 -9t-197.5 -13q-32 -3 -93 -10.5t-89 -10.5q-20 -3 -26 -11.5 t-1 -28.5zM104 393q-12 -26 12.5 -56.5t53.5 -25.5l264 43q251 39 385 41q77 0 150 6q23 0 53 15q15 8 16 20t-14 21q-30 20 -59 26q-72 11 -144 15q-199 -14 -229 -17q-80 -8 -297 -39q-58 -9 -160 -28q-24 -4 -31 -21z" />
<glyph unicode="&#x3e;" horiz-adv-x="796" d="M4 162q-8 -36 10 -82t56 -74q1 -1 4 -2.5t4 -2.5t4 -2l4.5 -1.5t4 -1t4.5 0t4.5 2t4.5 3.5q11 11 -6 33q-24 31 -6 69q17 42 35 72q57 98 178 230q153 165 418 411l55 55q25 25 13 52q-21 73 -80 92l-41 12q-250 72 -344 102q-102 30 -154 70q-3 2 -12 4t-13 4 q-4 -24 -3.5 -29.5t6.5 -19.5q24 -46 61 -65q92 -50 115 -58q45 -17 129 -43.5t108 -34.5l90 -28q-32 -28 -37 -33q-20 -20 -106.5 -107.5t-140 -142.5t-105.5 -112q-70 -76 -196 -244q-46 -58 -64 -129z" />
<glyph unicode="?" horiz-adv-x="1249" d="M8 1032q20 -67 90 -92q25 -5 31 8q9 14 -8 27q-15 9 -15 35q0 81 39 178q59 148 213 282q266 228 545 238q119 4 180 -25q69 -29 54 -104q-3 -22 -15 -43q-6 -12 -32.5 -64t-42.5 -79q-22 -37 -72.5 -116t-75.5 -122q-193 -352 -367 -756q-75 -168 -102 -286 q-13 -53 -10 -105q0 -39 26.5 -71t63.5 -41q35 -9 29 24q0 3 -2 10t-2 11q-1 8 -3.5 24.5t-2.5 24t1 24.5q18 93 43 156q129 333 408 842q34 63 101 174t92 155q49 79 67 148q21 85 -33 158q-97 120 -243 135q-157 15 -314 -33q-288 -88 -499 -334q-105 -120 -140 -278 q-16 -67 -4 -105zM410 -406q4 -44 8 -65q8 -35 39 -53q32 -19 41 16q0 2 0.5 6.5t0.5 8t-1 6.5q-10 119 30 215q8 12 -4 24q-20 23 -48 18t-38 -34q-25 -62 -28 -142z" />
<glyph unicode="@" horiz-adv-x="1699" d="M20 332q45 -209 201.5 -360.5t351.5 -168.5q138 -10 234 29q141 57 254 170q13 13 24 35q10 23 0.5 37t-34.5 12q-41 -2 -84 -37q-53 -43 -95 -72q-137 -94 -264 -102q-151 -10 -248 70q-211 171 -227 458q-14 259 119 519q140 276 397 520q127 121 285 194 q192 87 371 68q119 -10 186 -94q46 -60 65 -105q65 -148 33 -331q-65 -343 -272 -617q-88 -115 -154 -164q-55 -38 -98 -49q-4 32 -4 47q-6 108 39 227q43 119 119 304q10 22 9 42t-20 37q25 37 0 89q-8 18 -26 40q-93 113 -234 113q-135 3 -274 -88q-116 -80 -225 -215 q-119 -147 -142 -322q-16 -124 23 -219q31 -71 90.5 -111t130.5 -38.5t133 45.5q69 50 98 86q24 28 51 61t59.5 74.5t49.5 63.5q5 5 14 16t13 16q-1 -5 -1.5 -11.5t-1 -10t-1.5 -6.5q-16 -90 -11 -166q2 -21 15 -64q15 -47 71 -76t99 -10q63 25 100 49q62 40 129 125 q254 312 320 719q29 166 -33 309q-101 230 -314 302q-134 45 -315 6q-213 -44 -405 -193q-272 -215 -461 -530q-76 -129 -123 -299q-60 -227 -17 -424zM428 557q19 145 123 287q135 177 274 250q95 53 193 53q62 0 95 -25t44 -78l8 -20q-5 2 -16 8.5t-16.5 8.5t-14.5 4 t-17 -1t-16 -10q2 -3 6 -10t7.5 -13.5t7.5 -11.5q-44 -64 -49 -71q-38 -51 -135 -181.5t-150 -199.5q-83 -107 -172 -170q-40 -27 -76 -41q-34 -12 -52 -3.5t-32 40.5q-29 78 -12 184z" />
<glyph unicode="A" horiz-adv-x="1112" d="M-61 244q0 -25 29.5 -41t51.5 -4l97 51q2 -10 2 -17q-1 -12 -16.5 -132.5t-20.5 -182.5q-2 -27 -2 -56q0 -48 6 -100q3 -28 23 -38.5t49 -2.5q11 178 12 185q12 178 47 356q6 29 31 37q205 71 344 80q19 2 37 2q86 0 157 -39v-41q-2 -32 -7 -98t-7 -101 q-12 -250 -12 -254q-2 -57 -2 -172q0 -39 28 -47q24 -8 40.5 -7.5t25.5 7.5v74q0 49 6 102l33 310q37 338 43 389q34 259 102 573q49 216 70 355q5 27 5 55q0 33 -7 69q-13 58 -62 83q-26 13 -54 13q-25 0 -52 -10q-34 -13 -47 -22q-113 -61 -205 -147q-171 -161 -315 -435 q-130 -251 -213 -612q-9 -59 -19 -70q-6 -8 -17 -13.5t-27 -10.5t-23 -8q-87 -43 -111 -56q-8 -3 -14 -10.5t-6 -13.5zM248 387v23q87 365 211 602q109 204 246 352q112 115 227 178q15 8 88 37q-1 -9 -1 -19.5t-0.5 -18t-2.5 -13.5q-7 -29 -21 -95.5t-25.5 -115.5 t-23.5 -94q-96 -405 -121 -572q-6 -46 -17 -132.5t-17 -127.5h-7q-91 54 -211 54q-58 0 -124 -13q-15 -2 -183 -41q-2 -1 -8.5 -2t-9.5 -2z" />
<glyph unicode="B" horiz-adv-x="1308" d="M-57 -182q-4 -28 -4 -54q-1 -52 17 -92q26 -60 105 -100q51 -24 80 -33q13 -3 119 -24q14 -54 19 -68q1 -3 4 -15.5t5 -18t9.5 -13t19.5 -10.5q12 24 13.5 68.5t3.5 54.5q16 3 48 7t56 8t45 9q388 105 607 445q110 169 110 348v18q-9 280 -262 414q-82 45 -207 59 q-3 0 -35 4q14 12 25 19l139 90q171 114 246 196q72 76 104 148q17 38 17 74q0 60 -47 114q-56 65 -142 90q-70 21 -140 21q-64 0 -128 -18q-300 -81 -508 -318q-62 -68 -90 -143q-8 -23 -8 -46t8 -46q18 -45 61 -68q1 -1 27 -6q-1 4 -1 8.5t-0.5 7t-2.5 4.5 q-13 17 -14.5 37t2.5 34.5t14 35.5q30 65 92 133q136 147 346 240q135 62 257 62q14 0 28 -1q76 -3 135 -35q35 -20 35 -52q0 -8 -2 -17q-17 -53 -41 -86q-47 -64 -94 -101q-62 -52 -143 -110t-130.5 -91t-150.5 -98q-3 -3 -17 -6q4 14 23.5 79t25.5 85.5t23.5 74.5t28.5 84 t28.5 72t34.5 78q-2 4 -2 6q-15 35 -43 37q-21 0 -35 -37q-57 -126 -65 -153q-39 -121 -113 -367q-11 -32 -30 -41l-82 -39q-19 -7 -21.5 -15.5t6.5 -25.5q5 -10 19 -24q16 -14 57 -47q-41 -187 -63 -269q-1 -6 -21 -26q-9 -7 -31 -24.5t-37.5 -30.5t-29.5 -27 q-149 -149 -262 -355q-32 -56 -41 -114zM39 -281q-2 16 -1 31q0 66 30 127q108 204 249 354q1 0 2.5 1t4.5 2.5t6 3.5q-43 -260 -51 -320q-22 -147 -22 -275q0 -25 1 -49q-4 0 -13 -1.5t-14 -0.5q-54 3 -90 11q-96 18 -102 116zM331 -327.5q0 18.5 1 34.5q14 227 90 590 q6 26 33.5 40.5t54.5 6.5q19 -6 37 -14q0 31 -17.5 45.5t-80.5 36.5q11 54 20 86q8 35 25.5 104.5t25.5 104.5q9 30 37 36q69 12 133 12q96 0 182 -26q122 -36 179.5 -110.5t60.5 -208.5v-16q0 -155 -92 -316q-209 -356 -627 -471q-8 -2 -24.5 -5t-24.5 -5q-8 0 -12 2 q0 12 -0.5 33.5t-0.5 40z" />
<glyph unicode="C" horiz-adv-x="1073" d="M0 240q10 -163 14 -191q18 -156 103 -299q60 -89 123 -119q87 -40 165 -40q101 0 189 65q77 54 131 117q91 107 199 254q97 133 163 276q16 36 16 59q0 5 -1 9q-5 49 -38 19q-20 -20 -40 -60q-26 -50 -56 -98.5t-73.5 -107t-67 -89t-82 -102.5t-71.5 -89 q-73 -89 -164 -145q-52 -32 -94 -45q-23 -6 -43 -6q-54 0 -88 45q-49 64 -68 106q-70 146 -70 361q0 70 13 252q26 302 164 600q88 188 206 311q95 98 191 123q31 8 58 8q101 0 147 -108q6 -18 8 -21q10 -17 31 -25t36 -2q17 10 17 36q0 10 -2 22q-4 8 -4 14q-14 39 -51 72 q-86 80 -199 110q-45 12 -87 12q-86 0 -165 -48q-79 -49 -137 -119q-146 -174 -226 -387q-147 -396 -147 -770z" />
<glyph unicode="D" horiz-adv-x="1269" d="M-59 -317q-2 -11 -2 -21q0 -54 55 -90q57 -35 121 -35h10q77 5 166 47q172 78 332 232q321 300 540 702q90 166 133 305q34 112 35 214q0 40 -6 79q-40 283 -301 418q-125 66 -269 66q-73 0 -151 -17q-9 -2 -29 -1t-28 -1q-9 -3 -24 -16.5t-25 -16.5q-9 -2 -68 -28 q-143 -68 -221 -150q-21 -19 -43 -61q-5 -11 -5 -22q0 -22 21 -46q28 -36 68 -36q7 0 14 1q-16 24 -28 45q20 41 95.5 96t135.5 74q-1 -5 -3 -12.5t-3.5 -13t-3.5 -9.5q-40 -132 -47 -159q-97 -353 -154 -697q-10 -55 -45 -346q-3 -39 -23 -59q-139 -154 -225 -358 q-15 -34 -22 -84zM51 -315q28 76 39 98q27 52 103 184q3 7 18 25q2 -9 8 -35t9 -37t11 -32t16 -32.5t22 -25.5t32 -23q7 15 7 33q0 15 -5 33q-22 75 -22 188q0 35 20 50q78 62 86 67q34 22 75 22q20 0 42 -5q6 -2 43 -7q-1 9 0.5 12t-3 8.5t-5 6.5t-6 5.5t-6.5 4.5 q-55 37 -113 37q-40 0 -82 -18q-7 -2 -18 -8t-15 -7h-8l12 109q42 285 156 749q37 144 111 359q8 30 40 41q101 29 192 29q82 0 157 -23q118 -35 191 -122.5t87 -209.5q4 -31 4 -62q0 -129 -59 -278q-87 -216 -256 -461q-208 -306 -461 -520q-164 -137 -319 -198 q-20 -8 -88 -25q-4 -2 -13 2q-7 15 -7 34q0 15 5 32z" />
<glyph unicode="E" horiz-adv-x="1253" d="M-57 -47q13 -149 133 -205q64 -28 129 -31q27 -1 54 -1q178 0 366 51q165 45 274 124q76 55 123 142q20 44 20 77q0 11 -2 21q-5 21 -14 21q-6 2 -15 -1.5t-12 -9.5q-42 -47 -51 -65q-78 -137 -237 -205q-221 -98 -510 -98q-60 0 -97 53q-27 41 -36 96q-5 27 -5 62 q0 48 9 110q20 135 90 357q9 27 37 38q34 14 119.5 52.5t132.5 56.5q93 36 147 54q56 18 138 34q70 14 132 14h23q4 0 37 11q-27 37 -78 45q-26 6 -59 5q-55 0 -129 -16q-166 -39 -412 -139q-12 -6 -33 -12q2 4 3.5 10t2.5 8q180 436 471 889q14 20 35 29q50 16 107 39 q247 85 419 112q22 6 48 6q11 1 23 -1q40 -4 69 -27l22 -4q-12 33 -14 35q-38 52 -86 57q-47 5 -77 6q-15 0 -26 -2q-111 -19 -217 -45q-57 -14 -241 -70q-4 2 -13 11q-22 17 -34.5 16t-32.5 -21q-29 -29 -31 -32q-13 -20 -41 -31q-62 -22 -110 -47q-31 -12 -72 -41 q-24 -16 -12 -41q21 -44 55 -49q15 17 21.5 21.5t29.5 11.5l-27 -41q-269 -415 -428 -842q-11 -36 -43 -55q-23 -12 -24.5 -24t16.5 -34q2 -4 6 -8l-51 -199q-26 -116 -26 -211q0 -35 4 -67z" />
<glyph unicode="F" horiz-adv-x="942" d="M-55 -383q13 -66 61 -98q4 -2 8.5 -3.5t12.5 -4.5t14 -5q-2 26 -6 52q0 7 -4.5 41.5t-3.5 52.5q7 107 20 190q51 299 182 787q9 30 35 39q32 10 128.5 43.5t150.5 50.5q139 40 246 40q12 0 24 -1q74 -3 115 -47q1 -1 4.5 -5t5 -5.5t6 -4.5t7.5 -1.5t10 1.5q-5 32 -7 37 q-35 80 -118 101q-36 9 -88 9q-38 0 -84 -5q-113 -14 -283 -64q-10 -3 -47 -15t-58 -18l7 27l36 129q90 294 177 492q13 29 39 34q63 10 186.5 34t185.5 34q111 16 214 16h32q115 -7 168 -63q1 -2 31 -23l-4 35q-23 89 -119 121q-51 17 -136 16h-36q-136 -4 -416 -55 q-11 -2 -38 -7t-44 -7q12 34 6 51t-28 39q-29 26 -48 -6q-18 -28 -57 -95q-11 -22 -37 -28q-24 -5 -112 -29q-20 -7 -88 -35q-21 -10 -21 -30q-1 -20 11.5 -39.5t31.5 -28.5q16 12 36 20.5t35 13t40.5 11t38.5 10.5q-43 -103 -60 -157q-77 -249 -147 -498q-7 -28 -37 -41 q-31 -13 -82 -43q-31 -17 -25 -49q9 -58 54 -84q6 -4 22 -4q0 27 2.5 32.5t14.5 10.5v-6l-13 -56q-1 -6 -16.5 -69.5t-18 -74.5t-16 -68.5t-17.5 -75t-15 -68.5t-15.5 -75t-13.5 -68.5t-14 -75.5t-10.5 -69.5t-10.5 -74.5q-9 -73 -9 -124q0 -39 5 -66z" />
<glyph unicode="G" horiz-adv-x="1024" d="M-57 238q17 -156 80 -269q58 -104 151 -153q63 -33 125 -33q60 0 119 31q79 41 162 135q16 20 24 28q3 -13 0 -22q-67 -289 -84 -459q-3 -50 -3 -108q0 -34 1 -72q3 -71 66 -102q8 -3 39 -11q-2 17 -9 27q-20 34 -20 80v12q8 133 18 193q26 181 103 479q4 16 20 77t22 83 t21 74t24.5 82t23.5 73.5t28.5 80.5t30.5 73q8 21 26.5 63t26.5 64q10 28 8 36q-4 32 -36 53q-24 16 -49 16q-8 0 -15 -1q-96 -17 -101 -18l-188 -29q-24 -4 -102 -23q-31 -9 -15 -34q16 -32 53 -32q6 0 13 1q20 3 63.5 10t67.5 10v-20q0 -133 -2 -199q-5 -134 -8 -160 q-19 -149 -138 -284q-87 -94 -172 -127q-37 -14 -70 -14q-78 0 -130 79q-39 58 -62 142q-25 94 -25 196q0 98 23 203q106 494 484 854q83 83 186 139q130 66 239 66h15q71 -3 104 -49q-6 -6 -12 -15q-151 -181 -188 -385q-3 -19 -3 -38q0 -32 9 -64q5 -25 24 -27 q25 18 37 78q35 163 144 320q14 22 30 32q24 20 24 51q0 6 -1 13q-11 63 -64.5 115t-117.5 61q-25 4 -50 4q-53 0 -110 -16q-141 -37 -277 -146q-321 -257 -493 -676q-94 -234 -94 -453q0 -48 4 -95zM723 444v179q0 13 15 28.5t30 18.5q12 2 41 2q-59 -170 -80 -228h-6z" />
<glyph unicode="H" horiz-adv-x="1366" d="M-61 164q26 31 38 39q170 123 205 145q80 52 203 119q29 15 35 49q91 546 231 901q9 22 97 209q12 24 25 27t36 -11q15 -9 27 -18q14 -14 14 -33q0 -13 -6 -28q-66 -159 -107 -275q-100 -281 -176 -653q-3 -16 -9 -46t-7 -38l149 67q4 1 19 21q421 752 485 866 q10 18 19 37t20 46t16 38q12 27 27 51q12 21 35 11q39 -19 33 -41l-7 -19q-135 -365 -215 -813q-3 -17 -8.5 -47.5t-7.5 -44.5q41 -3 68 -8q137 -16 221 -113q28 -32 28 -65l-6 -7l-26 21l-56 55q-44 41 -110 51q-18 2 -38.5 2t-47 -1t-41.5 -1q-14 -94 -17 -120 q-36 -275 -55 -463q-21 -190 -31 -330q-15 -174 -24 -336q-3 -46 -3 -100q0 -32 1 -68q0 -8 14 -71q-18 -14 -39 -14q-11 -1 -23 3q-34 12 -40 47q-11 54 -11 123q8 171 25 406q10 141 31 344q7 70 22.5 203.5t22.5 197.5q12 90 16 135v25q-48 -11 -51 -12l-180 -62 q-30 -10 -45 -41q-148 -294 -262 -626q-17 -50 -33 -88q-10 -30 -37 -27q-42 6 -47 37q-2 16 2 49q9 82 28.5 245.5t28.5 245.5v23l-24 -12q-32 -20 -295 -189q-9 -6 -25.5 -20.5t-25.5 -20.5q-17 -12 -33 -12q-28 0 -53 35zM469 143q0 -2 4 -2q26 58 170 373 q-76 -37 -88 -41q-31 -14 -37 -51q-5 -28 -16.5 -90.5t-16.5 -95.5q-12 -62 -16 -93zM791 657q29 7 101.5 27.5t113.5 30.5q34 254 106 516q-40 -52 -179.5 -302t-141.5 -272z" />
<glyph unicode="I" horiz-adv-x="524" d="M-61 -614q-4 -25 30 -50q16 -13 39 0q97 56 176 95q180 84 297 100q25 4 47 4q108 0 158 -86l12 -18l17 -6q17 19 4 45q-28 46 -47 65q-71 78 -189 78q-26 0 -55 -4q-15 -3 -31 -6.5t-36.5 -8.5t-32.5 -8q-42 63 -56 131q-23 83 -22 199q0 52 4 111q13 184 63 440 q83 397 205 774q19 59 61 168t52 137q13 39 55 39h6h78q104 -4 162 -49q5 -4 18 -9.5t21 -10.5l-8 32q-21 50 -72 78q-54 28 -123 31q-25 1 -52 1q-156 0 -355 -40q-65 -15 -129 -33q-25 -4 -25 -24q0 -28 16.5 -42t42.5 -8q84 23 158 37q13 3 27.5 5.5t32 6t28.5 5.5 q-8 -24 -26 -74t-27 -76q-195 -636 -266 -1079q-34 -220 -34 -383q0 -51 3 -96q10 -131 57 -217q11 -24 45 -72q-170 -80 -190 -90q-10 -5 -117 -68q-20 -15 -22 -24z" />
<glyph unicode="J" horiz-adv-x="1402" d="M-51 -971q18 -88 79 -133q52 -38 135 -38q13 0 27 1q78 6 146 58q91 64 135 108q154 149 297 373q404 651 578 1360q57 223 57 427q0 56 -4 111q-10 143 -66 242q-78 135 -213 158q-34 6 -69 6q-53 0 -109 -14q-243 -59 -461 -224q-115 -86 -196 -198q-55 -80 -70 -146 q-4 -18 -4 -34q0 -30 12 -52q38 -74 117 -102q5 -1 18 -2t19 -2q-7 22 -8 22q-14 12 -37 27q-41 23 -41 65q0 10 2 21q13 43 20 59q32 69 107 154q184 195 448 301q127 53 234 53q82 0 125.5 -33t66.5 -112q23 -82 23 -191v-26q0 -150 -39 -342q-5 -23 -16.5 -72t-16.5 -76 q-48 22 -80 22h-1q-33 -1 -77 -26q-70 -39 -126 -84q-101 -79 -222 -211q-324 -354 -639 -846q-108 -168 -147 -354q-14 -73 -14 -140q0 -57 10 -110zM57 -754q32 162 131 328q323 523 686 913q130 141 238 207q35 19 82 39q6 2 19.5 2.5t17.5 1.5l-8 -43 q-216 -699 -547 -1220q-159 -252 -309 -400q-83 -80 -152 -121q-10 -5 -72 -30q-24 -9 -41 12q-5 8 -14.5 23t-16 27t-10.5 24q-16 50 -16 114q0 56 12 123z" />
<glyph unicode="K" horiz-adv-x="1611" d="M-55 913q-6 -29 -6 -58q0 -40 12 -81q15 -53 63 -53q0 1 2 3t2 3q-1 3 -2 10.5t-2 10.5q-3 21 -3 42q0 42 12 84q31 99 83 183q164 268 420 442q15 11 35 22t32 17t39.5 18.5t35.5 16.5q29 14 74 14h16q59 -3 73 -55q14 -59 17 -78q1 -21 1 -44q0 -86 -20 -206 q-57 -336 -192 -704q-7 -23 -33 -49q-285 -268 -461 -543q-119 -187 -163 -361q-15 -66 -15 -118q0 -27 4 -50q6 -34 37.5 -58.5t67.5 -26.5h6q32 0 59 18q44 36 60 55q80 115 108 166q200 359 385 842q6 18 18.5 35t22 26t30.5 27l28 24l14 -28q118 -231 149 -285 q164 -279 369 -455q188 -160 391 -202q58 -12 109 -12q16 0 32 1q46 4 64 31q-5 2 -20 8.5t-23 8.5q-32 7 -82 14q-158 25 -244 86q-86 59 -114 86q-322 291 -510 756q-6 16 -15 46.5t-12 39.5q83 64 234 181t192 148q20 16 101.5 79.5t116.5 90.5t98 73t116 81 q-16 52 -50 52q-18 0 -42 -15q-38 -23 -96 -66q-124 -93 -371 -280.5t-371 -280.5q-2 -1 -9 -6.5t-9.5 -6.5t-11 -4t-13.5 1l7 30q56 172 102 400q31 182 31 284q0 119 -39 193q-67 124 -182 123q-37 0 -78 -12q-76 -24 -146 -72q-295 -191 -473 -506q-45 -81 -61 -156z M56 -584.5q0 25.5 2 39.5t8 43q24 119 100 258q110 201 307 422l43 47l12 8q-2 -4 -4 -12.5t-4 -11.5q-172 -399 -321 -655q-19 -32 -90 -136q-5 -7 -12.5 -15t-17.5 -18.5t-16 -17.5q-7 23 -7 48.5z" />
<glyph unicode="L" horiz-adv-x="1185" d="M45 -260q-21 -14 -21 -30t23 -34q29 -22 63 -22q23 0 50 10q8 4 24 14t29 15t27 2t82 -33l10 -4q400 -177 712 -254q199 -51 348 -51q40 0 76 4q84 10 144 43q53 29 67 65q4 22 0 31q-7 12 -30 4q-20 -8 -60 -23.5t-59 -23.5q-73 -30 -154 -33q-14 -1 -28 -1 q-125 0 -289 40q-329 80 -748 269q-2 1 -16 10q11 11 30 29.5t34 33t28 29.5q88 98 180 274q133 258 283 684q135 398 172 502q65 185 145 305q48 66 88 101q49 42 102 42h17q62 -8 107 -67q38 -51 55 -129q11 -48 11 -91q0 -22 -3 -42q-1 -5 -1 -10q0 -45 50 -51q1 11 5 43 t4 51q-3 171 -125 299q-34 34 -86 61q-40 20 -78 19q-51 0 -96 -35q-56 -45 -78 -76q-56 -74 -105 -160q-72 -136 -155 -370q-18 -50 -59 -167t-64.5 -182.5t-61 -161.5t-71.5 -175q-126 -292 -234 -459q-105 -164 -219 -242q-22 -13 -51 -20q-31 -7 -74 -33z" />
<glyph unicode="M" horiz-adv-x="2084" d="M-53 248q8 -39 22 -58q34 -42 71 -42h4q38 2 69 47l116 194q14 23 58 95t62 102t57 92t64.5 101t60 90t67.5 96q186 258 379 419l24 19q-8 -38 -53 -184q-125 -370 -192 -644q-41 -181 -47 -268q-3 -39 10 -60.5t49 -39.5q24 -11 40.5 -8.5t31.5 22.5q9 12 69 98 q115 173 172.5 259t156.5 225.5t185 249.5q182 235 310 366l28 25q3 -18 0 -33q-5 -22 -39 -163t-53 -216q-9 -32 -90.5 -336t-120.5 -463q-108 -424 -121 -684q-2 -27 -2 -56q0 -48 6 -99q5 -56 61 -76q21 -8 41 -8q31 0 56 20l37 33q63 65 129 178l252 449 q175 313 188 338q17 38 21 59q0 23 -12 29q-6 4 -16 2.5t-15 -6.5q-24 -19 -45 -50q-8 -13 -215 -385q-108 -192 -260 -450q-13 -22 -29 -43t-44 -53.5t-34 -40.5q-11 -11 -26 -21q0 11 -1 28t-1 30t2 24q4 22 15.5 93.5t21 119t20.5 92.5q75 324 254 946q100 345 139 576 q17 90 17 152q0 24 -3 45q-11 71 -84 118q-18 11 -36 11q-21 0 -41 -15q-33 -23 -56 -49q-128 -142 -184 -215q-270 -340 -584 -799q-16 -20 -22 -30q-2 0 -4.5 1t-3.5 1q37 118 112 372q16 51 59 188.5t66 213.5q27 98 27 148v7q-2 70 -84 115q-15 9 -32 9q-34 0 -73 -35 q-5 -5 -6 -5q-244 -204 -452 -507q-149 -217 -416 -646q-4 -7 -13 -19.5t-10 -14.5l-6 4q14 78 27 137q86 385 262 790q13 31 29.5 65.5t37 76t31.5 65.5q15 30 11 41q-8 47 -66 66q-9 7 -19.5 2t-14 -8t-11 -13.5t-10.5 -13.5l-9 -12q-68 -103 -124 -234 q-188 -423 -246 -835q-9 -73 -9 -127q0 -47 7 -80z" />
<glyph unicode="N" horiz-adv-x="1310" d="M-61 348q0 -19 4 -65q0 -37 34 -54q22 -8 48 -12q8 -2 15 -2q31 0 46 33q5 12 16.5 36.5t16.5 37.5q19 43 56.5 131t68 156.5t59.5 129.5q173 368 422 650q116 133 221 206q5 4 17.5 11t19.5 12q0 -7 0.5 -15.5t0.5 -14t-1 -9.5q-14 -115 -20 -143q-23 -116 -70 -350 t-70 -351q-50 -262 -59 -520q-2 -70 -2 -137q0 -200 22 -363q13 -100 45 -186q20 -49 79 -58q9 -1 18 -1q46 0 73 41q31 46 45 83q31 77 130 332q7 17 39 103.5t45.5 120.5t41 96t54.5 110q11 19 14 35q2 8 2.5 24.5t1.5 22.5q-33 -8 -37 -12q-53 -49 -67 -68 q-30 -46 -51 -96q-49 -112 -127 -315q-21 -53 -63 -161t-64 -161q-5 -12 -17 -35t-14 -26h-10q-2 21 -9 73.5t-8 81.5q-5 108 -5 215q0 215 20 431q19 176 79 503l99 525q12 69 12 143v29q-1 39 -24.5 72t-55.5 49q-31 16 -67 16h-5q-38 -1 -69 -23q-60 -44 -78 -61 q-251 -218 -453 -549q-133 -217 -274 -534l-16 -31q-2 8 -2 14q31 326 38 383q43 369 164 623q11 21 -8 37q-23 19 -42 19q-22 0 -40 -24q-37 -43 -57 -88q-63 -128 -101 -301q-81 -384 -81 -819z" />
<glyph unicode="O" horiz-adv-x="1611" d="M-37 950q44 -171 162 -270q6 -5 51 -39q0 -8 -2 -10l-12 -41q-58 -176 -58 -326q0 -51 7 -98q12 -95 51.5 -172t93.5 -125.5t122 -80t137 -42.5q47 -8 95 -8l43 2q144 9 281 96q342 215 506 541q112 225 112 444q0 264 -163 520q-176 279 -517 412q-159 62 -315 61 q-71 0 -141 -12q-244 -45 -363 -241q-115 -193 -115 -407q0 -100 25 -204zM41 1010q-9 58 -9 114q0 182 91 351q130 242 412 264q39 3 78 3q365 0 628 -310q206 -248 206 -577q0 -27 -1 -54q-12 -233 -129 -432q-162 -273 -408 -445q-132 -94 -262 -121q-37 -7 -73 -8 q-66 1 -122 27q-88 40 -147 123q-65 95 -74 221q-3 34 -3 68q0 168 69 350q0 1 6 10l62 -12q135 -27 257 -27q112 0 214 23q101 24 170 67q80 52 118 129q16 32 16 61q0 16 -5 31q-4 17 -15.5 19.5t-23.5 -11.5q-25 -25 -39 -53q-68 -125 -221 -174q-116 -36 -247 -36 q-57 0 -116 7q-20 2 -117 17q-30 6 -37 8q31 77 72 137q67 108 156 166q55 33 83 36q22 1 42 -5q1 0 4.5 2t5.5 2q6 20 -20 37q-39 28 -89 28q-24 0 -49 -6q-92 -24 -174 -106q-65 -68 -127 -191q-4 -7 -24 -53q-38 38 -54 58q-81 104 -104 262z" />
<glyph unicode="P" horiz-adv-x="1581" d="M-56.5 1334q10.5 -30 40.5 -48q23 -11 34 0q-12 34 -9 49t28 43q29 33 63 60q256 200 570 286q175 49 327 49q82 0 158 -14q59 -9 117 -30q155 -52 227 -222q59 -149 59 -301q0 -132 -45 -266q-126 -389 -448 -676q-177 -153 -383 -221q-84 -26 -144 -26q-10 0 -20 1 q-18 2 -24.5 7t-6.5 22q0 41 11 66q58 146 80 188q122 239 282 391q51 48 119 94q88 60 200 60h11q4 0 14.5 -0.5t16 0t14 1t16 3t15.5 6.5q-3 3 -7.5 8t-7.5 8t-6 5q-52 23 -65 26q-38 9 -75 9l-177 -48q-100 -51 -197 -155q-94 -100 -182 -242q-3 -5 -11.5 -16t-11.5 -17 q-4 10 -4 29q10 48 43 209t53 248q55 254 156 583q10 34 3 52.5t-36 35.5q-26 16 -40.5 11.5t-24.5 -33.5q-2 -6 -27 -78t-35 -109q-190 -710 -243 -1257q-11 -104 -11 -197q0 -74 7 -139q10 -114 49 -199q28 -66 84 -108q6 -4 30 -14q1 1 4.5 2t4.5 2q-9 45 -13 57 q-4 14 -15 40.5t-15 39.5q-36 111 -36 286q0 29 1 60q0 2 4 14l12 -4q53 -30 131 -30q27 0 58 4q125 19 254 92q504 286 684 860q39 124 39 247q0 193 -95 386q-111 230 -360 295q-112 28 -233 28q-103 0 -212 -20q-320 -55 -596 -246q-68 -45 -149 -119q-35 -32 -51 -67 q-14 -31 -3.5 -61z" />
<glyph unicode="Q" horiz-adv-x="1531" d="M-51 -188q29 -125 160 -174q80 -27 180 -27q226 6 420 123q42 28 57 37q17 -17 20 -21l113 -106q184 -170 387 -258q117 -51 227 -56h18q158 0 284 103q65 52 65 141v8q-3 41 -44 65q-23 13 -45 13q-17 0 -34 -8q-12 -6 -13 -12.5t7 -18.5q14 -23 12 -31q0 -82 -53 -125 q-95 -78 -199 -78q-61 0 -125 27q-76 31 -165 86q-97 59 -184.5 137.5t-186.5 184.5q-1 1 -2 4t-2 4q112 107 133 129q277 302 418 703q83 240 83 451q0 49 -5 97q-16 184 -107 316q-106 153 -276 200q-50 13 -102 13q-92 0 -191 -41q-388 -162 -592 -535 q-110 -197 -110 -410q0 -90 20 -184q22 -117 78 -207q42 -66 90 -98q12 -8 19 -11.5t18 -3t22 8.5q-6 10 -25.5 40.5t-27.5 47.5q-96 196 -96 387q0 175 81 346q127 275 410 461q159 102 295 125q30 5 59 5q132 0 211 -109q68 -90 88 -191q24 -99 24 -208q0 -100 -20 -208 q-32 -181 -114 -376q-135 -318 -348 -551q-25 -30 -119 -119q-20 28 -29 35q-155 140 -188 168q-102 82 -219 108q-41 10 -80 10q-125 0 -232 -100q-41 -39 -61 -106q-14 -54 -14 -112q0 -48 10 -99zM76 27q52 120 211 137q18 3 47 -10q40 -17 65 -35q126 -91 291 -266 q-231 -169 -467 -169q-20 0 -41 1q-67 3 -94 61q-38 78 -38 154q0 64 26 127z" />
<glyph unicode="R" horiz-adv-x="1605" d="M-57 1112q-4 -19 -4 -37q1 -37 17 -69q24 -48 77 -68q27 -12 41 6q-3 2 -12.5 12t-16.5 13q-29 19 -29 51q0 52 4 65q9 35 35 89q71 140 203 262q273 256 664 381q198 65 368 65q59 0 115 -8q153 -19 260 -100q176 -131 176 -342q0 -32 -4 -66q-13 -98 -92 -209 q-92 -129 -256 -252q-304 -232 -674 -440q-178 -98 -307 -143q-16 -7 -31 -9q0 17 2 25q49 253 135 569q91 347 199 590q9 18 -4 31q-15 15 -33 26q-31 18 -48 14t-34 -34q-4 -7 -24 -47q-49 -121 -66 -170q-55 -153 -145 -522q-123 -499 -142 -842q-2 -39 -2 -76 q0 -80 9 -149q10 -81 38 -144q40 -81 111 -119q31 -13 54 -13q12 0 22 3l-37 45q-51 51 -68 115q-21 63 -24 152q-1 22 -1 44q0 168 34 367l8 35l16 -41q58 -130 131 -217q145 -172 307 -293q147 -111 295 -164q108 -37 208 -37q106 0 204 41q114 50 170 127q25 34 25 66 q0 8 -2 16q-20 11 -46 -10q-66 -56 -114 -94q-114 -90 -235 -90q-59 0 -120 22q-84 31 -145 66q-268 151 -473 428q-56 78 -107 209q4 1 9 3t8.5 3.5t7.5 3.5q189 77 199 82q273 130 651 385q132 89 236 184q140 130 208 258q60 107 59 208q0 16 -1 32q-21 215 -187 358 q-122 109 -278 156q-114 35 -241 35q-107 0 -224 -25q-400 -85 -729 -342q-178 -141 -277 -295q-58 -96 -73 -176z" />
<glyph unicode="S" horiz-adv-x="1185" d="M-139 -422q2 -103 67.5 -192.5t168.5 -123.5q42 -14 88 -15q67 0 141 30q249 111 348 367q56 141 56 318q0 70 -9 147q-14 126 -64 319q-1 4 -2 13.5t-2 13.5q146 71 296 71h24q103 -4 268 -55q6 -1 17.5 -4t17.5 -4v7.5t-2 6.5t-3 5.5t-4.5 5t-5 3.5t-5.5 3.5t-5 3.5 q-156 105 -348 105q-63 0 -131 -11q-27 -6 -77.5 -21t-69.5 -20l-7 22q-40 129 -75 258q-39 146 -47 203q-6 42 -6 81q0 160 104 278q157 177 383 229q72 18 140 18q82 0 159 -26q118 -38 174 -140q36 -66 36 -138q0 -40 -11 -83q-14 -59 -68 -131q-9 -15 -8.5 -23t12.5 -20 q23 -26 53 4q83 83 88 177q1 15 1 30q0 218 -195 355q-123 84 -288 84q-41 0 -85 -5q-274 -29 -471 -245q-117 -135 -117 -298v-16q4 -105 21 -176q13 -53 29.5 -112.5t37 -131.5t31.5 -114q11 -44 31 -113q-19 -13 -61.5 -40.5t-72 -48.5t-55.5 -42q-297 -245 -471 -651 q-26 -64 -26 -142v-16zM-23 -344q44 121 119 246q139 235 314 393q74 65 163 119q53 -226 53 -399q0 -67 -8 -126q-48 -351 -342 -507q-66 -35 -135 -44q-14 -2 -26 -2q-35 0 -61 14q-34 18 -60 64q-36 65 -36 136q0 52 19 106z" />
<glyph unicode="T" horiz-adv-x="808" d="M70 1493q-3 -20 23 -39t46 -12q36 16 56 22q425 131 454 140q11 3 150 36l-11 -26q-106 -204 -163 -377q-55 -147 -125 -276q-26 -50 -82 -152t-82 -152q-27 -49 -37 -73q-9 -23 20 -39q22 -10 35 12q18 30 54 92.5t55 93.5q7 14 16 23q2 -5 2 -27q-119 -505 -180 -925 q-17 -132 -17 -212q0 -16 1 -30q0 -37 8 -64q6 -23 33 -39.5t51 -13.5q14 2 19.5 10.5t-3.5 16.5q-24 20 -24 57q0 10 2 21q18 226 30 299q50 290 111 571q72 352 147 590q4 13 21 63.5t24 72t21.5 60.5t28 70.5t28.5 61.5l105 215q9 19 12 31.5t-1 29t-19 31.5q12 6 20 6 q24 4 71 13.5t70 13.5q166 23 286 23q29 0 56 -1q58 -3 101 -14q55 -14 112 -82q2 -2 4.5 -6t4.5 -6.5t5 -5t6.5 -4t8.5 -1.5q9 26 -10 56q-55 104 -172 135q-69 17 -159 17q-58 0 -124 -7q-139 -14 -309 -47q-332 -66 -696 -197q-31 -11 -68 -30q-16 -8 -16 -25z" />
<glyph unicode="U" horiz-adv-x="1228" d="M14 328q19 -100 52 -154q19 -35 52 -57q34 -21 78 -25q5 0 10 -1q39 0 79 24l55 37q142 108 276 258q79 89 222 253.5t176 202.5q20 25 28 33q3 0 7 -4l-19 -39q-170 -357 -262 -690q-70 -249 -100 -445q-6 -55 -9 -108q0 -43 35 -57q29 -16 50.5 -11t39.5 35 q97 163 138 291q1 4 12 66q0 13 -10 16q-3 1 -9 -1t-8 -5q-33 -42 -45 -64q-15 -25 -30 -54.5t-33 -65t-29 -56.5l-20 -33q7 90 41.5 236t76.5 274q172 532 486 1069q14 23 63 90q10 14 32 41.5t32 42.5q10 13 10 29q-1 14 -20 33t-35 24q-7 4 -15.5 0t-11.5 -6.5t-9.5 -10 t-8.5 -9.5q-57 -80 -76 -103q-95 -117 -490 -596q-205 -242 -381 -413q-4 -4 -22.5 -21t-23.5 -21.5t-21.5 -20t-24 -21.5t-22.5 -19t-25 -21t-23 -18.5t-25.5 -19.5t-25.5 -18q-32 -22 -71 -41q-27 29 -39 86q-23 87 -23 188q0 92 19 195q52 296 202 604q82 167 160 262 q12 15 17.5 21t19 14t27.5 8q-6 46 -54 67q-7 3 -15 3q-21 0 -44 -23q-22 -17 -31 -29q-77 -101 -96 -131q-200 -320 -276 -688q-27 -132 -27 -247q0 -82 14 -156z" />
<glyph unicode="V" horiz-adv-x="1017" d="M84 389q0 -106 10 -239q4 -70 37 -108.5t98 -53.5q16 -4 50 -4q79 0 165 65q100 76 195 217q223 346 375 645q185 364 264 650q46 165 46 294q0 49 -7 93q-28 187 -182 276q-25 15 -41 6q8 -10 24 -26q115 -121 115 -285v-10q0 -124 -45 -293q-77 -272 -254 -617 q-178 -350 -416 -698q-76 -107 -164 -178q-66 -55 -118 -68q-1 5 -5 16.5t-4 18.5q-6 47 -6 94q0 33 2 97.5t2 97.5q0 107 -1 318.5t-1 318.5q0 142 4 424q0 33 -6 63q-4 23 -26.5 43t-44.5 23q-15 3 -21.5 -2t-9.5 -19q-2 -4 -2 -16q-22 -374 -23 -414q-6 -246 -10 -729z " />
<glyph unicode="W" horiz-adv-x="1839" d="M6 129q8 -47 23 -66q33 -45 97 -59q20 -4 39 -4q40 0 71 20q51 30 79 70q107 128 150 197q128 203 360 587q27 42 95 158q2 -2 6 -2l-2 -14q-49 -253 -49 -480q0 -101 10 -196q14 -135 63 -223q94 -174 289 -195q14 -1 28 -1q118 0 208 106q96 116 161 317 q86 273 129 588q34 244 34 445q0 93 -7 177q-13 151 -61 271q-42 104 -142 166q-42 25 -104 32q-10 1 -20 0q-113 0 -222 -81q-76 -57 -96 -138q-6 -24 -6 -26q0 -14 10 -17q5 -2 18 2q3 2 7.5 7.5t7.5 7.5q82 71 137 112q72 54 162 66q12 1 22 1q80 0 115 -65 q23 -44 31 -67q45 -121 49 -324q1 -29 1 -59q0 -155 -22 -336q-36 -301 -112 -571q-72 -244 -179 -392q-37 -53 -100 -112q-41 -36 -73 -35h-1q-32 0 -75 37q-72 64 -105 176q-22 82 -26 199q-2 47 -2 94q0 301 67 598q24 107 111 346q12 34 6 51.5t-37 36.5 q-20 11 -30 12.5t-19 -5t-21 -25.5l-417 -666q-10 -16 -53.5 -85.5t-59 -93.5t-53 -82.5t-60.5 -92.5t-56 -80.5t-63 -87.5q-21 -28 -147 -185l-8.5 -8.5t-12 -10t-12.5 -9.5q-4 50 -4 57q2 128 35 326q69 419 227 755q18 41 58 114.5t47 86.5q19 33 51 31q15 0 18.5 10.5 t-8.5 20.5q-24 24 -51 36q-25 14 -48 13q-37 0 -67 -37q-34 -44 -49 -70q-112 -184 -207 -465q-85 -249 -125 -557q-16 -113 -16 -205q0 -55 6 -102z" />
<glyph unicode="X" horiz-adv-x="1110" d="M0 -537v-10q0 -26 12 -57q14 -33 54 -45q16 -5 32 -5q23 0 45 11q-3 1 -7 3.5t-7 4t-6 2.5q-37 23 -37 69v7q1 7 2 21.5t2 21.5q5 19 14.5 54.5t17.5 65t17 54.5q82 239 264 631l13 18q6 -28 12 -47q49 -193 170 -350q13 -19 70 -76q49 -46 114 -61q31 -7 59 -7 q92 0 148 76q29 42 39 64q55 97 90 244q13 62 13 115q0 26 -3 50q0 2 -0.5 8.5t-1.5 9.5t-3 8t-5.5 7.5t-9.5 3.5q-8 1 -14 -4.5t-8 -9.5t-5 -14q-28 -75 -65 -187q-50 -153 -90 -219q-20 -32 -68 -80q-14 -16 -31 -16q-15 0 -32 12q-26 18 -62 58q-97 122 -137 245 q-28 86 -72 332q-3 14 -3 28q0 41 22 83q220 428 303 583q168 315 305 516q24 31 47 54q14 14 8 26q-12 29 -47 37t-57 -14q-44 -51 -58 -74q-75 -122 -104 -174q-199 -347 -422 -797l-20 -39q-6 12 -6 13q-32 282 -37 475q-4 115 -4 215q0 173 12 301q0 3 1 6q0 41 -40 62 l-27 12q-31 10 -47 1t-20 -40q-18 -88 -23 -152q-8 -108 -8 -235q0 -177 16 -389q24 -272 64 -477q6 -29 -10 -58l-129 -282q-155 -350 -211 -539q-19 -68 -29 -150z" />
<glyph unicode="Y" horiz-adv-x="1228" d="M2 -748q6 -83 76 -116q39 -19 84 -19q15 0 31 2q86 16 167 84q113 91 234 258q230 316 412 746q146 340 340 887q18 50 44.5 143t34.5 117q3 11 3 22q0 34 -33 70q-27 27 -56 0q-33 -33 -47 -51q-319 -400 -368 -459q-202 -243 -385 -393q-99 -86 -195 -135 q-59 -32 -106 -37q-21 -2 -27.5 2t-13.5 24q-10 24 -13 45q-7 44 -7 96q0 86 20 195q48 273 196 570q87 178 176 284q22 27 35 32q13 4 29 -3q3 15 -2 29.5t-10 20.5t-17 20q-21 24 -43 24q-18 0 -37 -16q-41 -35 -78 -82q-224 -294 -323 -651q-53 -194 -53 -358 q0 -30 2 -58q7 -84 28 -131q36 -77 108 -108q37 -16 75 -16q37 0 75 15q62 23 121 66q138 93 264 235q158 178 439 504q16 19 47.5 56.5t48.5 56.5q2 0 6 -4q-64 -156 -205 -521.5t-223 -558.5q-8 2 -14 2q-64 37 -134 37q-42 0 -87 -14q-122 -37 -234 -137 q-242 -213 -348 -525q-38 -105 -38 -209q0 -21 1 -41zM111 -668q37 233 202 459q88 124 201 209q106 83 213 104q15 3 31 3q36 0 76 -15q-4 -8 -14.5 -30.5t-16.5 -34.5q-171 -353 -371 -609q-79 -102 -158 -168q-27 -22 -84 -57q-6 -4 -30 -14q-23 -6 -32 -1.5t-15 27.5 q-7 28 -7 63q0 29 5 64z" />
<glyph unicode="Z" horiz-adv-x="1671" d="M80 1520q0 -21 6 -39q25 -73 125 -90q40 -6 86 -6q60 0 129 10q209 22 395 55q90 16 253.5 47.5t211.5 40.5q3 1 7 1t11 -0.5t11 -0.5q-13 -10 -15 -14q-174 -143 -409 -400q-101 -115 -363 -450q-67 -85 -201 -256t-202 -256q-17 -20 -6 -39q13 -30 24 -41q20 -22 43 -2 q3 3 12.5 13.5t14.5 17.5q40 55 121 102q167 103 377 158q144 38 281 38q62 0 122 -8q86 -15 137 -49q5 -3 15 -11.5t16 -12.5l-68 -41q-253 -160 -466 -410q-145 -165 -220 -319q-38 -74 -49 -142q-1 -10 -1 -20q0 -50 39 -86q32 -28 72 -29q18 0 38 6q24 7 45 19 q96 59 108 69q170 124 350 326q117 127 177 240q49 90 63 178q4 26 4 53q0 47 -12 100l92 37q42 14 84 14q13 0 27 -1q57 -3 67 -62q1 -6 2 -18.5t2 -18.5l6 -20q19 9 25 20t4 33q-8 62 -56 105q-41 37 -99 37q-9 0 -19 -1q-70 -9 -141 -37l-29 -12q-76 114 -246 141 q-42 6 -94 6q-67 0 -149 -10q-189 -25 -392 -114l-26 -13l-4 7q13 15 104 133q18 22 176 217t242 295q200 239 395 405q32 28 93 77t83 67q27 21 29 28q4 9 4 18q0 19 -18 41q-22 25 -48 26q-5 0 -10 -1q-190 -37 -381 -72q-334 -64 -546 -98q-61 -10 -267 -28q-3 0 -7 -1 q-23 0 -97 5q-27 0 -35 26q-5 12 -22 29q-11 9 -20 5.5t-11 -17.5zM555 -631l14 56q32 89 99 194q136 215 364 420q121 109 248 188l23 13h8q2 -12 2 -26q0 -30 -10 -69q-35 -126 -140 -264q-198 -256 -467 -442q-15 -10 -32 -20t-39 -22l-33 -18q-5 -2 -37 -10z" />
<glyph unicode="[" horiz-adv-x="862" d="M10 -150q-18 -23 4 -49q43 -52 103 -55q29 -2 88 2q78 2 239 10q19 0 29 2q29 0 29 19q3 19 -15 33q-30 30 -84 30h-243q1 4 2 12t2 11q49 218 67 309q98 461 232 985q7 29 30.5 119.5t33.5 134.5t24 116.5t20 133.5q6 1 14 4t11 4q22 3 66 10.5t67 10.5q35 6 109 14 q18 2 21.5 8t-3.5 23q-19 57 -86 51q-122 -13 -235 -21q-30 -2 -39.5 -9t-16.5 -36q-14 -63 -33 -131q-21 -77 -63.5 -228.5t-75 -271.5t-57.5 -229q-32 -130 -61 -265t-71 -340.5t-55 -266.5q-20 -99 -53 -140z" />
<glyph unicode="\" horiz-adv-x="438" d="M4 1567q29 -199 53 -334q155 -776 256 -1292q26 -136 56 -357q8 -54 20 -176q1 -7 6.5 -21t7.5 -20q4 2 11 2q26 32 22 94q-14 191 -22 242q-30 180 -82 449q-36 193 -106 556.5t-101 528.5q-2 8 -12.5 58.5t-13 64.5t-10.5 55.5t-10.5 64.5t-6 56.5t-4.5 63.5 q0 17 -23 63q-3 5 -10.5 8t-11.5 2q-4 0 -9.5 -7t-7.5 -13q-5 -68 -2 -88z" />
<glyph unicode="]" horiz-adv-x="802" d="M2 -221q-4 -20 10 -31q34 -29 49 -29q29 -3 185 -8q24 0 30 29q8 34 41 160q36 129 122 430.5t147.5 525t113.5 432.5q12 51 27.5 107.5t35 124.5t30.5 106q10 43 8 60q0 39 -26 61.5t-66 19.5l-60 -6q-33 -1 -98 -4t-98 -4q-44 0 -27 -39q18 -46 68 -43q30 0 92 1t92 1 q19 0 27 -2q-30 -106 -82.5 -294t-96.5 -343.5t-84 -292.5q-129 -454 -243 -938q-8 0 -18 -1t-13 -1l-137 -6q-2 0 -5 -0.5t-4.5 -1t-4.5 -1t-4.5 -1t-3.5 -1.5t-3.5 -2.5t-2.5 -3.5t-1 -5z" />
<glyph unicode="^" horiz-adv-x="940" d="M2.5 999.5q-0.5 -9.5 11.5 -22.5q31 -34 68 -37t74 25q4 4 13 11t13 11q14 14 57.5 58t65.5 69q187 195 316 336q6 6 22 18q14 -93 39 -227q28 -143 84 -233q49 -77 102 -107q37 -24 68 -18q1 4 1.5 7.5t0 7t-0.5 6t-2 6t-2.5 5t-3 5.5t-3 4.5t-3.5 5.5l-3 4 q-49 63 -70 141q-31 100 -41 228q-6 90 -14 274q-3 47 -29 70q-31 31 -78 47q-47 11 -67 -19q-7 -9 -22.5 -25.5t-20.5 -21.5q-43 -49 -183 -201q-62 -68 -189.5 -203t-189.5 -202q-13 -13 -13.5 -22.5z" />
<glyph unicode="_" horiz-adv-x="964" d="M2 -156q-1 -37 31 -69.5t67 -30.5q15 0 47 4q53 4 163 13.5t167 13.5q59 4 175 10t175 10q74 8 105 31q31 22 31 45q-1 9 -8.5 17t-12.5 10.5t-18 9.5q-66 25 -144 22q-61 -4 -181 -11t-179 -11q-60 -3 -314 -23q-46 -4 -69 -8q-35 -6 -35 -33z" />
<glyph unicode="`" horiz-adv-x="342" d="M2 1479q3 -8 10 -19q108 -151 148 -207l78 -98q29 -38 71 -49q6 -2 16 -2.5t13 -1.5q6 17 -12 35q-18 19 -33.5 39.5t-38.5 54.5t-29 43q-18 28 -56 84.5t-56 85.5q-26 39 -78 45q-20 8 -33 -10z" />
<glyph unicode="a" d="M-41 236q0 -45 43 -82q41 -34 82 -34q33 0 66 21q58 37 108 84q1 0 172 178q4 4 8.5 9t11.5 11.5t11 10.5q0 -106 2 -125q3 -49 20 -90q21 -53 63 -69q17 -7 37 -7q26 0 56 13q59 27 123 75q38 26 153 119q1 1 58 45q-15 29 -31 34.5t-39 -11.5q-30 -23 -85.5 -68 t-63.5 -51q-85 -67 -150 -94q-15 -5 -53 -17q-12 36 -12 48q0 98 4 147q3 20 7 42t9 48.5t8 42.5q3 23 -5 37t-30 25q-16 6 -23 3.5t-28 -22.5q-193 -193 -291 -287q-23 -23 -88 -65q-34 -21 -57 -17q0 6 -1 21t-0.5 25.5t3.5 19.5q21 115 103 207q44 50 98 67q27 10 47 -2 q1 0 7 -3t9 -3q17 0 23 6v23l-8 12q-49 49 -107 49q-20 0 -41 -6q-49 -13 -94 -55q-95 -91 -117 -203q-8 -37 -8 -112z" />
<glyph unicode="b" horiz-adv-x="931" d="M-82 -227q0 -26 8 -80q1 -17 20 -29t44 -14q15 -2 21.5 4t13.5 29q76 207 229 393q68 84 149 127q13 6 80 26q7 2 17.5 0t11.5 -6q17 -28 27 -67q3 -8 0.5 -14t-13.5 -14l-10 -9q-129 -115 -250 -271q-93 -122 -139 -237q-25 -67 -25 -121v-12q3 -65 60 -88 q31 -13 59 -13q41 0 76 27q77 57 113 100q150 165 208 408q21 89 21 148q0 19 -2 36q-1 5 -1 10q0 31 28 56q171 138 342 237q-1 1 -2.5 5.5t-2.5 5.5q-2 4 -6 8q-22 16 -43 16l-41 -14q-106 -74 -268 -193l-31 -24q-34 45 -80 65q-39 17 -79 17q-7 -1 -13 -1 q-46 -4 -92 -26q-65 -36 -125 -90q-76 -76 -145 -182l-21 -31q0 222 39 448q82 8 115 13q103 17 235 94q271 159 486 442q120 161 162 320q18 65 19 122q0 27 -5 52q-17 81 -83 143t-142 70q-15 1 -30 1q-85 0 -167 -44q-126 -70 -240 -197q-256 -289 -380 -647 q-92 -262 -117 -493q-28 -233 -31 -506zM109 465q30 155 100 336q136 348 362 590q75 81 172 141q72 44 152 53q9 1 17 1q70 0 100 -70q18 -40 18 -93q0 -43 -12 -96q-26 -117 -113 -250q-189 -288 -471 -481q-137 -93 -274 -125q-6 -1 -51 -6zM190 -487q7 67 54 159 q56 106 145 213q20 25 121 135q3 4 13 12.5t14 12.5q-15 -170 -119 -353.5t-223 -244.5q-8 18 -7 40q-1 12 2 26z" />
<glyph unicode="c" horiz-adv-x="636" d="M-27 373q-5 -22 -5 -42q0 -59 44 -100q67 -67 158 -67q17 0 35 2q126 16 256 96q113 67 192 125q5 3 14.5 8.5t14 9t9 8t3.5 9.5t-8 10q-15 17 -29 17.5t-34 -13.5q-36 -23 -97 -61.5t-82.5 -51.5t-61.5 -35.5t-64.5 -31t-59 -18t-74.5 -15.5q-25 -4 -46 -3.5t-38 3.5 q-55 12 -55 74v6q0 19 2 29q15 57 56 114t79 76q18 8 34 8q20 0 36 -12q6 -4 18 -8q14 17 -2 33q-36 45 -88 51q-5 0 -11 1q-62 0 -112 -54q-66 -76 -84 -168z" />
<glyph unicode="d" horiz-adv-x="1026" d="M-23 322q6 -92 60 -154q25 -26 55 -42q28 -14 63 -15q3 1 7 1q40 2 78 27q63 46 98 94q1 2 9.5 12.5t14.5 18.5v-59q4 -131 11 -223q10 -111 57 -187q35 -59 92 -75q20 -6 40 -6q38 0 79 20q69 37 123 110q170 240 315 527q8 12 8 20q5 19 -22 31q-28 12 -41 -8 q-61 -116 -84 -168q-70 -154 -244 -387q-12 -17 -32 -37q-43 -43 -89 -60q-20 -6 -28.5 -3t-18.5 20q-16 31 -20 49q-21 87 -23 125q-3 52 -3 104.5t3 104.5q4 51 17.5 148.5t17.5 138.5q3 23 27 32q16 4 24 8q225 82 387 222q256 227 336 540q18 72 18 134q0 33 -5 63 q-19 91 -98 144q-58 39 -123 39q-23 0 -48 -5q-61 -10 -129 -61q-106 -76 -198 -217q-210 -325 -297 -738q-4 -16 -8 -26q-65 55 -134 75q-42 11 -74 11q-20 0 -36 -4q-67 -16 -115 -84q-72 -102 -72 -224q0 -18 2 -36zM84 215q-14 38 -14 81q0 57 24 122q25 78 80 127 q44 44 99 44q22 0 46 -7q40 -14 50 -43q1 -3 18 -31q-45 -124 -82 -186q-59 -97 -137 -140q-39 -23 -54 -17.5t-30 50.5zM541 549q94 443 305 774q71 110 164 182q62 43 102 54q36 9 58.5 -0.5t37.5 -42.5q15 -40 21 -84q1 -15 1 -31q0 -108 -48 -230q-172 -434 -617 -616 q-12 -4 -24 -6z" />
<glyph unicode="e" horiz-adv-x="526" d="M-35 352q0 -82 55 -121q66 -49 147 -49h9q102 3 203 74q102 74 153 113q30 21 56 47q-19 27 -34 31t-40 -11q-8 -5 -17.5 -12.5t-20.5 -16.5t-17 -14q-73 -55 -150 -108q-81 -55 -168 -54h-18q-47 3 -69 31q-16 20 -15 50q0 11 2 24q5 36 39 47q91 26 174 84q24 15 43 37 q19 21 19 42q0 23 -23 46q-31 31 -71 38q-11 2 -22 1q-29 0 -59 -13q-73 -33 -124.5 -108.5t-51.5 -157.5zM102 461q17 43 65 77q43 31 76 31h7q-6 -31 -52 -64t-96 -44z" />
<glyph unicode="f" horiz-adv-x="1165" d="M-76 -86q-1 -27 -1 -53q0 -272 67 -496q35 -126 84 -205q63 -102 162 -129q32 -9 60 -9q80 0 138 69q97 112 97 247q0 29 -5 60q-36 235 -241 313q-22 9 -90 31q-27 9 -39 12l39 39q41 37 150 105.5t250 148t258.5 144t234 127t118.5 63.5q12 6 14.5 23.5t-4.5 32.5 t-20 14q-35 -4 -243.5 -121t-537.5 -312t-337 -200q-1 -1 -3 -1.5t-5.5 -1.5t-6.5 -3v26q0 280 62 561q34 -8 71 -8q33 0 68 6q161 31 348 115q382 183 590 496q120 180 156 327q18 76 18 142q0 83 -28 151q-40 103 -137 157q-69 38 -143 38q-31 0 -62 -6 q-109 -18 -234 -103q-189 -122 -336 -325q-491 -657 -512 -1475zM68 -274q23 -7 74 -23.5t77 -24.5q101 -30 148 -122q48 -97 48 -195q0 -38 -7 -76q-20 -96 -97 -166q-5 -5 -12 -10t-16 -11t-13 -9q-29 13 -53 53q-46 65 -90 203q-45 154 -59 360v21zM137 451q16 57 21 79 q142 484 426 844q136 176 295 277q115 75 213 90q20 2 38 2q30 0 56 -6q46 -14 69 -62q36 -69 36 -157q0 -25 -3 -52q-23 -170 -145 -358q-263 -402 -750 -588q-140 -53 -233 -67q-6 -2 -23 -2z" />
<glyph unicode="g" horiz-adv-x="1167" d="M-61 -831q-1 -9 -1 -18q0 -139 138 -175q28 -8 57 -8q36 0 72 12q59 18 127 68q103 78 196 213q260 375 291 866q3 32 31 49q238 137 342 201q29 18 23 51q-5 25 -24 26q-8 1 -17 -5q-45 -28 -155.5 -87.5t-152.5 -85.5q-6 -4 -19.5 -11.5t-21.5 -12.5q0 9 -1 21t-1 16 q-1 18 -4 74t-6 86q-5 37 -31 145q-10 43 -45 63q-29 17 -45.5 14.5t-36.5 -28.5q-28 -38 -63 -92q-118 -178 -248 -295q-87 -77 -158 -109q-28 -12 -69 -22q-8 -2 -15 -2q-33 0 -45 37q-12 24 -12 55v23q0 148 86 249q75 93 174 93q13 0 27 -2q35 -5 57.5 -16t36.5 -38 q5 -10 8 -10q20 -8 29 -6q3 2 5 10.5t1 13.5q-13 31 -25 39q-40 40 -65 52q-72 39 -141 39q-25 0 -48 -4q-93 -19 -157 -113q-75 -108 -75 -237q0 -44 9 -91q15 -83 91 -125q40 -23 83 -23q36 0 74 17q60 28 100 57q95 78 164 150q42 45 115 131.5t94 110.5l29 34l6 -24 q13 -78 13 -221q0 -36 -1 -76q0 -56 -49 -84q-422 -261 -668 -733q-71 -135 -79 -262zM43 -879q-1 13 -1 27q0 100 52 213q109 241 309 463q120 131 287 250q11 7 19 10q2 2 10 2q-11 -85 -12 -90q-67 -374 -269 -666q-101 -153 -227 -239q-53 -40 -107 -54q-22 -6 -31 -2.5 t-16 23.5q-14 35 -14 63z" />
<glyph unicode="h" horiz-adv-x="1533" d="M-61 244q0 -75 1 -159t2.5 -187t2.5 -160q0 -66 67 -66q22 -1 28.5 5t8.5 28q29 276 262 455q35 29 109 59q15 7 82 21q6 1 11 1q30 0 48 -30q40 -82 41 -86q10 -31 28.5 -94t28.5 -94q48 -142 93 -211q59 -90 135 -127q55 -26 104 -26q89 0 160 85q44 58 68 100 q45 74 131 226l231 385q11 20 11 41q0 19 -9 40q-12 28 -25 19q-3 -2 -6 -6q-62 -108 -172.5 -284.5t-199.5 -314.5t-90 -140q-32 -55 -78 -80q-28 -16 -52 -16q-32 0 -59 28q-59 59 -86 135q-18 48 -47 137.5t-39 118.5q-28 86 -51 125q-38 72 -102 102q-41 19 -89 19 q-27 0 -55 -6q-43 -9 -113 -39q-127 -66 -231 -205q-19 -25 -20 -27v62q0 258 30 444q25 0 35 -2h14q121 0 240 49q324 135 555 310q242 180 377 411q67 114 80 211q5 35 5 67q0 134 -87 228q-112 118 -283 133q-23 2 -46 2q-136 0 -265 -71q-165 -91 -317 -263 q-186 -215 -314 -534q-153 -393 -153 -819zM102 569q40 172 54 222q97 350 276 614q154 230 361 362q114 67 208 82q34 4 64 4q74 0 127 -24q125 -51 139 -211q1 -15 1 -29q0 -97 -46 -198q-60 -128 -178 -263q-154 -177 -354 -297q-223 -138 -437 -221q-98 -38 -186 -41 h-29z" />
<glyph unicode="i" horiz-adv-x="518" d="M-41 242q1 -6 2 -20t2.5 -28t3.5 -26q0 -3 13 -47q28 -79 112 -111q31 -12 62 -11q53 0 104 34q31 21 59 53q120 132 232 262l16 23q11 17 0 28q-19 16 -37 7q-6 -6 -12 -15q-137 -153 -213 -235q-30 -38 -63 -62q-46 -32 -76 -43q-34 -11 -51.5 -1t-28.5 44q-6 21 -6 45 q5 111 12 148q7 42 17 88t23.5 103.5t19.5 86.5q6 26 1 39.5t-26 26.5q-34 22 -53.5 16.5t-34.5 -41.5q-72 -177 -78 -364zM102 854q5 -4 15 -15t16 -14q25 -16 55 -16q16 0 33 4q82 18 135 33q7 1 14 10t9 18q3 9 -5.5 16t-19.5 9q-31 3 -52 3q-11 0 -19 -1 q-28 -5 -81.5 -17t-76.5 -16q-9 -3 -23 -14z" />
<glyph unicode="j" horiz-adv-x="569" d="M-678 -1194q12 -135 143 -162q40 -8 79 -8q93 0 177 45q143 76 240 240q136 226 189 563q20 122 20 258q0 120 -16 252q-3 34 22 53q150 101 262 180q45 31 131 97q7 5 22.5 18t27.5 20.5t26 10.5q2 2 6 10q-17 28 -44.5 37t-53.5 -6q-20 -12 -29 -21l-358 -260l-12 -8 l-15 -10l-2 8t-1.5 6.5t-0.5 5.5q-39 173 -43 191q-14 50 -53 145q-18 46 -80 53q-19 3 -25 -5t0 -25q4 -14 13.5 -39t13.5 -39q47 -153 68 -363q2 -22 -21 -41q-238 -193 -436 -485q-172 -253 -231 -508q-22 -94 -22 -166q0 -25 3 -47zM-565 -1157q-1 13 -1 26q0 79 25 183 q43 163 138 330q172 300 405 518q4 4 8.5 8t12 10l12.5 10q7 -64 7 -134t-7 -144q-25 -279 -125 -527q-73 -177 -172 -286q-73 -83 -154 -119q-2 -1 -15 -6t-20 -6q-32 -9 -52.5 -1.5t-37.5 35.5q-24 49 -24 103zM-76 735q17 -22 40.5 -24.5t45.5 14.5q80 61 158 92 q12 4 16 8q15 15 15 23q-3 10 -19 18q-8 3 -37 8q-120 -23 -219 -106q-15 -15 0 -33z" />
<glyph unicode="k" horiz-adv-x="1155" d="M-78 -336q6 -70 68 -82q23 -3 33.5 4t13.5 29q3 13 0 20q-8 19 4 48l74 153q0 2 16 25l19 -39q72 -149 196 -256q48 -43 111 -70q50 -21 95 -21q82 0 150 68q95 95 156 197l326 563q3 7 18 36t23 44q-25 29 -42 29t-36 -29q-77 -132 -150 -264q-8 -14 -36.5 -63.5 t-40 -69t-36.5 -61.5t-41.5 -67.5t-39 -59.5t-43.5 -64q-81 -110 -170 -170q-42 -28 -75 -28h-5q-34 2 -74 36q-128 112 -205 303q21 14 31 19q16 9 47 26.5t55.5 32t45.5 29.5q123 81 184 176q29 51 30 94q0 3 -1 6q0 30 -21 51q-41 35 -81 35l-19 -2q-42 -9 -80 -27 q-106 -53 -195 -145q-91 -94 -159 -236q-15 -25 -17 -30q-4 16 -3 42q0 17 1 38q11 188 35 311q6 29 35 41q143 61 180 80q249 127 500 360q117 109 164 180q106 150 143 279q14 51 14 97q0 122 -98 212q-101 90 -216 90q-52 0 -106 -18q-99 -34 -188 -117 q-143 -128 -236 -303q-311 -574 -350 -1176q-8 -121 -8 -222q0 -72 4 -134zM117 436l39 135q82 292 206 529q116 214 254 336q89 75 160 98q41 15 83 15t85 -15q67 -27 82 -96q7 -29 7 -60q0 -51 -19 -110q-45 -148 -168 -291q-65 -78 -142.5 -147t-185.5 -154 q-134 -104 -356 -221q-10 -5 -45 -19zM190 -20q129 216 347 311q1 -4 1 -8q0 -27 -24 -62q-60 -76 -129 -121q-42 -28 -180 -116z" />
<glyph unicode="l" horiz-adv-x="1091" d="M-47 -168q19 -132 88 -221q55 -67 137 -90q42 -11 84 -11q73 0 146 33q137 64 239 172q113 116 203 250q26 39 80.5 116t81.5 116q80 117 131 198q18 25 10 43.5t-39 18.5q-15 0 -49 -54q-52 -83 -301 -436q-105 -147 -240 -264q-110 -95 -225 -131q-25 -7 -46 -8 q-21 0 -38 8q-35 14 -61 57q-41 64 -54 150q-12 72 -12 163q0 74 8 160q4 33 13.5 97t13.5 92q15 6 16 6q335 115 555 330q187 184 264 370q59 134 58 260v23q-6 88 -64 158t-153 96q-28 7 -57 7q-70 0 -146 -40q-99 -50 -188 -155q-124 -149 -215 -349q-162 -341 -232 -743 q-22 -134 -22 -250q0 -92 14 -172zM143 379q5 19 14.5 55.5t14.5 54.5q84 322 211 562q83 156 176 262q73 82 154 125q58 26 98 26q41 0 63 -28q49 -55 56 -144v-17q0 -105 -56 -235q-59 -145 -202 -305q-175 -189 -461 -325q-33 -17 -68 -31z" />
<glyph unicode="m" horiz-adv-x="1583" d="M-35 156q0 -19 4 -27q10 -42 70 -57q6 -2 11 -2q23 0 42 32q13 20 35 57.5t31 51.5q92 162 170 244q87 93 174 141q14 8 57 25q19 -39 19 -97v-209q0 -30 25 -52.5t54 -18.5q16 4 25 16q9 13 33 55q95 166 205 258q38 34 110 76q9 5 51 15q25 -41 25 -92q0 -13 -2 -27 q-14 -127 -29 -221q-37 -244 -43 -351q-1 -15 -1 -31q0 -38 5 -81q8 -66 86 -90q14 -4 27 -4q39 0 70 38q35 37 79 99q51 68 191 268q17 24 141 203q3 4 15 22q-27 36 -51 36q-23 0 -44 -30q-57 -76 -90 -122q-170 -245 -205 -293q-27 -38 -100 -123q-2 -3 -22 -19 q0 5 -0.5 12.5t-0.5 13t1 9.5q28 218 57 418q17 131 17 201q0 17 -1 30q-3 41 -20 95q-16 51 -78 83q-34 17 -69 17q-28 0 -56 -12q-56 -22 -113 -66q-92 -77 -168 -180l-24 -33q-4 26 -4 27q-8 82 -17 114q-13 57 -71 89q-29 16 -60 15q-29 0 -59 -15q-27 -11 -41 -21 q-115 -67 -193 -164q-33 -44 -153 -213q-1 -1 -5 -8t-8.5 -10.5t-11.5 -5.5q5 143 8 172q3 30 29 209q5 25 -16.5 46t-46.5 15q-6 0 -11.5 -5.5t-7.5 -10.5q-5 -11 -14 -41q-37 -138 -37 -318q0 -73 6 -153z" />
<glyph unicode="n" horiz-adv-x="1089" d="M-35 342q7 -57 29 -143q15 -62 82 -84q30 -11 49.5 -5.5t34.5 31.5q24 38 43 80q90 192 221 328q77 77 145 113q12 6 54 20q6 -12 6 -16q7 -31 7 -80q0 -32 -3 -72q-3 -31 -17 -146t-20 -178q-2 -25 -2 -50q0 -75 20 -148q14 -56 72 -77q21 -8 42 -8q35 0 67 23 q53 42 90 99q74 118 198 266q22 24 62 78q15 24 -6 35q-29 19 -49.5 17t-38.5 -28q-95 -140 -224 -313q-20 -31 -69 -84q-4 -4 -39 -29q-6 21 -6 29q1 18 1.5 75t2.5 87q5 52 17.5 153t17.5 150q5 40 4 74q0 47 -8 84q-16 74 -86 107q-36 17 -71 17q-31 0 -61 -14 q-40 -17 -65 -35q-69 -43 -139 -123q-107 -117 -199 -292q-5 -12 -16.5 -33.5t-16.5 -32.5q-4 2 -8 2q-16 101 -16 168v14q0 36 1 77.5t2.5 91.5t2.5 79q2 28 -6.5 41.5t-34.5 22.5q-28 11 -42 3.5t-18 -36.5q-17 -105 -17 -208q0 -65 7 -130z" />
<glyph unicode="o" horiz-adv-x="954" d="M-41 188q6 -60 37 -118q44 -82 129 -104q24 -6 48 -7q59 0 114 39q18 14 36.5 31t40 39t33.5 34q7 8 15 18t16.5 22t13.5 18q3 -1 8 -2t7 -2q62 -28 121 -28q83 0 161 56q37 26 78 57.5t91 71t77 60.5q14 9 29 28q-22 28 -41.5 32.5t-46.5 -13.5q-25 -18 -45 -35 q-43 -37 -133 -111q-61 -47 -103 -69q-46 -28 -98 -29q-18 0 -37 4q-3 0 -41 13q66 126 82 159q50 109 55 213q0 100 -37 156q-38 61 -98 75q-17 4 -33 4q-43 0 -86 -28q-14 -8 -27 -19t-31.5 -28t-27.5 -25q-22 6 -42 6q-59 0 -111 -51q-2 -3 -10 -10.5t-11 -13.5 q-134 -175 -134 -405q0 -19 1 -38zM45 223q13 182 100 322q7 12 17 25.5t18 22.5t21.5 24t19.5 22q3 3 25 16q-21 -67 -21 -131q0 -168 148 -315q-48 -66 -91.5 -111t-99.5 -73l-14 -7q-32 -11 -50.5 -4.5t-37.5 35.5q-36 60 -36 145q0 14 1 29zM328 594q33 98 114 135 q24 13 34.5 10t23.5 -30q22 -52 22 -106v-13q-2 -150 -121 -340q-92 114 -92 234q0 54 19 110z" />
<glyph unicode="p" horiz-adv-x="700" d="M-41 -299q0 -29 18 -46.5t48 -19.5q23 0 26 23q1 7 2 22.5t2 22.5q5 133 11 166q33 160 75 291q55 173 162 348q52 81 127 129q28 20 53 16q1 -3 6.5 -21.5t6.5 -27.5q2 -23 2 -47q0 -88 -33 -178q-11 -32 -45 -47q-121 -57 -193 -129q-32 -35 -57 -80q-7 -14 -7 -27 q0 -24 25 -43q25 -20 54 -20q26 0 55 16q155 90 231 248q11 26 39 35q17 6 164 59q9 2 31 15q-19 39 -52 39q-9 0 -20 -3q-13 -5 -39.5 -14t-40.5 -14q-35 -15 -43 -19q1 17 4 43.5t4 38.5q3 23 3 44q0 59 -21 108q-26 62 -77 77q-16 5 -32 5q-37 0 -75 -25 q-84 -54 -144 -156q-68 -115 -133 -268l-12 -31h-8q1 21 3 59.5t4 70t5 59.5q8 129 14 188q1 6 1 12q0 36 -35 52q-22 11 -33 6t-15 -29q-29 -206 -34 -254q-10 -131 -17 -319q-8 -250 -10 -375zM250 121q37 65 125 115q-55 -73 -125 -115z" />
<glyph unicode="q" horiz-adv-x="1636" d="M-55 367q-7 -36 -7 -69q0 -70 30 -132q46 -92 145 -139q66 -32 137 -32q42 0 86 11q120 31 239 119q44 33 93.5 71.5t109 85t92.5 72.5q3 3 10.5 8.5t10.5 8.5q-3 -20 -12 -35q-141 -272 -211 -504q-84 -281 -84 -497q0 -34 2 -66q10 -135 53 -244q19 -52 67.5 -87.5 t104.5 -45.5q18 -4 36 -4q39 0 79 15q59 22 96 77q75 111 108 227q17 58 17 115q0 43 -10 86q-39 144 -109 240q-10 15 -110 147q-3 3 -19 27q131 64 133 65q185 78 344 213q176 152 266 228q9 8 26.5 26.5t21.5 22.5q16 16 0 35q-31 34 -64 34h-4l-20 -30l-150 -135 q-8 -7 -43.5 -39t-49.5 -44l-42 -36t-51.5 -41t-48.5 -33q-35 -24 -71 -44.5t-87 -45t-72 -34.5t-90 -40.5t-78 -34.5l12 35q52 147 173 391q102 205 124 246q14 29 10.5 45t-28.5 33q-26 20 -40.5 20t-37.5 -22q-50 -45 -170 -156q-213 -200 -342 -284q-109 -70 -194 -101 q-75 -23 -121 -23q-10 0 -19 1q-59 5 -85 23t-40 79q-6 26 -6 56q0 50 17 108q35 117 141 231q163 173 346 199q24 5 51 5q22 0 46 -3q53 -9 89 -47q15 -15 33 -8q4 23 -20 51q-55 62 -129 82q-53 14 -107 14q-83 0 -168 -33q-164 -63 -288 -219q-99 -128 -121 -245z M698 -733v24q0 181 68 430q5 17 16 52.5t15 50.5q15 -21 67 -88.5t81 -112.5t50 -94q22 -53 31 -86q17 -55 17 -112q0 -68 -25 -138q-38 -100 -94 -170q-47 -58 -95 -72q-36 -9 -55 19q-26 44 -33 63q-40 94 -43 234z" />
<glyph unicode="r" horiz-adv-x="626" d="M-41 371v-22q1 -39 3 -85q4 -58 6.5 -90t11 -110t10.5 -95q5 -35 16 -48.5t45 -20.5q29 -8 40 -1.5t15 35.5q36 190 84 316q72 194 160 315l23 23q0 -9 1 -22t1 -17q1 -8 4 -36t4.5 -40l4.5 -36t6.5 -38.5t8.5 -32.5t11 -32q29 -64 88 -64h5q31 2 37 14q2 3 -3 5 q-11 4 -19.5 9.5t-14 9.5t-10 13.5t-7 13.5t-4.5 16.5t-2.5 16t-1.5 19.5t-1 19q-3 41 -7 122.5t-7 122.5q-3 62 -66 74q-28 6 -43 -14q-12 -18 -41.5 -59t-50 -72.5t-37.5 -61.5q-26 -48 -69 -142t-60 -128q-13 -27 -14 -28q-2 -1 -3 4q-1 7 -1 28q3 247 17 353q7 48 16 93 q3 19 -1.5 28.5t-19.5 18.5q-24 12 -39 17q-33 6 -47 -23q-18 -52 -22 -67q-23 -98 -27 -301z" />
<glyph unicode="s" horiz-adv-x="581" d="M-246 -518q6 -92 82 -133q53 -26 108 -26q11 0 21 1q105 5 191 98q56 61 104 166q61 139 61 269q0 67 -16 131q-7 27 -26 77.5t-23 61.5q3 2 9 8t9 8q64 49 132 99q84 60 194 135l25 12q16 11 16 14q-5 18 -14 23q-22 14 -43 14q-19 0 -37 -12q-23 -17 -71.5 -50.5 t-72.5 -51.5q-33 -26 -96 -75.5t-90 -70.5q-55 76 -111 150q-26 37 -38 65q-14 31 -11 60q4 40 44.5 84t80.5 53q12 3 22 3q27 0 38 -24q3 -8 14 -12q20 -12 35 0q18 18 0 39q-20 24 -37 31q-56 27 -107 26q-81 0 -149 -67q-52 -54 -58 -104q-1 -6 -1 -12q0 -46 36 -103 q11 -18 25 -37.5t31.5 -43.5t27.5 -38q58 -82 82 -135q-6 -5 -14 -14t-10 -11l-201 -217q-67 -76 -115 -170q-48 -109 -48 -192q0 -15 1 -29zM-139 -496v10q0 139 80 265q61 94 213 254q4 4 16 10q23 -78 23 -158q0 -61 -13 -123q-40 -183 -153 -305q-26 -30 -72 -57 q-26 -15 -41.5 -10.5t-30.5 30.5q-22 42 -22 84z" />
<glyph unicode="t" horiz-adv-x="970" d="M-479 682q6 -21 25 -35t40 -14h60q-1 17 6.5 24.5t23.5 12.5l381 147q4 1 18 5t23 7q-9 -31 -10 -34q-81 -302 -92 -344q-30 -112 -53 -254.5t-31 -259.5q-5 -88 -5 -160q0 -99 9 -168q13 -94 49 -162q37 -73 121 -88q14 -3 29 -3q43 0 94 21q98 42 164 117 q123 138 178 211q50 68 295 410q32 45 153 225q20 29 25 47q11 27 -0.5 48.5t-40.5 21.5q-4 0 -10.5 -6.5t-15 -18.5t-16.5 -24t-18.5 -29t-17.5 -27q-208 -310 -280 -411q-111 -159 -219 -295q-74 -100 -177 -174q-60 -47 -118 -62q-17 -5 -26.5 -1.5t-16.5 20.5 q-26 62 -31 90q-15 61 -17 137q-1 22 -1 42q0 51 4 95q16 284 102 641q3 19 16 35q121 157 230 377q3 6 8.5 21.5t9 24t10 18.5t13.5 16q8 6 20 11t21.5 7.5t25.5 6t23 5.5q92 26 151 40.5t142.5 28t156.5 15.5q16 0 109 -10q34 -3 37 -41q0 -33 4 -49q3 -15 14 -18.5 t23 6.5q11 15 14 30q4 23 -2 41q-35 100 -117 119q-65 15 -133 15q-129 -5 -323 -54l-109 -24q2 5 5.5 14.5t4.5 13.5q93 232 119 303q21 63 45 187q6 34 -7 56t-46 40q-18 10 -37 10l-59 -26q-3 -3 -10 -9t-12 -11.5t-9 -10.5q-82 -116 -98 -145q-118 -212 -213 -492 q-10 -35 -48 -47q-288 -96 -499 -193q-29 -11 -68 -32q-22 -11 -16 -31zM193 696q9 31 26.5 89t24.5 81q3 13 16 17q2 1 41 14q4 -4 6 -8q-17 -33 -52.5 -97.5t-53.5 -97.5zM293 1004q31 120 126 332.5t146 244.5q-15 -79 -16 -82q-36 -155 -148 -407q-22 -51 -35 -62 t-67 -26h-6z" />
<glyph unicode="u" horiz-adv-x="1099" d="M-35 381q-6 -41 -6 -78q0 -52 12 -94q25 -95 109 -127q32 -12 63 -12q52 0 101 34q64 44 127 107q62 62 180 188q21 21 31 29v-8q0 -20 -7 -60q-21 -105 -21 -191q0 -30 3 -58q11 -95 47 -142q24 -31 52 -49q23 -14 52 -15q8 0 14 1q38 4 73 37l28 28q62 71 84 99 q46 58 129.5 166t108.5 139q3 3 8.5 12t7.5 12q-26 28 -40 28t-36 -26q-2 -2 -10 -14q-138 -174 -174 -217q-23 -25 -49.5 -53t-59.5 -61.5t-51 -51.5q-30 -26 -59 -31q-18 40 -18 90q-1 13 -1 27q0 77 19 193q4 30 35 215q1 8 1 16q0 53 -54 74q-24 10 -41 -10 q-220 -232 -224 -236q-96 -103 -192 -160q-50 -30 -86 -39q-25 -8 -33.5 -2t-11.5 33q-4 21 -4 44q0 47 16 99q30 97 82 236q6 16 6 29q0 21 -14 36q-25 25 -37 33q-22 14 -36 11t-26 -25q-79 -128 -98 -256z" />
<glyph unicode="v" horiz-adv-x="751" d="M-33 332q13 -101 58 -170q42 -64 108 -84q27 -9 50 -9q13 0 26 3q51 12 108 59q83 65 172 203q143 221 250 432q34 65 103 221q4 8 8 25t4 18q3 22 -11 37t-40 18q0 -15 -4 -31.5t-8 -27.5t-11.5 -28.5t-11.5 -26.5l-6 -15q-94 -201 -223 -407q-78 -132 -148 -221 q-96 -114 -182 -168q-19 -12 -53 -27q-17 -6 -25.5 -3.5t-17.5 17.5q-27 52 -31 68q-27 85 -27 178q0 50 8 103q5 37 27 131q4 25 -4 35q-18 24 -49 30q-23 8 -29 -14q-13 -25 -16 -37q-33 -101 -33 -205q0 -52 8 -104z" />
<glyph unicode="w" horiz-adv-x="1419" d="M-41 268q3 -57 16 -96q22 -64 85 -84q22 -7 42 -8q39 0 76 26q43 29 72 62q52 61 166 197q34 41 90 112q4 0 6 -2v-18v-26q0 -92 18 -187q23 -108 82 -178q74 -93 185 -93q16 0 32 2q85 9 166 58q168 95 275 276q60 108 73 201q15 88 16 160q0 28 -3 53q-6 67 -25 135 q-31 107 -121 168q-54 37 -125 37q-16 0 -32 -2q-81 -12 -152 -64q-58 -41 -76 -90q-4 -12 0 -20q8 -13 25 0l80 45q9 5 26.5 15.5t31.5 18.5t28 13q51 25 109 25h12q76 -3 104 -66q23 -58 27 -74q15 -59 15 -137q0 -73 -13 -164q-15 -99 -86 -217q-91 -148 -228 -237 q-88 -60 -190 -72q-10 -1 -18 -1q-54 0 -84 46q-32 52 -48 117q-22 80 -22 176q0 40 4 82l6 104v6q0 57 -51 74q-30 10 -45 -10q-15 -15 -35 -39q-215 -260 -258 -311q-15 -17 -32.5 -35t-39.5 -38t-34 -32q-5 -4 -18.5 -11t-20.5 -11q0 18 -1 47t-1 41q2 109 57 250l31 75 q11 25 -2 41q-26 32 -62 41q-28 8 -41 -18q-21 -35 -31 -64q-61 -143 -61 -275v-24z" />
<glyph unicode="x" horiz-adv-x="1083" d="M-41 553q1 -8 4 -27t4 -30q33 -194 125 -422q10 -24 10 -47q0 -31 -18 -60q-47 -79 -107 -207q-10 -17 -14 -61q-3 -28 23 -41q29 -15 55 -15q15 0 29 5q6 2 20 16q-26 12 -28 33.5t10 40.5q11 24 73 145q2 4 5 9t8 11.5t8 10.5l20 -37q82 -116 86 -121q81 -99 199 -99 q40 0 84 11q88 20 180 105q86 78 152 190q108 186 248 434l6 13q12 31 -21 34q-36 3 -53 -26q-7 -12 -27 -44t-30 -50q-14 -23 -92.5 -155.5t-122.5 -201.5q-67 -113 -162 -186q-64 -50 -119 -68q-19 -6 -36 -5q-39 0 -68 30q-15 11 -23 22q-83 100 -154 267 q223 340 406 538q-22 17 -46 17q-21 0 -42 -13q-38 -23 -64 -49q-155 -153 -278 -344q-3 -6 -11.5 -17t-11.5 -16q-5 16 -12 31q-37 97 -108 363q-7 29 -28.5 42.5t-51.5 8.5q-30 -6 -27 -35z" />
<glyph unicode="y" horiz-adv-x="1372" d="M-31 283q14 -66 53 -110t87 -59q37 -12 75 -12q11 0 23 2q50 4 90 27q43 22 68 45q98 93 127 127q36 41 76.5 88t89.5 105.5t75 89.5q3 4 27 28q24 -73 26 -84q54 -205 80 -448q3 -25 -20 -41q-156 -132 -289 -301q-141 -184 -205 -326q-66 -148 -66 -288q0 -21 1 -41 q7 -85 59 -129q44 -38 103 -58q40 -14 85 -14q22 0 46 3q71 10 127 62q174 157 231 371q37 136 41 342q1 27 1 55.5t-1 59.5q-1 61 -3 135.5t-3 114.5q-3 32 22 51q21 15 160 123q65 49 268 207q11 9 9 19t-15 11q-23 7 -47 0q-46 -19 -72 -39q-91 -70 -307 -239l-28 -21 q-3 15 -5 19q-28 219 -77 372q-17 56 -50 115q-24 42 -69 45h-5q-41 0 -69 -35q-4 -4 -16 -20q-31 -38 -99.5 -124t-105.5 -132q-90 -106 -154 -156q-72 -53 -116 -65q-32 -11 -50.5 -4t-35.5 36q-7 12 -15 35q-14 49 -14 97q0 16 2 32q18 204 82 330l-4 6q-4 5 -8 6 q-20 13 -40.5 18.5t-43.5 -3t-37 -35.5q-32 -66 -47 -117q-27 -96 -27 -180q0 -50 10 -96zM383 -795q18 151 119 318q135 229 346 428q2 2 8.5 6.5t9.5 7.5q1 -1 4 -2t4 -2q0 -20 0.5 -56t0.5 -66.5t-1 -57.5q-10 -242 -14 -289q-25 -313 -244 -510l-8 -6q-2 -2 -10.5 -8.5 t-11.5 -8.5t-10.5 -7.5t-11.5 -7t-11.5 -5t-12.5 -4t-12.5 -1t-14.5 0.5t-15 4q-92 30 -111 107q-10 38 -10 83q0 36 6 76z" />
<glyph unicode="z" horiz-adv-x="1572" d="M-57 711q-9 -23 6 -49q21 -44 69 -82q113 -83 267 -83q17 0 34 1q108 9 222 45q83 23 151 45q-3 -13 -12 -19q-254 -198 -549 -493q-14 -14 -28.5 -30t-32.5 -35.5t-29 -30.5q-14 -14 -14 -27q2 -28 35.5 -47t58.5 -6q107 62 315 129q206 64 373 64q23 0 45 -1 q80 -7 141 -31q24 -10 43 -24q-3 -8 -6 -8l-20 -19q-289 -235 -441 -409q-151 -175 -245 -361q-50 -98 -58 -182q-2 -13 -2 -26q0 -65 45 -107q59 -54 137 -54q11 0 23 1q82 11 160 61q166 95 305 250q168 188 231 405q28 94 28 181q0 50 -9 98q-6 25 -22 73t-21 66l33 27 l434 336q1 1 9.5 7t10.5 11q8 12 4 25q-10 28 -35.5 34.5t-48.5 -10.5q-8 -8 -14 -10q-214 -172 -432 -342q-2 -2 -25 -16q-68 59 -151 77q-75 19 -164 19q-50 0 -105 -6q-109 -9 -284 -64q-5 -2 -17.5 -5t-17.5 -5q29 36 72 76q345 323 598 485q18 11 47 33q23 20 8 43 q-21 28 -49 49q-10 10 -37 2q-224 -89 -528 -168q-104 -30 -196 -30q-41 0 -79 6q-81 13 -139 49q-29 21 -29 41t-16 28q-4 2 -49 13zM356 -1016q-1 10 -2 23q0 39 15 96q32 100 94 205q127 222 332 405q39 36 84 75t100.5 86t85.5 73l18 12q18 -57 18 -126q0 -27 -3 -56 q-16 -143 -103 -307q-166 -312 -487 -492q-35 -19 -90 -37q-32 -8 -45 0.5t-17 42.5z" />
<glyph unicode="{" horiz-adv-x="749" d="M3 778.5q3 -17.5 28 -41.5q35 -32 67 -47q52 -27 62 -88q10 -64 -4 -147q-38 -218 -47 -279q-30 -215 8 -397q38 -169 168 -264q10 -7 35 -27.5t40 -30.5q80 -54 158 -71q93 -23 154 18q30 20 22 57q-11 30 -32 27q-31 -3 -54 -12q-10 -4 -29.5 -13.5t-29.5 -13.5 q-47 -16 -90 12q-49 35 -99 72q-67 53 -96 143q-42 127 -35 295q1 42 6.5 91.5t9.5 78t16 93t15 81.5q17 92 19 134q10 176 -143 268q-4 2 -11 7.5t-8 6.5q22 22 62 61.5t72 71.5t59 60q116 116 137 293q1 12 4 36.5t4 36.5q2 18 9.5 85t13.5 102q19 132 94 215q33 41 78 55 q26 11 45 -10q7 -9 28 -23q8 22 7 30t-13 23q-34 43 -79 58.5t-87 -4.5q-61 -26 -108 -97q-58 -85 -78 -217l-27 -198q-24 -169 -133 -281l-88 -92q-78 -78 -115 -119q-18 -21 -15 -38.5z" />
<glyph unicode="|" horiz-adv-x="659" d="M2 -707q3 -60 31 -106q7 -12 26 -27q12 11 18 26t6.5 21.5t2.5 26.5q1 10 1.5 40.5t2.5 47.5q43 251 64 348q118 529 194 844q144 594 275 1030q23 86 32 137q11 50 -34 88q-9 9 -17.5 6.5t-13.5 -14.5q-3 -7 -19 -61q-88 -250 -102 -301q-107 -391 -160 -602 q-201 -811 -282 -1268q-27 -151 -25 -236z" />
<glyph unicode="}" horiz-adv-x="559" d="M2 -516q0 -6 5 -15t11 -12q57 -23 78 -26q70 -11 123 45q65 65 121 192q33 70 33 158q3 191 -27 424q-7 63 5.5 105.5t56.5 68.5q24 12 14 55l-49 221q-25 142 16 256q17 46 90 215q6 13 20.5 44t22 48.5t16.5 44t13 50.5q17 89 -14 160q-52 140 -234 208q-10 5 -41 5 q14 -55 72 -70q61 -18 86 -46t33 -81q6 -42 -4 -86q-2 -16 -7 -33t-9 -28.5t-13.5 -31.5t-13 -27t-15.5 -29.5t-14 -26.5q-47 -86 -82 -160q-94 -211 -33 -434q7 -23 17 -69t12 -52q9 -39 -21 -57q-62 -42 -59 -111q0 -39 2 -59q24 -294 29 -365q4 -101 -13 -162 q-39 -131 -106 -231q-22 -33 -46 -52t-57 -22q-6 0 -13 -5.5t-5 -8.5z" />
<glyph unicode="~" horiz-adv-x="972" d="M10 588q-20 -51 17 -88q15 -17 25 -15.5t22 21.5q57 91 159 82q17 -1 84 -15q26 -7 73.5 -23t60.5 -20q129 -40 251 -43q4 0 72 5q116 13 178 92q25 32 17 72.5t-43 60.5q-29 16 -29 -12q0 -29 -31 -56q-46 -36 -90 -47q-131 -29 -266 6q-40 9 -113 31.5t-104 30.5 q-69 16 -129 16q-112 0 -154 -98z" />
<glyph unicode="&#xa1;" horiz-adv-x="806" d="M6 10q10 -69 62 -102q2 0 5 1t5 1q0 6 0.5 17.5t0.5 20.5t-1 17q-7 77 12 137q30 94 53 154q98 242 256 555q43 86 124.5 244t115.5 225q10 16 16 35q6 20 -6.5 40.5t-34.5 28.5q-17 6 -27 0.5t-22 -28.5l-67 -133q-243 -474 -373 -781q-78 -182 -109 -290 q-21 -80 -10 -142zM629 1528q9 -48 61 -66q3 16 2 19q-10 46 27 96q11 18 72 88q1 2 5 6.5t6.5 8.5t2.5 8q-3 26 -37 45q-18 10 -37 -9q-69 -66 -98 -145q-8 -21 -4 -51z" />
<glyph unicode="&#xa2;" d="M2 537q-6 -151 74 -261q78 -101 194 -98h43q-24 -104 -26 -115q-4 -25 -25 -172q-4 -8 -0.5 -19.5t21.5 -18.5q40 93 41 98q34 105 61 211q8 26 35 31q173 29 303 112q72 46 115 109q35 44 26 100q-9 49 -51 23q-27 -17 -45 -41q-112 -136 -319 -197q-4 -1 -12 -1t-13 -1 q81 294 272 848q49 5 113 -17q46 -15 57 -45q3 -10 15 -14q14 -9 20 -6q4 3 7 10t1 12q-8 29 -20 43q-37 58 -121 97l-37 16q7 17 14 37q30 85 78 205q14 39 -14 67q-20 22 -32.5 20t-22.5 -28q-15 -36 -39.5 -103t-28.5 -79l-37 -105q-80 -8 -124 -20.5t-101 -44.5 q-180 -101 -301 -289q-109 -168 -121 -364zM115 502q21 185 154.5 358.5t299.5 249.5l29 10l-264 -844q-36 -8 -141 -8q-43 3 -60 45q-30 67 -18 189z" />
<glyph unicode="&#xa3;" horiz-adv-x="1566" d="M18 -152q-32 -32 2 -59q73 -59 146 -35q51 13 72 15q157 17 333 -15q252 -43 365 -209q11 -16 63 -61q21 -16 35 -2q15 15 15 33q0 27 -17 47q-14 23 -57 73q-70 70 -174 121q-180 87 -391 105l-125 12l37 37q199 193 270 461q12 50 55 245q4 27 23 31q10 2 39 6.5t39 6 t39 5t39 4t39.5 2t39.5 -0.5q45 0 88 -19q6 -3 18.5 -6t16.5 -4l6 6q-9 26 -14 35q-43 68 -135 78q-74 8 -172 -6q-7 -1 -20 -1t-19 -1v14q40 252 82 379q59 193 159 317q137 165 330 148q91 -6 152 -70q95 -104 86 -254q-1 -16 -4 -32t-9 -38.5t-8 -31.5q-7 -42 31 -54 q22 -11 41 21q36 60 29 143q-17 245 -250 365q-105 57 -242 34.5t-235 -118.5q-122 -119 -203 -328q-49 -129 -107 -395q-4 -24 -13 -68t-13 -63l-117 -25q-98 -20 -147 -32q-41 -8 -23 -46q7 -16 31 -40q28 -28 61 -17q37 12 78 21q51 11 90 20q-7 -31 -24 -98 q-79 -331 -320 -541q-52 -50 -111 -115z" />
<glyph unicode="&#xa4;" horiz-adv-x="954" d="M10 59q-18 -30 4 -59q3 -4 7 -7t11 -6.5t11 -6.5q29 17 35 24q77 105 147 172q8 8 8 17q-4 25 -36 45q-24 12 -45 -9q-20 -23 -59 -62.5t-48 -49.5q-17 -22 -35 -58zM119 532q-21 -205 149 -317q102 -67 213 -33q24 7 68.5 25t54.5 22q14 -14 21 -28q17 -28 80 -138 q26 -39 40 -57q16 -20 33 -10q3 5 4.5 10t0.5 11.5t-1.5 10t-3.5 11t-4 10.5q-37 83 -110 184l-21 31q55 56 73.5 84t45.5 96q24 58 37 99q19 67 28 116t6 111t-24 117q86 86 127 129q16 16 16 28q0 39 -39 56q-6 6 -13.5 3.5t-11 -4.5t-9.5 -9t-9 -9q-21 -18 -36 -39 l-76 -81q-46 52 -111 67q-34 11 -47 29q-42 45 -104 20q-35 -14 -62 -35l-129 -118q-3 -4 -11 -12.5t-13 -14.5q-32 120 -37 145q-10 40 -29 56q-23 19 -37 16q-15 -4 -6 -37q48 -158 61 -194q14 -34 -6 -66q-91 -137 -108 -285zM219 381q-9 72 25 180q80 229 260 381 q25 20 28 23q18 12 39 6q17 -4 51 -11.5t50 -11.5q2 -1 9 -3t9.5 -3t8.5 -3.5t9 -5t7 -6.5t6 -9q-1 -5 -5 -14.5t-5 -14.5q-11 -28 -4.5 -37t38.5 -12q7 -56 -8 -144q-33 -150 -94 -258q-97 -179 -289 -176q-64 1 -95.5 30.5t-39.5 88.5z" />
<glyph unicode="&#xa5;" horiz-adv-x="1921" d="M4 244q9 -28 37 -44t57 -10q19 6 82 23l150 39q-12 -36 -34 -101.5t-32 -95.5q-2 -1 -7 -2t-7 -2q-166 -38 -209 -49q-61 -13 -14 -63q21 -23 53 -15q65 18 102 27q18 5 49 8l-8 -33q-53 -165 -67 -274q-11 -102 18 -162q35 -74 111 -98q28 -6 22 20q-3 16 -10 33 q-37 75 -18 158q8 41 53 241q6 23 20.5 68t20.5 68q7 0 17 1t13 1q28 0 84.5 1t83.5 1q19 0 28 0.5t23.5 6.5t26.5 19q-3 3 -14 13.5t-17 13.5q-60 29 -114 29h-98l8 32q53 141 59 158q6 18 15.5 26t29.5 13q201 37 297 33q33 0 45 24q-22 27 -24 29q-42 36 -101 39 q-16 1 -35 1t-43.5 -0.5t-40.5 -0.5q7 9 17 20.5t12 14.5q652 708 965 1073q79 93 237 295q53 66 66 131q0 1 3 11t3.5 13.5t-2 10t-8.5 10.5q-4 2 -7.5 3.5t-7 1t-6 -1t-6 -2.5t-5 -3t-5 -4.5t-4.5 -3.5q-7 -7 -24 -21t-26 -22t-22 -20.5t-22 -24.5q-57 -64 -219.5 -252.5 t-254.5 -288.5q-279 -305 -841 -907q-17 -17 -31 -29q0 41 2 57q9 240 21 477q12 202 24 299q7 61 17 128.5t23.5 152t19.5 127.5q0 12 2 16q9 8 9 17t-3.5 13t-12.5 13q-17 21 -32 33q-48 38 -68 -18q-21 -50 -31 -90q-97 -371 -110 -818q-2 -76 -2 -452q0 -19 -2 -31 q-10 -2 -133 -35l-123 -30q-18 -6 -24 -15t-1 -24z" />
<glyph unicode="&#xa6;" horiz-adv-x="477" d="M2 -317q0 -67 33 -111q28 -39 57 -2q24 30 27 80l12 112q19 141 84 400q11 41 33 117.5t31 111.5q5 23 0 35.5t-23 24.5q-6 5 -25 14q-37 17 -54.5 9t-26.5 -48q-34 -124 -89 -342q-52 -207 -57 -356q0 -6 -1 -21t-1 -24zM170 827q3 -78 27 -135q12 -28 30 -30t33 28 q3 9 10 29t11.5 35t7.5 30q37 291 127 578q45 148 55 176q14 50 -25 86q-10 11 -28 21q-26 15 -41.5 9.5t-22.5 -34.5q-94 -332 -139 -500q-35 -136 -45 -293z" />
<glyph unicode="&#xa7;" horiz-adv-x="1222" d="M2 102q-6 -119 47 -210t158 -142q159 -79 348 -47q196 36 377 199q23 20 39 45q91 135 45 272l-25 60q31 45 27 118q-4 48 -8 74q-30 206 -166 356q-67 74 -187 174q-44 37 -155 144q-48 48 -68 106q-17 38 -14 72q3 100 61 166q113 136 301 188q137 38 252 -51 q40 -28 53 -80q37 -146 -8 -297q-21 -74 -78 -182q-26 -46 -26 -82q0 -54 51 -35q41 10 72 54q151 226 116 462q-16 118 -106 183q-91 65 -158 86q-159 59 -305 6q-133 -48 -235 -137q-50 -40 -76 -80q-88 -130 -45 -254q0 -1 -1 -4.5t-1 -5.5q-55 -11 -62 -72 q-9 -47 6 -127q28 -121 77 -212.5t136 -154.5q23 -16 64 -53q168 -152 192 -176q103 -100 150 -240q55 -163 -66 -282q-126 -117 -297 -164q-81 -20 -151 -6q-128 28 -182 166q-37 97 -17 221q13 84 53 143q23 38 58 33q3 -1 26 4q-5 18 -7 22.5t-11 8.5q-44 19 -82 30 q-54 16 -84 -28q-38 -56 -49 -84q-32 -75 -39 -187zM346 1161q5 -6 23 -24q98 -105 178 -162q155 -117 262 -293q59 -102 88 -236v-12l-4 -8l-35 35q-158 142 -186 166q-27 24 -170 141q-55 46 -86 113q-52 106 -68 198q-7 42 -2 82z" />
<glyph unicode="&#xa8;" horiz-adv-x="659" d="M2 1325q-3 -51 33 -80q17 -16 41.5 -27t41.5 -15t48 -9h8q61 3 55 66q0 12 2 16q13 39 -18 74q-30 34 -59 43q-52 21 -74 26q-20 8 -31.5 4.5t-21.5 -20.5q-25 -36 -25 -78zM438 1290q0 -84 92 -106q55 -18 99 26q41 44 22 107q-24 66 -106 76q-33 5 -64 -14.5t-37 -55.5 z" />
<glyph unicode="&#xa9;" horiz-adv-x="1343" d="M2 377q6 -233 160 -387q108 -105 237 -152q185 -69 324 -33q304 71 473 353q92 154 137 411q12 75 6 111q-30 205 -127 346q-54 78 -120 119q-138 82 -281 82q-189 0 -338 -107q-274 -194 -414 -497q-57 -117 -57 -246zM158 504q72 195 237 381q129 146 262 207 q156 73 314 47q77 -16 121 -74q52 -61 88 -176q44 -134 39 -236q-24 -290 -142 -473q-153 -238 -422 -305q-130 -31 -257 22.5t-197 159.5q-132 203 -43 447zM406 481q-5 -102 55.5 -195t152.5 -124q24 -8 41 -8q101 -5 168 96q12 21 8 51q0 23 -13.5 31.5t-33.5 -0.5 q-28 -11 -65 -41q-57 -45 -94 -55q-38 -9 -58 20q-60 82 -43 170q14 64 19 80q60 181 190 258q61 38 137 35q35 -3 52 -23q11 -13 32 -24q12 -5 20 0.5t5 17.5q-7 23 -23 43q-88 98 -221 86q-75 -8 -143 -63q-88 -69 -133 -162.5t-53 -192.5z" />
<glyph unicode="&#xab;" horiz-adv-x="860" d="M2.5 370q-1.5 -24 20.5 -59q21 -34 34 -45q167 -167 224 -221q22 -22 96 -78q26 -22 51 -16q-4 25 -10 33q-14 20 -51 57q-186 176 -220 209q-7 7 -15 16t-17.5 20t-14.5 17q9 13 31 39l135 158l299 368q19 23 18.5 39t-20.5 41q-20 28 -33.5 28t-35.5 -26l-301 -342 q-27 -30 -81 -90.5t-81 -91.5q-27 -32 -28.5 -56zM383 415q-3 -22 18 -61q5 -11 13 -24q106 -156 161 -230q81 -107 193 -178q31 -19 51 -26q24 -12 39 10q-17 27 -22 33q-37 37 -52 47q-38 25 -75 59t-61.5 61.5t-58.5 75.5t-49.5 71t-50.5 79q5 10 11 16q28 41 268 391 q11 14 27 41q9 17 0 39.5t-29 36.5q-12 8 -22 4t-27 -24q-2 -2 -5 -7.5t-5 -7.5l-291 -350q-30 -34 -33 -56z" />
<glyph unicode="&#xac;" horiz-adv-x="1009" d="M4 745q-5 -10 4 -30q25 -61 92 -58q14 1 40 4.5t40 4.5q51 5 148.5 16t142.5 16q24 2 104.5 9.5t124.5 9.5h160l-12 -37q-48 -146 -57 -215q-12 -107 59 -184q20 -25 35 -17q15 7 4 39q-18 48 -2 100q26 91 39 121q36 95 78 193q15 39 -12.5 91.5t-67.5 63.5 q-1 0 -4.5 0.5t-6.5 0.5t-6 -1q-72 -4 -110 -8q-219 -24 -375 -47q-66 -9 -393 -59q-20 -3 -25 -13z" />
<glyph unicode="&#xad;" horiz-adv-x="491" d="M4 500q-6 -26 13.5 -51t45.5 -25q12 0 33 2t31 2q28 2 83.5 5t82.5 5q29 2 82 10t65 9q31 6 47 39q13 34 -18 43q-25 9 -53 6q-15 -1 -43 -5t-41 -5q-142 -9 -289 -15q-17 0 -23 -2q-13 -9 -16 -18z" />
<glyph unicode="&#xae;" horiz-adv-x="923" d="M2 1073q4 -142 97.5 -271.5t228.5 -180.5q194 -70 395 26q97 44 146.5 123.5t52.5 179.5q-6 132 -35 240q-43 167 -129 272q-133 157 -293 142q-134 -11 -195 -93q-8 -8 -28 -20q-117 -90 -183 -205q-60 -107 -57 -213zM90 993q-10 69 8 129q72 248 301 351q27 11 45 14 q48 10 80 -8q4 -2 9 -3.5t12.5 -4t11.5 -3.5q-1 12 -6 22.5t-9 16t-14.5 15.5t-13.5 14q25 10 72 2q61 -14 116 -84q53 -70 82 -162q43 -121 52 -252q6 -138 -65 -234.5t-204 -131.5q-83 -22 -164 -19q-129 9 -213 113q-86 108 -100 225zM209 860q-7 -39 8 -67 q19 -40 47 -37q5 1 8.5 3t6.5 5.5t4.5 5.5t3.5 8t2.5 7t2.5 9l1 7q7 33 22 96t19 80q70 -59 150.5 -97.5t191.5 -76.5q36 -12 61 2q-4 4 -12 17t-14 18q-59 35 -84 47q-31 16 -90 43t-68 31q-1 0 -45 28q50 53 98 101q47 47 62 94q22 75 -29 123q-3 3 -47 36q-10 7 -23 13 t-22.5 10t-26 7.5t-24.5 4.5t-27 4t-25 4q-15 1 -30 -17.5t-13 -35.5q0 -25 -4 -37q-6 -24 -20.5 -72t-20.5 -73q-53 -187 -63 -291zM381 1118q9 30 28.5 89.5t28.5 88.5q51 8 66 -12q15 -21 -6 -63q-32 -63 -111 -105q-1 0 -3 1t-3 1z" />
<glyph unicode="&#xaf;" horiz-adv-x="757" d="M6 1505q31 -77 103 -80l200 -12v6q16 0 45.5 -1t53.5 -1t45 2q81 7 211 29q53 6 81 47q21 27 -6 45q-13 10 -26 10q-86 14 -115 11q-345 -29 -508 -23q-36 4 -59 4q-40 0 -25 -37z" />
<glyph unicode="&#xb0;" horiz-adv-x="473" d="M6 1436q-19 -97 49 -185q38 -46 95 -77q140 -80 276 22q48 34 45 102q-9 91 -45 170q-77 164 -254 170q-67 8 -115 -63q-34 -53 -51 -139zM109 1376q8 54 43 123q9 15 26 25q13 7 60 26q21 8 31 5t22 -23q50 -78 61 -189q3 -46 -22 -77q-37 -46 -94 -58q-50 -13 -82 25 q-54 57 -45 143z" />
<glyph unicode="&#xb1;" horiz-adv-x="661" d="M2 -102q0 -15 12 -23q6 -3 56 -22l32 8l154 37q20 5 98.5 24t120.5 29q26 6 49 22q6 3 10.5 12t4.5 17q0 3 -8.5 7.5t-16.5 6.5q-51 13 -115 -4q-34 -9 -94.5 -23.5t-111.5 -27t-95 -24.5q-40 -9 -78 -23q-6 -2 -12 -7t-6 -9zM121 770q33 -68 96 -53q47 12 115 26 q3 1 6.5 1t8.5 -0.5t9 -0.5q-12 -31 -18 -59q-70 -225 -86 -346q-7 -73 4 -115q12 -46 53 -67q16 -11 23 -4q3 3 8 24v6q-15 59 4 154q27 145 121 414l6 12h66q25 0 38 -25q10 -22 29 -49q14 -21 35 -10q25 11 18 31q-3 26 -16 45q-35 48 -109 69q-30 10 -36 11q8 25 18 53 q17 43 48.5 129t47.5 129q14 35 -14 55q-15 10 -23 14q-30 13 -47 -12q-13 -22 -22 -47q-30 -79 -107 -289q-2 -6 -7 -17.5t-7 -17.5l-45 -6l-176 -37q-7 -2 -22.5 -9.5t-18.5 -8.5z" />
<glyph unicode="&#xb4;" horiz-adv-x="454" d="M12 1139q-18 -18 4 -35q22 -19 66 -23q23 -3 41 19q47 49 141 143q24 23 76 70t76 71q10 9 28 35q17 24 2 43q-8 17 -40 13q-47 -8 -97 -48q-102 -83 -235 -219q-7 -8 -29 -31.5t-33 -37.5z" />
<glyph unicode="&#xb6;" horiz-adv-x="1568" d="M8 975q13 -75 45.5 -136t78 -101.5t96.5 -66t106 -36.5q42 -11 96 -17q-1 -4 -3 -10t-3.5 -11t-3.5 -9l-48 -159l-48 -159q-113 -403 -142 -659q-12 -111 8 -215q1 -10 3.5 -16t9.5 -11t20 -4l13 27q33 76 47 180q54 351 161 702q161 537 390 1137q2 5 38 96l179 -12 l-9 -31q-15 -39 -42.5 -117.5t-41.5 -117.5q-297 -860 -450 -1417q-53 -191 -59 -299q0 -1 -1.5 -12.5t1 -16.5t10.5 -8q6 -4 11 0t6.5 6t4.5 10t4 10q54 96 86 219q190 661 478 1477q70 208 75 221q10 35 -8 56l-6 12q202 -8 457 2q-4 27 -6 29q-29 45 -70 45h-68 q-170 -5 -204 -4q-111 6 -334 26q-221 19 -426 -33q-232 -59 -361 -237q-121 -168 -90 -340z" />
<glyph unicode="&#xb7;" horiz-adv-x="210" d="M2 702q0 -41 28 -72t68 -34q37 -3 68.5 24.5t36.5 65.5q1 6 2 18t2 17q5 31 -19 59q-58 73 -135 19q-2 0 -4 -2q-53 -23 -47 -82v-13z" />
<glyph unicode="&#xb8;" horiz-adv-x="450" d="M85.5 -172q3.5 -10 18.5 -21q43 -32 89 -10q61 26 116 29q31 0 43 -25q6 -8 15 -26q22 -73 -15 -133q-36 -64 -88 -105q-14 -12 -57 -41q-23 10 -23 33t2 33l25 90q6 19 -6 26q-13 11 -31.5 9t-30.5 -15q-11 -11 -14 -22q-25 -59 -37 -101q-9 -28 19 -49q36 -36 92 -45 q40 -8 78 13q96 60 147 155q29 53 16.5 111t-59.5 96q-68 50 -149 41q-5 0 -17 -1t-18 -1l4 16q6 18 41 111q8 20 5 29.5t-22 21.5q-12 7 -32 14q-14 3 -20.5 0t-12.5 -18q-12 -28 -47 -119q-28 -65 -29 -67q-6 -19 -2.5 -29z" />
<glyph unicode="&#xbb;" horiz-adv-x="831" d="M8 -90q-19 -50 21 -100q20 -23 40.5 -20.5t34.5 30.5q62 128 76 153q12 22 46.5 85t52.5 96q76 146 180 352q38 71 -10 133q-8 13 -29 39q-11 15 -33.5 40.5t-30.5 35.5q-158 189 -225 309q-14 20 -39 41q-4 3 -37 14q-5 -17 -6 -23.5t0.5 -14t7.5 -19.5q66 -106 68 -109 q120 -162 213 -280q24 -34 8 -68q-14 -28 -47.5 -102.5t-54.5 -114.5q-26 -51 -91.5 -173.5t-99.5 -190.5q-25 -50 -45 -113zM362 1006q-2 -27 27 -56q94 -106 180 -194q18 -18 119 -115q21 -18 10 -39q-6 -11 -18.5 -40t-20.5 -44q-24 -47 -75 -139t-76 -139 q-36 -74 -70 -170q-19 -54 8 -117q9 -22 25 -25.5t33 11.5q18 17 35 49q2 4 15 35t21 47q25 45 72 125t66 114q46 87 106 207q24 51 -10 94q-37 47 -61 66q-187 160 -289 272q-14 16 -58 51q-22 18 -39 7z" />
<glyph unicode="&#xbf;" horiz-adv-x="1081" d="M4 -281q10 -162 109 -256q43 -40 91 -63t110.5 -23.5t123.5 31.5q137 73 164 88q219 136 350 316q108 152 123 286q17 135 -59 226q-17 22 -39 20v-33q0 -28 4 -82q9 -79 -20 -163q-37 -107 -109 -197q-196 -250 -535 -393q-16 -7 -65 -15q-36 -6 -53 25q-34 55 -47 88 q-24 75 -17 178q5 158 80 334q87 208 250 459q35 55 124.5 188.5t135.5 206.5q99 152 143 289q11 40 19 110q5 32 -31 60q-23 20 -35 -8l-6 -21q-43 -117 -59 -147q-56 -104 -109 -181q-47 -66 -142.5 -198t-142.5 -199q-169 -240 -258 -438q-116 -256 -100 -488zM844 1610 q0 -37 16.5 -67t42.5 -42q5 -3 12 -4t9 2q8 8 4 21q-15 36 12 75q22 37 57 72q22 26 50 31q13 3 17.5 14.5t-1.5 24.5q-8 16 -27 35q-24 24 -44 25.5t-46 -19.5q-66 -56 -92 -127q-3 -7 -5 -15t-3 -16t-2 -10z" />
<glyph unicode="&#xc0;" horiz-adv-x="1112" d="M-61 244q0 -25 29.5 -41t51.5 -4l97 51q2 -10 2 -17q-1 -12 -16.5 -132.5t-20.5 -182.5q-6 -73 4 -156q3 -28 23 -38.5t49 -2.5q11 178 12 185q12 178 47 356q6 29 31 37q205 71 344 80q108 10 194 -37v-41q-2 -32 -7 -98t-7 -101q-12 -250 -12 -254q-2 -57 -2 -172 q0 -39 28 -47q48 -15 66 0v74q0 49 6 102l33 310q37 338 43 389q34 259 102 573q49 216 70 355q11 59 -2 124q-13 58 -62 83t-106 3q-34 -13 -47 -22q-113 -61 -205 -147q-171 -161 -315 -435q-130 -251 -213 -612q-9 -59 -19 -70q-6 -8 -17 -13.5t-27 -10.5t-23 -8 q-87 -43 -111 -56q-8 -3 -14 -10.5t-6 -13.5zM248 387v23q87 365 211 602q109 204 246 352q112 115 227 178q15 8 88 37q-1 -9 -1 -19.5t-0.5 -18t-2.5 -13.5q-7 -29 -21 -95.5t-25.5 -115.5t-23.5 -94q-96 -405 -121 -572q-6 -46 -17 -132.5t-17 -127.5h-7q-136 80 -335 41 q-15 -2 -183 -41q-2 -1 -8.5 -2t-9.5 -2zM936 2007q2 -6 10 -18q109 -151 148 -207l77 -99q29 -37 72 -49q6 -2 16 -2.5t13 -1.5q6 17 -12 35q-18 19 -33.5 39.5t-38.5 54.5t-29 43q-18 29 -56 85.5t-56 84.5q-26 39 -78 45q-20 8 -33 -10z" />
<glyph unicode="&#xc1;" horiz-adv-x="1112" d="M-61 244q0 -25 29.5 -41t51.5 -4l97 51q2 -10 2 -17q-1 -12 -16.5 -132.5t-20.5 -182.5q-6 -73 4 -156q3 -28 23 -38.5t49 -2.5q11 178 12 185q12 178 47 356q6 29 31 37q205 71 344 80q108 10 194 -37v-41q-2 -32 -7 -98t-7 -101q-12 -250 -12 -254q-2 -57 -2 -172 q0 -39 28 -47q48 -15 66 0v74q0 49 6 102l33 310q37 338 43 389q34 259 102 573q49 216 70 355q11 59 -2 124q-13 58 -62 83t-106 3q-34 -13 -47 -22q-113 -61 -205 -147q-171 -161 -315 -435q-130 -251 -213 -612q-9 -59 -19 -70q-6 -8 -17 -13.5t-27 -10.5t-23 -8 q-87 -43 -111 -56q-8 -3 -14 -10.5t-6 -13.5zM248 387v23q87 365 211 602q109 204 246 352q112 115 227 178q15 8 88 37q-1 -9 -1 -19.5t-0.5 -18t-2.5 -13.5q-7 -29 -21 -95.5t-25.5 -115.5t-23.5 -94q-96 -405 -121 -572q-6 -46 -17 -132.5t-17 -127.5h-7q-136 80 -335 41 q-15 -2 -183 -41q-2 -1 -8.5 -2t-9.5 -2zM805 1751q-18 -18 4 -35q20 -18 65 -22q24 -3 41 18q23 24 142 143q24 23 75 70.5t76 71.5q13 11 29 35q17 24 2 43q-8 16 -41 12q-47 -8 -96 -47q-107 -87 -236 -219q-7 -8 -19.5 -21.5t-22.5 -25.5t-19 -23z" />
<glyph unicode="&#xc2;" horiz-adv-x="1112" d="M-61 244q0 -25 29.5 -41t51.5 -4l97 51q2 -10 2 -17q-1 -12 -16.5 -132.5t-20.5 -182.5q-6 -73 4 -156q3 -28 23 -38.5t49 -2.5q11 178 12 185q12 178 47 356q6 29 31 37q205 71 344 80q108 10 194 -37v-41q-2 -32 -7 -98t-7 -101q-12 -250 -12 -254q-2 -57 -2 -172 q0 -39 28 -47q48 -15 66 0v74q0 49 6 102l33 310q37 338 43 389q34 259 102 573q49 216 70 355q11 59 -2 124q-13 58 -62 83t-106 3q-34 -13 -47 -22q-113 -61 -205 -147q-171 -161 -315 -435q-130 -251 -213 -612q-9 -59 -19 -70q-6 -8 -17 -13.5t-27 -10.5t-23 -8 q-87 -43 -111 -56q-8 -3 -14 -10.5t-6 -13.5zM248 387v23q87 365 211 602q109 204 246 352q112 115 227 178q15 8 88 37q-1 -9 -1 -19.5t-0.5 -18t-2.5 -13.5q-7 -29 -21 -95.5t-25.5 -115.5t-23.5 -94q-96 -405 -121 -572q-6 -46 -17 -132.5t-17 -127.5h-7q-136 80 -335 41 q-15 -2 -183 -41q-2 -1 -8.5 -2t-9.5 -2zM755 1707.5q2 -8.5 19 -17.5q62 -28 92 18q6 10 97 145q46 66 71 103q7 -20 10 -25q12 -27 32 -80t32 -79q9 -21 37 -58q22 -32 67 -35q30 0 15 27q-32 68 -35 74q-48 139 -76 213q-3 13 -12 32q-21 38 -84 46q-15 2 -27 -5 t-16.5 -13t-13.5 -21l-5 -7q-95 -147 -108 -165q-79 -117 -88 -129q-9 -15 -7 -23.5z" />
<glyph unicode="&#xc3;" horiz-adv-x="1112" d="M-61 244q0 -25 29.5 -41t51.5 -4l97 51q2 -10 2 -17q-1 -12 -16.5 -132.5t-20.5 -182.5q-6 -73 4 -156q3 -28 23 -38.5t49 -2.5q11 178 12 185q12 178 47 356q6 29 31 37q205 71 344 80q108 10 194 -37v-41q-2 -32 -7 -98t-7 -101q-12 -250 -12 -254q-2 -57 -2 -172 q0 -39 28 -47q48 -15 66 0v74q0 49 6 102l33 310q37 338 43 389q34 259 102 573q49 216 70 355q11 59 -2 124q-13 58 -62 83t-106 3q-34 -13 -47 -22q-113 -61 -205 -147q-171 -161 -315 -435q-130 -251 -213 -612q-9 -59 -19 -70q-6 -8 -17 -13.5t-27 -10.5t-23 -8 q-87 -43 -111 -56q-8 -3 -14 -10.5t-6 -13.5zM248 387v23q87 365 211 602q109 204 246 352q112 115 227 178q15 8 88 37q-1 -9 -1 -19.5t-0.5 -18t-2.5 -13.5q-7 -29 -21 -95.5t-25.5 -115.5t-23.5 -94q-96 -405 -121 -572q-6 -46 -17 -132.5t-17 -127.5h-7q-136 80 -335 41 q-15 -2 -183 -41q-2 -1 -8.5 -2t-9.5 -2zM731 1812q-21 -55 37 -67q21 -3 28 1.5t13 25.5q18 69 68 92q35 12 55 -11q30 -28 82 -69q89 -68 211 -78q56 0 75 27q26 33 43 65q20 42 -24 60q-24 8 -33 8q-20 0 -22 -15q-2 -14 -8.5 -25.5t-22 -28t-19.5 -21.5q-17 -17 -32 -13 q-47 7 -78 31q-9 6 -25.5 18.5t-19.5 14.5q-7 6 -23 19.5t-29 23.5t-26 18q-59 39 -117 31q-94 -14 -133 -107z" />
<glyph unicode="&#xc4;" horiz-adv-x="1112" d="M-61 244q0 -25 29.5 -41t51.5 -4l97 51q2 -10 2 -17q-1 -12 -16.5 -132.5t-20.5 -182.5q-6 -73 4 -156q3 -28 23 -38.5t49 -2.5q11 178 12 185q12 178 47 356q6 29 31 37q205 71 344 80q108 10 194 -37v-41q-2 -32 -7 -98t-7 -101q-12 -250 -12 -254q-2 -57 -2 -172 q0 -39 28 -47q48 -15 66 0v74q0 49 6 102l33 310q37 338 43 389q34 259 102 573q49 216 70 355q11 59 -2 124q-13 58 -62 83t-106 3q-34 -13 -47 -22q-113 -61 -205 -147q-171 -161 -315 -435q-130 -251 -213 -612q-9 -59 -19 -70q-6 -8 -17 -13.5t-27 -10.5t-23 -8 q-87 -43 -111 -56q-8 -3 -14 -10.5t-6 -13.5zM248 387v23q87 365 211 602q109 204 246 352q112 115 227 178q15 8 88 37q-1 -9 -1 -19.5t-0.5 -18t-2.5 -13.5q-7 -29 -21 -95.5t-25.5 -115.5t-23.5 -94q-96 -405 -121 -572q-6 -46 -17 -132.5t-17 -127.5h-7q-136 80 -335 41 q-15 -2 -183 -41q-2 -1 -8.5 -2t-9.5 -2zM694 1845q-3 -51 33 -80q17 -16 41.5 -27t41.5 -15t48 -9h8q62 3 56 66q0 12 2 16q13 38 -19 74q-30 34 -59 43q-51 21 -74 26q-20 8 -31.5 4.5t-21.5 -20.5q-25 -36 -25 -78zM1130 1810q0 -84 93 -106q54 -17 98 27q41 44 22 106 q-24 66 -106 76q-33 5 -63.5 -14.5t-36.5 -55.5z" />
<glyph unicode="&#xc5;" horiz-adv-x="1112" d="M-61 244q0 -25 29.5 -41t51.5 -4l97 51q2 -10 2 -17q-1 -12 -16.5 -132.5t-20.5 -182.5q-6 -73 4 -156q3 -28 23 -38.5t49 -2.5q11 178 12 185q12 178 47 356q6 29 31 37q205 71 344 80q108 10 194 -37v-41q-2 -32 -7 -98t-7 -101q-12 -250 -12 -254q-2 -57 -2 -172 q0 -39 28 -47q48 -15 66 0v74q0 49 6 102l33 310q37 338 43 389q34 259 102 573q49 216 70 355q11 59 -2 124q-13 58 -62 83t-106 3q-34 -13 -47 -22q-113 -61 -205 -147q-171 -161 -315 -435q-130 -251 -213 -612q-9 -59 -19 -70q-6 -8 -17 -13.5t-27 -10.5t-23 -8 q-87 -43 -111 -56q-8 -3 -14 -10.5t-6 -13.5zM248 387v23q87 365 211 602q109 204 246 352q112 115 227 178q15 8 88 37q-1 -9 -1 -19.5t-0.5 -18t-2.5 -13.5q-7 -29 -21 -95.5t-25.5 -115.5t-23.5 -94q-96 -405 -121 -572q-6 -46 -17 -132.5t-17 -127.5h-7q-136 80 -335 41 q-15 -2 -183 -41q-2 -1 -8.5 -2t-9.5 -2zM976 1907q-7 -76 25 -135q23 -41 65 -60.5t82.5 -17t68.5 21.5q67 47 57 109q-28 143 -121 209q-8 0 -12 2l6 6q22 4 35 6q-5 10 -11 16q-47 28 -86 15q-33 -10 -61 -45q-41 -51 -48 -127zM1061 1837q-6 83 35 154q2 4 8 10 q9 -12 16 -19q43 -63 58 -145q10 -59 -37 -92q-19 -11 -29 -9t-22 19q-22 30 -29 82z" />
<glyph unicode="&#xc6;" horiz-adv-x="1982" d="M-59 -285q-8 -23 4 -39q17 -22 65 -18q7 1 11.5 3t7 7t3.5 7.5t3 10.5t2 9q70 259 203 547q7 19 16 30q10 -1 26 -4t23 -4v27q133 81 414 203t338 124v-6l-13 -28q-35 -87 -56.5 -144.5t-45.5 -138t-37 -151.5q-13 -63 -10 -119q12 -114 78 -219q60 -96 160.5 -136.5 t205.5 -9.5q127 36 222 152q13 15 26 55q7 18 -4 33q-6 7 -16.5 6.5t-18.5 -6.5q-8 -4 -75 -47q-19 -14 -56 -42t-57 -42q-61 -46 -129 -60q-37 -6 -68 15q-27 18 -37 30q-127 155 -98 338q9 49 14 70q42 152 142 391l49 117q23 3 62 10.5t53 9.5q190 27 321 -41 q8 -5 31 -14q2 -1 29 -4q-5 7 -13 20t-12 17q-8 6 -21 17.5t-24.5 20.5t-22.5 15q-129 75 -303 59l-51 -6q2 5 4.5 11.5t4 10.5t3.5 7l240 559q7 16 29 23q87 18 114 22q179 24 357 51q42 5 104 19q36 12 49 37q-3 2 -9.5 6t-11.5 7t-9 5q-40 8 -66 8q-59 0 -117 -6 q-74 -8 -321 -41q-13 -2 -38.5 -5t-37.5 -5q12 85 14 113q3 70 -53.5 118t-130.5 27q-66 -17 -156 -70q-295 -171 -528 -454q-308 -382 -524 -813q-153 -307 -215 -516q-26 -93 -43 -179zM340 436q-2 12 12 35q156 300 391 619q104 145 220 258q182 175 376 286 q52 25 101 43q8 3 17 4t23.5 2.5t24.5 2.5q-2 -11 -4.5 -30t-5 -32.5t-6.5 -24.5q-20 -61 -55 -147q-52 -128 -159 -359.5t-145 -318.5q-16 -32 -45 -39q-332 -94 -708 -280q-18 -11 -37 -19z" />
<glyph unicode="&#xc7;" horiz-adv-x="1073" d="M0 240q0 374 147 770q80 213 226 387q58 70 137 119q117 71 252 36q113 -30 199 -110q37 -33 51 -72q0 -6 4 -14q9 -44 -15 -58q-15 -6 -36 2t-31 25q-2 3 -8 21q-58 137 -205 100q-96 -25 -191 -123q-118 -123 -206 -311q-138 -298 -164 -600q-13 -182 -13 -252 q0 -215 70 -361q19 -42 68 -106q46 -62 131 -39q42 13 94 45q91 56 164 145q13 17 71.5 89t82 102.5t67 89t73.5 107t56 98.5q31 63 57 70q15 4 20 -20l1 -9q4 -24 -15 -68q-66 -143 -163 -276q-108 -147 -199 -254q-54 -63 -131 -117q-83 -60 -176 -66q0 -2 -4 -14 q-20 -45 -31 -82l-4 -12h27q57 8 112 -31q37 -29 46 -72.5t-13 -83.5q-39 -70 -111 -118q-28 -14 -59 -8q-45 6 -70 34q-21 14 -14 37q12 41 29 76q0 6 10 16q9 11 22.5 12t24.5 -8q7 -5 4 -20l-18 -68q-2 -8 -2 -24q0 -17 16 -25q3 2 20 13t25 18q44 38 66 80q27 47 10 100 q-4 12 -10 21q-9 18 -33 18q-41 -3 -88 -22q-37 -18 -66 8q-22 14 -12 37q16 44 20 51q5 13 14.5 37t14.5 37q-47 8 -104 34q-63 30 -123 119q-85 143 -103 299q-4 28 -14 191z" />
<glyph unicode="&#xc8;" horiz-adv-x="1253" d="M-57 -47q13 -149 133 -205q64 -28 129 -31q203 -9 420 50q165 45 274 124q76 55 123 142q27 59 18 98q-5 21 -14 21q-6 2 -15 -1.5t-12 -9.5q-42 -47 -51 -65q-78 -137 -237 -205q-221 -98 -510 -98q-60 0 -97 53q-27 41 -36 96q-11 64 4 172q20 135 90 357q9 27 37 38 q34 14 119.5 52.5t132.5 56.5q93 36 147.5 54t137 34.5t155.5 13.5q4 0 37 11q-27 37 -78 45q-71 16 -188 -11q-166 -39 -412 -139q-12 -6 -33 -12q2 4 3.5 10t2.5 8q180 436 471 889q14 20 35 29q50 16 107 39q247 85 419 112q32 8 71.5 4.5t68.5 -26.5l22 -4 q-12 33 -14 35q-38 52 -86 57q-70 8 -103 4q-111 -19 -217 -45q-57 -14 -241 -70q-4 2 -13 11q-22 17 -34.5 16t-32.5 -21q-29 -29 -31 -32q-13 -20 -41 -31q-62 -22 -110 -47q-31 -12 -72 -41q-24 -16 -12 -41q21 -44 55 -49q15 17 21.5 21.5t29.5 11.5l-27 -41 q-269 -415 -428 -842q-11 -36 -43 -55q-23 -12 -24.5 -24t16.5 -34q2 -4 6 -8l-51 -199q-35 -159 -22 -278zM670 2140q2 -6 10 -18q74 -102 147 -207l78 -98q30 -38 72 -50q6 -2 16 -2.5t13 -1.5q6 17 -13 35q-18 18 -33.5 39.5t-37 53.5t-29.5 44q-19 28 -57 85t-56 85 q-26 39 -78 45q-19 8 -32 -10z" />
<glyph unicode="&#xc9;" horiz-adv-x="1253" d="M-57 -47q13 -149 133 -205q64 -28 129 -31q203 -9 420 50q165 45 274 124q76 55 123 142q27 59 18 98q-5 21 -14 21q-6 2 -15 -1.5t-12 -9.5q-42 -47 -51 -65q-78 -137 -237 -205q-221 -98 -510 -98q-60 0 -97 53q-27 41 -36 96q-11 64 4 172q20 135 90 357q9 27 37 38 q34 14 119.5 52.5t132.5 56.5q93 36 147.5 54t137 34.5t155.5 13.5q4 0 37 11q-27 37 -78 45q-71 16 -188 -11q-166 -39 -412 -139q-12 -6 -33 -12q2 4 3.5 10t2.5 8q180 436 471 889q14 20 35 29q50 16 107 39q247 85 419 112q32 8 71.5 4.5t68.5 -26.5l22 -4 q-12 33 -14 35q-38 52 -86 57q-70 8 -103 4q-111 -19 -217 -45q-57 -14 -241 -70q-4 2 -13 11q-22 17 -34.5 16t-32.5 -21q-29 -29 -31 -32q-13 -20 -41 -31q-62 -22 -110 -47q-31 -12 -72 -41q-24 -16 -12 -41q21 -44 55 -49q15 17 21.5 21.5t29.5 11.5l-27 -41 q-269 -415 -428 -842q-11 -36 -43 -55q-23 -12 -24.5 -24t16.5 -34q2 -4 6 -8l-51 -199q-35 -159 -22 -278zM713 1817q-18 -18 4 -35q22 -19 65 -23q23 -3 41 19q24 25 142 143q24 24 75 71t76 70q13 11 29 35q17 24 2 43q-8 16 -41 12q-47 -8 -96 -47q-107 -87 -236 -219 q-5 -6 -27 -30t-34 -39z" />
<glyph unicode="&#xca;" horiz-adv-x="1253" d="M-57 -47q13 -149 133 -205q64 -28 129 -31q203 -9 420 50q165 45 274 124q76 55 123 142q27 59 18 98q-5 21 -14 21q-6 2 -15 -1.5t-12 -9.5q-42 -47 -51 -65q-78 -137 -237 -205q-221 -98 -510 -98q-60 0 -97 53q-27 41 -36 96q-11 64 4 172q20 135 90 357q9 27 37 38 q34 14 119.5 52.5t132.5 56.5q93 36 147.5 54t137 34.5t155.5 13.5q4 0 37 11q-27 37 -78 45q-71 16 -188 -11q-166 -39 -412 -139q-12 -6 -33 -12q2 4 3.5 10t2.5 8q180 436 471 889q14 20 35 29q50 16 107 39q247 85 419 112q32 8 71.5 4.5t68.5 -26.5l22 -4 q-12 33 -14 35q-38 52 -86 57q-70 8 -103 4q-111 -19 -217 -45q-57 -14 -241 -70q-4 2 -13 11q-22 17 -34.5 16t-32.5 -21q-29 -29 -31 -32q-13 -20 -41 -31q-62 -22 -110 -47q-31 -12 -72 -41q-24 -16 -12 -41q21 -44 55 -49q15 17 21.5 21.5t29.5 11.5l-27 -41 q-269 -415 -428 -842q-11 -36 -43 -55q-23 -12 -24.5 -24t16.5 -34q2 -4 6 -8l-51 -199q-35 -159 -22 -278zM689.5 1799.5q2.5 -8.5 19.5 -17.5q62 -28 92 18q22 35 96 146q8 11 33 46t39 56q7 -20 10 -25q12 -26 32 -79t31 -80q9 -21 37 -58q21 -31 68 -34q28 0 14 26 q-32 67 -35 74q-61 175 -75 213q-2 12 -13 33q-20 37 -84 45q-15 2 -27 -5t-16.5 -13t-13.5 -21l-4 -6q-91 -141 -109 -166q-79 -117 -88 -129q-9 -15 -6.5 -23.5z" />
<glyph unicode="&#xcb;" horiz-adv-x="1253" d="M-57 -47q13 -149 133 -205q64 -28 129 -31q203 -9 420 50q165 45 274 124q76 55 123 142q27 59 18 98q-5 21 -14 21q-6 2 -15 -1.5t-12 -9.5q-42 -47 -51 -65q-78 -137 -237 -205q-221 -98 -510 -98q-60 0 -97 53q-27 41 -36 96q-11 64 4 172q20 135 90 357q9 27 37 38 q34 14 119.5 52.5t132.5 56.5q93 36 147.5 54t137 34.5t155.5 13.5q4 0 37 11q-27 37 -78 45q-71 16 -188 -11q-166 -39 -412 -139q-12 -6 -33 -12q2 4 3.5 10t2.5 8q180 436 471 889q14 20 35 29q50 16 107 39q247 85 419 112q32 8 71.5 4.5t68.5 -26.5l22 -4 q-12 33 -14 35q-38 52 -86 57q-70 8 -103 4q-111 -19 -217 -45q-57 -14 -241 -70q-4 2 -13 11q-22 17 -34.5 16t-32.5 -21q-29 -29 -31 -32q-13 -20 -41 -31q-62 -22 -110 -47q-31 -12 -72 -41q-24 -16 -12 -41q21 -44 55 -49q15 17 21.5 21.5t29.5 11.5l-27 -41 q-269 -415 -428 -842q-11 -36 -43 -55q-23 -12 -24.5 -24t16.5 -34q2 -4 6 -8l-51 -199q-35 -159 -22 -278zM676 1985q-3 -51 33 -80q38 -36 131 -52h8q61 3 55 66q0 12 2 16q13 39 -18 74q-30 33 -60 43q-59 24 -73 27q-20 8 -32 4t-22 -21q-24 -35 -24 -77zM1112 1950 q0 -85 92 -107q54 -18 99 27q41 44 22 106q-24 66 -106 76q-33 5 -64 -14.5t-37 -55.5z" />
<glyph unicode="&#xcc;" horiz-adv-x="524" d="M-61 -614q-4 -25 30 -50q16 -13 39 0q97 56 176 95q180 84 297 100q145 21 205 -82l12 -18l17 -6q17 19 4 45q-28 46 -47 65q-87 95 -244 74q-15 -3 -31 -6.5t-36.5 -8.5t-32.5 -8q-42 63 -56 131q-33 121 -18 310q13 184 63 440q83 397 205 774q19 59 61 168t52 137 q14 42 61 39h78q104 -4 162 -49q5 -4 18 -9.5t21 -10.5l-8 32q-21 50 -72 78q-54 28 -123 31q-174 8 -407 -39q-65 -15 -129 -33q-25 -4 -25 -24q0 -28 16.5 -42t42.5 -8q84 23 158 37q13 3 27.5 5.5t32 6t28.5 5.5q-8 -24 -26 -74t-27 -76q-195 -636 -266 -1079 q-45 -289 -31 -479q10 -131 57 -217q11 -24 45 -72q-170 -80 -190 -90q-10 -5 -117 -68q-20 -15 -22 -24zM502 2126q3 -8 10 -19q98 -136 147 -206l78 -99q29 -37 72 -49q6 -2 16 -2.5t13 -1.5q6 17 -13 35q-18 18 -33.5 39.5t-37 53.5t-29.5 44q-19 28 -57 85t-56 85 q-26 39 -77 45q-20 8 -33 -10z" />
<glyph unicode="&#xcd;" horiz-adv-x="524" d="M-61 -614q-4 -25 30 -50q16 -13 39 0q97 56 176 95q180 84 297 100q145 21 205 -82l12 -18l17 -6q17 19 4 45q-28 46 -47 65q-87 95 -244 74q-15 -3 -31 -6.5t-36.5 -8.5t-32.5 -8q-42 63 -56 131q-33 121 -18 310q13 184 63 440q83 397 205 774q19 59 61 168t52 137 q14 42 61 39h78q104 -4 162 -49q5 -4 18 -9.5t21 -10.5l-8 32q-21 50 -72 78q-54 28 -123 31q-174 8 -407 -39q-65 -15 -129 -33q-25 -4 -25 -24q0 -28 16.5 -42t42.5 -8q84 23 158 37q13 3 27.5 5.5t32 6t28.5 5.5q-8 -24 -26 -74t-27 -76q-195 -636 -266 -1079 q-45 -289 -31 -479q10 -131 57 -217q11 -24 45 -72q-170 -80 -190 -90q-10 -5 -117 -68q-20 -15 -22 -24zM428 1769q-18 -18 4 -34q22 -19 66 -23q23 -3 41 19q47 49 141 143q24 24 75 71t76 70q13 11 29 35q17 24 2 43q-8 16 -41 12q-47 -8 -96 -47q-107 -87 -236 -219 q-7 -8 -19.5 -21.5t-22.5 -25.5t-19 -23z" />
<glyph unicode="&#xce;" horiz-adv-x="524" d="M-61 -614q-4 -25 30 -50q16 -13 39 0q97 56 176 95q180 84 297 100q145 21 205 -82l12 -18l17 -6q17 19 4 45q-28 46 -47 65q-87 95 -244 74q-15 -3 -31 -6.5t-36.5 -8.5t-32.5 -8q-42 63 -56 131q-33 121 -18 310q13 184 63 440q83 397 205 774q19 59 61 168t52 137 q14 42 61 39h78q104 -4 162 -49q5 -4 18 -9.5t21 -10.5l-8 32q-21 50 -72 78q-54 28 -123 31q-174 8 -407 -39q-65 -15 -129 -33q-25 -4 -25 -24q0 -28 16.5 -42t42.5 -8q84 23 158 37q13 3 27.5 5.5t32 6t28.5 5.5q-8 -24 -26 -74t-27 -76q-195 -636 -266 -1079 q-45 -289 -31 -479q10 -131 57 -217q11 -24 45 -72q-170 -80 -190 -90q-10 -5 -117 -68q-20 -15 -22 -24zM372 1719.5q2 -8.5 19 -17.5q62 -28 92 18q12 20 97 146q68 98 71 102q5 -15 11 -24q12 -27 32 -80.5t31 -79.5q9 -21 37 -58q21 -31 67 -34q29 0 15 26 q-32 67 -35 74q-48 140 -76 213q-3 15 -12 33q-20 37 -84 45q-15 2 -27 -5t-16.5 -13t-13.5 -21l-5 -6q-104 -161 -108 -166q-79 -117 -88 -129q-9 -15 -7 -23.5z" />
<glyph unicode="&#xcf;" horiz-adv-x="524" d="M-61 -614q-4 -25 30 -50q16 -13 39 0q97 56 176 95q180 84 297 100q145 21 205 -82l12 -18l17 -6q17 19 4 45q-28 46 -47 65q-87 95 -244 74q-15 -3 -31 -6.5t-36.5 -8.5t-32.5 -8q-42 63 -56 131q-33 121 -18 310q13 184 63 440q83 397 205 774q19 59 61 168t52 137 q14 42 61 39h78q104 -4 162 -49q5 -4 18 -9.5t21 -10.5l-8 32q-21 50 -72 78q-54 28 -123 31q-174 8 -407 -39q-65 -15 -129 -33q-25 -4 -25 -24q0 -28 16.5 -42t42.5 -8q84 23 158 37q13 3 27.5 5.5t32 6t28.5 5.5q-8 -24 -26 -74t-27 -76q-195 -636 -266 -1079 q-45 -289 -31 -479q10 -131 57 -217q11 -24 45 -72q-170 -80 -190 -90q-10 -5 -117 -68q-20 -15 -22 -24zM299 1901q-3 -51 33 -80q38 -36 131 -52h8q61 3 55 66q0 12 2 16q13 39 -18 74q-30 34 -59 43q-58 23 -74 27q-20 7 -31 3.5t-22 -20.5q-25 -36 -25 -77zM735 1866 q0 -85 92 -107q54 -18 99 27q41 44 22 106q-24 66 -106 76q-33 5 -64 -14.5t-37 -55.5z" />
<glyph unicode="&#xd0;" horiz-adv-x="1439" d="M6 647q13 -17 43 -51q14 -11 33 2q79 55 225 117q-2 -16 -6 -31q-3 -14 -26.5 -118t-34.5 -160q-13 -55 -43 -91q-115 -145 -136 -290q-18 -117 58.5 -194.5t177.5 -66.5q9 1 68 11q195 43 372 184q183 145 346 358q199 256 287 521q73 216 68 389q-6 186 -113 309 q-200 238 -532 190q-160 -21 -349 -118q-185 -98 -303 -219q-99 -99 -123 -207q-19 -102 68 -183q24 -20 45 -4q-3 6 -8 18.5t-8 18.5q-22 31 -13 68q16 55 29 76q54 82 86 114q126 131 326 232l28 12l-8 -29q-122 -329 -209 -637q-7 -25 -35 -37q-141 -53 -256 -116 q-29 -18 -47 -31q-23 -17 -10 -37zM184 -129q-19 87 17 180q19 -75 28 -104q5 -14 7 -19.5t9.5 -13.5t18.5 -8q12 1 19 9t9 14t5 20q11 33 14 78l25 225q3 37 29 57q59 53 118 60q2 0 9.5 1t10.5 1t9.5 2t10.5 4t9 6t9 10q-51 68 -166 58q3 14 10.5 48t11.5 52 q49 172 54 192q6 27 32 33q118 34 213 31q49 0 72 16q2 15 -20 33q-55 39 -117 39l-105 -6h-32q10 30 26.5 83t22.5 70q56 160 151 420q6 22 8 27q24 57 -12 96l34.5 11.5t39.5 11.5q178 45 321 10q83 -19 150 -68q106 -76 119 -215q10 -124 -31 -295q-87 -352 -340 -653 q-192 -227 -369 -354q-205 -140 -430 -162z" />
<glyph unicode="&#xd1;" horiz-adv-x="1310" d="M-61 348q0 -19 4 -65q0 -37 34 -54q22 -8 48 -12q43 -9 61 31q5 12 16.5 36.5t16.5 37.5q19 43 56.5 131t68 156.5t59.5 129.5q173 368 422 650q116 133 221 206q5 4 17.5 11t19.5 12q0 -7 0.5 -15.5t0.5 -14t-1 -9.5q-14 -115 -20 -143q-23 -116 -70 -350t-70 -351 q-50 -262 -59 -520q-10 -282 20 -500q13 -100 45 -186q20 -49 79 -58t91 40q31 46 45 83q31 77 130 332q7 17 39 103.5t45.5 120.5t41 96t54.5 110q11 19 14 35q2 8 2.5 24.5t1.5 22.5q-33 -8 -37 -12q-53 -49 -67 -68q-30 -46 -51 -96q-49 -112 -127 -315q-21 -53 -63 -161 t-64 -161q-5 -12 -17 -35t-14 -26h-10q-2 21 -9 73.5t-8 81.5q-15 323 15 646q19 176 79 503l99 525q15 83 12 172q-1 39 -24.5 72t-56 49.5t-71 15.5t-69.5 -23q-60 -44 -78 -61q-251 -218 -453 -549q-133 -217 -274 -534l-16 -31q-2 8 -2 14q31 326 38 383q43 369 164 623 q11 21 -8 37q-48 41 -82 -5q-37 -43 -57 -88q-63 -128 -101 -301q-81 -384 -81 -819zM330 1880q-21 -56 37 -68q21 -3 28 1.5t13 25.5q18 69 67 92q35 12 55 -10q37 -35 82 -70q87 -67 211 -77q19 0 30 1t24.5 7t21.5 18q25 31 43 66q20 41 -24 59q-24 8 -33 8 q-21 0 -23 -14t-8 -25t-22.5 -30t-18.5 -21q-17 -17 -33 -12q-47 7 -78 31q-2 1 -45 32q-8 7 -23 20t-28 23.5t-26 18.5q-59 39 -117 31q-94 -14 -133 -107z" />
<glyph unicode="&#xd2;" horiz-adv-x="1611" d="M-37 950q44 -171 162 -270q6 -5 51 -39q0 -8 -2 -10l-12 -41q-77 -235 -51 -424q12 -95 51.5 -172t93.5 -125.5t122 -80t137 -42.5t138 -6q144 9 281 96q342 215 506 541q248 496 -51 964q-176 279 -517 412q-232 90 -456 49q-244 -45 -363 -241q-168 -282 -90 -611z M41 1010q-37 244 82 465q130 242 412 264q415 36 706 -307q223 -268 205 -631q-12 -233 -129 -432q-162 -273 -408 -445q-132 -94 -262 -121q-108 -21 -195.5 18.5t-146.5 123.5q-65 95 -74 221q-17 199 66 418q0 1 6 10l62 -12q259 -51 471 -4q101 24 170 67q80 52 118 129 q24 49 11 92q-4 17 -15.5 19.5t-23.5 -11.5q-25 -25 -39 -53q-68 -125 -221 -174q-166 -51 -363 -29q-20 2 -117 17q-30 6 -37 8q31 77 72 137q67 108 156 166q55 33 83 36q22 1 42 -5q1 0 4.5 2t5.5 2q6 20 -20 37q-58 42 -138 22q-92 -24 -174 -106q-65 -68 -127 -191 q-4 -7 -24 -53q-38 38 -54 58q-81 104 -104 262zM778 2169q3 -8 10 -19q133 -185 148 -206l78 -99q29 -38 71 -49q6 -2 16 -2.5t13 -1.5q6 17 -12 35q-18 19 -33.5 39.5t-38.5 54.5t-29 43q-19 28 -56 84.5t-56 85.5q-26 39 -78 45q-20 8 -33 -10z" />
<glyph unicode="&#xd3;" horiz-adv-x="1611" d="M-37 950q44 -171 162 -270q6 -5 51 -39q0 -8 -2 -10l-12 -41q-77 -235 -51 -424q12 -95 51.5 -172t93.5 -125.5t122 -80t137 -42.5t138 -6q144 9 281 96q342 215 506 541q248 496 -51 964q-176 279 -517 412q-232 90 -456 49q-244 -45 -363 -241q-168 -282 -90 -611z M41 1010q-37 244 82 465q130 242 412 264q415 36 706 -307q223 -268 205 -631q-12 -233 -129 -432q-162 -273 -408 -445q-132 -94 -262 -121q-108 -21 -195.5 18.5t-146.5 123.5q-65 95 -74 221q-17 199 66 418q0 1 6 10l62 -12q259 -51 471 -4q101 24 170 67q80 52 118 129 q24 49 11 92q-4 17 -15.5 19.5t-23.5 -11.5q-25 -25 -39 -53q-68 -125 -221 -174q-166 -51 -363 -29q-20 2 -117 17q-30 6 -37 8q31 77 72 137q67 108 156 166q55 33 83 36q22 1 42 -5q1 0 4.5 2t5.5 2q6 20 -20 37q-58 42 -138 22q-92 -24 -174 -106q-65 -68 -127 -191 q-4 -7 -24 -53q-38 38 -54 58q-81 104 -104 262zM639 1939q-18 -18 4 -34q22 -19 66 -23q23 -3 41 19q47 49 141 143q25 23 76 70t75 71q13 11 29 35q17 24 2 43q-8 16 -41 12q-47 -8 -96 -47q-107 -87 -236 -219q-7 -8 -19.5 -21.5t-22.5 -25.5t-19 -23z" />
<glyph unicode="&#xd4;" horiz-adv-x="1611" d="M-37 950q44 -171 162 -270q6 -5 51 -39q0 -8 -2 -10l-12 -41q-77 -235 -51 -424q12 -95 51.5 -172t93.5 -125.5t122 -80t137 -42.5t138 -6q144 9 281 96q342 215 506 541q248 496 -51 964q-176 279 -517 412q-232 90 -456 49q-244 -45 -363 -241q-168 -282 -90 -611z M41 1010q-37 244 82 465q130 242 412 264q415 36 706 -307q223 -268 205 -631q-12 -233 -129 -432q-162 -273 -408 -445q-132 -94 -262 -121q-108 -21 -195.5 18.5t-146.5 123.5q-65 95 -74 221q-17 199 66 418q0 1 6 10l62 -12q259 -51 471 -4q101 24 170 67q80 52 118 129 q24 49 11 92q-4 17 -15.5 19.5t-23.5 -11.5q-25 -25 -39 -53q-68 -125 -221 -174q-166 -51 -363 -29q-20 2 -117 17q-30 6 -37 8q31 77 72 137q67 108 156 166q55 33 83 36q22 1 42 -5q1 0 4.5 2t5.5 2q6 20 -20 37q-58 42 -138 22q-92 -24 -174 -106q-65 -68 -127 -191 q-4 -7 -24 -53q-38 38 -54 58q-81 104 -104 262zM601.5 1924.5q2.5 -8.5 19.5 -17.5q62 -28 92 18q22 35 96 146q8 11 33 46t39 56q7 -20 10 -25q12 -26 32 -79t31 -80q9 -21 37 -58q22 -32 68 -35q29 0 14 27q-32 67 -35 74q-61 175 -75 213q-2 12 -13 33q-20 37 -84 45 q-15 2 -27 -5t-16.5 -13t-13.5 -21l-4 -6q-91 -141 -109 -166q-79 -117 -88 -129q-9 -15 -6.5 -23.5z" />
<glyph unicode="&#xd5;" horiz-adv-x="1611" d="M-37 950q44 -171 162 -270q6 -5 51 -39q0 -8 -2 -10l-12 -41q-77 -235 -51 -424q12 -95 51.5 -172t93.5 -125.5t122 -80t137 -42.5t138 -6q144 9 281 96q342 215 506 541q248 496 -51 964q-176 279 -517 412q-232 90 -456 49q-244 -45 -363 -241q-168 -282 -90 -611z M41 1010q-37 244 82 465q130 242 412 264q415 36 706 -307q223 -268 205 -631q-12 -233 -129 -432q-162 -273 -408 -445q-132 -94 -262 -121q-108 -21 -195.5 18.5t-146.5 123.5q-65 95 -74 221q-17 199 66 418q0 1 6 10l62 -12q259 -51 471 -4q101 24 170 67q80 52 118 129 q24 49 11 92q-4 17 -15.5 19.5t-23.5 -11.5q-25 -25 -39 -53q-68 -125 -221 -174q-166 -51 -363 -29q-20 2 -117 17q-30 6 -37 8q31 77 72 137q67 108 156 166q55 33 83 36q22 1 42 -5q1 0 4.5 2t5.5 2q6 20 -20 37q-58 42 -138 22q-92 -24 -174 -106q-65 -68 -127 -191 q-4 -7 -24 -53q-38 38 -54 58q-81 104 -104 262zM494 1991q-21 -56 36 -68q21 -3 28 1.5t13 25.5q18 69 68 92q35 12 55 -10q37 -35 82 -70q89 -68 211 -78q57 0 76 27q26 33 43 65q20 41 -25 60q-24 8 -32 8q-21 0 -23 -14t-8 -25t-22.5 -30t-18.5 -21q-17 -17 -33 -12 q-49 7 -78 30q-9 6 -25.5 18.5t-19.5 14.5q-7 6 -23 19.5t-29 23.5t-26 18q-59 39 -116 31q-94 -14 -133 -106z" />
<glyph unicode="&#xd6;" horiz-adv-x="1611" d="M-37 950q44 -171 162 -270q6 -5 51 -39q0 -8 -2 -10l-12 -41q-77 -235 -51 -424q12 -95 51.5 -172t93.5 -125.5t122 -80t137 -42.5t138 -6q144 9 281 96q342 215 506 541q248 496 -51 964q-176 279 -517 412q-232 90 -456 49q-244 -45 -363 -241q-168 -282 -90 -611z M41 1010q-37 244 82 465q130 242 412 264q415 36 706 -307q223 -268 205 -631q-12 -233 -129 -432q-162 -273 -408 -445q-132 -94 -262 -121q-108 -21 -195.5 18.5t-146.5 123.5q-65 95 -74 221q-17 199 66 418q0 1 6 10l62 -12q259 -51 471 -4q101 24 170 67q80 52 118 129 q24 49 11 92q-4 17 -15.5 19.5t-23.5 -11.5q-25 -25 -39 -53q-68 -125 -221 -174q-166 -51 -363 -29q-20 2 -117 17q-30 6 -37 8q31 77 72 137q67 108 156 166q55 33 83 36q22 1 42 -5q1 0 4.5 2t5.5 2q6 20 -20 37q-58 42 -138 22q-92 -24 -174 -106q-65 -68 -127 -191 q-4 -7 -24 -53q-38 38 -54 58q-81 104 -104 262zM502 2054q-3 -51 33 -80q17 -16 41.5 -27t41.5 -15t48 -9h8q61 3 55 66q0 12 2 16q13 39 -18 74q-30 33 -60 43q-53 21 -73 26q-20 8 -32 4.5t-22 -20.5q-24 -34 -24 -78zM938 2019q0 -84 92 -106q54 -18 98 26q42 45 23 107 q-24 66 -107 76q-33 5 -63.5 -14.5t-36.5 -55.5z" />
<glyph unicode="&#xd7;" horiz-adv-x="755" d="M2 992q0 -3 2 -7.5t3 -6.5t4.5 -7t4.5 -6q66 -97 154 -170q7 -6 68 -61t94 -83l24 -18q-6 -9 -22 -35l-191 -322q-13 -21 -28 -65q-12 -23 12 -43q34 -31 76 -18q-7 32 18 73l203 324q4 6 8 18q22 -20 78.5 -67.5t93 -81.5t68.5 -70q16 -19 49 -37q20 -5 29 4 q4 5 3.5 14.5t-5.5 14.5q-20 35 -54 66q-68 66 -168 155q-17 17 -57 53q199 280 221 310q-19 33 -49.5 40t-58.5 -16q-35 -31 -52 -59q-24 -33 -66 -96.5t-52 -77.5q-3 -5 -10.5 -14.5t-10.5 -14.5q-13 6 -18 14q-150 133 -254 256q-34 37 -68 50q-35 10 -43 -2 q-3 -3 -4.5 -7t-1.5 -7z" />
<glyph unicode="&#xd8;" horiz-adv-x="1224" d="M10 625q-48 -345 185 -584l8 -12l-8 -27q-46 -131 -58 -174q-54 -173 -65 -326q-6 -74 16 -153q7 -29 35 -27q12 24 14 29q3 10 17.5 58.5t19.5 74.5q38 232 119 442l12 29q132 -60 262 -43q188 24 316 164q102 113 147 293q74 302 82 559q4 141 -6.5 246.5t-50.5 205.5 q-2 4 -1.5 12.5t3.5 12.5q88 134 145 213q21 27 20 39.5t-28 32.5l-25 14q-30 13 -48.5 9.5t-39.5 -27.5q-4 -5 -71 -101q-7 -12 -24.5 -38.5t-27.5 -43.5q-16 13 -47 39q-87 75 -198 49q-70 -14 -140 -55q-180 -105 -297 -264q-217 -293 -266 -647zM168 342q-32 154 14 354 q70 291 240 518q112 145 262 238q60 40 135 55q27 3 45 -12q10 -11 60 -41q-315 -570 -357 -647q-171 -316 -321 -674q-55 89 -78 209zM332 27q244 579 651 1259q1 0 3.5 -1t4.5 -1q8 -55 10 -82q21 -219 -22 -506q-30 -189 -76 -336q-43 -129 -129 -237q-97 -115 -229 -150 q-104 -23 -213 54z" />
<glyph unicode="&#xd9;" horiz-adv-x="1228" d="M14 328q19 -100 52 -154q19 -35 52.5 -57t77 -25.5t89.5 23.5l55 37q142 108 276 258q79 89 222 253.5t176 202.5q20 25 28 33q3 0 7 -4l-19 -39q-170 -357 -262 -690q-70 -249 -100 -445q-6 -55 -9 -108q0 -43 35 -57q29 -16 50.5 -11t39.5 35q97 163 138 291q1 4 12 66 q0 13 -10 16q-3 1 -9 -1t-8 -5q-33 -42 -45 -64q-15 -25 -30 -54.5t-33 -65t-29 -56.5l-20 -33q7 90 41.5 236t76.5 274q172 532 486 1069q14 23 63 90q10 14 32 41.5t32 42.5q10 13 10 29q-1 14 -20 33t-35 24q-7 4 -15.5 0t-11.5 -6.5t-9.5 -10t-8.5 -9.5 q-57 -80 -76 -103q-95 -117 -490 -596q-205 -242 -381 -413q-4 -4 -22.5 -21t-23.5 -21.5t-21.5 -20t-24 -21.5t-22.5 -19t-25 -21t-23 -18.5t-25.5 -19.5t-25.5 -18q-32 -22 -71 -41q-27 29 -39 86q-43 166 -4 383q52 296 202 604q82 167 160 262q12 15 17.5 21t19 14 t27.5 8q-6 46 -54 67q-28 11 -59 -20q-22 -17 -31 -29q-77 -101 -96 -131q-200 -320 -276 -688q-46 -226 -13 -403zM852 1962q2 -6 10 -18q109 -151 148 -207l77 -99q29 -37 72 -49q6 -2 16 -2.5t13 -1.5q6 17 -12 35q-18 19 -33.5 39.5t-38.5 54.5t-29 43q-19 29 -56 85 t-56 85q-26 39 -78 45q-20 8 -33 -10z" />
<glyph unicode="&#xda;" horiz-adv-x="1228" d="M14 328q19 -100 52 -154q19 -35 52.5 -57t77 -25.5t89.5 23.5l55 37q142 108 276 258q79 89 222 253.5t176 202.5q20 25 28 33q3 0 7 -4l-19 -39q-170 -357 -262 -690q-70 -249 -100 -445q-6 -55 -9 -108q0 -43 35 -57q29 -16 50.5 -11t39.5 35q97 163 138 291q1 4 12 66 q0 13 -10 16q-3 1 -9 -1t-8 -5q-33 -42 -45 -64q-15 -25 -30 -54.5t-33 -65t-29 -56.5l-20 -33q7 90 41.5 236t76.5 274q172 532 486 1069q14 23 63 90q10 14 32 41.5t32 42.5q10 13 10 29q-1 14 -20 33t-35 24q-7 4 -15.5 0t-11.5 -6.5t-9.5 -10t-8.5 -9.5 q-57 -80 -76 -103q-95 -117 -490 -596q-205 -242 -381 -413q-4 -4 -22.5 -21t-23.5 -21.5t-21.5 -20t-24 -21.5t-22.5 -19t-25 -21t-23 -18.5t-25.5 -19.5t-25.5 -18q-32 -22 -71 -41q-27 29 -39 86q-43 166 -4 383q52 296 202 604q82 167 160 262q12 15 17.5 21t19 14 t27.5 8q-6 46 -54 67q-28 11 -59 -20q-22 -17 -31 -29q-77 -101 -96 -131q-200 -320 -276 -688q-46 -226 -13 -403zM834 1614q-18 -18 4 -35q22 -19 65 -23q23 -3 41 19q47 49 141 143q24 23 75.5 70.5t76.5 71.5q14 12 29 34q17 24 2 43q-9 17 -41 13q-48 -8 -97 -47 q-98 -79 -235 -220q-5 -6 -27 -30t-34 -39z" />
<glyph unicode="&#xdb;" horiz-adv-x="1228" d="M14 328q19 -100 52 -154q19 -35 52.5 -57t77 -25.5t89.5 23.5l55 37q142 108 276 258q79 89 222 253.5t176 202.5q20 25 28 33q3 0 7 -4l-19 -39q-170 -357 -262 -690q-70 -249 -100 -445q-6 -55 -9 -108q0 -43 35 -57q29 -16 50.5 -11t39.5 35q97 163 138 291q1 4 12 66 q0 13 -10 16q-3 1 -9 -1t-8 -5q-33 -42 -45 -64q-15 -25 -30 -54.5t-33 -65t-29 -56.5l-20 -33q7 90 41.5 236t76.5 274q172 532 486 1069q14 23 63 90q10 14 32 41.5t32 42.5q10 13 10 29q-1 14 -20 33t-35 24q-7 4 -15.5 0t-11.5 -6.5t-9.5 -10t-8.5 -9.5 q-57 -80 -76 -103q-95 -117 -490 -596q-205 -242 -381 -413q-4 -4 -22.5 -21t-23.5 -21.5t-21.5 -20t-24 -21.5t-22.5 -19t-25 -21t-23 -18.5t-25.5 -19.5t-25.5 -18q-32 -22 -71 -41q-27 29 -39 86q-43 166 -4 383q52 296 202 604q82 167 160 262q12 15 17.5 21t19 14 t27.5 8q-6 46 -54 67q-28 11 -59 -20q-22 -17 -31 -29q-77 -101 -96 -131q-200 -320 -276 -688q-46 -226 -13 -403zM773.5 1602.5q2.5 -8.5 19.5 -17.5q61 -28 92 19q15 25 96 145q8 11 33 46t39 56q6 -18 10 -24q11 -27 31.5 -80.5t31.5 -79.5q8 -19 37 -57q22 -32 68 -35 q29 0 14 27l-35 73q-61 176 -75 213q-2 12 -13 33q-20 37 -84 45q-15 2 -27 -5t-16.5 -13t-13.5 -21l-4 -6q-91 -141 -109 -166q-79 -117 -88 -129q-9 -15 -6.5 -23.5z" />
<glyph unicode="&#xdc;" horiz-adv-x="1228" d="M14 328q19 -100 52 -154q19 -35 52.5 -57t77 -25.5t89.5 23.5l55 37q142 108 276 258q79 89 222 253.5t176 202.5q20 25 28 33q3 0 7 -4l-19 -39q-170 -357 -262 -690q-70 -249 -100 -445q-6 -55 -9 -108q0 -43 35 -57q29 -16 50.5 -11t39.5 35q97 163 138 291q1 4 12 66 q0 13 -10 16q-3 1 -9 -1t-8 -5q-33 -42 -45 -64q-15 -25 -30 -54.5t-33 -65t-29 -56.5l-20 -33q7 90 41.5 236t76.5 274q172 532 486 1069q14 23 63 90q10 14 32 41.5t32 42.5q10 13 10 29q-1 14 -20 33t-35 24q-7 4 -15.5 0t-11.5 -6.5t-9.5 -10t-8.5 -9.5 q-57 -80 -76 -103q-95 -117 -490 -596q-205 -242 -381 -413q-4 -4 -22.5 -21t-23.5 -21.5t-21.5 -20t-24 -21.5t-22.5 -19t-25 -21t-23 -18.5t-25.5 -19.5t-25.5 -18q-32 -22 -71 -41q-27 29 -39 86q-43 166 -4 383q52 296 202 604q82 167 160 262q12 15 17.5 21t19 14 t27.5 8q-6 46 -54 67q-28 11 -59 -20q-22 -17 -31 -29q-77 -101 -96 -131q-200 -320 -276 -688q-46 -226 -13 -403zM686 1774q-3 -51 33 -80q38 -36 131 -52h8q61 3 55 66q0 12 2 16q13 39 -18 74q-30 34 -59 43q-58 23 -74 27q-20 7 -31 3.5t-22 -20.5q-25 -36 -25 -77z M1122 1739q0 -85 92 -107q54 -18 99 27q41 44 22 106q-24 66 -106 76q-33 5 -64 -14t-37 -55z" />
<glyph unicode="&#xdd;" horiz-adv-x="1228" d="M2 -748q6 -83 76 -116q53 -26 115 -17q86 16 167 84q113 91 234 258q230 316 412 746q146 340 340 887q18 50 44.5 143t34.5 117q14 45 -30 92q-27 27 -56 0q-33 -33 -47 -51q-319 -400 -368 -459q-202 -243 -385 -393q-99 -86 -195 -135q-59 -32 -106 -37 q-21 -2 -27.5 2t-13.5 24q-10 24 -13 45q-19 118 13 291q48 273 196 570q87 178 176 284q22 27 35 32q13 4 29 -3q3 15 -2 29.5t-10 20.5t-17 20q-38 44 -80 8q-41 -35 -78 -82q-224 -294 -323 -651q-62 -228 -51 -416q7 -84 28 -131q36 -77 108.5 -108.5t149.5 -0.5 q62 23 121 66q138 93 264 235q158 178 439 504q16 19 47.5 56.5t48.5 56.5q2 0 6 -4q-64 -156 -205 -521.5t-223 -558.5q-8 2 -14 2q-103 59 -221 23q-122 -37 -234 -137q-242 -213 -348 -525q-46 -126 -37 -250zM111 -668q37 233 202 459q88 124 201 209q106 83 213 104 q50 9 107 -12q-4 -8 -14.5 -30.5t-16.5 -34.5q-171 -353 -371 -609q-79 -102 -158 -168q-27 -22 -84 -57q-6 -4 -30 -14q-23 -6 -32 -1.5t-15 27.5q-13 51 -2 127zM938 1651q-18 -18 4 -35q22 -19 66 -23q23 -3 41 19q47 49 141 143q24 23 75 70t76 71q13 11 29 35 q17 24 2 43q-9 17 -41 13q-45 -8 -96 -48q-107 -87 -236 -219q-5 -6 -27 -30t-34 -39z" />
<glyph unicode="&#xde;" horiz-adv-x="1030" d="M-82 -612q6 -64 53 -105q38 -35 47 17q7 24 7 45q-6 72 20 196q41 180 156 531l24 78q12 -4 30.5 -13t27.5 -12q190 -52 352 55q92 60 184 178q125 148 146 301q20 156 -52 267q-41 65 -112 102t-160 16q-19 -5 -55.5 -15t-46.5 -13q5 13 8 24l110 291l93 248q11 30 2 49 q-23 41 -72 60q-15 5 -23 0.5t-14 -21.5q-7 -17 -20.5 -52t-20.5 -52q-297 -778 -479 -1330q-131 -400 -184 -645q-26 -121 -21 -200zM273 276q1 17 6 31q61 161 163 453q24 77 101 137q96 72 192 80q36 3 52.5 -5.5t31.5 -41.5q46 -101 19 -238q-25 -125 -115 -246 q-89 -117 -184 -190q-95 -69 -228 -72q-10 0 -14 2q-1 0 -5 1t-9 1q-1 10 -4 28.5t-5 30.5t-1 29z" />
<glyph unicode="&#xdf;" horiz-adv-x="1271" d="M2 -197q0 -29 4 -41q3 -16 19 -24q31 -14 59 -0.5t37 45.5l6 29q37 254 49 323q59 341 162 623q144 386 373 645q64 70 120 119q63 55 175 80q59 12 88 -35q39 -56 45 -125q12 -118 -72 -211q-71 -82 -193 -160q-41 -26 -116.5 -71.5t-91.5 -55.5q-117 -77 -121 -80 q-34 -24 0 -47q51 -39 117 -24q55 13 71 16q193 23 275 -129q87 -168 69 -348q-38 -334 -370 -498q-53 -24 -105.5 -10.5t-89.5 59.5q-44 53 -47 123q-3 72 29 144q19 53 20 71q4 23 -6.5 32.5t-34.5 4.5q-59 -16 -90 -61q-29 -45 -41 -97t-1.5 -111t48.5 -108 q42 -54 103 -84q103 -54 235 -51q93 0 156 49q90 66 129 105q291 277 162 669q-71 219 -281 281l-64 18l-30 9l37 22q153 98 206 135q95 65 166 154q52 65 60 131q12 97 -36 188t-134 135q-70 36 -142 27q-143 -18 -258 -113q-78 -68 -161 -174q-222 -291 -353 -684 q-121 -367 -182 -895z" />
<glyph unicode="&#xe0;" d="M-41 236q0 -45 43 -82q73 -61 148 -13q58 37 108 84q1 0 172 178q4 4 8.5 9t11.5 11.5t11 10.5q0 -106 2 -125q3 -49 20 -90q22 -53 63.5 -69.5t92.5 6.5q59 27 123 75q38 26 153 119q1 1 58 45q-15 29 -31 34.5t-39 -11.5q-30 -23 -85.5 -68t-63.5 -51q-85 -67 -150 -94 q-15 -5 -53 -17q-12 36 -12 48q0 98 4 147q3 20 7 42t9 48.5t8 42.5q3 23 -5 37t-30 25q-16 6 -23 3.5t-28 -22.5q-193 -193 -291 -287q-23 -23 -88 -65q-34 -21 -57 -17q0 6 -1 21t-0.5 25.5t3.5 19.5q21 115 103 207q44 50 98 67q27 10 47 -2q1 0 7 -3t9 -3q17 0 23 6v23 l-8 12q-66 66 -148 43q-49 -13 -94 -55q-95 -91 -117 -203q-8 -37 -8 -112zM266 999q0 -2 2.5 -6.5t3.5 -7.5q22 -29 62 -85t53 -73l59 -75q24 -31 56 -39q8 -2 22 -2q4 12 -10 26q-18 18 -45 57.5t-33 47.5q-19 32 -86 131q-22 32 -59 35q-16 8 -25 -9z" />
<glyph unicode="&#xe1;" d="M-41 236q0 -45 43 -82q73 -61 148 -13q58 37 108 84q1 0 172 178q4 4 8.5 9t11.5 11.5t11 10.5q0 -106 2 -125q3 -49 20 -90q22 -53 63.5 -69.5t92.5 6.5q59 27 123 75q38 26 153 119q1 1 58 45q-15 29 -31 34.5t-39 -11.5q-30 -23 -85.5 -68t-63.5 -51q-85 -67 -150 -94 q-15 -5 -53 -17q-12 36 -12 48q0 98 4 147q3 20 7 42t9 48.5t8 42.5q3 23 -5 37t-30 25q-16 6 -23 3.5t-28 -22.5q-193 -193 -291 -287q-23 -23 -88 -65q-34 -21 -57 -17q0 6 -1 21t-0.5 25.5t3.5 19.5q21 115 103 207q44 50 98 67q27 10 47 -2q1 0 7 -3t9 -3q17 0 23 6v23 l-8 12q-66 66 -148 43q-49 -13 -94 -55q-95 -91 -117 -203q-8 -37 -8 -112zM307 758q-14 -14 4 -27q12 -12 49 -16q18 -3 31 14q35 37 107 109l114 106q7 7 23 27q11 19 0 33q-6 12 -31 8q-35 -5 -72 -35q-81 -65 -178 -166q-7 -7 -15 -16t-17.5 -20t-14.5 -17z" />
<glyph unicode="&#xe2;" d="M-41 236q0 -45 43 -82q73 -61 148 -13q58 37 108 84q1 0 172 178q4 4 8.5 9t11.5 11.5t11 10.5q0 -106 2 -125q3 -49 20 -90q22 -53 63.5 -69.5t92.5 6.5q59 27 123 75q38 26 153 119q1 1 58 45q-15 29 -31 34.5t-39 -11.5q-30 -23 -85.5 -68t-63.5 -51q-85 -67 -150 -94 q-15 -5 -53 -17q-12 36 -12 48q0 98 4 147q3 20 7 42t9 48.5t8 42.5q3 23 -5 37t-30 25q-16 6 -23 3.5t-28 -22.5q-193 -193 -291 -287q-23 -23 -88 -65q-34 -21 -57 -17q0 6 -1 21t-0.5 25.5t3.5 19.5q21 115 103 207q44 50 98 67q27 10 47 -2q1 0 7 -3t9 -3q17 0 23 6v23 l-8 12q-66 66 -148 43q-49 -13 -94 -55q-95 -91 -117 -203q-8 -37 -8 -112zM272 805q-13 -18 9 -31q17 -10 36 -8.5t33 22.5q12 19 36.5 55t37.5 56q9 13 27 38.5t26 37.5q5 -10 8 -19q38 -93 50 -120q7 -16 26 -43q18 -24 51 -27q22 0 11 20q-3 6 -8.5 17.5t-9.5 21 t-7 17.5q-40 110 -57 162q-1 4 -11 24q-15 27 -63 35q-26 2 -43 -31l-4 -4q-59 -95 -82 -125q-30 -49 -66 -98z" />
<glyph unicode="&#xe3;" d="M-41 236q0 -45 43 -82q73 -61 148 -13q58 37 108 84q1 0 172 178q4 4 8.5 9t11.5 11.5t11 10.5q0 -106 2 -125q3 -49 20 -90q22 -53 63.5 -69.5t92.5 6.5q59 27 123 75q38 26 153 119q1 1 58 45q-15 29 -31 34.5t-39 -11.5q-30 -23 -85.5 -68t-63.5 -51q-85 -67 -150 -94 q-15 -5 -53 -17q-12 36 -12 48q0 98 4 147q3 20 7 42t9 48.5t8 42.5q3 23 -5 37t-30 25q-16 6 -23 3.5t-28 -22.5q-193 -193 -291 -287q-23 -23 -88 -65q-34 -21 -57 -17q0 6 -1 21t-0.5 25.5t3.5 19.5q21 115 103 207q44 50 98 67q27 10 47 -2q1 0 7 -3t9 -3q17 0 23 6v23 l-8 12q-66 66 -148 43q-49 -13 -94 -55q-95 -91 -117 -203q-8 -37 -8 -112zM188 823q-18 -44 29 -53q15 -2 21 2t10 19q14 53 51 71q28 9 43 -8q41 -37 64 -53q68 -53 161 -60q45 0 60 21q5 6 32 49q14 32 -20 47q-24 6 -25 6q-16 0 -16 -12q-1 -8 -6 -16.5t-8.5 -13 t-13 -15t-11.5 -12.5q-13 -13 -24 -11q-41 8 -60 25q-22 15 -35 25q-30 27 -59 47q-44 30 -90 24q-75 -12 -103 -82z" />
<glyph unicode="&#xe4;" d="M-41 236q0 -45 43 -82q73 -61 148 -13q58 37 108 84q1 0 172 178q4 4 8.5 9t11.5 11.5t11 10.5q0 -106 2 -125q3 -49 20 -90q22 -53 63.5 -69.5t92.5 6.5q59 27 123 75q38 26 153 119q1 1 58 45q-15 29 -31 34.5t-39 -11.5q-30 -23 -85.5 -68t-63.5 -51q-85 -67 -150 -94 q-15 -5 -53 -17q-12 36 -12 48q0 98 4 147q3 20 7 42t9 48.5t8 42.5q3 23 -5 37t-30 25q-16 6 -23 3.5t-28 -22.5q-193 -193 -291 -287q-23 -23 -88 -65q-34 -21 -57 -17q0 6 -1 21t-0.5 25.5t3.5 19.5q21 115 103 207q44 50 98 67q27 10 47 -2q1 0 7 -3t9 -3q17 0 23 6v23 l-8 12q-66 66 -148 43q-49 -13 -94 -55q-95 -91 -117 -203q-8 -37 -8 -112zM156 866q-3 -38 24 -59q29 -27 101 -39h6q44 3 41 49q0 8 2 12q11 30 -15 56q-22 25 -45 33q-35 16 -55 20q-27 11 -41 -12q-18 -24 -18 -60zM485 840q0 -64 70 -80q43 -15 74 20q31 31 18 80 q-20 52 -82 58q-25 3 -48.5 -11.5t-27.5 -42.5z" />
<glyph unicode="&#xe5;" d="M-41 236q0 -45 43 -82q73 -61 148 -13q58 37 108 84q1 0 172 178q4 4 8.5 9t11.5 11.5t11 10.5q0 -106 2 -125q3 -49 20 -90q22 -53 63.5 -69.5t92.5 6.5q59 27 123 75q38 26 153 119q1 1 58 45q-15 29 -31 34.5t-39 -11.5q-30 -23 -85.5 -68t-63.5 -51q-85 -67 -150 -94 q-15 -5 -53 -17q-12 36 -12 48q0 98 4 147q3 20 7 42t9 48.5t8 42.5q3 23 -5 37t-30 25q-16 6 -23 3.5t-28 -22.5q-193 -193 -291 -287q-23 -23 -88 -65q-34 -21 -57 -17q0 6 -1 21t-0.5 25.5t3.5 19.5q21 115 103 207q44 50 98 67q27 10 47 -2q1 0 7 -3t9 -3q17 0 23 6v23 l-8 12q-66 66 -148 43q-49 -13 -94 -55q-95 -91 -117 -203q-8 -37 -8 -112zM324.5 875.5q-5.5 -59.5 19.5 -103.5q18 -31 50 -46.5t63 -13.5t53 17q53 34 43 84q-21 110 -92 160q-6 0 -8 2l4 4q20 5 26 6q-1 1 -3.5 5.5t-4.5 6.5q-35 21 -65 11q-28 -8 -48 -35 q-32 -38 -37.5 -97.5zM391 823q-6 60 27 117q0 5 6 8q4 -6 12 -14q34 -49 43 -111q10 -48 -26 -71q-15 -8 -23.5 -6.5t-17.5 14.5q-17 22 -21 63z" />
<glyph unicode="&#xe6;" horiz-adv-x="1257" d="M6 285q15 -61 67 -90t111 -9q54 20 92 52q22 17 44 35.5t53 46.5t43 38q29 29 45 43q4 0 4 -4q-11 -33 -14 -39q-50 -128 -50 -229q5 -44 7 -49q14 -52 71 -66q14 -5 33 9q8 12 -8 32q-2 2 -12.5 9t-16.5 12q8 98 31 139q9 -14 10 -16q37 -78 135.5 -123.5t192.5 -18.5 q51 13 112 41q157 79 312 215q8 8 25.5 23.5t25.5 23.5q15 15 8 29q-12 25 -40 29.5t-48 -15.5q-33 -38 -65 -63q-117 -98 -277 -178q-50 -22 -113 -41q-62 -19 -118 4q-27 11 -39 33q-35 54 -25 127q217 52 375 213q30 30 59 86q28 58 -10 108q-60 76 -145 76 q-77 0 -144 -45q-14 -10 -41.5 -30t-40.5 -29q-12 4 -18 8q-19 6 -33 -8q-30 -35 -74 -76q-71 -71 -219 -211q-77 -74 -157 -113q-39 -22 -66 -18q0 15 -4 35q-2 50 22 118q55 131 154 236q78 81 168 100q85 23 133 -18q3 -3 17 -8q11 -3 17 2.5t3 15.5q-10 25 -25 39 q-99 99 -239 61q-69 -19 -117 -59q-152 -120 -209 -315q-25 -87 -2 -168zM618 367q86 215 234 305q47 26 90 26q17 0 23 -5.5t4 -20.5q0 -34 -15 -58q-26 -47 -61 -82q-97 -97 -254 -159q-2 -1 -9 -2.5t-12 -3.5z" />
<glyph unicode="&#xe7;" horiz-adv-x="636" d="M-27 373q18 92 84 168q55 58 123 53q52 -6 88 -51q16 -16 2 -33q-12 4 -18 8q-30 21 -70 4q-38 -19 -79 -76t-56 -114q-2 -10 -2 -29q-3 -67 55 -80q34 -7 84 0q40 6 74.5 15.5t59 18t64.5 31t61.5 35.5t82.5 51.5t97 61.5q20 14 34 13.5t29 -17.5q7 -5 8 -10t-3.5 -9.5 t-9 -8t-14 -9t-14.5 -8.5q-79 -58 -192 -125q-130 -80 -256 -96q-8 0 -12 -2q-11 -33 -23 -60q0 -4 -2 -10l20 2q44 6 86 -22q26 -23 33 -56.5t-8 -62.5q-28 -54 -86 -90q-18 -12 -43 -6q-31 5 -53 24q-17 14 -11 29q9 30 21 57q6 12 8 13q16 19 35 4q7 -5 4 -15l-14 -51 q-2 -6 -2 -20q0 -11 14 -19q3 2 15 10.5t18 14.5q34 27 49 59q21 34 8 76q-1 1 -2 4t-2.5 6t-3.5 6q-6 13 -25 13q-31 0 -65 -17q-24 -11 -51 6q-17 11 -9 29q5 15 17 39l14 39q-71 13 -123 65q-59 56 -39 142z" />
<glyph unicode="&#xe8;" horiz-adv-x="526" d="M-35 352q0 -82 55 -121q70 -52 156 -49q102 3 203 74q102 74 153 113q30 21 56 47q-19 27 -34 31t-40 -11q-8 -5 -17.5 -12.5t-20.5 -16.5t-17 -14q-73 -55 -150 -108q-89 -60 -186 -54q-47 3 -68.5 31t-13.5 74q5 36 39 47q91 26 174 84q24 15 43 37q40 44 -4 88 q-31 31 -71.5 38t-80.5 -12q-73 -33 -124.5 -108.5t-51.5 -157.5zM102 461q17 43 65 77.5t83 30.5q-6 -31 -52 -64t-96 -44zM123 971q0 -2 2.5 -7.5t3.5 -7.5q23 -30 65 -88t50 -69l59 -76q24 -31 55 -39q8 -2 23 -2q4 13 -10 27q-18 18 -45.5 57.5t-32.5 46.5 q-19 32 -86 131q-22 32 -60 35q-16 8 -24 -8z" />
<glyph unicode="&#xe9;" horiz-adv-x="526" d="M-35 352q0 -82 55 -121q70 -52 156 -49q102 3 203 74q102 74 153 113q30 21 56 47q-19 27 -34 31t-40 -11q-8 -5 -17.5 -12.5t-20.5 -16.5t-17 -14q-73 -55 -150 -108q-89 -60 -186 -54q-47 3 -68.5 31t-13.5 74q5 36 39 47q91 26 174 84q24 15 43 37q40 44 -4 88 q-31 31 -71.5 38t-80.5 -12q-73 -33 -124.5 -108.5t-51.5 -157.5zM102 461q17 43 65 77.5t83 30.5q-6 -31 -52 -64t-96 -44zM127 772q-15 -15 2 -29q14 -12 51 -16q18 -3 31 14l108 111q78 70 117 109q14 11 23 26q12 16 2 33q-7 10 -33 10q-31 -7 -74 -37 q-81 -66 -180 -168q-46 -52 -47 -53z" />
<glyph unicode="&#xea;" horiz-adv-x="526" d="M-35 352q0 -82 55 -121q70 -52 156 -49q102 3 203 74q102 74 153 113q30 21 56 47q-19 27 -34 31t-40 -11q-8 -5 -17.5 -12.5t-20.5 -16.5t-17 -14q-73 -55 -150 -108q-89 -60 -186 -54q-47 3 -68.5 31t-13.5 74q5 36 39 47q91 26 174 84q24 15 43 37q40 44 -4 88 q-31 31 -71.5 38t-80.5 -12q-73 -33 -124.5 -108.5t-51.5 -157.5zM75 798q2 -7 15 -14q49 -21 72 15q20 34 74 112q9 14 28.5 40.5t26.5 37.5q3 -12 6 -18q9 -21 49 -123q3 -9 29 -45q18 -24 51 -27q24 0 12 21q-6 12 -26 57q-11 33 -34 94.5t-26 69.5q0 8 -8 24 q-16 31 -65 35q-25 4 -43 -28l-5 -7q-11 -16 -39.5 -60t-44.5 -67q-36 -60 -67 -98q-7 -12 -5 -19zM102 461q17 43 65 77.5t83 30.5q-6 -31 -52 -64t-96 -44z" />
<glyph unicode="&#xeb;" horiz-adv-x="526" d="M-35 352q0 -82 55 -121q70 -52 156 -49q102 3 203 74q102 74 153 113q30 21 56 47q-19 27 -34 31t-40 -11q-8 -5 -17.5 -12.5t-20.5 -16.5t-17 -14q-73 -55 -150 -108q-89 -60 -186 -54q-47 3 -68.5 31t-13.5 74q5 36 39 47q91 26 174 84q24 15 43 37q40 44 -4 88 q-31 31 -71.5 38t-80.5 -12q-73 -33 -124.5 -108.5t-51.5 -157.5zM70 860q0 -30 20 -47q22 -20 78 -31h4q36 3 33 39q0 8 2 10q8 23 -12 43q-15 18 -35 27q-12 5 -43 14q-20 8 -33 -8q-14 -25 -14 -47zM102 461q17 43 65 77.5t83 30.5q-6 -31 -52 -64t-96 -44zM328 840 q0 -51 55 -64q33 -9 59 17q24 27 13 63q-13 38 -64 45q-20 2 -37.5 -9.5t-21.5 -33.5z" />
<glyph unicode="&#xec;" horiz-adv-x="520" d="M-41 242q1 -6 2 -20t2.5 -28t3.5 -26q0 -3 13 -47q28 -79 112.5 -110.5t165.5 22.5q31 21 59 53q120 132 232 262l16 23q11 17 0 28q-19 16 -37 7q-6 -6 -12 -15q-137 -153 -213 -235q-30 -38 -63 -62q-46 -32 -76 -43q-34 -11 -51.5 -1t-28.5 44q-6 21 -6 45 q5 111 12 148q7 42 17 88t23.5 103.5t19.5 86.5q6 26 1 39.5t-26 26.5q-34 22 -53.5 16.5t-34.5 -41.5q-72 -177 -78 -364zM18 1038q0 -2 3 -6.5t4 -7.5q22 -29 60.5 -83.5t53.5 -74.5l60 -75q24 -31 55 -39q8 -2 22 -2q4 12 -10 26q-18 18 -45 57.5t-33 47.5 q-19 32 -86 131q-22 32 -59 35q-16 8 -25 -9z" />
<glyph unicode="&#xed;" horiz-adv-x="520" d="M-53 773.5q1 -5.5 10 -13.5q15 -13 51 -17q17 -2 31 15l108 110q78 70 117 109q13 10 23 27q12 15 2 32q-7 11 -33 11q-31 -7 -74 -37q-81 -66 -180 -168q-40 -45 -47 -54q-9 -9 -8 -14.5zM-41 242q1 -6 2 -20t2.5 -28t3.5 -26q0 -3 13 -47q28 -79 112.5 -110.5 t165.5 22.5q31 21 59 53q120 132 232 262l16 23q11 17 0 28q-19 16 -37 7q-6 -6 -12 -15q-137 -153 -213 -235q-30 -38 -63 -62q-46 -32 -76 -43q-34 -11 -51.5 -1t-28.5 44q-6 21 -6 45q5 111 12 148q7 42 17 88t23.5 103.5t19.5 86.5q6 26 1 39.5t-26 26.5 q-34 22 -53.5 16.5t-34.5 -41.5q-72 -177 -78 -364z" />
<glyph unicode="&#xee;" horiz-adv-x="520" d="M-72 800q2 -7 15 -14q48 -21 71 15q20 34 74 112q9 14 28.5 40.5t26.5 37.5q2 -8 7 -18q9 -20 49 -123q5 -12 28 -45q18 -24 52 -27q24 0 12 21q-15 30 -27 57q-6 18 -59 164q0 8 -8 24q-16 31 -66 35q-25 4 -43 -28l-4 -7q-9 -13 -38 -57.5t-46 -68.5q-36 -59 -68 -99 q-6 -12 -4 -19zM-41 242q1 -6 2 -20t2.5 -28t3.5 -26q0 -3 13 -47q28 -79 112.5 -110.5t165.5 22.5q31 21 59 53q120 132 232 262l16 23q11 17 0 28q-19 16 -37 7q-6 -6 -12 -15q-137 -153 -213 -235q-30 -38 -63 -62q-46 -32 -76 -43q-34 -11 -51.5 -1t-28.5 44 q-6 21 -6 45q5 111 12 148q7 42 17 88t23.5 103.5t19.5 86.5q6 26 1 39.5t-26 26.5q-34 22 -53.5 16.5t-34.5 -41.5q-72 -177 -78 -364z" />
<glyph unicode="&#xef;" horiz-adv-x="520" d="M-94 934q-3 -41 24 -62q29 -29 101 -41h6q49 3 43 52q0 10 2 12q10 29 -14 57q-22 25 -45 33q-46 18 -58 21q-26 11 -41 -13q-18 -27 -18 -59zM-41 242q1 -6 2 -20t2.5 -28t3.5 -26q0 -3 13 -47q28 -79 112.5 -110.5t165.5 22.5q31 21 59 53q120 132 232 262l16 23 q11 17 0 28q-19 16 -37 7q-6 -6 -12 -15q-137 -153 -213 -235q-30 -38 -63 -62q-46 -32 -76 -43q-34 -11 -51.5 -1t-28.5 44q-6 21 -6 45q5 111 12 148q7 42 17 88t23.5 103.5t19.5 86.5q6 26 1 39.5t-26 26.5q-34 22 -53.5 16.5t-34.5 -41.5q-72 -177 -78 -364zM242 905 q0 -64 69 -82q43 -12 76 21q32 35 19 82q-19 52 -82 59q-27 3 -50.5 -11t-27.5 -42z" />
<glyph unicode="&#xf0;" horiz-adv-x="735" d="M10 131q17 -97 79.5 -161.5t160.5 -86.5q68 -16 129 4q106 42 164 119q154 195 166 443q13 270 -146 432q-12 12 -55 67q33 29 37 31q128 84 139 92q28 20 41 33q13 19 7.5 32t-27.5 15q-57 7 -97 -18l-166 -111q-9 7 -24.5 21.5t-28 25t-24.5 18.5q-30 20 -84 46 q-3 2 -7 2t-11 -1t-11 -1q11 -22 39.5 -46t32.5 -28q29 -29 69 -76l-28 -27l-74 -73q-21 -21 -6 -41q15 -26 40.5 -30.5t47.5 15.5l78 74q3 -2 6 -3.5t4 -2.5q124 -149 121 -332q0 -97 -15 -192q-24 -175 -108 -293q-66 -89 -156 -123q-45 -16 -74 -5.5t-53 52.5 q-15 23 -18 41q-2 8 -8.5 33t-9.5 41.5t-3 32.5q-3 238 164 417q46 49 111 76q23 9 37 12.5t34.5 2t38.5 -12.5q18 -9 29 2q11 9 -2 31l-10 10q-82 69 -177 55q-110 -17 -192 -106q-106 -111 -154 -299q-24 -102 -6 -207z" />
<glyph unicode="&#xf1;" horiz-adv-x="1089" d="M-35 342q7 -57 29 -143q15 -62 82 -84q30 -11 49.5 -5.5t34.5 31.5q24 38 43 80q90 192 221 328q77 77 145 113q12 6 54 20q6 -12 6 -16q12 -52 4 -152q-3 -31 -17 -146t-20 -178q-9 -100 18 -198q15 -56 72.5 -77t108.5 15q53 42 90 99q74 118 198 266q22 24 62 78 q15 24 -6 35q-29 19 -49.5 17t-38.5 -28q-95 -140 -224 -313q-20 -31 -69 -84q-4 -4 -39 -29q-6 21 -6 29q1 18 1.5 75t2.5 87q5 52 17.5 153t17.5 150q11 94 -4 158q-17 74 -86.5 107t-131.5 3q-40 -17 -65 -35q-69 -43 -139 -123q-107 -117 -199 -292q-5 -12 -16.5 -33.5 t-16.5 -32.5q-4 2 -8 2q-18 112 -16 182q0 36 1 77.5t2.5 91.5t2.5 79q2 28 -6.5 41.5t-34.5 22.5q-28 11 -42 3.5t-18 -36.5q-28 -173 -10 -338zM104 975q-18 -44 29 -53q15 -2 21 1.5t10 18.5q14 54 51 72q28 9 43 -8q46 -42 64 -54q67 -52 161 -59q46 0 60 20q3 3 32 50 q14 32 -20 47q-24 6 -25 6q-16 0 -16 -12q-1 -7 -3.5 -13t-7.5 -12.5t-8 -10.5t-10.5 -12t-9.5 -10q-12 -12 -24 -10q-41 8 -60 25q-30 20 -35 24q-30 27 -59 47q-46 30 -90 25q-75 -12 -103 -82z" />
<glyph unicode="&#xf2;" horiz-adv-x="954" d="M-41 188q6 -60 37 -118q44 -83 129 -104.5t162 32.5q18 14 36.5 31t40 39t33.5 34q7 8 15 18t16.5 22t13.5 18q3 -1 8 -2t7 -2q149 -67 282 28q37 26 78 57.5t91 71t77 60.5q14 9 29 28q-22 28 -41.5 32.5t-46.5 -13.5q-25 -18 -45 -35q-43 -37 -133 -111 q-61 -47 -103 -69q-62 -38 -135 -25q-3 0 -41 13q66 126 82 159q50 109 55 213q0 100 -37 156q-38 60 -98 74.5t-119 -23.5q-14 -8 -27 -19t-31.5 -28t-27.5 -25q-84 24 -153 -45q-2 -3 -10 -10.5t-11 -13.5q-145 -190 -133 -443zM45 223q13 182 100 322q7 12 17 25.5 t18 22.5t21.5 24t19.5 22q3 3 25 16q-78 -244 127 -446q-48 -66 -91.5 -111t-99.5 -73l-14 -7q-32 -11 -50.5 -4.5t-37.5 35.5q-42 70 -35 174zM254 1184q0 -2 2.5 -7.5t3.5 -7.5q23 -30 65 -88t50 -69l59 -76q24 -31 55 -39q8 -2 23 -2q4 13 -10 27q-18 18 -45.5 57.5 t-32.5 46.5q-19 32 -86 131q-22 32 -59 35q-17 8 -25 -8zM328 594q33 98 114 135q24 13 34.5 10t23.5 -30q25 -58 22 -119q-2 -150 -121 -340q-134 166 -73 344z" />
<glyph unicode="&#xf3;" horiz-adv-x="954" d="M-41 188q6 -60 37 -118q44 -83 129 -104.5t162 32.5q18 14 36.5 31t40 39t33.5 34q7 8 15 18t16.5 22t13.5 18q3 -1 8 -2t7 -2q149 -67 282 28q37 26 78 57.5t91 71t77 60.5q14 9 29 28q-22 28 -41.5 32.5t-46.5 -13.5q-25 -18 -45 -35q-43 -37 -133 -111 q-61 -47 -103 -69q-62 -38 -135 -25q-3 0 -41 13q66 126 82 159q50 109 55 213q0 100 -37 156q-38 60 -98 74.5t-119 -23.5q-14 -8 -27 -19t-31.5 -28t-27.5 -25q-84 24 -153 -45q-2 -3 -10 -10.5t-11 -13.5q-145 -190 -133 -443zM45 223q13 182 100 322q7 12 17 25.5 t18 22.5t21.5 24t19.5 22q3 3 25 16q-78 -244 127 -446q-48 -66 -91.5 -111t-99.5 -73l-14 -7q-32 -11 -50.5 -4.5t-37.5 35.5q-42 70 -35 174zM246 943.5q1 -5.5 10 -13.5q15 -13 51 -17q17 -2 31 15l108 110q78 70 117 109q13 10 23 27q12 15 2 32q-7 11 -33 11 q-31 -7 -74 -37q-81 -66 -180 -168q-40 -45 -47 -54q-9 -9 -8 -14.5zM328 594q33 98 114 135q24 13 34.5 10t23.5 -30q25 -58 22 -119q-2 -150 -121 -340q-134 166 -73 344z" />
<glyph unicode="&#xf4;" horiz-adv-x="954" d="M-41 188q6 -60 37 -118q44 -83 129 -104.5t162 32.5q18 14 36.5 31t40 39t33.5 34q7 8 15 18t16.5 22t13.5 18q3 -1 8 -2t7 -2q149 -67 282 28q37 26 78 57.5t91 71t77 60.5q14 9 29 28q-22 28 -41.5 32.5t-46.5 -13.5q-25 -18 -45 -35q-43 -37 -133 -111 q-61 -47 -103 -69q-62 -38 -135 -25q-3 0 -41 13q66 126 82 159q50 109 55 213q0 100 -37 156q-38 60 -98 74.5t-119 -23.5q-14 -8 -27 -19t-31.5 -28t-27.5 -25q-84 24 -153 -45q-2 -3 -10 -10.5t-11 -13.5q-145 -190 -133 -443zM45 223q13 182 100 322q7 12 17 25.5 t18 22.5t21.5 24t19.5 22q3 3 25 16q-78 -244 127 -446q-48 -66 -91.5 -111t-99.5 -73l-14 -7q-32 -11 -50.5 -4.5t-37.5 35.5q-42 70 -35 174zM165 946q2 -7 15 -14q49 -21 72 14q24 41 74 113q9 14 28.5 40.5t26.5 37.5q3 -14 6 -19q9 -21 49 -123q3 -9 29 -45 q17 -23 51 -26q23 0 12 20q-6 12 -26 57q-11 33 -34 94.5t-26 69.5q0 9 -8 25q-16 31 -65 35q-12 2 -21 -3.5t-12.5 -10.5t-9.5 -15l-4 -6q-11 -16 -39.5 -60t-44.5 -67q-33 -55 -68 -98q-7 -12 -5 -19zM328 594q33 98 114 135q24 13 34.5 10t23.5 -30q25 -58 22 -119 q-2 -150 -121 -340q-134 166 -73 344z" />
<glyph unicode="&#xf5;" horiz-adv-x="954" d="M-41 188q6 -60 37 -118q44 -83 129 -104.5t162 32.5q18 14 36.5 31t40 39t33.5 34q7 8 15 18t16.5 22t13.5 18q3 -1 8 -2t7 -2q149 -67 282 28q37 26 78 57.5t91 71t77 60.5q14 9 29 28q-22 28 -41.5 32.5t-46.5 -13.5q-25 -18 -45 -35q-43 -37 -133 -111 q-61 -47 -103 -69q-62 -38 -135 -25q-3 0 -41 13q66 126 82 159q50 109 55 213q0 100 -37 156q-38 60 -98 74.5t-119 -23.5q-14 -8 -27 -19t-31.5 -28t-27.5 -25q-84 24 -153 -45q-2 -3 -10 -10.5t-11 -13.5q-145 -190 -133 -443zM45 223q13 182 100 322q7 12 17 25.5 t18 22.5t21.5 24t19.5 22q3 3 25 16q-78 -244 127 -446q-48 -66 -91.5 -111t-99.5 -73l-14 -7q-32 -11 -50.5 -4.5t-37.5 35.5q-42 70 -35 174zM195 1047q-19 -45 28 -54q15 -2 21 2t10 19q14 53 51 71q28 9 43 -8q41 -37 64 -53q67 -52 161 -59q46 0 60 20q9 10 33 49 q14 32 -21 47l-7.5 2.5t-8.5 2.5t-8 1q-17 0 -17 -12q-1 -8 -6 -16.5t-8.5 -13t-13 -15t-11.5 -12.5q-12 -12 -24 -10q-42 8 -60 24q-22 15 -35 25q-30 27 -59 47q-44 30 -90 24q-74 -12 -102 -81zM328 594q33 98 114 135q24 13 34.5 10t23.5 -30q25 -58 22 -119 q-2 -150 -121 -340q-134 166 -73 344z" />
<glyph unicode="&#xf6;" horiz-adv-x="954" d="M-41 188q6 -60 37 -118q44 -83 129 -104.5t162 32.5q18 14 36.5 31t40 39t33.5 34q7 8 15 18t16.5 22t13.5 18q3 -1 8 -2t7 -2q149 -67 282 28q37 26 78 57.5t91 71t77 60.5q14 9 29 28q-22 28 -41.5 32.5t-46.5 -13.5q-25 -18 -45 -35q-43 -37 -133 -111 q-61 -47 -103 -69q-62 -38 -135 -25q-3 0 -41 13q66 126 82 159q50 109 55 213q0 100 -37 156q-38 60 -98 74.5t-119 -23.5q-14 -8 -27 -19t-31.5 -28t-27.5 -25q-84 24 -153 -45q-2 -3 -10 -10.5t-11 -13.5q-145 -190 -133 -443zM45 223q13 182 100 322q7 12 17 25.5 t18 22.5t21.5 24t19.5 22q3 3 25 16q-78 -244 127 -446q-48 -66 -91.5 -111t-99.5 -73l-14 -7q-32 -11 -50.5 -4.5t-37.5 35.5q-42 70 -35 174zM141 1071q-3 -39 25 -61q29 -29 100 -41h6q49 3 43 51q0 10 2 12q10 30 -14 58q-20 24 -45 32q-47 19 -57 21q-26 11 -41 -13 q-19 -28 -19 -59zM328 594q33 98 114 135q24 13 34.5 10t23.5 -30q25 -58 22 -119q-2 -150 -121 -340q-134 166 -73 344zM477 1042q0 -62 70 -81q44 -12 76 20q31 34 18 82q-19 52 -82 59q-27 3 -50.5 -11t-27.5 -42z" />
<glyph unicode="&#xf7;" horiz-adv-x="1011" d="M4 555q7 -32 32 -48t58 -13l389 49q371 41 435 49q32 2 77 24q15 8 14 19t-16 20q-13 9 -22 11q-27 6 -103 20l-2 -4l-88 -6q-220 -20 -264 -25q-78 -8 -222 -26.5t-177 -22.5q-56 -4 -88 -10q-31 -5 -23 -37zM241.5 223.5q-4.5 -67.5 49.5 -114.5q39 -33 88 -9 q33 14 44 42t13 77q-26 85 -71 117q-31 21 -60 -2q-59 -43 -63.5 -110.5zM403 840q17 -27 37 -34.5t49 1.5q57 17 99 92q2 5 3.5 14t2.5 11q-3 54 -43 88q-26 20 -59 10q-47 -14 -78 -53q-50 -62 -11 -129z" />
<glyph unicode="&#xf8;" horiz-adv-x="780" d="M6 319q19 -149 121 -233q-4 -18 -8 -29q-62 -193 -90 -333q-28 -149 -11 -256q4 -27 21 -29q7 -1 12 4t5.5 8t2.5 12q2 5 19.5 59t23.5 83q47 220 109 397l12 31l29 -6q85 -23 168 22q147 86 186 244q31 125 17 287q-10 139 -60 231q-7 12 6 37q81 169 140 280 q15 32 69 125q-6 16 -14 25t-27 20q-32 17 -48.5 12.5t-33.5 -36.5q-5 -6 -14 -25l-154 -309q-2 -5 -6.5 -13.5t-5.5 -11.5q-41 12 -110 35q-62 19 -123 -22q-66 -42 -113 -121q-83 -132 -113 -287q-21 -104 -10 -201zM139 319q-5 132 58 289q42 109 88 166q5 7 12.5 15.5 t16.5 18.5t14 15q24 24 43 13q7 -1 9.5 -1t10 2t10.5 3q5 2 19 7.5t24 8.5q-156 -371 -280 -659q-21 49 -25 122zM246 100q94 252 250 590q2 -18 6 -33q18 -163 -21 -315q-35 -148 -168 -225q-18 -10 -61 -23z" />
<glyph unicode="&#xf9;" horiz-adv-x="1099" d="M-35 381q-14 -100 6 -172q25 -94 109 -126.5t164 21.5q64 44 127 107q62 62 180 188q21 21 31 29q2 -19 -7 -68q-28 -143 -18 -249q11 -95 47 -142q23 -32 51.5 -49.5t66 -13.5t73.5 37l28 28q62 71 84 99q46 58 129.5 166t108.5 139q3 3 8.5 12t7.5 12q-26 28 -40 28 t-36 -26q-2 -2 -10 -14q-138 -174 -174 -217q-23 -25 -49.5 -53t-59.5 -61.5t-51 -51.5q-30 -26 -59 -31q-18 40 -18 90q-4 82 18 220q4 30 35 215q9 66 -53 90q-24 10 -41 -10q-220 -232 -224 -236q-96 -103 -192 -160q-50 -30 -86 -39q-25 -8 -33.5 -2t-11.5 33 q-11 66 12 143q30 97 82 236q15 40 -8 65q-25 25 -37 33q-22 14 -36 11t-26 -25q-79 -128 -98 -256zM272 997q0 -2 3 -6.5t4 -7.5q22 -29 60.5 -83.5t53.5 -74.5l60 -75q24 -31 55 -39q8 -2 22 -2q4 12 -10 26q-18 18 -45 57.5t-33 47.5q-19 32 -86 131q-22 32 -59 35 q-16 8 -25 -9z" />
<glyph unicode="&#xfa;" horiz-adv-x="1099" d="M-35 381q-14 -100 6 -172q25 -94 109 -126.5t164 21.5q64 44 127 107q62 62 180 188q21 21 31 29q2 -19 -7 -68q-28 -143 -18 -249q11 -95 47 -142q23 -32 51.5 -49.5t66 -13.5t73.5 37l28 28q62 71 84 99q46 58 129.5 166t108.5 139q3 3 8.5 12t7.5 12q-26 28 -40 28 t-36 -26q-2 -2 -10 -14q-138 -174 -174 -217q-23 -25 -49.5 -53t-59.5 -61.5t-51 -51.5q-30 -26 -59 -31q-18 40 -18 90q-4 82 18 220q4 30 35 215q9 66 -53 90q-24 10 -41 -10q-220 -232 -224 -236q-96 -103 -192 -160q-50 -30 -86 -39q-25 -8 -33.5 -2t-11.5 33 q-11 66 12 143q30 97 82 236q15 40 -8 65q-25 25 -37 33q-22 14 -36 11t-26 -25q-79 -128 -98 -256zM352 854q-15 -15 2 -29q14 -12 52 -16q17 -2 30 14l109 111q88 79 117 108q11 9 22 27q12 16 2 33q-7 10 -33 10q-29 -6 -73 -37q-86 -69 -181 -168q-46 -52 -47 -53z" />
<glyph unicode="&#xfb;" horiz-adv-x="1099" d="M-35 381q-14 -100 6 -172q25 -94 109 -126.5t164 21.5q64 44 127 107q62 62 180 188q21 21 31 29q2 -19 -7 -68q-28 -143 -18 -249q11 -95 47 -142q23 -32 51.5 -49.5t66 -13.5t73.5 37l28 28q62 71 84 99q46 58 129.5 166t108.5 139q3 3 8.5 12t7.5 12q-26 28 -40 28 t-36 -26q-2 -2 -10 -14q-138 -174 -174 -217q-23 -25 -49.5 -53t-59.5 -61.5t-51 -51.5q-30 -26 -59 -31q-18 40 -18 90q-4 82 18 220q4 30 35 215q9 66 -53 90q-24 10 -41 -10q-220 -232 -224 -236q-96 -103 -192 -160q-50 -30 -86 -39q-25 -8 -33.5 -2t-11.5 33 q-11 66 12 143q30 97 82 236q15 40 -8 65q-25 25 -37 33q-22 14 -36 11t-26 -25q-79 -128 -98 -256zM272 886q2 -7 15 -14q48 -21 71 15q20 35 74 112q9 14 28.5 40.5t26.5 37.5q2 -8 7 -18q9 -20 49 -123q5 -12 28 -45q18 -24 52 -27q24 0 12 21q-15 30 -27 57 q-6 18 -59 164q0 8 -8 24q-16 31 -66 35q-25 4 -43 -28l-4 -7q-9 -13 -38 -57.5t-46 -68.5q-36 -59 -68 -99q-6 -12 -4 -19z" />
<glyph unicode="&#xfc;" horiz-adv-x="1099" d="M-35 381q-14 -100 6 -172q25 -94 109 -126.5t164 21.5q64 44 127 107q62 62 180 188q21 21 31 29q2 -19 -7 -68q-28 -143 -18 -249q11 -95 47 -142q23 -32 51.5 -49.5t66 -13.5t73.5 37l28 28q62 71 84 99q46 58 129.5 166t108.5 139q3 3 8.5 12t7.5 12q-26 28 -40 28 t-36 -26q-2 -2 -10 -14q-138 -174 -174 -217q-23 -25 -49.5 -53t-59.5 -61.5t-51 -51.5q-30 -26 -59 -31q-18 40 -18 90q-4 82 18 220q4 30 35 215q9 66 -53 90q-24 10 -41 -10q-220 -232 -224 -236q-96 -103 -192 -160q-50 -30 -86 -39q-25 -8 -33.5 -2t-11.5 33 q-11 66 12 143q30 97 82 236q15 40 -8 65q-25 25 -37 33q-22 14 -36 11t-26 -25q-79 -128 -98 -256zM217 866q-3 -39 25 -61q29 -29 100 -41h6q49 3 43 51q0 10 2 12q10 30 -14 58q-22 25 -45 33q-40 16 -58 20q-26 10 -40 -12q-19 -29 -19 -60zM553 838q0 -63 70 -82 q43 -12 75 20q32 35 19 82q-19 53 -82 60q-27 3 -50.5 -11.5t-27.5 -42.5z" />
<glyph unicode="&#xfd;" horiz-adv-x="1372" d="M-31 283q14 -66 53 -110t87 -59t98 -10.5t90 27.5q43 22 68 45q98 93 127 127q36 41 76.5 88t89.5 105.5t75 89.5q3 4 27 28q24 -73 26 -84q54 -205 80 -448q3 -25 -20 -41q-156 -132 -289 -301q-141 -184 -205 -326q-76 -169 -65 -329q7 -85 59 -129q44 -38 103 -58.5 t130.5 -10.5t127.5 62q174 157 231 371q37 136 41 342q1 54 0 115t-3 135.5t-3 114.5q-3 32 22 51q21 15 160 123q65 49 268 207q11 9 9 19t-15 11q-23 7 -47 0q-46 -19 -72 -39q-91 -70 -307 -239l-28 -21q-3 15 -5 19q-28 219 -77 372q-17 56 -50 115q-24 42 -68.5 44.5 t-74.5 -34.5q-4 -4 -16 -20q-31 -38 -99.5 -124t-105.5 -132q-90 -106 -154 -156q-72 -53 -116 -65q-32 -11 -50.5 -4t-35.5 36q-7 12 -15 35q-18 65 -12 129q18 204 82 330l-4 6q-4 5 -8 6q-20 13 -40.5 18.5t-43.5 -3t-37 -35.5q-32 -66 -47 -117q-43 -154 -17 -276z M383 -795q18 151 119 318q135 229 346 428q2 2 8.5 6.5t9.5 7.5q1 -1 4 -2t4 -2q0 -20 0.5 -56t0.5 -66.5t-1 -57.5q-10 -242 -14 -289q-25 -313 -244 -510l-8 -6q-2 -2 -10.5 -8.5t-11.5 -8.5t-10.5 -7.5t-11.5 -7t-11.5 -5t-12.5 -4t-12.5 -1t-14.5 0.5t-15 4 q-92 30 -111 107q-18 67 -4 159zM406 860q-15 -15 2 -29q14 -12 51 -16q17 -2 30 14l109 111q78 70 117 109q12 10 22 26q12 16 2 33q-7 10 -32 10q-31 -7 -74 -37q-81 -66 -180 -168q-46 -52 -47 -53z" />
<glyph unicode="&#xfe;" horiz-adv-x="872" d="M10 -23q-15 -100 2 -165q4 -25 19 -27q19 -2 26 20q36 94 41 115q19 68 58 256q6 27 20.5 78.5t16.5 58.5q85 -53 133 -77q87 -44 170 0q38 18 69 40q173 120 258 310q55 123 47 243q-8 104 -84 172t-180 64q-61 -3 -114 -41q-26 -15 -82 -57q2 12 6 24q6 19 19.5 57 t19.5 58q20 58 69 199.5t76 216.5q16 47 -22 77q-16 13 -31 19q-17 8 -25 5t-14 -21q-34 -84 -39 -103l-319 -958l-13 -27l-14 -45q-3 -10 -7 -31t-7 -30q-73 -268 -99 -431zM223 416q12 36 42 131.5t48 146.5q22 55 60 99q71 88 170 159q69 48 131 43h14q41 -8 56 -20.5 t22 -50.5q3 -15 8 -60q-3 -71 -26 -133q-74 -205 -240 -342q-43 -33 -115 -70q-46 -20 -82.5 -10t-77.5 51q-22 22 -10 56z" />
<glyph unicode="&#xff;" horiz-adv-x="1372" d="M-31 283q14 -66 53 -110t87 -59t98 -10.5t90 27.5q43 22 68 45q98 93 127 127q36 41 76.5 88t89.5 105.5t75 89.5q3 4 27 28q24 -73 26 -84q54 -205 80 -448q3 -25 -20 -41q-156 -132 -289 -301q-141 -184 -205 -326q-76 -169 -65 -329q7 -85 59 -129q44 -38 103 -58.5 t130.5 -10.5t127.5 62q174 157 231 371q37 136 41 342q1 54 0 115t-3 135.5t-3 114.5q-3 32 22 51q21 15 160 123q65 49 268 207q11 9 9 19t-15 11q-23 7 -47 0q-46 -19 -72 -39q-91 -70 -307 -239l-28 -21q-3 15 -5 19q-28 219 -77 372q-17 56 -50 115q-24 42 -68.5 44.5 t-74.5 -34.5q-4 -4 -16 -20q-31 -38 -99.5 -124t-105.5 -132q-90 -106 -154 -156q-72 -53 -116 -65q-32 -11 -50.5 -4t-35.5 36q-7 12 -15 35q-18 65 -12 129q18 204 82 330l-4 6q-4 5 -8 6q-20 13 -40.5 18.5t-43.5 -3t-37 -35.5q-32 -66 -47 -117q-43 -154 -17 -276z M231 963q-3 -40 25 -62q29 -29 100 -41h6q50 3 44 51q0 11 2 13q10 29 -15 57q-22 25 -45 33q-41 16 -57 20q-27 11 -41 -12q-19 -29 -19 -59zM383 -795q18 151 119 318q135 229 346 428q2 2 8.5 6.5t9.5 7.5q1 -1 4 -2t4 -2q0 -20 0.5 -56t0.5 -66.5t-1 -57.5 q-10 -242 -14 -289q-25 -313 -244 -510l-8 -6q-2 -2 -10.5 -8.5t-11.5 -8.5t-10.5 -7.5t-11.5 -7t-11.5 -5t-12.5 -4t-12.5 -1t-14.5 0.5t-15 4q-92 30 -111 107q-18 67 -4 159zM567 934q0 -63 70 -82q44 -12 76 20q31 34 18 82q-19 53 -82 60q-27 3 -50.5 -11t-27.5 -42z " />
<glyph unicode="&#x152;" horiz-adv-x="1429" d="M20 156q27 -147 86 -246q56 -95 148 -137q116 -50 209 16q30 21 61 49q105 91 183 248q14 25 22 43q4 -8 4 -23t-2.5 -93t0.5 -93q2 -55 21 -143q18 -77 98 -107q55 -21 113 -12q106 18 198 72q111 64 164 159q23 43 14 72q-13 44 -49 21q-28 -19 -51 -48 q-59 -93 -149.5 -142t-217.5 -73q-12 36 -16 52q-21 90 -18 202q3 205 47 451q6 26 28 37q12 6 47.5 26t55.5 29q234 123 416 164q2 0 39 6.5t55 11.5l7 2q7 2 8.5 2.5t7.5 3t7.5 4t6 4.5t7 6.5t5 8t4.5 10.5q-33 19 -41 21q-68 18 -182 -4q-152 -29 -348 -119 q-16 -7 -45.5 -21.5t-44.5 -21.5l167 745q58 19 86 27q18 5 97.5 28.5t113 32.5t94.5 22.5t111 20.5q17 3 33 13q15 7 15 20t-17 19q-54 16 -80 12q-96 -11 -211 -37q-44 -9 -125 -29.5t-102 -25.5l-25 20q-12 8 -19 9.5t-13 -3.5t-11 -18q-11 -32 -39 -43q8 -14 9 -31 t-1 -24.5t-8 -28.5l-30 -109l-7 -14q-6 3 -6 4q0 3 -1 11t-1 12q-15 132 -108 219q-61 58 -130.5 69.5t-144.5 -28.5q-43 -23 -90 -64q-101 -86 -192 -233q-165 -255 -242 -582q-56 -239 -21 -452zM141 90q-38 204 15 434q76 359 252 623q111 159 206 225q50 31 91 47 q20 6 63 6q27 0 47 -30q47 -82 47 -217q-2 -123 -35 -304q-52 -291 -133 -548q-70 -209 -188 -355q-66 -82 -144 -129q-50 -29 -76.5 -23t-60.5 52q-60 84 -84 219z" />
<glyph unicode="&#x153;" horiz-adv-x="1052" d="M-12 313q36 -152 162 -219q97 -53 192 17q17 13 47 39l17 -19q103 -106 245 -80q104 21 211 103q51 37 199 165q14 10 45 46q15 17 -4 36q-32 29 -66 2q-1 -1 -98 -92q-108 -108 -238 -170q-77 -35 -161 -32q-34 1 -50.5 15t-25.5 48q-5 20 -5.5 40t3.5 41.5t8 36.5 t12 38q6 2 13 2q217 18 337 202q16 22 27 54q21 61 -27 106q-83 80 -188 37q-76 -32 -137 -106q-22 -26 -31 -39l-8 12q-12 36 -36.5 61.5t-65.5 57.5q-32 23 -86 26q-58 0 -121 -34q-98 -57 -146.5 -169t-23.5 -225zM111 205q-53 119 4 252q37 93 125 153q23 13 45 13 q11 -1 22.5 1t28.5 6.5t24 6.5q46 -17 43 -74q0 -100 -18 -149q-6 -16 -11 -34t-10 -40t-8 -35q-5 -26 -8 -31q-32 -66 -90 -104q-4 -4 -12 -8q-59 -26 -85.5 -16t-49.5 59zM520 408q35 90 114 173.5t146 86.5q10 -21 -2 -58q-22 -69 -86 -127q-61 -50 -151 -73 q-6 -2 -21 -2z" />
<glyph unicode="&#x178;" horiz-adv-x="1228" d="M2 -748q6 -83 76 -116q53 -26 115 -17q86 16 167 84q113 91 234 258q230 316 412 746q146 340 340 887q18 50 44.5 143t34.5 117q14 45 -30 92q-27 27 -56 0q-33 -33 -47 -51q-319 -400 -368 -459q-202 -243 -385 -393q-99 -86 -195 -135q-59 -32 -106 -37 q-21 -2 -27.5 2t-13.5 24q-10 24 -13 45q-19 118 13 291q48 273 196 570q87 178 176 284q22 27 35 32q13 4 29 -3q3 15 -2 29.5t-10 20.5t-17 20q-38 44 -80 8q-41 -35 -78 -82q-224 -294 -323 -651q-62 -228 -51 -416q7 -84 28 -131q36 -77 108.5 -108.5t149.5 -0.5 q62 23 121 66q138 93 264 235q158 178 439 504q16 19 47.5 56.5t48.5 56.5q2 0 6 -4q-64 -156 -205 -521.5t-223 -558.5q-8 2 -14 2q-103 59 -221 23q-122 -37 -234 -137q-242 -213 -348 -525q-46 -126 -37 -250zM111 -668q37 233 202 459q88 124 201 209q106 83 213 104 q50 9 107 -12q-4 -8 -14.5 -30.5t-16.5 -34.5q-171 -353 -371 -609q-79 -102 -158 -168q-27 -22 -84 -57q-6 -4 -30 -14q-23 -6 -32 -1.5t-15 27.5q-13 51 -2 127zM813 1831q-3 -51 33 -80q17 -16 41.5 -27t41.5 -15t48 -9h8q61 3 55 65q0 13 2 17q13 38 -18 73 q-30 34 -59 43q-58 23 -74 27q-20 8 -31.5 4.5t-21.5 -20.5q-25 -36 -25 -78zM1249 1796q0 -84 92 -106q55 -18 99 26q41 44 22 107q-24 65 -106 75q-33 5 -64 -14t-37 -55z" />
<glyph unicode="&#x2c6;" horiz-adv-x="483" d="M3.5 1150.5q2.5 -8.5 19.5 -17.5q62 -28 92 18q15 25 96 145q3 5 30 43t42 60q7 -20 10 -25q12 -27 31.5 -80t31.5 -80q8 -19 37 -57q22 -32 68 -35q29 0 14 27q-32 67 -35 74q-61 175 -75 213q-2 10 -13 32q-20 37 -84 45q-15 2 -27 -4.5t-16.5 -13t-13.5 -20.5l-4 -7 q-82 -126 -109 -165q-79 -117 -88 -129q-9 -15 -6.5 -23.5z" />
<glyph unicode="&#x2dc;" horiz-adv-x="628" d="M8 1288q-21 -55 37 -67q22 -3 28.5 1.5t12.5 24.5q18 69 68 92q35 12 55 -10q30 -28 82 -69q89 -68 211 -78q19 0 30 1t24.5 7t21.5 18q25 31 43 66q20 41 -25 59q-24 8 -33 8q-20 0 -22 -14t-8 -25t-22.5 -30t-18.5 -21q-17 -17 -33 -12q-47 7 -78 31q-9 6 -25.5 18.5 t-19.5 14.5q-7 6 -23 19.5t-29 23.5t-26 18q-59 39 -117 31q-94 -14 -133 -107z" />
<glyph unicode="&#x2000;" horiz-adv-x="1144" />
<glyph unicode="&#x2001;" horiz-adv-x="2288" />
<glyph unicode="&#x2002;" horiz-adv-x="1144" />
<glyph unicode="&#x2003;" horiz-adv-x="2288" />
<glyph unicode="&#x2004;" horiz-adv-x="762" />
<glyph unicode="&#x2005;" horiz-adv-x="572" />
<glyph unicode="&#x2006;" horiz-adv-x="381" />
<glyph unicode="&#x2007;" horiz-adv-x="381" />
<glyph unicode="&#x2008;" horiz-adv-x="286" />
<glyph unicode="&#x2009;" horiz-adv-x="457" />
<glyph unicode="&#x200a;" horiz-adv-x="127" />
<glyph unicode="&#x2010;" horiz-adv-x="491" d="M4 500q-6 -26 13.5 -51t45.5 -25q12 0 33 2t31 2q28 2 83.5 5t82.5 5q29 2 82 10t65 9q31 6 47 39q13 34 -18 43q-25 9 -53 6q-15 -1 -43 -5t-41 -5q-142 -9 -289 -15q-17 0 -23 -2q-13 -9 -16 -18z" />
<glyph unicode="&#x2011;" horiz-adv-x="491" d="M4 500q-6 -26 13.5 -51t45.5 -25q12 0 33 2t31 2q28 2 83.5 5t82.5 5q29 2 82 10t65 9q31 6 47 39q13 34 -18 43q-25 9 -53 6q-15 -1 -43 -5t-41 -5q-142 -9 -289 -15q-17 0 -23 -2q-13 -9 -16 -18z" />
<glyph unicode="&#x2012;" horiz-adv-x="491" d="M4 500q-6 -26 13.5 -51t45.5 -25q12 0 33 2t31 2q28 2 83.5 5t82.5 5q29 2 82 10t65 9q31 6 47 39q13 34 -18 43q-25 9 -53 6q-15 -1 -43 -5t-41 -5q-142 -9 -289 -15q-17 0 -23 -2q-13 -9 -16 -18z" />
<glyph unicode="&#x2013;" horiz-adv-x="626" d="M4 527q-9 -23 16 -66l7 -8q12 -17 21.5 -20.5t29.5 1.5q22 5 61.5 15.5t71.5 18.5t61 13q53 11 83.5 16.5t76.5 12t86 5.5t80 -7q17 -3 23.5 5t1.5 26q-19 59 -74 73q-16 4 -45 7t-35 4q-133 -15 -158 -19q-126 -18 -252 -45q-46 -9 -55 -32z" />
<glyph unicode="&#x2014;" horiz-adv-x="1124" d="M4 506q12 -51 34 -67.5t66 -8.5h7q400 72 448 80q247 39 379 41q39 0 117 4q34 4 51 16q36 22 2 52q-38 29 -78 32q-56 6 -119 9q-135 -2 -372 -33q-59 -8 -351 -53q-36 -6 -155 -29q-22 -5 -27.5 -13t-1.5 -30z" />
<glyph unicode="&#x2018;" horiz-adv-x="212" d="M6 1071q-9 -28 2 -41q22 -34 68 -41q13 0 18.5 5t11.5 24l93 266q7 21 10 39q3 20 -8.5 35.5t-34.5 21.5q-19 6 -30.5 1t-20.5 -25q-24 -52 -39 -92q-23 -57 -70 -193z" />
<glyph unicode="&#x2019;" horiz-adv-x="161" d="M2 1038q0 -47 31 -86q7 -8 14 -10.5t13 1.5t10 15q4 13 8 39q2 12 6.5 53t9.5 62q17 112 62 223q7 17 0 29q-21 30 -68 39q-2 -2 -8.5 -6.5t-9.5 -7.5q-10 -17 -13 -33q-2 -10 -19 -79.5t-24 -105.5q-8 -44 -12 -133z" />
<glyph unicode="&#x201a;" horiz-adv-x="190" d="M2.5 -43.5q1.5 -40.5 34.5 -69.5q12 -10 59 -39q-14 -32 -59 -88q-18 -22 -21 -32q-8 -19 1.5 -30t29.5 -7q22 3 39 20q80 77 100 178q9 42 -18 76l-14 25q-8 28 -32 44.5t-52 12.5t-39 -18q-30 -32 -28.5 -72.5z" />
<glyph unicode="&#x201c;" horiz-adv-x="671" d="M8 1044q-13 -19 2 -40q30 -35 76 -41q25 0 31 18q19 53 86 152q24 36 72 102.5t57 79.5q18 31 18 49q3 31 -13 44t-42 7q-42 -9 -66 -39q-14 -19 -41.5 -54t-49.5 -64t-40 -56q-19 -28 -50.5 -86t-39.5 -72zM293 1059q-10 -19 6 -35q29 -34 78 -37q18 0 24 17 q14 43 60 100q68 93 170 192q25 25 33 39q12 25 2 40t-41 14q-7 0 -19 -3q-30 -4 -76 -40q-127 -107 -223 -261q-3 -4 -14 -26z" />
<glyph unicode="&#x201d;" horiz-adv-x="362" d="M2 1022q-3 -54 39 -80q35 -23 41 19v2q7 50 16 79q49 142 109 246q9 12 0 23q-27 35 -74 41q-18 0 -24 -19q-78 -173 -99 -268q-4 -13 -8 -43zM188 995q3 -56 33 -88q19 -24 35 -20q18 4 18 39q0 73 27 159q9 36 30.5 106t24.5 79q7 20 3.5 30.5t-21.5 22.5q-5 3 -19 8 q-19 8 -29 4t-14 -22q-43 -126 -63 -203q-4 -12 -25 -115z" />
<glyph unicode="&#x201e;" horiz-adv-x="190" d="M2.5 -43.5q-1.5 40.5 28.5 72.5q11 14 39 18t52 -12.5t32 -44.5l14 -25q27 -34 18 -76q-20 -101 -100 -178q-17 -17 -39 -20q-20 -4 -29.5 7t-1.5 30q3 10 21 32q45 56 59 88q-47 29 -59 39q-33 29 -34.5 69.5z" />
<glyph unicode="&#x2022;" horiz-adv-x="364" d="M8 707q-31 -122 82 -172q12 -5 26 -9.5t26 -7.5l16 -4q122 3 180 98q33 57 20 112.5t-67 92.5q-17 11 -50.5 22t-39.5 13q-66 24 -121 -25q-54 -51 -72 -120z" />
<glyph unicode="&#x2026;" horiz-adv-x="950" d="M2 -70q3 -39 27.5 -70.5t60.5 -41.5q36 -9 68 10l43 29q53 36 32 98q-19 59 -81 92q-33 18 -53.5 14.5t-41.5 -28.5q-3 -4 -16 -19t-18 -24q-7 -12 -21 -60zM369 -29q-12 -37 3.5 -73.5t53.5 -61.5q23 -18 59 -14q38 6 69.5 43t31.5 74q4 40 -35.5 79.5t-73.5 42.5 q-15 0 -31 -8q-53 -41 -55 -43q-17 -20 -22 -39zM737 -96q-3 -31 16.5 -60.5t51.5 -42.5q54 -26 104 21q43 40 37 98q7 47 -22 76q-37 41 -72 35q-3 -1 -14 4q-25 14 -45 -10q-51 -57 -56 -121z" />
<glyph unicode="&#x202f;" horiz-adv-x="457" />
<glyph unicode="&#x2039;" horiz-adv-x="544" d="M3.5 588.5q-4.5 -20.5 10.5 -51.5q16 -37 43 -64q39 -39 74 -65q62 -50 178 -141t144 -113q5 -3 41 -19q-4 37 -7 45q-25 40 -34 49q-27 33 -70 68l-244 197q-8 6 -26 24l34 33l375 330q20 17 21 29.5t-13 33.5l-20 25q-14 12 -24 12t-25 -12q-44 -34 -131 -102.5 t-131 -102.5q-78 -61 -166 -133q-25 -22 -29.5 -42.5z" />
<glyph unicode="&#x203a;" horiz-adv-x="530" d="M3.5 1077.5q3.5 -14.5 21.5 -37.5q53 -62 104 -108q44 -36 158 -115q23 -17 123 -86l-21 -37q-63 -113 -108 -190q-172 -308 -183 -328q-50 -89 -65 -192q-6 -63 20 -117q12 -25 26.5 -25t26.5 23q13 19 21 49q24 96 61 162l150 248l174 294q31 46 2 105q-23 48 -84 88 q-31 21 -125 81t-154.5 106.5t-111.5 101.5q-4 4 -9 6.5t-12.5 5t-11.5 4.5q-6 -24 -2.5 -38.5z" />
<glyph unicode="&#x205f;" horiz-adv-x="572" />
<glyph unicode="&#x20ac;" horiz-adv-x="1476" d="M4.5 449q-4.5 -10 1.5 -27q24 -63 92 -51l21 6q61 11 100 20q2 -18 4 -53t4 -53q10 -131 49 -230q39 -104 125 -153q63 -37 97 -49q220 -88 413 -6q211 90 301 346q15 46 9 94q-4 25 -19 29q-5 -1 -7.5 0.5t-6 -2l-4.5 -4.5t-4 -5.5t-4 -5.5q-55 -86 -70 -115 q-56 -104 -117 -170q-173 -176 -407 -131q-174 31 -222 199q-41 139 -34 336q261 48 292 53q21 3 60.5 6t52.5 4q2 0 11.5 1t13 1.5t10.5 3t10.5 6.5t5.5 11q2 4 0.5 8.5t-1.5 7.5t-3.5 6.5t-6 5.5t-7 5t-7 4.5t-7.5 4l-7 3.5q-42 23 -106 16q-5 -1 -229 -30 q-12 -1 -36 -4.5t-36 -4.5q15 148 57 277q4 0 11 1t10 1q119 8 180 14q22 0 57 13q23 14 23 28q4 15 -25 25q-33 11 -84 8q-21 -2 -44.5 -3t-51.5 -1.5t-43 -1.5q-2 6 -2 12q0 1 3.5 9.5t4.5 13.5q105 270 295 487q121 138 246 207q138 72 264 59q120 -12 143 -129 q6 -27 6 -59q6 -113 -55 -219q-25 -42 -96 -139q-18 -22 -52 -60.5t-46 -52.5q-15 -17 -15.5 -27.5t11.5 -23.5q24 -34 61 -10q18 12 33 24q108 92 184 219q80 127 62 277q-14 102 -83.5 179.5t-168.5 100.5q-86 19 -189 -8q-154 -40 -291 -170q-291 -271 -424 -653 q-2 -7 -8 -20.5t-8 -20.5q-49 4 -147 8q-27 0 -29 -4q-6 -16 2 -33q21 -46 80 -49q12 0 34.5 -1t32.5 -1q-47 -266 -53 -299l-2 -2l-119 -25q-67 -16 -73 -18q-18 -6 -22.5 -16z" />
<glyph unicode="&#x2122;" horiz-adv-x="1044" d="M3 1482.5q-4 -14.5 15 -34.5q25 -29 82 -18q20 3 62.5 11.5t64.5 12.5q-10 -24 -12 -33q-32 -74 -72 -172q-32 -91 -37 -157q-6 -95 78 -150q25 -15 35 -2q11 10 -10 31q-32 26 -29 73l6 39q18 80 84 228l74 162l4 1q4 1 8 1q28 2 84 5t84 5q24 0 31 10q12 14 -12 33 q-30 30 -62 33q-58 7 -104 4q-53 -5 -125 -19q-111 -21 -219 -45q-26 -4 -30 -18.5zM432 1145q-15 -33 10 -58q9 -13 31 -28q26 -19 42 -14.5t28 34.5q49 123 78 189q1 5 12 22q5 -26 14 -82q7 -46 60 -73q31 -17 51 8l49 53l49 55q2 0 4 -2q-2 -6 -5 -17t-5 -15 q-12 -40 -35.5 -120t-34.5 -120q-21 -77 -18 -139t47 -97q22 -11 29 -6q4 3 7 12t1 15q-9 55 14 147q12 47 27 90q51 153 139 402q12 31 14 53q4 21 -11 43.5t-40 34.5q-5 3 -10 3.5t-8.5 1t-8 -1.5t-6.5 -3t-6 -5.5t-5 -6t-5.5 -7t-5.5 -6.5l-178 -209l-35 -38q-5 13 -8 24 q-2 6 -9.5 43t-13.5 55q-10 41 2 68q12 34 5.5 55.5t-35.5 40.5q-20 14 -32.5 11.5t-21.5 -23.5q-139 -303 -176 -389z" />
<glyph unicode="&#x25fc;" horiz-adv-x="593" d="M0 0v594h594v-594h-594z" />
</font>
</defs>
</svg>
