<?xml version="1.0" standalone="no"?>
<!DOCTYPE svg PUBLIC "-//W3C//DTD SVG 1.1//EN" "http://www.w3.org/Graphics/SVG/1.1/DTD/svg11.dtd" >
<svg xmlns="http://www.w3.org/2000/svg" xmlns:xlink="http://www.w3.org/1999/xlink" version="1.1">
<metadata></metadata>
<defs>
<font id="intenci_demoregular" horiz-adv-x="0" >
<font-face units-per-em="2048" ascent="1638" descent="-410" />
<missing-glyph horiz-adv-x="788" />
<glyph />
<glyph />
<glyph horiz-adv-x="682" />
<glyph unicode="&#xa;" />
<glyph unicode="&#xd;" horiz-adv-x="682" />
<glyph unicode=" "  horiz-adv-x="788" />
<glyph unicode="&#x09;" horiz-adv-x="788" />
<glyph unicode="&#xa0;" horiz-adv-x="788" />
<glyph unicode="A" horiz-adv-x="1746" d="M45 723q0 350 231.5 554t634.5 204q336 0 560 -171v124h170v-1434h-170v133q-223 -169 -564 -169q-401 0 -631.5 204.5t-230.5 554.5zM216 719q0 -301 206 -460v920q-206 -159 -206 -460zM593 168q141 -49 314 -49q402 0 564 269v662q-167 268 -564 268q-173 0 -314 -49 v-1101z" />
<glyph unicode="&#xc4;" horiz-adv-x="1746" d="M45 723q0 350 231.5 554t634.5 204q336 0 560 -171v124h170v-1434h-170v133q-223 -169 -564 -169q-401 0 -631.5 204.5t-230.5 554.5zM216 719q0 -301 206 -460v920q-206 -159 -206 -460zM593 168q141 -49 314 -49q402 0 564 269v662q-167 268 -564 268q-173 0 -314 -49 v-1101z" />
<glyph unicode="&#xc3;" horiz-adv-x="1746" d="M45 723q0 350 231.5 554t634.5 204q336 0 560 -171v124h170v-1434h-170v133q-223 -169 -564 -169q-401 0 -631.5 204.5t-230.5 554.5zM216 719q0 -301 206 -460v920q-206 -159 -206 -460zM593 168q141 -49 314 -49q402 0 564 269v662q-167 268 -564 268q-173 0 -314 -49 v-1101z" />
<glyph unicode="&#xc2;" horiz-adv-x="1746" d="M45 723q0 350 231.5 554t634.5 204q336 0 560 -171v124h170v-1434h-170v133q-223 -169 -564 -169q-401 0 -631.5 204.5t-230.5 554.5zM216 719q0 -301 206 -460v920q-206 -159 -206 -460zM593 168q141 -49 314 -49q402 0 564 269v662q-167 268 -564 268q-173 0 -314 -49 v-1101z" />
<glyph unicode="&#xc1;" horiz-adv-x="1746" d="M45 723q0 350 231.5 554t634.5 204q336 0 560 -171v124h170v-1434h-170v133q-223 -169 -564 -169q-401 0 -631.5 204.5t-230.5 554.5zM216 719q0 -301 206 -460v920q-206 -159 -206 -460zM593 168q141 -49 314 -49q402 0 564 269v662q-167 268 -564 268q-173 0 -314 -49 v-1101z" />
<glyph unicode="&#xc0;" horiz-adv-x="1746" d="M45 723q0 350 231.5 554t634.5 204q336 0 560 -171v124h170v-1434h-170v133q-223 -169 -564 -169q-401 0 -631.5 204.5t-230.5 554.5zM216 719q0 -301 206 -460v920q-206 -159 -206 -460zM593 168q141 -49 314 -49q402 0 564 269v662q-167 268 -564 268q-173 0 -314 -49 v-1101z" />
<glyph unicode="B" horiz-adv-x="1619" d="M102 0v1434h1h1050q167 0 284 -117t117 -284q0 -95 -41 -177.5t-112 -138.5q22 -17 36 -31q117 -117 117 -284t-117.5 -284.5t-283.5 -117.5h-741v1264h-139v-1264h-171zM583 171h570q95 0 163 68q67 67 67 163q0 94 -65 161t-159 69q-1 0 -3 -0.5t-3 -0.5h-570v-460z M583 803h570h7q93 3 158.5 70t65.5 160q0 95 -68 163t-163 68h-570v-461z" />
<glyph unicode="C" horiz-adv-x="1662" d="M45 723q0 350 231.5 554t634.5 204q249 0 435.5 -94t290.5 -259l-162 -84q-165 274 -568 274q-173 0 -314 -49v-1101q141 -49 314 -49q411 0 571 282l163 -83q-105 -166 -292 -260t-442 -94q-401 0 -631.5 204.5t-230.5 554.5zM216 719q0 -301 206 -460v920 q-206 -159 -206 -460z" />
<glyph unicode="D" horiz-adv-x="1656" d="M102 0v1433h649v1q401 -1 631.5 -193.5t230.5 -520.5v-6q0 -328 -230.5 -520.5t-631.5 -193.5h-339v1264h-139v-1264h-171zM583 169h168q211 0 364.5 59t240.5 183.5t87 305.5t-87 305t-240 183t-365 59h-168v-1095z" />
<glyph unicode="E" horiz-adv-x="1507" d="M102 -4v1438h1366v-159h-877v-473h631v-171h-631v-476h897v-159h-1068v1279h-143v-1279h-175z" />
<glyph unicode="&#xca;" horiz-adv-x="1507" d="M102 -4v1438h1366v-159h-877v-473h631v-171h-631v-476h897v-159h-1068v1279h-143v-1279h-175z" />
<glyph unicode="&#xc9;" horiz-adv-x="1507" d="M102 -4v1438h1366v-159h-877v-473h631v-171h-631v-476h897v-159h-1068v1279h-143v-1279h-175z" />
<glyph unicode="&#xc8;" horiz-adv-x="1507" d="M102 -4v1438h1366v-159h-877v-473h631v-171h-631v-476h897v-159h-1068v1279h-143v-1279h-175z" />
<glyph unicode="F" horiz-adv-x="1462" d="M102 -4v1438h1366v-159h-877v-473h631v-171h-631v-631h-171v1275h-143v-1279h-175z" />
<glyph unicode="G" horiz-adv-x="1722" d="M45 723q0 350 231.5 554t634.5 204q250 0 436.5 -93.5t290.5 -259.5l-163 -84q-165 274 -568 274q-176 0 -314 -48v-1103q138 -48 314 -48q147 0 261 36v420h-264v170h745v-745h-171v575h-139v-575h-147q-129 -36 -285 -36q-400 0 -631 205t-231 554zM216 719 q0 -302 206 -461v922q-206 -159 -206 -461z" />
<glyph unicode="H" horiz-adv-x="1634" d="M102 0v1433h171v-1433h-171zM412 0v1433h171v-631h776v631h171v-1433h-171v631h-776v-631h-171z" />
<glyph unicode="I" horiz-adv-x="688" d="M102 0v1433h171v-1433h-171zM412 0v1433h171v-1433h-171z" />
<glyph unicode="&#xce;" horiz-adv-x="688" d="M102 0v1433h171v-1433h-171zM412 0v1433h171v-1433h-171z" />
<glyph unicode="&#xcd;" horiz-adv-x="688" d="M102 0v1433h171v-1433h-171zM412 0v1433h171v-1433h-171z" />
<glyph unicode="&#xcc;" horiz-adv-x="688" d="M102 0v1433h171v-1433h-171zM412 0v1433h171v-1433h-171z" />
<glyph unicode="J" horiz-adv-x="1171" d="M35 526v276h170v-276q0 -147 104 -251q22 -22 35 -31v558h171v-629q15 -2 46 -2q147 0 250.5 104t103.5 251v908h171v-908q0 -107 -40.5 -203t-113.5 -169t-168.5 -113.5t-202.5 -40.5q-31 0 -46 2q-90 7 -171 44q-139 62 -224 192t-85 288z" />
<glyph unicode="K" horiz-adv-x="1480" d="M102 -4v1438h1366v-159h-782l782 -1275h-170l-707 1151v-1151h-171v1275h-143v-1279h-175z" />
<glyph unicode="L" horiz-adv-x="1110" d="M102 0v1433h171v-1433h-171zM412 0v1433h171v-1262h532v-171h-703z" />
<glyph unicode="M" horiz-adv-x="1742" d="M100 0v1429h167l583 -587l21 -20l20 20l583 587v-2v2h167v-1429h-167v1199l-469 -472l-20 -20l-94 -94l-20 -21l-21 21l-93 94l-21 20l-152 153v-880h-167v1048l-150 151v-1199h-167zM327 4l8 8v-8h-8z" />
<glyph unicode="N" horiz-adv-x="1726" d="M102 0v1398l1398 -1398h-241l-990 989v-989h-167zM267 1430h241l949 -949v949h166v-1357l-166 166l-1188 1188z" />
<glyph unicode="O" horiz-adv-x="1789" d="M45 723q0 231 106 405q2 4 8 12.5t8 12.5q60 90 143 152q5 5 30 22q215 154 537 154h17h17q322 0 537 -154q20 -14 29 -22q85 -64 144 -152q13 -19 16 -25q106 -174 106 -405q0 -232 -105 -404q-98 -162 -279 -253.5t-428 -100.5q-8 -1 -24 -1q-2 0 -6.5 0.5t-6.5 0.5 t-6.5 -0.5t-6.5 -0.5q-16 0 -24 1q-247 9 -428 100.5t-279 253.5q-105 172 -105 404zM216 719q0 -188 82 -324q51 -81 124 -137v922q-72 -57 -119 -130q-87 -136 -87 -331zM593 167q123 -42 275 -47q2 0 6 -0.5t7 -0.5h13q4 0 13 0.5t13 0.5q152 5 275 47q41 15 88 38 q1 1 2 1t2 1q45 24 79 51q76 58 124 137q82 134 82 324q0 195 -87 331q-44 71 -119 130q-47 36 -111 66q-1 0 -1 0.5t-1 0.5q-22 10 -58 23q-126 44 -275 48h-26h-13h-13q-149 -4 -275 -48v-1103z" />
<glyph unicode="&#xd6;" horiz-adv-x="1789" d="M45 723q0 231 106 405q2 4 8 12.5t8 12.5q60 90 143 152q5 5 30 22q215 154 537 154h17h17q322 0 537 -154q20 -14 29 -22q85 -64 144 -152q13 -19 16 -25q106 -174 106 -405q0 -232 -105 -404q-98 -162 -279 -253.5t-428 -100.5q-8 -1 -24 -1q-2 0 -6.5 0.5t-6.5 0.5 t-6.5 -0.5t-6.5 -0.5q-16 0 -24 1q-247 9 -428 100.5t-279 253.5q-105 172 -105 404zM216 719q0 -188 82 -324q51 -81 124 -137v922q-72 -57 -119 -130q-87 -136 -87 -331zM593 167q123 -42 275 -47q2 0 6 -0.5t7 -0.5h13q4 0 13 0.5t13 0.5q152 5 275 47q41 15 88 38 q1 1 2 1t2 1q45 24 79 51q76 58 124 137q82 134 82 324q0 195 -87 331q-44 71 -119 130q-47 36 -111 66q-1 0 -1 0.5t-1 0.5q-22 10 -58 23q-126 44 -275 48h-26h-13h-13q-149 -4 -275 -48v-1103z" />
<glyph unicode="&#xd5;" horiz-adv-x="1789" d="M45 723q0 231 106 405q2 4 8 12.5t8 12.5q60 90 143 152q5 5 30 22q215 154 537 154h17h17q322 0 537 -154q20 -14 29 -22q85 -64 144 -152q13 -19 16 -25q106 -174 106 -405q0 -232 -105 -404q-98 -162 -279 -253.5t-428 -100.5q-8 -1 -24 -1q-2 0 -6.5 0.5t-6.5 0.5 t-6.5 -0.5t-6.5 -0.5q-16 0 -24 1q-247 9 -428 100.5t-279 253.5q-105 172 -105 404zM216 719q0 -188 82 -324q51 -81 124 -137v922q-72 -57 -119 -130q-87 -136 -87 -331zM593 167q123 -42 275 -47q2 0 6 -0.5t7 -0.5h13q4 0 13 0.5t13 0.5q152 5 275 47q41 15 88 38 q1 1 2 1t2 1q45 24 79 51q76 58 124 137q82 134 82 324q0 195 -87 331q-44 71 -119 130q-47 36 -111 66q-1 0 -1 0.5t-1 0.5q-22 10 -58 23q-126 44 -275 48h-26h-13h-13q-149 -4 -275 -48v-1103z" />
<glyph unicode="&#xd4;" horiz-adv-x="1789" d="M45 723q0 231 106 405q2 4 8 12.5t8 12.5q60 90 143 152q5 5 30 22q215 154 537 154h17h17q322 0 537 -154q20 -14 29 -22q85 -64 144 -152q13 -19 16 -25q106 -174 106 -405q0 -232 -105 -404q-98 -162 -279 -253.5t-428 -100.5q-8 -1 -24 -1q-2 0 -6.5 0.5t-6.5 0.5 t-6.5 -0.5t-6.5 -0.5q-16 0 -24 1q-247 9 -428 100.5t-279 253.5q-105 172 -105 404zM216 719q0 -188 82 -324q51 -81 124 -137v922q-72 -57 -119 -130q-87 -136 -87 -331zM593 167q123 -42 275 -47q2 0 6 -0.5t7 -0.5h13q4 0 13 0.5t13 0.5q152 5 275 47q41 15 88 38 q1 1 2 1t2 1q45 24 79 51q76 58 124 137q82 134 82 324q0 195 -87 331q-44 71 -119 130q-47 36 -111 66q-1 0 -1 0.5t-1 0.5q-22 10 -58 23q-126 44 -275 48h-26h-13h-13q-149 -4 -275 -48v-1103z" />
<glyph unicode="&#xd3;" horiz-adv-x="1789" d="M45 723q0 231 106 405q2 4 8 12.5t8 12.5q60 90 143 152q5 5 30 22q215 154 537 154h17h17q322 0 537 -154q20 -14 29 -22q85 -64 144 -152q13 -19 16 -25q106 -174 106 -405q0 -232 -105 -404q-98 -162 -279 -253.5t-428 -100.5q-8 -1 -24 -1q-2 0 -6.5 0.5t-6.5 0.5 t-6.5 -0.5t-6.5 -0.5q-16 0 -24 1q-247 9 -428 100.5t-279 253.5q-105 172 -105 404zM216 719q0 -188 82 -324q51 -81 124 -137v922q-72 -57 -119 -130q-87 -136 -87 -331zM593 167q123 -42 275 -47q2 0 6 -0.5t7 -0.5h13q4 0 13 0.5t13 0.5q152 5 275 47q41 15 88 38 q1 1 2 1t2 1q45 24 79 51q76 58 124 137q82 134 82 324q0 195 -87 331q-44 71 -119 130q-47 36 -111 66q-1 0 -1 0.5t-1 0.5q-22 10 -58 23q-126 44 -275 48h-26h-13h-13q-149 -4 -275 -48v-1103z" />
<glyph unicode="&#xd2;" horiz-adv-x="1789" d="M45 723q0 231 106 405q2 4 8 12.5t8 12.5q60 90 143 152q5 5 30 22q215 154 537 154h17h17q322 0 537 -154q20 -14 29 -22q85 -64 144 -152q13 -19 16 -25q106 -174 106 -405q0 -232 -105 -404q-98 -162 -279 -253.5t-428 -100.5q-8 -1 -24 -1q-2 0 -6.5 0.5t-6.5 0.5 t-6.5 -0.5t-6.5 -0.5q-16 0 -24 1q-247 9 -428 100.5t-279 253.5q-105 172 -105 404zM216 719q0 -188 82 -324q51 -81 124 -137v922q-72 -57 -119 -130q-87 -136 -87 -331zM593 167q123 -42 275 -47q2 0 6 -0.5t7 -0.5h13q4 0 13 0.5t13 0.5q152 5 275 47q41 15 88 38 q1 1 2 1t2 1q45 24 79 51q76 58 124 137q82 134 82 324q0 195 -87 331q-44 71 -119 130q-47 36 -111 66q-1 0 -1 0.5t-1 0.5q-22 10 -58 23q-126 44 -275 48h-26h-13h-13q-149 -4 -275 -48v-1103z" />
<glyph unicode="P" horiz-adv-x="1550" d="M102 0v1433h939q130 0 240.5 -64t174.5 -174.5t64 -240.5t-64 -240t-174.5 -174t-240.5 -64h-458v-476h-171v1263h-139v-1263h-171zM583 647h459q128 0 218 90.5t90 217.5t-90 217.5t-218 90.5h-459v-616z" />
<glyph unicode="Q" horiz-adv-x="1787" d="M45 723q0 231 106 405q2 4 8 12.5t8 12.5q60 90 143 152q5 5 30 22q215 154 537 154h17h17q322 0 537 -154q20 -14 29 -22q85 -64 144 -152q13 -19 16 -25q106 -174 106 -405q0 -232 -105 -404q-82 -134 -220.5 -220.5t-324.5 -117.5q125 -120 297 -120h231v-171h-215 q-158 0 -293 74.5t-219 200.5q-2 0 -6.5 -0.5t-6.5 -0.5q-16 0 -24 1q-247 9 -428 100.5t-279 253.5q-105 172 -105 404zM216 719q0 -83 17 -159h470q-58 75 -143.5 118t-183.5 43h-160v-2zM236 891h124q163 0 301.5 -80.5t219 -219t80.5 -301.5q0 -86 33 -166 q106 10 201 43q41 15 88 38q1 1 2 1t2 1q45 24 79 51v-1v1q76 58 124 137q82 134 82 324q0 195 -87 331q-44 71 -119 130q-47 36 -111 66q-1 0 -1 0.5t-1 0.5q-22 10 -58 23v1q-123 42 -275 47h-26h-13h-13q-149 -4 -275 -48q-32 -12 -55 -22q-67 -30 -116 -68 q-72 -57 -119 -130q-44 -69 -67 -159zM302 389q47 -75 120 -131q47 -34 83 -53q47 -23 88 -38q104 -35 225 -44q-27 87 -27 183q0 34 -9 83h-480z" />
<glyph unicode="R" horiz-adv-x="1560" d="M102 0v1433v1h939q97 0 186 -38t153 -102t102 -153t38 -186v-1q0 -151 -85.5 -272t-222.5 -174l236 -508h-188l-221 477h-456v-477h-171v1263h-139v-1263h-171zM583 647h459q53 0 98 16q68 22 120 74q90 90 90 218q0 127 -90 217.5t-218 90.5h-459v-616z" />
<glyph unicode="S" horiz-adv-x="1478" d="M55 336h161q0 -75 53.5 -128t128.5 -53h470v480h-430v2q-151 10 -261.5 114.5t-120.5 254.5q-1 15 -1 30q0 150 103 263q113 124 280 130v4h171v-4h472q141 0 240.5 -99.5t99.5 -240.5h-161q0 75 -53 128.5t-128 53.5h-470v-477h430v-1q167 -7 279 -131 q102 -113 103 -263q0 -15 -1 -30q-10 -150 -119.5 -255.5t-261.5 -116.5v-1h-644q-141 0 -240.5 99.5t-99.5 240.5zM215 1009q8 -85 72 -145t151 -68v474q-100 -6 -166 -82q-58 -66 -58 -153q0 -13 1 -26zM1039 156q101 8 167 84q57 66 56 152q0 13 -1 27q-8 86 -71.5 145.5 t-150.5 68.5v-477z" />
<glyph unicode="T" horiz-adv-x="1419" d="M-8 1263v170h1433v-170h-476v-1263h-171v1263h-139v-1263h-171v1263h-476z" />
<glyph unicode="U" horiz-adv-x="1503" d="M74 677v757h170v-756q0 -202 139 -349v1105h171v-1224q95 -39 197 -39q138 0 254.5 68t184.5 184.5t68 254.5v756h170v-757q0 -138 -52.5 -261.5t-145.5 -216.5q-94 -94 -218 -146.5t-261 -52.5q-102 0 -197 29q-93 29 -171 80q-142 92 -225.5 242.5t-83.5 325.5z" />
<glyph unicode="&#xdb;" horiz-adv-x="1503" d="M74 677v757h170v-756q0 -202 139 -349v1105h171v-1224q95 -39 197 -39q138 0 254.5 68t184.5 184.5t68 254.5v756h170v-757q0 -138 -52.5 -261.5t-145.5 -216.5q-94 -94 -218 -146.5t-261 -52.5q-102 0 -197 29q-93 29 -171 80q-142 92 -225.5 242.5t-83.5 325.5z" />
<glyph unicode="&#xda;" horiz-adv-x="1503" d="M74 677v757h170v-756q0 -202 139 -349v1105h171v-1224q95 -39 197 -39q138 0 254.5 68t184.5 184.5t68 254.5v756h170v-757q0 -138 -52.5 -261.5t-145.5 -216.5q-94 -94 -218 -146.5t-261 -52.5q-102 0 -197 29q-93 29 -171 80q-142 92 -225.5 242.5t-83.5 325.5z" />
<glyph unicode="&#xd9;" horiz-adv-x="1503" d="M74 677v757h170v-756q0 -202 139 -349v1105h171v-1224q95 -39 197 -39q138 0 254.5 68t184.5 184.5t68 254.5v756h170v-757q0 -138 -52.5 -261.5t-145.5 -216.5q-94 -94 -218 -146.5t-261 -52.5q-102 0 -197 29q-93 29 -171 80q-142 92 -225.5 242.5t-83.5 325.5z" />
<glyph unicode="V" horiz-adv-x="1196" d="M18 1433h171l260 -1262h139l-260 1262h171l254 -1231l254 1231h170l-295 -1433h-568z" />
<glyph unicode="W" horiz-adv-x="1974" d="M18 1433h171l260 -1262h139l-260 1262h171l254 -1232v1l148 717l85 414l20 101h171v-1h98l254 -1231l254 1231h170l-295 -1433h-398h-170l-104 504l-104 -504h-171h-397zM1071 918l154 -747h139l-223 1085z" />
<glyph unicode="X" horiz-adv-x="1130" d="M20 0l304 717l-304 717h171l291 -685l13 -32l70 -164l85 -201l149 -352h-171l-63 150l-86 202l-69 164l-219 -516h-171zM330 1434h171l219 -516l219 516h170l-304 -717l304 -717h-170l-219 516l-86 201z" />
<glyph unicode="Y" horiz-adv-x="1085" d="M-10 1434h170l374 -881l7 -17l43 100l27 64l-7 17l-305 717h171l219 -516l7 -16l226 532h170l-310 -734l-27 -64l-59 -138l-27 -63l-42 -101l-27 -63l-59 -138l-27 -64l-29 -69h-172l116 271l27 64l-7 17z" />
<glyph unicode="&#xdd;" horiz-adv-x="1085" d="M-10 1434h170l374 -881l7 -17l43 100l27 64l-7 17l-305 717h171l219 -516l7 -16l226 532h170l-310 -734l-27 -64l-59 -138l-27 -63l-42 -101l-27 -63l-59 -138l-27 -64l-29 -69h-172l116 271l27 64l-7 17z" />
<glyph unicode="Z" horiz-adv-x="1132" d="M20 0l304 717l86 201l146 345h-536v170h608v1h171l-304 -717l-85 -201l-219 -516h-171zM330 0l149 352l86 201l374 881h170l-459 -1082l-77 -181h536v-171h-779z" />
<glyph unicode="a" horiz-adv-x="1746" d="M45 723q0 350 231.5 554t634.5 204q336 0 560 -171v124h170v-1434h-170v133q-223 -169 -564 -169q-401 0 -631.5 204.5t-230.5 554.5zM216 719q0 -301 206 -460v920q-206 -159 -206 -460zM593 168q141 -49 314 -49q401 0 564 269v662q-167 268 -564 268q-173 0 -314 -49 v-1101z" />
<glyph unicode="&#xe4;" horiz-adv-x="1746" d="M45 723q0 350 231.5 554t634.5 204q336 0 560 -171v124h170v-1434h-170v133q-223 -169 -564 -169q-401 0 -631.5 204.5t-230.5 554.5zM216 719q0 -301 206 -460v920q-206 -159 -206 -460zM593 168q141 -49 314 -49q401 0 564 269v662q-167 268 -564 268q-173 0 -314 -49 v-1101z" />
<glyph unicode="&#xe3;" horiz-adv-x="1746" d="M45 723q0 350 231.5 554t634.5 204q336 0 560 -171v124h170v-1434h-170v133q-223 -169 -564 -169q-401 0 -631.5 204.5t-230.5 554.5zM216 719q0 -301 206 -460v920q-206 -159 -206 -460zM593 168q141 -49 314 -49q401 0 564 269v662q-167 268 -564 268q-173 0 -314 -49 v-1101z" />
<glyph unicode="&#xe2;" horiz-adv-x="1746" d="M45 723q0 350 231.5 554t634.5 204q336 0 560 -171v124h170v-1434h-170v133q-223 -169 -564 -169q-401 0 -631.5 204.5t-230.5 554.5zM216 719q0 -301 206 -460v920q-206 -159 -206 -460zM593 168q141 -49 314 -49q401 0 564 269v662q-167 268 -564 268q-173 0 -314 -49 v-1101z" />
<glyph unicode="&#xe1;" horiz-adv-x="1746" d="M45 723q0 350 231.5 554t634.5 204q336 0 560 -171v124h170v-1434h-170v133q-223 -169 -564 -169q-401 0 -631.5 204.5t-230.5 554.5zM216 719q0 -301 206 -460v920q-206 -159 -206 -460zM593 168q141 -49 314 -49q401 0 564 269v662q-167 268 -564 268q-173 0 -314 -49 v-1101z" />
<glyph unicode="&#xe0;" horiz-adv-x="1746" d="M45 723q0 350 231.5 554t634.5 204q336 0 560 -171v124h170v-1434h-170v133q-223 -169 -564 -169q-401 0 -631.5 204.5t-230.5 554.5zM216 719q0 -301 206 -460v920q-206 -159 -206 -460zM593 168q141 -49 314 -49q401 0 564 269v662q-167 268 -564 268q-173 0 -314 -49 v-1101z" />
<glyph unicode="b" horiz-adv-x="1619" d="M102 0v1434h1h1050q167 0 284 -117t117 -284q0 -95 -41 -177.5t-112 -138.5q22 -17 36 -31q117 -117 117 -284t-117.5 -284.5t-283.5 -117.5h-741v1264h-139v-1264h-171zM583 171h570q95 0 163 68q67 67 67 163q0 94 -65 161t-159 69q-1 0 -3 -0.5t-3 -0.5h-570v-460z M583 803h570h7q93 3 158.5 70t65.5 160q0 95 -68 163t-163 68h-570v-461z" />
<glyph unicode="c" horiz-adv-x="1665" d="M45 723q0 350 231.5 554t634.5 204q249 0 435.5 -94t290.5 -259l-162 -84q-165 274 -568 274q-173 0 -314 -49v-1101q141 -49 314 -49q411 0 571 282l163 -83q-105 -166 -292 -260t-442 -94q-401 0 -631.5 204.5t-230.5 554.5zM216 719q0 -301 206 -460v920 q-206 -159 -206 -460z" />
<glyph unicode="d" horiz-adv-x="1656" d="M102 0v1433h649v1q401 -1 631.5 -193.5t230.5 -520.5v-6q0 -328 -230.5 -520.5t-631.5 -193.5h-339v1264h-139v-1264h-171zM583 169h168q211 0 364.5 59t240.5 183.5t87 305.5t-87 305t-240 183t-365 59h-168v-1095z" />
<glyph unicode="e" horiz-adv-x="1507" d="M102 -4v1438h1366v-159h-877v-473h631v-171h-631v-476h897v-159h-1068v1279h-143v-1279h-175z" />
<glyph unicode="&#xea;" horiz-adv-x="1507" d="M102 -4v1438h1366v-159h-877v-473h631v-171h-631v-476h897v-159h-1068v1279h-143v-1279h-175z" />
<glyph unicode="&#xe9;" horiz-adv-x="1507" d="M102 -4v1438h1366v-159h-877v-473h631v-171h-631v-476h897v-159h-1068v1279h-143v-1279h-175z" />
<glyph unicode="&#xe8;" horiz-adv-x="1507" d="M102 -4v1438h1366v-159h-877v-473h631v-171h-631v-476h897v-159h-1068v1279h-143v-1279h-175z" />
<glyph unicode="f" horiz-adv-x="1462" d="M102 -4v1438h1366v-159h-877v-473h631v-171h-631v-631h-171v1275h-143v-1279h-175z" />
<glyph unicode="g" horiz-adv-x="1722" d="M45 723q0 350 231.5 554t634.5 204q250 0 436.5 -93.5t290.5 -259.5l-163 -84q-165 274 -568 274q-176 0 -314 -48v-1103q138 -48 314 -48q147 0 261 36v420h-264v170h745v-745h-171v575h-139v-575h-147q-129 -36 -285 -36q-400 0 -631 205t-231 554zM216 719 q0 -302 206 -461v922q-206 -159 -206 -461z" />
<glyph unicode="h" horiz-adv-x="1634" d="M102 0v1433h171v-1433h-171zM412 0v1433h171v-631h776v631h171v-1433h-171v631h-776v-631h-171z" />
<glyph unicode="i" horiz-adv-x="688" d="M102 0v1433h171v-1433h-171zM412 0v1433h171v-1433h-171z" />
<glyph unicode="&#xee;" horiz-adv-x="688" d="M102 0v1433h171v-1433h-171zM412 0v1433h171v-1433h-171z" />
<glyph unicode="&#xed;" horiz-adv-x="688" d="M102 0v1433h171v-1433h-171zM412 0v1433h171v-1433h-171z" />
<glyph unicode="&#xec;" horiz-adv-x="688" d="M102 0v1433h171v-1433h-171zM412 0v1433h171v-1433h-171z" />
<glyph unicode="j" horiz-adv-x="1171" d="M35 526v276h170v-276q0 -147 104 -251q22 -22 35 -31v558h171v-629q15 -2 46 -2q147 0 250.5 104t103.5 251v908h171v-908q0 -107 -40.5 -203t-113.5 -169t-168.5 -113.5t-202.5 -40.5q-31 0 -46 2q-90 7 -171 44q-139 62 -224 192t-85 288z" />
<glyph unicode="k" horiz-adv-x="1480" d="M102 -4v1438h1366v-159h-782l782 -1275h-170l-707 1151v-1151h-171v1275h-143v-1279h-175z" />
<glyph unicode="l" horiz-adv-x="1110" d="M102 0v1433h171v-1433h-171zM412 0v1433h171v-1262h532v-171h-703z" />
<glyph unicode="m" horiz-adv-x="1742" d="M100 0v1429h167l583 -587l21 -20l20 20l583 587v-2v2h167v-1429h-167v1199l-469 -472l-20 -20l-94 -94l-20 -21l-21 21l-93 94l-21 20l-152 153v-880h-167v1048l-150 151v-1199h-167zM327 4l8 8v-8h-8z" />
<glyph unicode="n" horiz-adv-x="1726" d="M102 0v1398l1398 -1398h-241l-990 989v-989h-167zM267 1430h241l949 -949v949h166v-1357l-166 166l-1188 1188z" />
<glyph unicode="o" horiz-adv-x="1789" d="M45 723q0 231 106 405q2 4 8 12.5t8 12.5q60 90 143 152q5 5 30 22q215 154 537 154h17h17q322 0 537 -154q20 -14 29 -22q85 -64 144 -152q13 -19 16 -25q106 -174 106 -405q0 -232 -105 -404q-98 -162 -279 -253.5t-428 -100.5q-8 -1 -24 -1q-2 0 -6.5 0.5t-6.5 0.5 t-6.5 -0.5t-6.5 -0.5q-16 0 -24 1q-247 9 -428 100.5t-279 253.5q-105 172 -105 404zM216 719q0 -188 82 -324q51 -81 124 -137v922q-72 -57 -119 -130q-87 -136 -87 -331zM593 167q123 -42 275 -47q2 0 6 -0.5t7 -0.5h13q4 0 13 0.5t13 0.5q152 5 275 47q41 15 88 38 q1 1 2 1t2 1q45 24 79 51q76 58 124 137q82 134 82 324q0 195 -87 331q-44 71 -119 130q-47 36 -111 66q-1 0 -1 0.5t-1 0.5q-22 10 -58 23q-126 44 -275 48h-26h-13h-13q-149 -4 -275 -48v-1103z" />
<glyph unicode="&#xf6;" horiz-adv-x="1789" d="M45 723q0 231 106 405q2 4 8 12.5t8 12.5q60 90 143 152q5 5 30 22q215 154 537 154h17h17q322 0 537 -154q20 -14 29 -22q85 -64 144 -152q13 -19 16 -25q106 -174 106 -405q0 -232 -105 -404q-98 -162 -279 -253.5t-428 -100.5q-8 -1 -24 -1q-2 0 -6.5 0.5t-6.5 0.5 t-6.5 -0.5t-6.5 -0.5q-16 0 -24 1q-247 9 -428 100.5t-279 253.5q-105 172 -105 404zM216 719q0 -188 82 -324q51 -81 124 -137v922q-72 -57 -119 -130q-87 -136 -87 -331zM593 167q123 -42 275 -47q2 0 6 -0.5t7 -0.5h13q4 0 13 0.5t13 0.5q152 5 275 47q41 15 88 38 q1 1 2 1t2 1q45 24 79 51q76 58 124 137q82 134 82 324q0 195 -87 331q-44 71 -119 130q-47 36 -111 66q-1 0 -1 0.5t-1 0.5q-22 10 -58 23q-126 44 -275 48h-26h-13h-13q-149 -4 -275 -48v-1103z" />
<glyph unicode="&#xf5;" horiz-adv-x="1789" d="M45 723q0 231 106 405q2 4 8 12.5t8 12.5q60 90 143 152q5 5 30 22q215 154 537 154h17h17q322 0 537 -154q20 -14 29 -22q85 -64 144 -152q13 -19 16 -25q106 -174 106 -405q0 -232 -105 -404q-98 -162 -279 -253.5t-428 -100.5q-8 -1 -24 -1q-2 0 -6.5 0.5t-6.5 0.5 t-6.5 -0.5t-6.5 -0.5q-16 0 -24 1q-247 9 -428 100.5t-279 253.5q-105 172 -105 404zM216 719q0 -188 82 -324q51 -81 124 -137v922q-72 -57 -119 -130q-87 -136 -87 -331zM593 167q123 -42 275 -47q2 0 6 -0.5t7 -0.5h13q4 0 13 0.5t13 0.5q152 5 275 47q41 15 88 38 q1 1 2 1t2 1q45 24 79 51q76 58 124 137q82 134 82 324q0 195 -87 331q-44 71 -119 130q-47 36 -111 66q-1 0 -1 0.5t-1 0.5q-22 10 -58 23q-126 44 -275 48h-26h-13h-13q-149 -4 -275 -48v-1103z" />
<glyph unicode="&#xf4;" horiz-adv-x="1789" d="M45 723q0 231 106 405q2 4 8 12.5t8 12.5q60 90 143 152q5 5 30 22q215 154 537 154h17h17q322 0 537 -154q20 -14 29 -22q85 -64 144 -152q13 -19 16 -25q106 -174 106 -405q0 -232 -105 -404q-98 -162 -279 -253.5t-428 -100.5q-8 -1 -24 -1q-2 0 -6.5 0.5t-6.5 0.5 t-6.5 -0.5t-6.5 -0.5q-16 0 -24 1q-247 9 -428 100.5t-279 253.5q-105 172 -105 404zM216 719q0 -188 82 -324q51 -81 124 -137v922q-72 -57 -119 -130q-87 -136 -87 -331zM593 167q123 -42 275 -47q2 0 6 -0.5t7 -0.5h13q4 0 13 0.5t13 0.5q152 5 275 47q41 15 88 38 q1 1 2 1t2 1q45 24 79 51q76 58 124 137q82 134 82 324q0 195 -87 331q-44 71 -119 130q-47 36 -111 66q-1 0 -1 0.5t-1 0.5q-22 10 -58 23q-126 44 -275 48h-26h-13h-13q-149 -4 -275 -48v-1103z" />
<glyph unicode="&#xf3;" horiz-adv-x="1789" d="M45 723q0 231 106 405q2 4 8 12.5t8 12.5q60 90 143 152q5 5 30 22q215 154 537 154h17h17q322 0 537 -154q20 -14 29 -22q85 -64 144 -152q13 -19 16 -25q106 -174 106 -405q0 -232 -105 -404q-98 -162 -279 -253.5t-428 -100.5q-8 -1 -24 -1q-2 0 -6.5 0.5t-6.5 0.5 t-6.5 -0.5t-6.5 -0.5q-16 0 -24 1q-247 9 -428 100.5t-279 253.5q-105 172 -105 404zM216 719q0 -188 82 -324q51 -81 124 -137v922q-72 -57 -119 -130q-87 -136 -87 -331zM593 167q123 -42 275 -47q2 0 6 -0.5t7 -0.5h13q4 0 13 0.5t13 0.5q152 5 275 47q41 15 88 38 q1 1 2 1t2 1q45 24 79 51q76 58 124 137q82 134 82 324q0 195 -87 331q-44 71 -119 130q-47 36 -111 66q-1 0 -1 0.5t-1 0.5q-22 10 -58 23q-126 44 -275 48h-26h-13h-13q-149 -4 -275 -48v-1103z" />
<glyph unicode="&#xf2;" horiz-adv-x="1789" d="M45 723q0 231 106 405q2 4 8 12.5t8 12.5q60 90 143 152q5 5 30 22q215 154 537 154h17h17q322 0 537 -154q20 -14 29 -22q85 -64 144 -152q13 -19 16 -25q106 -174 106 -405q0 -232 -105 -404q-98 -162 -279 -253.5t-428 -100.5q-8 -1 -24 -1q-2 0 -6.5 0.5t-6.5 0.5 t-6.5 -0.5t-6.5 -0.5q-16 0 -24 1q-247 9 -428 100.5t-279 253.5q-105 172 -105 404zM216 719q0 -188 82 -324q51 -81 124 -137v922q-72 -57 -119 -130q-87 -136 -87 -331zM593 167q123 -42 275 -47q2 0 6 -0.5t7 -0.5h13q4 0 13 0.5t13 0.5q152 5 275 47q41 15 88 38 q1 1 2 1t2 1q45 24 79 51q76 58 124 137q82 134 82 324q0 195 -87 331q-44 71 -119 130q-47 36 -111 66q-1 0 -1 0.5t-1 0.5q-22 10 -58 23q-126 44 -275 48h-26h-13h-13q-149 -4 -275 -48v-1103z" />
<glyph unicode="p" horiz-adv-x="1548" d="M102 0v1433h939q130 0 240.5 -64t174.5 -174.5t64 -240.5t-64 -240t-174.5 -174t-240.5 -64h-458v-476h-171v1263h-139v-1263h-171zM583 647h459q128 0 218 90.5t90 217.5t-90 217.5t-218 90.5h-459v-616z" />
<glyph unicode="q" horiz-adv-x="1787" d="M45 723q0 231 106 405q2 4 8 12.5t8 12.5q60 90 143 152q5 5 30 22q215 154 537 154h17h17q322 0 537 -154q20 -14 29 -22q85 -64 144 -152q13 -19 16 -25q106 -174 106 -405q0 -232 -105 -404q-82 -134 -220.5 -220.5t-324.5 -117.5q125 -120 297 -120h231v-171h-215 q-158 0 -293 74.5t-219 200.5q-2 0 -6.5 -0.5t-6.5 -0.5q-16 0 -24 1q-247 9 -428 100.5t-279 253.5q-105 172 -105 404zM216 719q0 -83 17 -159h470q-58 75 -143.5 118t-183.5 43h-160v-2zM236 891h124q163 0 301.5 -80.5t219 -219t80.5 -301.5q0 -86 33 -166 q106 10 201 43q41 15 88 38q1 1 2 1t2 1q45 24 79 51v-1v1q76 58 124 137q82 134 82 324q0 195 -87 331q-44 71 -119 130q-47 36 -111 66q-1 0 -1 0.5t-1 0.5q-22 10 -58 23v1q-123 42 -275 47h-26h-13h-13q-149 -4 -275 -48q-32 -12 -55 -22q-67 -30 -116 -68 q-72 -57 -119 -130q-44 -69 -67 -159zM302 389q47 -75 120 -131q47 -34 83 -53q47 -23 88 -38q104 -35 225 -44q-27 87 -27 183q0 34 -9 83h-480z" />
<glyph unicode="r" horiz-adv-x="1560" d="M102 0v1433v1h939q97 0 186 -38t153 -102t102 -153t38 -186v-1q0 -151 -85.5 -272t-222.5 -174l236 -508h-188l-221 477h-456v-477h-171v1263h-139v-1263h-171zM583 647h459q53 0 98 16q68 22 120 74q90 90 90 218q0 127 -90 217.5t-218 90.5h-459v-616z" />
<glyph unicode="s" horiz-adv-x="1476" d="M55 336h161q0 -75 53.5 -128t128.5 -53h470v480h-430v2q-151 10 -261.5 114.5t-120.5 254.5q-1 15 -1 30q0 150 103 263q113 124 280 130v4h171v-4h472q141 0 240.5 -99.5t99.5 -240.5h-161q0 75 -53 128.5t-128 53.5h-470v-477h430v-1q167 -7 279 -131 q102 -113 103 -263q0 -15 -1 -30q-10 -150 -119.5 -255.5t-261.5 -116.5v-1h-644q-141 0 -240.5 99.5t-99.5 240.5zM215 1009q8 -85 72 -145t151 -68v474q-100 -6 -166 -82q-58 -66 -58 -153q0 -13 1 -26zM1039 156q101 8 167 84q57 66 56 152q0 13 -1 27q-8 86 -71.5 145.5 t-150.5 68.5v-477z" />
<glyph unicode="t" horiz-adv-x="1419" d="M-8 1263v170h1433v-170h-476v-1263h-171v1263h-139v-1263h-171v1263h-476z" />
<glyph unicode="u" horiz-adv-x="1503" d="M74 677v757h170v-756q0 -202 139 -349v1105h171v-1224q95 -39 197 -39q138 0 254.5 68t184.5 184.5t68 254.5v756h170v-757q0 -138 -52.5 -261.5t-145.5 -216.5q-94 -94 -218 -146.5t-261 -52.5q-102 0 -197 29q-93 29 -171 80q-142 92 -225.5 242.5t-83.5 325.5z" />
<glyph unicode="&#xfb;" horiz-adv-x="1503" d="M74 677v757h170v-756q0 -202 139 -349v1105h171v-1224q95 -39 197 -39q138 0 254.5 68t184.5 184.5t68 254.5v756h170v-757q0 -138 -52.5 -261.5t-145.5 -216.5q-94 -94 -218 -146.5t-261 -52.5q-102 0 -197 29q-93 29 -171 80q-142 92 -225.5 242.5t-83.5 325.5z" />
<glyph unicode="&#xfa;" horiz-adv-x="1503" d="M74 677v757h170v-756q0 -202 139 -349v1105h171v-1224q95 -39 197 -39q138 0 254.5 68t184.5 184.5t68 254.5v756h170v-757q0 -138 -52.5 -261.5t-145.5 -216.5q-94 -94 -218 -146.5t-261 -52.5q-102 0 -197 29q-93 29 -171 80q-142 92 -225.5 242.5t-83.5 325.5z" />
<glyph unicode="&#xf9;" horiz-adv-x="1503" d="M74 677v757h170v-756q0 -202 139 -349v1105h171v-1224q95 -39 197 -39q138 0 254.5 68t184.5 184.5t68 254.5v756h170v-757q0 -138 -52.5 -261.5t-145.5 -216.5q-94 -94 -218 -146.5t-261 -52.5q-102 0 -197 29q-93 29 -171 80q-142 92 -225.5 242.5t-83.5 325.5z" />
<glyph unicode="v" horiz-adv-x="1196" d="M18 1433h171l260 -1262h139l-260 1262h171l254 -1231l254 1231h170l-295 -1433h-568z" />
<glyph unicode="w" horiz-adv-x="1974" d="M18 1433h171l260 -1262h139l-260 1262h171l254 -1232v1l148 717l85 414l20 101h171v-1h98l254 -1231l254 1231h170l-295 -1433h-398h-170l-104 504l-104 -504h-171h-397zM1071 918l154 -747h139l-223 1085z" />
<glyph unicode="x" horiz-adv-x="1130" d="M20 0l304 717l-304 717h171l291 -685l13 -32l70 -164l85 -201l149 -352h-171l-63 150l-86 202l-69 164l-219 -516h-171zM330 1434h171l219 -516l219 516h170l-304 -717l304 -717h-170l-219 516l-86 201z" />
<glyph unicode="y" horiz-adv-x="1085" d="M-10 1434h170l374 -881l7 -17l43 100l27 64l-7 17l-305 717h171l219 -516l7 -16l226 532h170l-310 -734l-27 -64l-59 -138l-27 -63l-42 -101l-27 -63l-59 -138l-27 -64l-29 -69h-172l116 271l27 64l-7 17z" />
<glyph unicode="&#xfd;" horiz-adv-x="1085" d="M-10 1434h170l374 -881l7 -17l43 100l27 64l-7 17l-305 717h171l219 -516l7 -16l226 532h170l-310 -734l-27 -64l-59 -138l-27 -63l-42 -101l-27 -63l-59 -138l-27 -64l-29 -69h-172l116 271l27 64l-7 17z" />
<glyph unicode="z" horiz-adv-x="1132" d="M20 0l304 717l86 201l146 345h-536v170h608v1h171l-304 -717l-85 -201l-219 -516h-171zM330 0l149 352l86 201l374 881h170l-459 -1082l-77 -181h536v-171h-779z" />
<glyph unicode="&#xad;" />
<glyph unicode="&#x2000;" horiz-adv-x="740" />
<glyph unicode="&#x2001;" horiz-adv-x="1481" />
<glyph unicode="&#x2002;" horiz-adv-x="740" />
<glyph unicode="&#x2003;" horiz-adv-x="1481" />
<glyph unicode="&#x2004;" horiz-adv-x="493" />
<glyph unicode="&#x2005;" horiz-adv-x="370" />
<glyph unicode="&#x2006;" horiz-adv-x="246" />
<glyph unicode="&#x2007;" horiz-adv-x="246" />
<glyph unicode="&#x2008;" horiz-adv-x="185" />
<glyph unicode="&#x2009;" horiz-adv-x="296" />
<glyph unicode="&#x200a;" horiz-adv-x="82" />
<glyph unicode="&#x202f;" horiz-adv-x="296" />
<glyph unicode="&#x205f;" horiz-adv-x="370" />
<glyph unicode="&#x25fc;" horiz-adv-x="1435" d="M0 0v1435h1435v-1435h-1435z" />
</font>
</defs>
</svg>
