<?xml version="1.0" standalone="no"?>
<!DOCTYPE svg PUBLIC "-//W3C//DTD SVG 1.1//EN" "http://www.w3.org/Graphics/SVG/1.1/DTD/svg11.dtd" >
<svg xmlns="http://www.w3.org/2000/svg" xmlns:xlink="http://www.w3.org/1999/xlink" version="1.1">
<metadata></metadata>
<defs>
<font id="bigillabold" horiz-adv-x="872" >
<font-face units-per-em="2048" ascent="1638" descent="-410" />
<missing-glyph horiz-adv-x="512" />
<glyph unicode="&#xfb01;" horiz-adv-x="993" d="M72 0v26h45v825h-45v26h45v231q0 71 26 138q34 87 100 147l6 5q104 90 244 92h7q143 -2 249 -97q97 -88 120 -213q7 -34 -15 -59q-23 -26 -55 -26q-29 0 -50.5 21.5t-21.5 50.5v68q-2 102 -77 170q-64 57 -150 59h-7q-87 -2 -151 -59q-75 -68 -77 -171v-357h611v-851h45 v-26h-239v26h45v825h-462v-825h46v-26h-239z" />
<glyph horiz-adv-x="1044" />
<glyph horiz-adv-x="1044" />
<glyph horiz-adv-x="682" />
<glyph unicode="&#xa;" horiz-adv-x="1044" />
<glyph unicode="&#xd;" horiz-adv-x="1044" />
<glyph unicode=" "  horiz-adv-x="512" />
<glyph unicode="&#x09;" horiz-adv-x="512" />
<glyph unicode="&#xa0;" horiz-adv-x="512" />
<glyph unicode="!" horiz-adv-x="464" d="M154 0l40 148h75l41 -148h-156zM157 1491h150l-35 -1098h-80z" />
<glyph unicode="$" horiz-adv-x="952" d="M72 3v411h26v-10q0 -24 3 -46q15 -128 108 -221q1 -1 9.5 -9t9.5 -9l1 -1q1 0 2.5 -2t2.5 -3l2 -1q100 -83 228 -86h6v714q-56 47 -140.5 117.5t-129 107.5t-45.5 38q-48 40 -64.5 100.5t4.5 118.5v1l1 1v1q31 85 93 147h1q60 60 137 90q68 26 143 28v107h26v-107 q125 -6 224 -82q21 -15 48 -15q35 0 60 24.5t25 59.5v10h26v-410h-26v10q0 156 -111 267l-5 5l-3 3l-3 2q-1 0 -4 3l-4 4q-12 12 -18 15q-92 71 -209 77v-552l264 -222h1q11 -10 23.5 -25t35.5 -49t39 -84t19 -105q5 -86 -26 -167t-91 -141q-110 -110 -265 -118v-106h-26 v106h-6q-128 3 -232 82h-1q-21 15 -49 15q-35 0 -59.5 -24.5t-24.5 -59.5v-10h-26zM178 1220q8 -46 66 -97l226 -190v531q-73 -2 -133 -26q-73 -29 -128 -84l-1 -1q-18 -18 -27.5 -55t-2.5 -78zM496 27q116 8 197 89q90 90 90 218q0 127 -90 217q-2 2 -6.5 6t-6.5 6 q-7 5 -184 155v-691z" />
<glyph unicode="&#x26;" horiz-adv-x="1325" d="M74 454q12 108 79 195q28 36 52 56h1l121 89l-185 211l-1 1q-39 48 -57 108q-18 65 1 120l1 3q25 68 92 135l10 10q114 106 268 109h4h3q168 0 286 -118q115 -115 118 -278v-13h-148v13q0 153 -78 262q-76 106 -181 108h-4q-151 -3 -259 -111h-1q-40 -42 -24 -130 q3 -19 14.5 -39.5t19.5 -30.5t27 -32l638 -726q12 58 12 99q0 141 106 236q104 93 251 93h13v-148h-143q-82 0 -141 -50q-60 -51 -60 -131q0 -61 -16 -124l302 -344h54v-26h-277v26h30l-170 192q-6 -10 -11.5 -19t-8.5 -13.5t-3 -5.5q-15 -22 -32.5 -43t-27.5 -30.5 t-12 -10.5q-111 -96 -260 -96h-6q-85 2 -163 37.5t-134 98.5l-4 5q-55 64 -80.5 146t-15.5 166zM144 532q-13 -108 57 -190l80 -91l96 -110q73 -80 181 -82h4q83 0 147 49q4 3 10 9q18 16 40 42t28 35v1q12 17 27 45q-49 56 -220.5 251t-248.5 283l-37 -27l-86 -63 q-20 -15 -44 -53q-28 -47 -34 -99z" />
<glyph unicode="'" horiz-adv-x="456" d="M154 1316v148h148v-148h-1q-5 -51 -43.5 -86.5t-90.5 -35.5h-10v26h10q42 0 72.5 27.5t35.5 68.5h-121z" />
<glyph unicode="&#x2018;" horiz-adv-x="456" d="M154 1316v148h148v-148h-1q-5 -51 -43.5 -86.5t-90.5 -35.5h-10v26h10q42 0 72.5 27.5t35.5 68.5h-121z" />
<glyph unicode="(" horiz-adv-x="530" d="M72 382v727q0 82 33 156t93 128q107 96 249 98h10v-27h-9q-87 -2 -151 -59q-75 -68 -77 -170v-979q2 -102 77 -170q65 -58 150 -60h9v-26h-10q-143 2 -248 97q-60 54 -93 128.5t-33 156.5z" />
<glyph unicode=")" horiz-adv-x="530" d="M72 1465v26h10q143 -2 249 -97q60 -54 93 -128.5t33 -156.5v-726q0 -82 -33 -156.5t-93 -128.5q-105 -95 -248 -97l-10 -1v27h9q86 2 150 59q75 68 77 171v979q-2 102 -77 170q-64 57 -151 59h-9z" />
<glyph unicode="*" horiz-adv-x="667" d="M72 1159l213 61l-213 61l78 135l159 -155l-54 216h156l-54 -216l160 155l78 -135l-214 -61l214 -61l-78 -135l-160 154l54 -215h-156l54 215l-159 -154z" />
<glyph unicode="," horiz-adv-x="456" d="M154 -3v149h148v-149h-1q-5 -51 -43.5 -86.5t-90.5 -35.5h-10v26h10q42 0 72.5 27.5t35.5 68.5h-121z" />
<glyph unicode="-" horiz-adv-x="665" d="M72 496v40h520v-40h-520z" />
<glyph unicode="." horiz-adv-x="436" d="M154 0v129h129v-129h-129z" />
<glyph unicode="/" horiz-adv-x="978" d="M72 19l800 1500l35 -19l-800 -1500z" />
<glyph unicode="0" horiz-adv-x="894" d="M72 382v727q0 82 33 156t93 128q107 96 249 98h1q143 -2 249 -98q60 -54 93 -128t33 -156v-727q0 -82 -33 -156.5t-93 -128.5q-105 -95 -248 -97h-1h-1h-1q-143 2 -248 97q-60 54 -93 128.5t-33 156.5zM220 256q2 -102 77 -170q65 -58 150 -60h1q85 2 150 60 q74 68 77 167l-422 859q-5 9 -16 9q-17 0 -17 -17v-848zM220 1238l422 -859q4 -9 15 -9q18 0 18 17v848q-2 102 -77 170q-64 57 -151 59q-86 -2 -150 -59q-74 -68 -77 -167z" />
<glyph unicode="1" horiz-adv-x="387" d="M72 1409l198 89v-1472h45v-26h-239v26h45v1376l-38 -17z" />
<glyph unicode="2" horiz-adv-x="907" d="M72 0v190l9 13q68 91 210 279t242 321.5t101 134.5q84 111 86 237q1 62 -20 117q-22 56 -68 99q-77 70 -170 73h-15q-86 -2 -150 -59q-75 -68 -77 -170v-140h-148v13q0 82 33 156.5t93 128.5q105 95 248 97h7v1l10 -1q154 -4 263 -113q121 -121 109 -297q-6 -81 -61 -178 q-26 -46 -68 -97q-3 -3 -132.5 -173.5t-277 -364t-184.5 -241.5h477q87 5 146.5 69t59.5 151v10h27v-256h-750z" />
<glyph unicode="3" horiz-adv-x="899" d="M72 382v13h148v-139q2 -102 77 -170q65 -58 150 -60h4q84 2 149 60q75 68 77 170v252q-2 103 -77 171q-50 46 -150 47h-120v27h120q86 2 150 59q75 68 77 170v253q-2 102 -77 170q-64 57 -149 59q-86 -2 -150 -59q-74 -67 -76 -170v-140h-149v14q0 82 33 156t93 128 q103 94 244 97q3 1 5 1q142 -2 248 -98q60 -54 93.5 -128.5t33.5 -155.5t-33.5 -156t-93.5 -129q-65 -59 -147 -83q86 -19 147 -74q60 -54 93.5 -129t33.5 -156t-33.5 -156t-93.5 -129q-105 -95 -248 -97h-5q-143 2 -248 97q-60 54 -93 128.5t-33 156.5z" />
<glyph unicode="4" horiz-adv-x="937" d="M72 330v190l750 997v-1161h45v-26h-45v-304h45v-26h-239v26h45v304h-601zM112 356h561v397h122v499z" />
<glyph unicode="5" horiz-adv-x="903" d="M72 382v13h148v-139q2 -102 77 -170q65 -58 150 -60h4h4q85 2 150 60q75 68 77 170v491q-2 102 -77 170q-64 57 -151 59h-2q-94 0 -162 -66q-67 -65 -70 -161v-142h-148v883h750v-255h-27v9q0 87 -59.5 151t-146.5 69h-369v-607q27 54 71 89q70 56 161 56h3 q143 -2 249 -97q60 -54 93 -128.5t33 -156.5v-238q0 -82 -33 -156.5t-93 -128.5q-105 -95 -249 -97h-4h-5q-143 2 -248 97q-60 54 -93 128.5t-33 156.5z" />
<glyph unicode="6" horiz-adv-x="903" d="M72 379v743q3 78 35.5 148.5t90.5 122.5q107 96 249 98h1q142 -2 249 -98q60 -54 93 -128t33 -156v-14h-148v140q-2 102 -77 170q-64 57 -151 59q-86 -2 -150 -59q-75 -68 -77 -170v-378q27 54 71 89q71 57 161 57l3 -1q143 -2 249 -97q60 -54 93 -128.5t33 -156.5v-238 q0 -82 -33 -156.5t-93 -128.5q-105 -95 -249 -97h-4h-5q-143 2 -248 97q-59 53 -92 127.5t-34 154.5zM220 256q2 -102 77 -170q65 -58 150 -60h4h4q85 2 150 60q75 68 77 170v491q-2 102 -77 170q-64 57 -151 59h-2q-94 0 -162 -66q-67 -65 -70 -161v-493z" />
<glyph unicode="7" horiz-adv-x="819" d="M72 0l585 1464h-348q-86 -6 -145.5 -69t-59.5 -150v-10h-26v256l740 -1l-596 -1490h-150z" />
<glyph unicode="8" horiz-adv-x="892" d="M72 1111q0 81 33 155t93 128q106 95 248 97h1q142 -2 248 -97q60 -54 93 -128t33 -155t-33 -154.5t-93 -127.5q-68 -62 -153 -84q88 -23 154 -83q60 -54 93 -128t33 -155t-33 -154.5t-93 -127.5q-106 -95 -248 -97h-1q-142 2 -248 97q-60 54 -93 127.5t-33 154.5t33 155 t93 128q66 60 153 83q-87 23 -154 84q-60 54 -93 127.5t-33 154.5zM220 986q2 -101 77 -169q64 -57 150 -59q85 2 149 59q75 68 77 169v251q-2 100 -77 168q-64 57 -149 59q-86 -2 -150 -59q-75 -68 -77 -168v-251zM221 254q2 -101 77 -169q64 -57 149 -59q86 2 150 59 q75 68 77 169v251q-2 100 -77 168q-64 57 -150 59q-85 -2 -149 -59q-75 -68 -77 -169v-250z" />
<glyph unicode="9" horiz-adv-x="901" d="M72 870v239q0 82 33 156t93 128q106 96 248 98h5h4q143 -2 249 -98q58 -52 90.5 -122.5t35.5 -148.5v-10v-733q-1 -80 -34 -154.5t-92 -127.5q-106 -95 -249 -97h-1q-143 2 -249 97q-60 54 -93 128.5t-33 156.5v13h148v-139q2 -102 77 -170q65 -58 150 -60q86 2 151 60 q75 68 77 170v378q-27 -54 -71 -89q-71 -57 -161 -57h-3q-143 2 -249 97q-60 54 -93 128.5t-33 156.5zM220 744q2 -102 77 -170q64 -57 151 -59q1 -1 2 -1q93 0 162 67q67 65 70 161v493q-2 102 -77 170q-64 57 -150 59h-4h-4q-86 -2 -150 -59q-75 -68 -77 -170v-491z" />
<glyph unicode=":" horiz-adv-x="456" d="M154 0v148h148v-148h-148zM154 854v148h148v-148h-148z" />
<glyph unicode=";" horiz-adv-x="456" d="M154 122v148h148v-148h-1q-5 -49 -40 -84q-38 -38 -94 -38h-10v26h10q45 0 76 31q27 27 32 65h-121zM154 976v148h148v-148h-148z" />
<glyph unicode="?" horiz-adv-x="909" d="M72 1095v13q0 82 33 156.5t93 128.5q105 95 248 97h7v1l10 -1q154 -4 263 -113q121 -121 109 -297q-9 -125 -129 -275q-4 -5 -146.5 -191.5t-160.5 -211.5v-254h122v-148h-149v590l153 202q29 38 56 74.5t40 53.5l13 18q84 111 86 237q1 62 -20 117q-22 56 -68 99 q-77 70 -170 73h-3h-3h-1h-8q-86 -2 -150 -59q-75 -68 -77 -170v-140h-148z" />
<glyph unicode="@" horiz-adv-x="2123" d="M72 464v38v38q8 194 88 372q78 170 214 302q138 133 315 204.5t369 72.5h3h4q192 -1 368.5 -72.5t314.5 -204.5q136 -132 214 -302q80 -178 88 -372v-38q0 -208 -147 -355q-148 -146 -355 -146h-278v195l-9 -18q-32 -65 -94 -112q-87 -65 -194 -65h-5q-104 2 -186 64 q-59 44 -93 110q-34 67 -34 144q0 78 34 145q34 66 93 110q2 2 16 11q-16 47 -16 100q0 77 35 145q34 67 92 110q82 63 191 63h5q105 -2 186 -63q59 -44 93 -110q35 -68 35 -145v-658h129q196 0 337 139q139 139 139 336l-1 37q-7 181 -81.5 332t-211.5 260 q-130 103 -301 157q-174 55 -368 55t-368 -55q-171 -54 -301 -157q-137 -109 -211.5 -260t-81.5 -332q-1 -25 -1 -37q0 -6 0.5 -18.5t0.5 -18.5q7 -181 81.5 -332t211.5 -260q133 -105 301 -158q171 -54 368 -54h13v-148h-13q-194 0 -371 71.5t-316 205.5q-136 132 -214 302 q-80 178 -88 372zM803 193q2 -41 19 -74q18 -34 49 -58q43 -32 98 -34h4q98 0 178 60q57 43 87 103q32 64 32 134v384q-20 -33 -52 -58q-51 -39 -118 -39h-131q-55 -2 -98 -34q-66 -49 -68 -131v-5v-4v-235v-5v-4zM809 685q0 -49 12 -86q68 36 147 38h132q56 0 102 34 q66 49 68 131v10q-2 82 -68 131q-43 32 -98 34h-4q-97 0 -175 -58q-55 -42 -85 -101q-31 -61 -31 -133z" />
<glyph unicode="A" horiz-adv-x="958" d="M0 0v26h10q42 0 76 26t44 66l251 1129l-75 244h149l452 -1465h49v-26h-190l-151 488h-376l-103 -462h103v-26h-239zM245 515h362l-210 681z" />
<glyph unicode="&#xc3;" horiz-adv-x="958" d="M0 0v26h10q42 0 76 26t44 66l251 1129l-75 244h149l452 -1465h49v-26h-190l-151 488h-376l-103 -462h103v-26h-239zM245 515h362l-210 681z" />
<glyph unicode="B" horiz-adv-x="1191" d="M72 0v26h45v1438h-45v27h545q159 0 268 -109q111 -111 111 -268q0 -121 -68 -218q36 -28 66 -63q126 -143 126 -332q0 -188 -126 -331q-71 -80 -164 -123q-99 -45 -207 -47h-542h-9zM265 26h353h5q143 2 245 104q101 101 103 244v255q-2 132 -90 230q-49 55 -115 85 q-65 30 -143 32h-1h-4q-155 0 -266 109q-59 59 -87 131v-1190zM265 1350q2 -143 106 -246q101 -99 243 -101h4q1 0 2.5 -0.5t2.5 -0.5q157 -2 283 -91q64 90 64 203q0 147 -103 248q-104 102 -250 102h-352v-114z" />
<glyph unicode="C" horiz-adv-x="1599" d="M72 745q0 150 58 289q57 136 157 236q103 103 235 160q139 60 287 61h16q238 -3 430 -142q90 -65 159 -157q69 -94 106 -198l6 -18h-144l-2 10q-60 208 -213 341q-154 134 -342 137h-16q-118 -1 -225.5 -56.5t-190.5 -156.5q-84 -102 -128.5 -232.5t-44.5 -273.5 t44.5 -273.5t128.5 -232.5q83 -101 190.5 -156.5t225.5 -56.5h15h1q192 2 361 102q161 96 255 260l5 9l23 -13l-5 -9q-98 -170 -265 -270q-172 -103 -374 -105h-16q-148 1 -287 61q-132 57 -235 160q-100 100 -157 236q-58 139 -58 288z" />
<glyph unicode="D" horiz-adv-x="1079" d="M72 0v26h45v1438h-45v27h196q148 -1 287 -61q132 -57 235 -160q101 -101 158 -236q57 -136 57 -289q0 -151 -57 -288q-57 -135 -158 -236q-103 -103 -235 -160q-139 -60 -287 -61h-3h-9h-184zM265 26h3q118 1 225.5 56.5t190.5 156.5q84 102 128.5 232.5t44.5 273.5 t-44.5 273.5t-128.5 232.5q-83 101 -190.5 156.5t-225.5 56.5h-3v-1438z" />
<glyph unicode="E" horiz-adv-x="948" d="M72 0v26h45v1438h-45v27h804v-256h-27v10q0 87 -60 150.5t-147 68.5h-377v-705h237q54 3 90.5 42t36.5 93v10h27v-317h-27v9q0 54 -36.5 93.5t-90.5 42.5h-237v-706h377q87 5 147 69t60 151v10h27v-256h-804z" />
<glyph unicode="F" horiz-adv-x="712" d="M72 0v26h45v1438h-45v27h804v-256h-27v10q0 87 -60 150.5t-147 68.5h-377v-706h237q54 3 90.5 42.5t36.5 93.5v10h27v-317h-27v9q0 54 -36.5 93.5t-90.5 42.5h-237v-706h46v-26h-239z" />
<glyph unicode="G" horiz-adv-x="1636" d="M72 745q0 149 58 288q57 136 157 236q103 103 235 160q139 60 287 61h17q238 -3 429 -142q90 -65 159 -157q69 -94 106 -198l6 -18h-144l-2 10q-63 212 -213 342q-151 133 -342 136h-1h-15q-118 -2 -225.5 -56.5t-190.5 -155.5q-84 -102 -128.5 -232.5t-44.5 -273.5 t44.5 -274t128.5 -233q83 -101 190.5 -155.5t225.5 -56.5h16q118 2 225.5 56.5t190.5 155.5q168 204 173 493h-476v27h624v-755h-26v442q0 18 -17 18q-11 0 -16 -10q0 -1 -0.5 -1t-0.5 -1q-19 -45 -51 -98l-1 -2q-3 -6 -5 -9q-98 -153 -262 -247q-169 -94 -358 -96h-2h-14 q-148 1 -287 61q-132 57 -235 160q-100 100 -157 236q-58 139 -58 289z" />
<glyph unicode="H" horiz-adv-x="995" d="M72 0v26h45v1438h-45v27h239v-27h-46v-706h462v706h-45v27h239v-27h-45v-1438h45v-26h-239v26h45v706h-462v-706h46v-26h-239z" />
<glyph unicode="I" horiz-adv-x="446" d="M102 0v26h46v1438h-46v27h240v-27h-46v-1438h46v-26h-240z" />
<glyph unicode="J" horiz-adv-x="940" d="M72 368v10v136h148v-259q2 -102 77 -170q64 -57 149 -59q86 2 150 59q75 68 77 170v1209h-45v26h239v-26h-46v-1083q0 -82 -33 -156t-93 -128q-106 -96 -248 -98h-1q-142 2 -248 98q-58 52 -90.5 122.5t-35.5 148.5z" />
<glyph unicode="K" horiz-adv-x="993" d="M72 0v26h45v1438h-45v27h193v-885l525 787q10 10 10 30q0 15 -22 28q-21 13 -44 13h-10v27h163l-488 -732h106l365 -733h51v-26h-239v26h37l-346 693l-108 -161v-532h46v-26h-239z" />
<glyph unicode="L" horiz-adv-x="948" d="M72 0v26h45v1438h-45v27h193v-1465h377q87 5 147 69t60 151v10h27v-256h-804z" />
<glyph unicode="M" horiz-adv-x="1286" d="M72 0v26h45v1438h-45v27h190l381 -1235l381 1235h190v-27h-45v-1438h45v-26h-239v26h45v1364l-363 -1179l65 -211h-150l-429 1390v-1144q0 -87 60.5 -151t147.5 -69h9l-1 -26h-287z" />
<glyph unicode="N" horiz-adv-x="1189" d="M72 0v26h45v1438h-45v27h188l784 -1426v1180q0 87 -60 150.5t-147 68.5l-9 1v26h288v-27h-45v-1464h-143l-785 1426v-1180q0 -88 60.5 -151.5t147.5 -68.5h9l-1 -26h-287z" />
<glyph unicode="O" horiz-adv-x="1636" d="M72 745q0 150 58 289q57 136 157 236q103 103 235 160q139 60 287 61h16q148 -1 287 -61q132 -57 235 -160q100 -100 157 -236q58 -139 58 -289q0 -149 -58 -288q-57 -136 -157 -236q-103 -103 -235 -160q-139 -60 -287 -61h-16q-148 1 -287 61q-132 57 -235 160 q-100 100 -157 236q-58 139 -58 288zM220 745q0 -143 44.5 -273.5t128.5 -232.5q83 -101 190.5 -156.5t225.5 -56.5h16q118 1 225.5 56.5t190.5 156.5q84 102 128.5 232.5t44.5 273.5t-44.5 273.5t-128.5 232.5q-83 101 -190.5 156.5t-225.5 56.5h-16q-118 -1 -225.5 -56.5 t-190.5 -156.5q-84 -102 -128.5 -232.5t-44.5 -273.5z" />
<glyph unicode="&#xd5;" horiz-adv-x="1636" d="M72 745q0 150 58 289q57 136 157 236q103 103 235 160q139 60 287 61h16q148 -1 287 -61q132 -57 235 -160q100 -100 157 -236q58 -139 58 -289q0 -149 -58 -288q-57 -136 -157 -236q-103 -103 -235 -160q-139 -60 -287 -61h-16q-148 1 -287 61q-132 57 -235 160 q-100 100 -157 236q-58 139 -58 288zM220 745q0 -143 44.5 -273.5t128.5 -232.5q83 -101 190.5 -156.5t225.5 -56.5h16q118 1 225.5 56.5t190.5 156.5q84 102 128.5 232.5t44.5 273.5t-44.5 273.5t-128.5 232.5q-83 101 -190.5 156.5t-225.5 56.5h-16q-118 -1 -225.5 -56.5 t-190.5 -156.5q-84 -102 -128.5 -232.5t-44.5 -273.5z" />
<glyph unicode="P" horiz-adv-x="1193" d="M72 -1v27h45v1438h-45v26h9h542h2q108 -1 205 -47q93 -43 164 -123q126 -143 126 -331q0 -189 -126 -332q-71 -80 -164 -123q-99 -45 -207 -47h-5q-156 0 -268 112q-57 57 -85 128v-701h46v-27h-239zM265 862q2 -143 105 -246q104 -102 248 -102h5q144 2 245 103t103 244 v255q-2 143 -103 244q-102 102 -245 104h-5h-353v-602z" />
<glyph unicode="Q" horiz-adv-x="1636" d="M72 745q0 150 58 289q57 136 157 236q103 103 235 160q136 58 287 60h16q151 -2 287 -60q132 -57 235 -160q100 -100 157 -236q58 -139 58 -289q0 -149 -58 -288q-57 -136 -157 -236q-103 -103 -235 -160q-139 -60 -287 -61h-16q-37 0 -55 2q3 -38 3 -74 q0 -136 96.5 -232.5t232.5 -96.5t232 96.5t96 232.5v13h148v-13q0 -173 -121 -294q-122 -122 -294 -122t-294 122t-122 294q0 25 -4 77q-99 11 -205 56q-132 57 -235 160q-100 100 -157 236q-58 139 -58 288zM220 745q0 -5 0.5 -14t0.5 -13q90 -35 174 -94q109 -76 192 -185 q81 -108 125 -237q28 -82 39 -171q32 -5 58 -5h16q118 1 225.5 56.5t190.5 156.5q84 102 128.5 232.5t44.5 273.5t-44.5 273.5t-128.5 232.5q-83 101 -190.5 156.5t-225.5 56.5h-16q-118 -1 -225.5 -56.5t-190.5 -156.5q-84 -102 -128.5 -232.5t-44.5 -273.5zM222 689 q8 -125 49 -236q43 -116 122 -214q138 -167 331 -204q-10 77 -37 158q-42 124 -122 230q-78 104 -185 179q-73 52 -158 87z" />
<glyph unicode="R" horiz-adv-x="995" d="M72 0v26h45v1438h-45v27h429q142 -2 248 -98q60 -54 93.5 -128.5t33.5 -155.5t-33.5 -156t-93.5 -129q-82 -74 -186 -92l85 -28l224 -678h49v-26h-239v26h40l-231 699q-93 -4 -158 -72t-65 -162l-2 -465h45v-26h-239zM265 601q32 68 95.5 109.5t139.5 41.5q85 2 150 60 q75 68 77 170v253q-2 102 -77 170q-64 57 -149 59h-236v-863z" />
<glyph unicode="S" horiz-adv-x="952" d="M72 3v411h26v-10q0 -22 3 -45q15 -129 108 -222q1 -1 2.5 -3t2.5 -3l2 -1q1 0 2.5 -2t2.5 -3l1 -1q1 -1 3 -2.5t3 -2.5l1 -1q1 0 2.5 -2t2.5 -3l2 -1q99 -82 228 -85l7 -1h4h5l3 1h3q123 5 207 89q90 90 90 218q0 127 -90 217q-2 2 -6.5 6t-6.5 6l-23 19 q-497 418 -502 422q-49 40 -65 100q-7 26 -7 52q0 33 12 66l1 3q31 85 93 147h1q61 61 137 90q72 29 148 29h8q133 -3 237 -83q21 -15 48 -15q35 0 60 24.5t25 59.5v10h26v-410h-26v10q0 156 -111 267l-5 5l-1 1q-2 0 -2 1t-1 2l-2 2t-4 3q-1 0 -2 1l-2 2l-3 3l-2 2 q-1 1 -7 6l-6 4q-98 75 -223 78h-7q-71 0 -138 -26q-73 -29 -128 -84l-1 -1q-18 -19 -28 -55q-5 -21 -5 -43q0 -17 3 -34q8 -47 66 -98l516 -433q10 -9 23 -24.5t36 -49.5t39.5 -84t19.5 -106q1 -12 1 -24q0 -73 -27 -143q-31 -81 -91 -141q-113 -113 -274 -118h-4h-3h-5h-5 h-6q-128 3 -232 82h-1q-22 16 -49 16q-35 0 -59.5 -25t-24.5 -60v-10h-26z" />
<glyph unicode="T" horiz-adv-x="952" d="M72 1235v256h807v-256h-26v10q0 87 -60 150.5t-147 68.5h-96v-1438h45v-26h-239v26h45v1438h-96q-87 -5 -147 -68.5t-60 -150.5v-10h-26z" />
<glyph unicode="U" horiz-adv-x="985" d="M72 1464v27h239v-27h-46v-1208q2 -102 77 -170q65 -58 150 -60q131 2 231 91q56 50 86.5 119.5t30.5 145.5v863q0 88 -60 151t-147 68l-9 1v26h288v-27h-45v-1082q0 -81 -33.5 -156t-93.5 -129q-105 -95 -248 -97q-144 2 -249 97q-60 54 -93 128.5t-33 156.5v1082h-45z " />
<glyph unicode="V" horiz-adv-x="1026" d="M0 1464v27h191l378 -1417l246 1390h-98v27h308v-27h-79q-42 0 -75.5 -25.5t-44.5 -65.5l-244 -1373h-143l-391 1464h-48z" />
<glyph unicode="W" horiz-adv-x="1503" d="M0 1464v27h191l378 -1417l158 893l-133 497h-48v27h479v-27h-183l-39 -221l312 -1169l229 1295l2 10l15 85h-98v27h103v1l9 -1h127v-27h-10q-42 0 -75.5 -25.5t-44.5 -65.5l-244 -1373h-143l-242 907l-161 -907h-143l-391 1464h-48zM744 1464l43 -161l11 66l2 10l15 85 h-71z" />
<glyph unicode="X" horiz-adv-x="995" d="M72 0v10v16h10q44 0 82 24.5t54 61.5l233 560l-330 792h-49v27h239v-27h-39l255 -611l255 611h-100v27h239v-27h-10q-44 0 -82.5 -24t-54.5 -62l-233 -559l330 -793h50v-26h-239v26h39l-255 612l-255 -612h100v-26h-239z" />
<glyph unicode="Y" horiz-adv-x="849" d="M0 1464v26h239v-26h-39l255 -687l223 610l28 77h-96v26h239v-26h-10q-45 0 -83.5 -24.5t-52.5 -61.5l-235 -641v-711h46v-27h-240v27h46v711l-271 727h-49z" />
<glyph unicode="&#xdd;" horiz-adv-x="849" d="M0 1464v26h239v-26h-39l255 -687l223 610l28 77h-96v26h239v-26h-10q-45 0 -83.5 -24.5t-52.5 -61.5l-235 -641v-711h46v-27h-240v27h46v711l-271 727h-49z" />
<glyph unicode="Z" horiz-adv-x="890" d="M72 0l585 1464h-348q-86 -6 -145.5 -69t-59.5 -150v-10h-26v256l740 -1l-585 -1464h346q87 5 147 69t60 151v10h26v-256h-740z" />
<glyph unicode="[" horiz-adv-x="387" d="M72 0v1491h242v-27h-94v-1438h94v-26h-242z" />
<glyph unicode="]" horiz-adv-x="387" d="M72 0v26h94v1438h-94v27h242v-1491h-242z" />
<glyph unicode="_" horiz-adv-x="894" d="M72 -51h751v-84h-751v84z" />
<glyph unicode="a" horiz-adv-x="954" d="M72 318q0 78 34 145q34 66 93 110q3 2 16 11q-16 47 -16 100q0 77 35 145q34 66 93 110q84 64 191 64l4 -1q106 -2 187 -63q58 -43 92 -110q35 -68 35 -145v-658h45v-26h-194v196q-2 -3 -4.5 -9.5t-3.5 -9.5q-32 -63 -95 -112q-87 -65 -194 -65h-4q-105 2 -187 64 q-59 44 -93 110q-34 67 -34 144zM220 192q2 -83 68 -132q43 -32 98 -34h4q98 0 178 60q54 41 87 103q32 64 32 134v384q-20 -33 -52 -58q-51 -39 -117 -39h-132q-55 -2 -98 -34q-66 -49 -68 -131v-253zM226 684q0 -46 13 -86q68 36 147 38h132q56 0 102 34q65 48 67 131v10 q-2 83 -67 131q-43 32 -99 34h-3q-98 0 -176 -58q-53 -41 -84 -101q-32 -62 -32 -133z" />
<glyph unicode="&#xe3;" horiz-adv-x="954" d="M72 318q0 78 34 145q34 66 93 110q3 2 16 11q-16 47 -16 100q0 77 35 145q34 66 93 110q84 64 191 64l4 -1q106 -2 187 -63q58 -43 92 -110q35 -68 35 -145v-658h45v-26h-194v196q-2 -3 -4.5 -9.5t-3.5 -9.5q-32 -63 -95 -112q-87 -65 -194 -65h-4q-105 2 -187 64 q-59 44 -93 110q-34 67 -34 144zM220 192q2 -83 68 -132q43 -32 98 -34h4q98 0 178 60q54 41 87 103q32 64 32 134v384q-20 -33 -52 -58q-51 -39 -117 -39h-132q-55 -2 -98 -34q-66 -49 -68 -131v-253zM226 684q0 -46 13 -86q68 36 147 38h132q56 0 102 34q65 48 67 131v10 q-2 83 -67 131q-43 32 -99 34h-3q-98 0 -176 -58q-53 -41 -84 -101q-32 -62 -32 -133z" />
<glyph unicode="b" horiz-adv-x="1196" d="M72 1409l198 89v-735q29 73 84 128q112 112 269 112q1 0 2.5 -0.5t2.5 -0.5q110 -2 206 -46q95 -44 165 -123q125 -142 125 -332q0 -189 -125 -331q-70 -79 -165 -123q-99 -46 -206 -47h-5q-158 0 -269 111q-55 55 -84 129v-214h45v-26h-239v26h45v1376l-38 -17zM270 375 q2 -144 105 -247q104 -102 248 -102h4q143 2 245 104q101 101 103 244v255q-2 143 -103 244t-245 103h-4q-144 0 -248 -102q-103 -103 -105 -246v-253z" />
<glyph unicode="c" horiz-adv-x="1124" d="M72 501q0 190 125 332q71 80 164 123q99 45 207 47h1q1 0 3 -1h1q109 -2 202 -46q93 -43 164 -123q77 -86 108 -201l5 -16h-136v13q-2 142 -104 244q-101 101 -244 103q-143 -2 -244 -103q-102 -102 -104 -244v-255q2 -142 104 -244t244 -104q103 2 196 45q88 41 155 116 q74 83 103 190l2 10l26 -7l-3 -10q-31 -114 -108 -200q-71 -80 -164 -123q-97 -46 -202 -47h-4h-1q-108 2 -207 47q-93 43 -164 123q-125 142 -125 331z" />
<glyph unicode="d" horiz-adv-x="1193" d="M72 501q0 190 125 332q71 80 164 123q96 44 207 46q1 0 2.5 0.5t2.5 0.5q156 0 268 -112q57 -57 85 -128v639l-39 -17l-11 24l198 89v-1472h46v-26h-194v240q-29 -73 -85 -129q-111 -111 -268 -111h-5q-108 2 -207 47q-93 43 -164 123q-125 142 -125 331zM220 374 q2 -143 104 -245q101 -101 244 -103h5q143 0 248 103q103 102 105 246v252q-2 145 -105 247q-104 102 -248 102h-5q-143 -2 -244 -103q-102 -102 -104 -244v-255z" />
<glyph unicode="e" horiz-adv-x="1124" d="M72 501q0 190 125 332q71 80 164 123q99 45 207 47l5 -1q107 -2 202 -46q93 -43 164 -123q77 -86 108 -201l5 -16h-158q66 -33 106 -101q35 -61 35 -131q0 -66 -32 -124q-25 -45 -64 -90q-71 -80 -164 -123q-97 -46 -202 -47h-5q-108 2 -207 47q-93 43 -164 123 q-125 142 -125 331zM220 374q2 -142 104 -244t244 -104q103 2 196 45q88 41 155 116q36 41 61 86q29 52 29 111q0 63 -32 118q-30 51 -80 81.5t-108 32.5h-569v-242zM221 642h695q-8 135 -104 231q-101 101 -244 103q-143 -2 -244 -103q-95 -95 -103 -231z" />
<glyph unicode="f" horiz-adv-x="620" d="M72 0v26h45v950h-45v27h45v106q0 96 46 182q2 4 16 26q15 24 29 40q2 3 7 8q13 15 28 28l6 5q105 91 244 93h3h4q142 -2 249 -98q60 -54 93.5 -128.5t33.5 -155.5v-14h-149v140q-2 102 -77 170q-64 57 -150 59h-4h-3q-87 -2 -151 -59q-75 -68 -77 -170v-232h41.5t60 -0.5 t61 -0.5h48.5h20h10v-26h-241v-950h46v-26h-239z" />
<glyph unicode="g" horiz-adv-x="1138" d="M72 501q0 190 125 332q71 80 164 123q96 44 207 46h5q78 -2 144 -23q-48 62 -48 136q2 142 98 249q54 60 128.5 93.5t155.5 33.5h13v-149h-139q-102 -2 -170 -77q-57 -64 -59 -150q0 -53 26.5 -98.5t72.5 -70.5q84 -44 144 -113q125 -142 125 -332q0 -189 -125 -331 q-20 -24 -57 -55v-1q56 -21 99 -64h1q40 -40 61.5 -94t20.5 -110h1l-1 -10q-6 -123 -93 -213l-3 -3q-102 -100 -245 -108h-19q-75 0 -147 29q-71 29 -125 83l-9 10l105 105l99 -99q68 -66 163 -66h11q87 5 149 65l2 2q80 81 86 195v1v15q0 103 -75 180q-48 46 -113 65 q-2 1 -4.5 1t-3.5 1h-1l-2 1q-1 0 -5 1l-4 1h-1h-2l-2 1h-2l-6 1q-18 3 -37 3q-2 0 -6 -0.5t-6 -0.5q-95 -5 -163 -71l-9 -9h1l-23 -22l-117 -117q-67 -67 -153 -67h-10q-82 5 -145 65q-39 37 -58 86q-12 32 -12 69q0 19 3 40q10 59 57 110l8 8l15 16q-90 130 -90 287z M108 75q-3 -18 -3 -35q0 -32 11 -60q17 -43 51 -76q59 -57 138 -57q74 0 133 59l96 95q-91 7 -175 47q-92 43 -162 122q-1 1 -8 9t-11 13l-12 -12l-8 -8q-41 -45 -50 -97zM220 374q2 -143 102 -243q98 -99 237 -104l27 27q78 74 181 79h13q12 0 34 -2l8 8t7 8q85 98 87 227 v255q-2 142 -104 244q-101 101 -244 103q-143 -2 -244 -103q-102 -102 -104 -244v-255z" />
<glyph unicode="h" d="M72 0v26h45v1438h-45v27h193v-539q78 49 170 49h5q105 -2 186 -63q59 -44 93 -110q31 -60 34 -132l1 -13v-657h45v-26h-239v26h45v784q-2 82 -68 131q-43 32 -98 34h-4q-94 0 -170 -55v-894h46v-26h-239z" />
<glyph unicode="i" horiz-adv-x="448" d="M102 921l198 89v-984h46v-26h-239v26h45v888l-39 -17zM152 1233q0 31 21.5 53t52.5 22t52.5 -22t21.5 -53t-21.5 -52.5t-52.5 -21.5t-52.5 21.5t-21.5 52.5z" />
<glyph unicode="j" horiz-adv-x="405" d="M-205 -462h10q143 2 245 104q101 101 103 244v1028l-39 -17l-11 24l199 89v-1010h-1q-5 -182 -125 -318q-71 -80 -164 -123q-99 -45 -207 -47h-9zM153 1233q0 31 21.5 53t52.5 22t53 -22t22 -53t-22 -52.5t-53 -21.5t-52.5 21.5t-21.5 52.5z" />
<glyph unicode="k" horiz-adv-x="925" d="M72 1409l198 89v-940l501 376l1 1q6 6 6 18q0 13 -7 18t-32 5h-10v27h177l-487 -366h89l366 -611h51v-26h-239v26h35l-346 578l-105 -79v-499h45v-26h-239v26h45v1376l-38 -17z" />
<glyph unicode="l" horiz-adv-x="387" d="M72 1409l198 89v-1472h45v-26h-239v26h45v1376l-38 -17z" />
<glyph unicode="m" horiz-adv-x="1359" d="M72 0v26h45v950h-45v27h193v-51q78 49 170 49h5q105 -2 186 -63q27 -20 53 -51q24 29 54 51q83 63 191 63h4q106 -2 187 -63q58 -43 92 -110q32 -62 35 -132v-10v-660h45v-26h-239v26h45v784q-2 83 -67 131q-43 32 -99 34h-3q-96 0 -175 -59q-34 -27 -53 -51 q11 -15 23 -37q31 -60 34 -132h1v-10v-660h45v-26h-239v26h45v784q-2 82 -68 131q-43 32 -98 34h-4q-94 0 -170 -55v-894h46v-26h-239z" />
<glyph unicode="n" d="M72 0v26h45v950h-45v27h193v-51q78 49 170 49h5q105 -2 186 -63q59 -44 93 -110q31 -60 34 -132h1v-10v-660h45v-26h-239v26h45v784q-2 82 -68 131q-43 32 -98 34h-4q-94 0 -170 -55v-894h46v-26h-239z" />
<glyph unicode="o" horiz-adv-x="1138" d="M72 501q0 190 125 332q71 80 164 123q99 45 207 47h1h4q105 -1 202 -47q93 -43 164 -123q125 -142 125 -332q0 -189 -125 -331q-71 -80 -164 -123q-99 -45 -207 -47q-108 2 -207 47q-93 43 -164 123q-125 142 -125 331zM220 374q2 -142 104 -244t244 -104q142 2 244 104 t104 244v255q-2 142 -104 244q-101 101 -244 103q-143 -2 -244 -103q-102 -102 -104 -244v-255z" />
<glyph unicode="&#xf5;" horiz-adv-x="1138" d="M72 501q0 190 125 332q71 80 164 123q99 45 207 47h1h4q105 -1 202 -47q93 -43 164 -123q125 -142 125 -332q0 -189 -125 -331q-71 -80 -164 -123q-99 -45 -207 -47q-108 2 -207 47q-93 43 -164 123q-125 142 -125 331zM220 374q2 -142 104 -244t244 -104q142 2 244 104 t104 244v255q-2 142 -104 244q-101 101 -244 103q-143 -2 -244 -103q-102 -102 -104 -244v-255z" />
<glyph unicode="p" horiz-adv-x="1193" d="M72 -462h45v1438h-45v27h193v-240q28 71 85 128q112 112 268 112q1 0 2.5 -0.5t2.5 -0.5q111 -2 207 -46q93 -43 164 -123q126 -143 126 -332q0 -188 -126 -331q-71 -80 -164 -123q-99 -45 -207 -47h-5q-157 0 -268 111q-56 56 -85 129v-702h46v-26h-239v26zM265 375 q2 -144 105 -247q104 -102 248 -102h5q143 2 245 104q101 101 103 244v255q-2 143 -103 244t-245 103h-5q-144 0 -248 -102q-103 -103 -105 -246v-253z" />
<glyph unicode="q" horiz-adv-x="1193" d="M72 501q0 190 125 332q71 80 164 123q96 44 207 46q1 0 2.5 0.5t2.5 0.5q156 0 268 -112q57 -57 85 -128v240h194v-27h-46v-1438h46v-26h-240v26h46v702q-29 -73 -85 -129q-111 -111 -268 -111h-5q-108 2 -207 47q-93 43 -164 123q-125 142 -125 331zM220 374 q2 -142 104 -244t244 -104h5q144 0 248 102q103 103 105 247v253q-2 143 -105 246q-104 102 -248 102h-5q-143 -2 -244 -103q-102 -102 -104 -244v-255z" />
<glyph unicode="r" horiz-adv-x="827" d="M72 0v26h45v950h-45v27h193v-50q80 50 170 50l5 -1q105 -2 186 -63q59 -44 93 -110q35 -68 35 -145v-13h-149v131v4v5q-2 82 -68 131q-43 32 -98 34h-4q-95 0 -170 -54v-366v-530h46v-26h-239z" />
<glyph unicode="s" horiz-adv-x="782" d="M72 3v324h26v-10q0 -119 86 -205q15 -15 23 -22q1 -1 4 -3.5t5 -3.5h1q77 -57 173 -57q4 0 10 0.5t10 0.5q109 8 186 85l4 4q55 58 55 135v5q-2 82 -59 139q-24 24 -45 35q-15 8 -397 191h-1q-57 28 -75 91q-7 24 -7 47q0 32 13 64q18 49 58 90q0 1 1 1l1 2q81 81 211 86 q3 0 7 0.5t7 0.5q117 0 205 -63l9 -6q17 -10 33 -10q28 0 47 18.5t19 46.5v10h26v-319h-26v10q-3 114 -86 197q-9 9 -29 25q-2 1 -4 3t-4 3q-82 58 -190 58h-13q-119 -5 -193 -79l-2 -2h-1q-23 -25 -19 -49q10 -61 209 -156q79 -38 126 -60q98 -48 139 -89q18 -18 30 -34 q42 -56 58 -127q7 -32 7 -64q0 -44 -13 -86q-22 -74 -77 -132l-5 -5q-84 -84 -203 -92q-7 -1 -22 -1q-105 0 -189 62h-1q-1 1 -4 3.5t-5 3.5q-15 10 -31 10q-25 0 -43.5 -19.5t-18.5 -46.5v-10h-26z" />
<glyph unicode="t" horiz-adv-x="638" d="M72 1409l198 89v-381q0 -10 -4 -30q0 -2 -2 -6.5t-2 -6.5q-17 -47 -58 -71h430v-27h-364v-784q2 -83 68 -132q43 -32 98 -34h2h2q96 0 175 59l8 6l15 -22l-7 -5q-84 -64 -191 -64h-5h-7h-2q-98 5 -177 64q-59 44 -93 110q-31 60 -34 131h-1v13v658h-45v27h45v399l-38 -17 z" />
<glyph unicode="u" d="M72 976v27h239v-27h-46v-783q2 -82 68 -131q43 -32 98 -34h1h3q95 0 170 54v894h-45v27h239v-27h-45v-950h45v-26h-194v50q-78 -49 -170 -49h-4q-105 2 -187 64q-58 43 -92 110t-35 141v660h-45z" />
<glyph unicode="v" horiz-adv-x="821" d="M0 976v27h239v-27h-41l281 -911l205 911h-103v27h239v-27h-10q-42 0 -76 -26t-44 -66l-198 -884h-142l-301 976h-49z" />
<glyph unicode="w" horiz-adv-x="1230" d="M0 976v27h190l289 -938l110 488l-130 423h-49v27h410v-27h-109l-43 -192l221 -719l204 911h-103v27h239v-27h-9q-42 0 -76 -26t-44 -66l-198 -884h-143l-154 502l-113 -502h-142l-301 976h-49zM608 976l44 -142l32 142h-76z" />
<glyph unicode="x" horiz-adv-x="849" d="M0 0v26h10q47 0 87.5 20.5t62.5 55.5l4 8h1l214 342l-328 524h-51v27h239v-27h-35l251 -401l251 401h-96v27h239v-27h-10q-47 0 -87 -20.5t-62 -55.5l-219 -350l327 -524h51v-26h-239v26h35l-251 402l-251 -402h96v-26h-239z" />
<glyph unicode="y" horiz-adv-x="831" d="M0 -478l30 146l136 -28q19 -4 44 -4q76 0 138 45q70 51 89 136l41 183h-116l-300 976h-49v27h190l289 -938l185 825l19 86h-103v27h240v-27h-10q-42 0 -76 -26t-44 -66l-241 -1073q-29 -138 -145 -224q-102 -75 -227 -75q-37 0 -77 8z" />
<glyph unicode="&#xfd;" horiz-adv-x="831" d="M0 -478l30 146l136 -28q19 -4 44 -4q76 0 138 45q70 51 89 136l41 183h-116l-300 976h-49v27h190l289 -938l185 825l19 86h-103v27h240v-27h-10q-42 0 -76 -26t-44 -66l-241 -1073q-29 -138 -145 -224q-102 -75 -227 -75q-37 0 -77 8z" />
<glyph unicode="z" horiz-adv-x="899" d="M72 0l585 976h-344q-86 -6 -145.5 -69t-59.5 -150v-10h-26v256h744l-586 -977h343q87 5 147 69t60 151v10h26v-256h-744z" />
<glyph unicode="{" horiz-adv-x="667" d="M72 733v25h9q54 3 91 42.5t37 93.5v215q0 82 33 156t93 128q107 96 250 98h9l1 -27h-10q-87 -2 -151 -59q-75 -68 -77 -170v-349q0 -56 -36 -100q-23 -28 -54 -41q31 -13 54 -41q36 -44 36 -100v-348q2 -102 77 -170q65 -58 150 -60h10l-1 -26h-10q-143 2 -248 97 q-60 54 -93 128.5t-33 156.5v214q0 54 -37 93.5t-91 42.5z" />
<glyph unicode="}" horiz-adv-x="667" d="M72 1465v27h10q142 -2 249 -98q60 -54 93 -128t33 -156v-215q0 -54 37 -93t91 -42l10 -1v-25l-10 -1q-54 -3 -91 -42.5t-37 -93.5v-214q0 -82 -33 -156.5t-93 -128.5q-105 -95 -248 -97l-10 -1v27l9 1q86 2 150 59q75 68 77 170v348q0 56 36 100q23 28 54 41 q-31 13 -54 41q-36 44 -36 101v348q-2 102 -77 170q-64 57 -151 59h-9z" />
<glyph unicode="&#xa1;" horiz-adv-x="464" d="M154 1491h156l-41 -149h-75zM157 0l35 1097h80l35 -1097h-150z" />
<glyph unicode="&#xa3;" horiz-adv-x="1187" d="M72 0v27h12h2q113 1 193.5 80t85.5 192v433h-293v27h293v350q0 82 33 156t93 128q106 96 248 98h1q142 -2 248 -98q60 -54 93.5 -128.5t33.5 -155.5v-133h-149v259q-2 102 -77 170q-64 57 -149 59q-86 -2 -150 -59q-75 -68 -77 -170v-476h237v-27h-237v-309 q-3 -173 -126 -296q-68 -68 -156 -100h502h17q80 5 139 59q75 68 77 170v139h149v-10v-10q-2 -143 -98 -249q-11 -12 -24 -24v-1q-1 0 -3 -1.5t-2 -2.5q-105 -95 -248 -97h-10h-649h-9z" />
<glyph unicode="&#xa5;" horiz-adv-x="1005" d="M72 244v26h319v218h-319v26h319v223l-270 727h-49v27h239v-27h-40l256 -686l251 686h-96v27h251v-27h-22q-45 0 -84.5 -24t-52.5 -61l-234 -642v-223h393v-26h-393v-218h393v-26h-393v-218h45v-26h-239v26h45v218h-319z" />
<glyph unicode="&#xad;" horiz-adv-x="1044" />
<glyph unicode="&#xbf;" horiz-adv-x="909" d="M73 410q9 126 129 276q4 5 146.5 191.5t160.5 210.5v254h-122v149h149v-590l-151 -201q-108 -144 -111 -147q-84 -111 -86 -237q-1 -59 21 -117q23 -58 67 -99q77 -70 170 -73h3h3h1h8q86 2 150 59q75 68 77 170v140h148v-14q0 -82 -33 -156t-93 -128q-106 -96 -248 -98 h-7h-10q-153 4 -263 114q-121 121 -109 296z" />
<glyph unicode="&#xc0;" horiz-adv-x="1099" d="M72 0v26h9q42 0 76 26t44 66l252 1129l-76 244h150l452 -1465h49v-26h-191l-150 488h-376l-103 -462h103v-26h-239zM317 515h362l-211 681zM355 1761l108 108l284 -283l-12 -15z" />
<glyph unicode="&#xc1;" horiz-adv-x="1099" d="M72 0v26h9q42 0 76 26t44 66l252 1129l-76 244h150l452 -1465h49v-26h-191l-150 488h-376l-103 -462h103v-26h-239zM317 515h362l-211 681zM353 1586l283 283l109 -108l-381 -190z" />
<glyph unicode="&#xc2;" horiz-adv-x="1099" d="M72 0v26h9q42 0 76 26t44 66l252 1129l-76 244h150l452 -1465h49v-26h-191l-150 488h-376l-103 -462h103v-26h-239zM259 1629l197 197l197 -197l-11 -15l-186 93l-185 -93zM317 515h362l-211 681z" />
<glyph unicode="&#xc4;" horiz-adv-x="1099" d="M72 0v26h9q42 0 76 26t44 66l252 1129l-76 244h150l452 -1465h49v-26h-191l-150 488h-376l-103 -462h103v-26h-239zM260 1721q0 31 21.5 53t52.5 22t53 -22t22 -53t-22 -52.5t-53 -21.5t-52.5 21.5t-21.5 52.5zM317 515h362l-211 681zM504 1721q0 31 21.5 53t52.5 22 t53 -22t22 -53t-22 -52.5t-53 -21.5t-52.5 21.5t-21.5 52.5z" />
<glyph unicode="&#xc6;" horiz-adv-x="1691" d="M72 0v26h9q44 0 85 25q39 25 56 60l1 2l630 1351h-38v27h804v-256h-26v10q0 87 -60 150.5t-147 68.5h-377v-705h236q54 3 91 42t37 93v10h27v-317h-27v9q0 54 -37 93.5t-91 42.5h-236v-706h377q87 5 147 69t60 151v10h26v-256h-758v732h-320l-329 -706h99v-26h-239z M553 759h308v659z" />
<glyph unicode="&#xc7;" horiz-adv-x="1599" d="M72 746q0 149 58 288q57 136 157 236q105 105 235 161q136 58 287 60h16q238 -3 430 -142q91 -66 159 -156q69 -94 106 -198l6 -18h-144l-2 9q-61 210 -213 342q-154 134 -342 137h-16q-118 -1 -225.5 -56.5t-190.5 -156.5q-84 -102 -128.5 -232.5t-44.5 -273.5 t44.5 -273.5t128.5 -232.5q83 -101 190.5 -156.5t225.5 -56.5h16q192 2 361 102q161 96 255 260l5 9l23 -13l-5 -9q-98 -170 -265 -270q-127 -76 -280 -98q40 -16 74 -47q84 -76 86 -189v-1q-2 -117 -86 -192q-71 -64 -168 -66h-13v148h13q71 0 120.5 49.5t49.5 120.5 q0 64 -42 112q-40 46 -104 56q-16 2 -24 2h-447l88 88q-98 52 -179 133q-100 100 -157 236q-58 139 -58 288zM442 27h177q-45 12 -97 35q-10 4 -32 14z" />
<glyph unicode="&#xc8;" horiz-adv-x="948" d="M72 0v26h45v1438h-45v27h804v-256h-27v10q0 87 -60 150.5t-147 68.5h-377v-706h237q54 3 90.5 42.5t36.5 93.5v10h27v-317h-27v9q0 54 -36.5 93.5t-90.5 42.5h-237v-706h377q87 5 147 69t60 151v10h27v-256h-804zM277 1761l109 108l283 -283l-11 -15z" />
<glyph unicode="&#xc9;" horiz-adv-x="948" d="M72 0v26h45v1438h-45v27h804v-256h-27v10q0 87 -60 150.5t-147 68.5h-377v-706h237q54 3 90.5 42.5t36.5 93.5v10h27v-317h-27v9q0 54 -36.5 93.5t-90.5 42.5h-237v-706h377q87 5 147 69t60 151v10h27v-256h-804zM275 1586l283 283l109 -108l-381 -190z" />
<glyph unicode="&#xca;" horiz-adv-x="948" d="M72 0v26h45v1438h-45v27h804v-256h-27v10q0 87 -60 150.5t-147 68.5h-377v-706h237q54 3 90.5 42.5t36.5 93.5v10h27v-317h-27v9q0 54 -36.5 93.5t-90.5 42.5h-237v-706h377q87 5 147 69t60 151v10h27v-256h-804zM275 1629l197 197l197 -197l-11 -15l-186 93l-186 -93z " />
<glyph unicode="&#xcb;" horiz-adv-x="948" d="M72 0v26h45v1438h-45v27h804v-256h-27v10q0 87 -60 150.5t-147 68.5h-377v-706h237q54 3 90.5 42.5t36.5 93.5v10h27v-317h-27v9q0 54 -36.5 93.5t-90.5 42.5h-237v-706h377q87 5 147 69t60 151v10h27v-256h-804zM276 1721q0 31 21.5 53t52.5 22t52.5 -22t21.5 -53 t-21.5 -52.5t-52.5 -21.5t-52.5 21.5t-21.5 52.5zM520 1721q0 31 21.5 53t52.5 22t52.5 -22t21.5 -53t-21.5 -52.5t-52.5 -21.5t-52.5 21.5t-21.5 52.5z" />
<glyph unicode="&#xcc;" horiz-adv-x="536" d="M72 1761l108 108l283 -283l-11 -15zM147 0v26h45v1438h-45v27h239v-27h-45v-1438h45v-26h-239z" />
<glyph unicode="&#xcd;" horiz-adv-x="536" d="M72 1586l283 283l108 -108l-380 -190zM149 0v26h45v1438h-45v27h239v-27h-45v-1438h45v-26h-239z" />
<glyph unicode="&#xce;" horiz-adv-x="538" d="M72 1629l197 197l196 -197l-11 -15l-185 93l-186 -93zM149 0v26h45v1438h-45v27h239v-27h-45v-1438h45v-26h-239z" />
<glyph unicode="&#xcf;" horiz-adv-x="536" d="M72 1721q0 31 21.5 53t52.5 22t52.5 -22t21.5 -53t-21.5 -52.5t-52.5 -21.5t-52.5 21.5t-21.5 52.5zM148 0v26h46v1438h-46v27h239v-27h-45v-1438h45v-26h-239zM316 1721q0 31 21.5 53t52.5 22t52.5 -22t21.5 -53t-21.5 -52.5t-52.5 -21.5t-52.5 21.5t-21.5 52.5z" />
<glyph unicode="&#xd1;" horiz-adv-x="1187" d="M72 0v26h45v1438h-45v27h188l784 -1426v1180q0 87 -60 150.5t-147 68.5l-9 1v26h288v-27h-45v-1464h-143l-785 1426v-1180q0 -88 60.5 -151.5t147.5 -68.5h9l-1 -26h-287zM291 1652v9l1 1q26 64 80 101q52 37 119 42q3 0 8 0.5t8 0.5q39 0 78 -14q6 -3 143 -59l3 -1 q19 -9 42 -9q19 0 40 8q41 17 59 57l4 9l24 -11l-4 -9q-26 -60 -79.5 -97t-118.5 -42q-3 0 -8 -0.5t-7 -0.5q-40 0 -79 14l-9 3v1q-5 2 -20.5 8t-47 18.5t-69.5 28.5q-19 9 -41 9q-33 0 -60.5 -18.5t-40.5 -48.5l-3 -9z" />
<glyph unicode="&#xd2;" horiz-adv-x="1634" d="M72 745q0 150 58 289q57 136 157 236q103 103 235 160q136 58 287 60h16q151 -2 287 -60q132 -57 235 -160q100 -100 157 -236q58 -139 58 -289q0 -149 -58 -288q-57 -136 -157 -236q-103 -103 -235 -160q-139 -60 -287 -61h-16q-148 1 -287 61q-132 57 -235 160 q-100 100 -157 236q-58 139 -58 288zM220 745q0 -143 44.5 -273.5t128.5 -232.5q83 -101 190.5 -156.5t225.5 -56.5h16q118 1 225.5 56.5t190.5 156.5q84 102 128.5 232.5t44.5 273.5t-44.5 273.5t-128.5 232.5q-83 101 -190.5 156.5t-225.5 56.5h-16q-118 -1 -225.5 -56.5 t-190.5 -156.5q-84 -102 -128.5 -232.5t-44.5 -273.5zM622 1761l109 108l283 -283l-11 -15z" />
<glyph unicode="&#xd3;" horiz-adv-x="1634" d="M72 745q0 150 58 289q57 136 157 236q103 103 235 160q136 58 287 60h16q151 -2 287 -60q132 -57 235 -160q100 -100 157 -236q58 -139 58 -289q0 -149 -58 -288q-57 -136 -157 -236q-103 -103 -235 -160q-139 -60 -287 -61h-16q-148 1 -287 61q-132 57 -235 160 q-100 100 -157 236q-58 139 -58 288zM220 745q0 -143 44.5 -273.5t128.5 -232.5q83 -101 190.5 -156.5t225.5 -56.5h16q118 1 225.5 56.5t190.5 156.5q84 102 128.5 232.5t44.5 273.5t-44.5 273.5t-128.5 232.5q-83 101 -190.5 156.5t-225.5 56.5h-16q-118 -1 -225.5 -56.5 t-190.5 -156.5q-84 -102 -128.5 -232.5t-44.5 -273.5zM620 1586l283 283l109 -108l-381 -190z" />
<glyph unicode="&#xd4;" horiz-adv-x="1634" d="M72 745q0 150 58 289q57 136 157 236q103 103 235 160q136 58 287 60h16q151 -2 287 -60q132 -57 235 -160q100 -100 157 -236q58 -139 58 -289q0 -149 -58 -288q-57 -136 -157 -236q-103 -103 -235 -160q-139 -60 -287 -61h-16q-148 1 -287 61q-132 57 -235 160 q-100 100 -157 236q-58 139 -58 288zM220 745q0 -143 44.5 -273.5t128.5 -232.5q83 -101 190.5 -156.5t225.5 -56.5h16q118 1 225.5 56.5t190.5 156.5q84 102 128.5 232.5t44.5 273.5t-44.5 273.5t-128.5 232.5q-83 101 -190.5 156.5t-225.5 56.5h-16q-118 -1 -225.5 -56.5 t-190.5 -156.5q-84 -102 -128.5 -232.5t-44.5 -273.5zM620 1629l197 197l197 -197l-11 -15l-186 93l-186 -93z" />
<glyph unicode="&#xd6;" horiz-adv-x="1634" d="M72 745q0 150 58 289q57 136 157 236q103 103 235 160q136 58 287 60h16q151 -2 287 -60q132 -57 235 -160q100 -100 157 -236q58 -139 58 -289q0 -149 -58 -288q-57 -136 -157 -236q-103 -103 -235 -160q-139 -60 -287 -61h-16q-148 1 -287 61q-132 57 -235 160 q-100 100 -157 236q-58 139 -58 288zM220 745q0 -143 44.5 -273.5t128.5 -232.5q83 -101 190.5 -156.5t225.5 -56.5h16q118 1 225.5 56.5t190.5 156.5q84 102 128.5 232.5t44.5 273.5t-44.5 273.5t-128.5 232.5q-83 101 -190.5 156.5t-225.5 56.5h-16q-118 -1 -225.5 -56.5 t-190.5 -156.5q-84 -102 -128.5 -232.5t-44.5 -273.5zM621 1721q0 31 21.5 53t52.5 22t52.5 -22t21.5 -53t-21.5 -52.5t-52.5 -21.5t-52.5 21.5t-21.5 52.5zM865 1721q0 31 21.5 53t52.5 22t52.5 -22t21.5 -53t-21.5 -52.5t-52.5 -21.5t-52.5 21.5t-21.5 52.5z" />
<glyph unicode="&#xd9;" horiz-adv-x="985" d="M72 1464v27h239v-27h-46v-1208q2 -102 77 -170q65 -58 150 -60q131 2 231 91q56 50 86.5 119.5t30.5 145.5v863q0 88 -60 151t-147 68l-9 1v26h288v-27h-45v-1082q0 -81 -33.5 -156t-93.5 -129q-105 -95 -248 -97q-144 2 -249 97q-60 54 -93 128.5t-33 156.5v1082h-45z M297 1761l109 108l283 -283l-11 -15z" />
<glyph unicode="&#xda;" horiz-adv-x="985" d="M72 1464v27h239v-27h-46v-1208q2 -102 77 -170q65 -58 150 -60q131 2 231 91q56 50 86.5 119.5t30.5 145.5v863q0 88 -60 151t-147 68l-9 1v26h288v-27h-45v-1082q0 -81 -33.5 -156t-93.5 -129q-105 -95 -248 -97q-144 2 -249 97q-60 54 -93 128.5t-33 156.5v1082h-45z M295 1586l283 283l109 -108l-381 -190z" />
<glyph unicode="&#xdb;" horiz-adv-x="985" d="M72 1464v27h239v-27h-46v-1208q2 -102 77 -170q65 -58 150 -60q131 2 231 91q56 50 86.5 119.5t30.5 145.5v863q0 88 -60 151t-147 68l-9 1v26h288v-27h-45v-1082q0 -81 -33.5 -156t-93.5 -129q-105 -95 -248 -97q-144 2 -249 97q-60 54 -93 128.5t-33 156.5v1082h-45z M348 1629l197 197l197 -197l-11 -15l-186 93l-185 -93z" />
<glyph unicode="&#xdc;" horiz-adv-x="985" d="M72 1464v27h239v-27h-46v-1208q2 -102 77 -170q65 -58 150 -60q131 2 231 91q56 50 86.5 119.5t30.5 145.5v863q0 88 -60 151t-147 68l-9 1v26h288v-27h-45v-1082q0 -81 -33.5 -156t-93.5 -129q-105 -95 -248 -97q-144 2 -249 97q-60 54 -93 128.5t-33 156.5v1082h-45z M296 1721q0 31 21.5 53t52.5 22t52.5 -22t21.5 -53t-21.5 -52.5t-52.5 -21.5t-52.5 21.5t-21.5 52.5zM540 1721q0 31 21.5 53t52.5 22t52.5 -22t21.5 -53t-21.5 -52.5t-52.5 -21.5t-52.5 21.5t-21.5 52.5z" />
<glyph unicode="&#xdf;" horiz-adv-x="1191" d="M72 0v26h45v963q0 190 125 332q71 80 164 123q99 45 207 47q5 -1 7 -1h4q66 -2 115 -41q46 -37 64 -93t3 -113q-16 -59 -70 -100q-45 -36 -34 -92q5 -26 23 -45t44 -26q17 -4 39 -13q99 -34 186 -132q126 -143 126 -331v-3q0 -188 -126 -331q-71 -80 -164 -123 q-99 -45 -207 -47q-98 2 -185 37l-9 4l10 25l9 -4q84 -35 175 -36q143 2 245 104q101 101 103 244v257q-2 99 -48 187q-49 91 -124 125q-6 3 -37 11q-33 9 -56 33.5t-30 58.5q-14 72 44 118q45 34 60 86q14 48 -2 98q-15 48 -55 80q-44 35 -99 36h-1h-9h-1 q-143 -2 -244 -103q-102 -102 -104 -244v-1117h-193z" />
<glyph unicode="&#xe0;" horiz-adv-x="954" d="M72 318q0 78 34 145q34 66 93 110q3 2 16 11q-16 47 -16 100q0 77 35 145q34 66 93 110q84 64 191 64l4 -1q106 -2 187 -63q58 -43 92 -110q35 -68 35 -145v-658h45v-26h-194v196q-2 -3 -4.5 -9.5t-3.5 -9.5q-32 -63 -95 -112q-87 -65 -194 -65h-4q-105 2 -187 64 q-59 44 -93 110q-34 67 -34 144zM220 192q2 -83 68 -132q43 -32 98 -34h4q98 0 178 60q54 41 87 103q32 64 32 134v384q-20 -33 -52 -58q-51 -39 -117 -39h-132q-55 -2 -98 -34q-66 -49 -68 -131v-253zM226 684q0 -46 13 -86q68 36 147 38h132q56 0 102 34q65 48 67 131v10 q-2 83 -67 131q-43 32 -99 34h-3q-98 0 -176 -58q-53 -41 -84 -101q-32 -62 -32 -133zM283 1273l109 108l283 -283l-11 -15z" />
<glyph unicode="&#xe1;" horiz-adv-x="954" d="M72 318q0 78 34 145q34 66 93 110q3 2 16 11q-16 47 -16 100q0 77 35 145q34 66 93 110q84 64 191 64l4 -1q106 -2 187 -63q58 -43 92 -110q35 -68 35 -145v-658h45v-26h-194v196q-2 -3 -4.5 -9.5t-3.5 -9.5q-32 -63 -95 -112q-87 -65 -194 -65h-4q-105 2 -187 64 q-59 44 -93 110q-34 67 -34 144zM220 192q2 -83 68 -132q43 -32 98 -34h4q98 0 178 60q54 41 87 103q32 64 32 134v384q-20 -33 -52 -58q-51 -39 -117 -39h-132q-55 -2 -98 -34q-66 -49 -68 -131v-253zM226 684q0 -46 13 -86q68 36 147 38h132q56 0 102 34q65 48 67 131v10 q-2 83 -67 131q-43 32 -99 34h-3q-98 0 -176 -58q-53 -41 -84 -101q-32 -62 -32 -133zM281 1098l283 283l109 -108l-380 -190z" />
<glyph unicode="&#xe2;" horiz-adv-x="954" d="M72 318q0 78 34 145q34 66 93 110q3 2 16 11q-16 47 -16 100q0 77 35 145q34 66 93 110q84 64 191 64l4 -1q106 -2 187 -63q58 -43 92 -110q35 -68 35 -145v-658h45v-26h-194v196q-2 -3 -4.5 -9.5t-3.5 -9.5q-32 -63 -95 -112q-87 -65 -194 -65h-4q-105 2 -187 64 q-59 44 -93 110q-34 67 -34 144zM220 192q2 -83 68 -132q43 -32 98 -34h4q98 0 178 60q54 41 87 103q32 64 32 134v384q-20 -33 -52 -58q-51 -39 -117 -39h-132q-55 -2 -98 -34q-66 -49 -68 -131v-253zM226 684q0 -46 13 -86q68 36 147 38h132q56 0 102 34q65 48 67 131v10 q-2 83 -67 131q-43 32 -99 34h-3q-98 0 -176 -58q-53 -41 -84 -101q-32 -62 -32 -133zM281 1141l197 197l197 -197l-11 -15l-186 93l-185 -93z" />
<glyph unicode="&#xe4;" horiz-adv-x="954" d="M72 318q0 78 34 145q34 66 93 110q3 2 16 11q-16 47 -16 100q0 77 35 145q34 66 93 110q84 64 191 64l4 -1q106 -2 187 -63q58 -43 92 -110q35 -68 35 -145v-658h45v-26h-194v196q-2 -3 -4.5 -9.5t-3.5 -9.5q-32 -63 -95 -112q-87 -65 -194 -65h-4q-105 2 -187 64 q-59 44 -93 110q-34 67 -34 144zM220 192q2 -83 68 -132q43 -32 98 -34h4q98 0 178 60q54 41 87 103q32 64 32 134v384q-20 -33 -52 -58q-51 -39 -117 -39h-132q-55 -2 -98 -34q-66 -49 -68 -131v-253zM226 684q0 -46 13 -86q68 36 147 38h132q56 0 102 34q65 48 67 131v10 q-2 83 -67 131q-43 32 -99 34h-3q-98 0 -176 -58q-53 -41 -84 -101q-32 -62 -32 -133zM282 1233q0 31 21.5 53t52.5 22t52.5 -22t21.5 -53t-21.5 -52.5t-52.5 -21.5t-52.5 21.5t-21.5 52.5zM526 1233q0 31 21.5 53t52.5 22t52.5 -22t21.5 -53t-21.5 -52.5t-52.5 -21.5 t-52.5 21.5t-21.5 52.5z" />
<glyph unicode="&#xe6;" horiz-adv-x="1738" d="M72 321q0 77 34 144q34 66 93 110q10 8 16 12q-16 47 -16 100q0 76 35 144q34 66 93 110q84 64 191 64h4q105 -2 187 -64q62 -47 95 -116q2 1 5 4.5t4 5.5q69 78 159 121q97 46 200 49h17q106 -1 202 -47q93 -43 164 -123q77 -86 108 -200l4 -17h-831v-242 q2 -143 103 -244t245 -103q107 2 196 44q86 40 155 117q73 82 102 189l3 10l25 -7l-2 -10q-31 -114 -108 -200q-71 -80 -164 -123q-96 -46 -202 -47h-10l-7 1q-106 3 -200 48q-87 42 -152 113l-12 14q-62 73 -94 161v-13q0 -77 -35 -147q-32 -63 -95 -112q-87 -65 -194 -65 h-4q-105 2 -187 64q-59 44 -93 110q-34 67 -34 145zM220 194q2 -82 68 -131q43 -32 98 -34h4q99 0 178 59q54 41 87 103q32 64 32 135v137v247q-20 -33 -52 -58q-52 -40 -117 -40h-132q-55 -2 -98 -34q-66 -49 -68 -131v-253zM226 687q0 -46 13 -86q68 36 147 38h132 q56 0 102 34q65 48 67 131v9q-2 84 -67 132q-42 31 -99 33h-3q-98 0 -176 -58q-53 -41 -84 -101q-32 -62 -32 -132zM836 644h695q-8 136 -103 231q-101 101 -244 103q-144 -2 -245 -103q-95 -95 -103 -231z" />
<glyph unicode="&#xe7;" horiz-adv-x="1124" d="M72 502q0 190 125 332q69 78 164 122q99 45 207 47h5q106 -2 202 -47q95 -44 164 -122q77 -86 108 -201l5 -17h-136v13q-2 143 -104 245q-101 101 -244 103q-143 -2 -244 -103q-102 -102 -104 -245v-255q2 -142 104 -244q101 -101 243 -103h3q99 1 194 45q88 41 155 116 q74 83 103 190l2 9l26 -7l-3 -9q-31 -115 -108 -201q-69 -78 -164 -122q-58 -27 -115 -38q45 -17 80 -49q83 -76 85 -189v-1q-2 -118 -85 -192q-71 -64 -168 -66h-14v148h14q70 0 119.5 49.5t49.5 120.5q0 64 -42 112q-41 47 -103 56q-16 2 -23 2h-6h-442l121 121 q-30 26 -49 48q-125 142 -125 332zM188 27h224q-26 9 -51 21q-54 25 -95 58z" />
<glyph unicode="&#xe8;" horiz-adv-x="1124" d="M72 501q0 190 125 332q71 80 164 123q96 44 207 46h5q107 -2 202 -46q93 -43 164 -123q77 -86 108 -201l5 -16h-158q66 -33 106 -101q34 -59 35 -127t-32 -128q-25 -45 -64 -90q-71 -80 -164 -123q-97 -46 -202 -47h-5q-108 2 -207 47q-93 43 -164 123q-125 142 -125 331 zM220 374q2 -143 104 -245q101 -101 244 -103q103 2 196 45q88 41 155 116q36 41 61 86q30 54 29 114.5t-32 114.5q-30 51 -80 81.5t-108 32.5h-569v-242zM221 642h695q-8 135 -104 231q-101 101 -244 103q-143 -2 -244 -103q-95 -95 -103 -231zM365 1273l108 108l284 -283 l-12 -15z" />
<glyph unicode="&#xe9;" horiz-adv-x="1124" d="M72 501q0 190 125 332q71 80 164 123q96 44 207 46h5q107 -2 202 -46q93 -43 164 -123q77 -86 108 -201l5 -16h-158q66 -33 106 -101q34 -59 35 -127t-32 -128q-25 -45 -64 -90q-71 -80 -164 -123q-97 -46 -202 -47h-5q-108 2 -207 47q-93 43 -164 123q-125 142 -125 331 zM220 374q2 -143 104 -245q101 -101 244 -103q103 2 196 45q88 41 155 116q36 41 61 86q30 54 29 114.5t-32 114.5q-30 51 -80 81.5t-108 32.5h-569v-242zM221 642h695q-8 135 -104 231q-101 101 -244 103q-143 -2 -244 -103q-95 -95 -103 -231zM363 1098l283 283l108 -108 l-380 -190z" />
<glyph unicode="&#xea;" horiz-adv-x="1124" d="M72 501q0 190 125 332q71 80 164 123q96 44 207 46h5q107 -2 202 -46q93 -43 164 -123q77 -86 108 -201l5 -16h-158q66 -33 106 -101q34 -59 35 -127t-32 -128q-25 -45 -64 -90q-71 -80 -164 -123q-97 -46 -202 -47h-5q-108 2 -207 47q-93 43 -164 123q-125 142 -125 331 zM220 374q2 -143 104 -245q101 -101 244 -103q103 2 196 45q88 41 155 116q36 41 61 86q30 54 29 114.5t-32 114.5q-30 51 -80 81.5t-108 32.5h-569v-242zM221 642h695q-8 135 -104 231q-101 101 -244 103q-143 -2 -244 -103q-95 -95 -103 -231zM363 1141l197 197l197 -197 l-12 -15l-185 93l-186 -93z" />
<glyph unicode="&#xeb;" horiz-adv-x="1124" d="M72 501q0 190 125 332q71 80 164 123q96 44 207 46h5q107 -2 202 -46q93 -43 164 -123q77 -86 108 -201l5 -16h-158q66 -33 106 -101q34 -59 35 -127t-32 -128q-25 -45 -64 -90q-71 -80 -164 -123q-97 -46 -202 -47h-5q-108 2 -207 47q-93 43 -164 123q-125 142 -125 331 zM220 374q2 -143 104 -245q101 -101 244 -103q103 2 196 45q88 41 155 116q36 41 61 86q30 54 29 114.5t-32 114.5q-30 51 -80 81.5t-108 32.5h-569v-242zM221 642h695q-8 135 -104 231q-101 101 -244 103q-143 -2 -244 -103q-95 -95 -103 -231zM363 1233q0 31 22 53t53 22 t52.5 -22t21.5 -53t-21.5 -52.5t-52.5 -21.5t-53 21.5t-22 52.5zM607 1233q0 31 22 53t53 22t52.5 -22t21.5 -53t-21.5 -52.5t-52.5 -21.5t-53 21.5t-22 52.5z" />
<glyph unicode="&#xec;" horiz-adv-x="536" d="M72 1273l108 108l283 -283l-11 -15zM143 921l198 89v-984h45v-26h-239v26h45v888l-39 -17z" />
<glyph unicode="&#xed;" horiz-adv-x="536" d="M72 1098l283 283l108 -108l-380 -190zM145 921l198 89v-984h45v-26h-239v26h45v888l-38 -17z" />
<glyph unicode="&#xee;" horiz-adv-x="538" d="M72 1141l197 197l196 -197l-11 -15l-185 93l-186 -93zM145 921l198 89v-984h45v-26h-239v26h45v888l-38 -17z" />
<glyph unicode="&#xef;" horiz-adv-x="536" d="M72 1233q0 31 21.5 53t52.5 22t52.5 -22t21.5 -53t-21.5 -52.5t-52.5 -21.5t-52.5 21.5t-21.5 52.5zM144 921l198 89v-984h45v-26h-239v26h46v888l-39 -17zM316 1233q0 31 21.5 53t52.5 22t52.5 -22t21.5 -53t-21.5 -52.5t-52.5 -21.5t-52.5 21.5t-21.5 52.5z" />
<glyph unicode="&#xf1;" d="M72 0v26h45v950h-45v27h193v-51q78 49 170 49h5q105 -2 186 -63q59 -44 93 -110q31 -60 34 -132h1v-10v-660h45v-26h-239v26h45v784q-2 82 -68 131q-43 32 -98 34h-4q-94 0 -170 -55v-894h46v-26h-239zM132 1164v9l1 1q26 63 81 101q52 37 118 42q2 0 8 0.5t8 0.5 q39 0 78 -14q6 -3 143 -59l3 -1q20 -9 42 -9q19 0 40 8q41 17 59 57l4 9l24 -11l-3 -9q-26 -60 -79.5 -97t-118.5 -42q-2 0 -8 -0.5t-8 -0.5q-39 0 -78 14l-10 3v1q-5 2 -20.5 8t-47 18.5t-69.5 28.5q-19 9 -41 9q-33 0 -60.5 -18.5t-40.5 -48.5l-3 -10z" />
<glyph unicode="&#xf2;" horiz-adv-x="1136" d="M72 501q0 190 125 332q71 80 164 123q96 44 207 46h1h4q107 -2 202 -46q93 -43 164 -123q125 -142 125 -332q0 -189 -125 -331q-71 -80 -164 -123q-99 -45 -207 -47q-108 2 -207 47q-93 43 -164 123q-125 142 -125 331zM220 374q2 -143 104 -245q101 -101 244 -103 q143 2 244 103q102 102 104 245v255q-2 142 -104 244q-101 101 -244 103q-143 -2 -244 -103q-102 -102 -104 -244v-255zM373 1273l109 108l283 -283l-11 -15z" />
<glyph unicode="&#xf3;" horiz-adv-x="1136" d="M72 501q0 190 125 332q71 80 164 123q96 44 207 46h1h4q107 -2 202 -46q93 -43 164 -123q125 -142 125 -332q0 -189 -125 -331q-71 -80 -164 -123q-99 -45 -207 -47q-108 2 -207 47q-93 43 -164 123q-125 142 -125 331zM220 374q2 -143 104 -245q101 -101 244 -103 q143 2 244 103q102 102 104 245v255q-2 142 -104 244q-101 101 -244 103q-143 -2 -244 -103q-102 -102 -104 -244v-255zM371 1098l283 283l109 -108l-381 -190z" />
<glyph unicode="&#xf4;" horiz-adv-x="1136" d="M72 501q0 190 125 332q71 80 164 123q96 44 207 46h1h4q107 -2 202 -46q93 -43 164 -123q125 -142 125 -332q0 -189 -125 -331q-71 -80 -164 -123q-99 -45 -207 -47q-108 2 -207 47q-93 43 -164 123q-125 142 -125 331zM220 374q2 -143 104 -245q101 -101 244 -103 q143 2 244 103q102 102 104 245v255q-2 142 -104 244q-101 101 -244 103q-143 -2 -244 -103q-102 -102 -104 -244v-255zM371 1141l197 197l197 -197l-11 -15l-186 93l-186 -93z" />
<glyph unicode="&#xf6;" horiz-adv-x="1136" d="M72 501q0 190 125 332q71 80 164 123q96 44 207 46h1h4q107 -2 202 -46q93 -43 164 -123q125 -142 125 -332q0 -189 -125 -331q-71 -80 -164 -123q-99 -45 -207 -47q-108 2 -207 47q-93 43 -164 123q-125 142 -125 331zM220 374q2 -143 104 -245q101 -101 244 -103 q143 2 244 103q102 102 104 245v255q-2 142 -104 244q-101 101 -244 103q-143 -2 -244 -103q-102 -102 -104 -244v-255zM372 1233q0 31 21.5 53t52.5 22t52.5 -22t21.5 -53t-21.5 -52.5t-52.5 -21.5t-52.5 21.5t-21.5 52.5zM616 1233q0 31 21.5 53t52.5 22t52.5 -22 t21.5 -53t-21.5 -52.5t-52.5 -21.5t-52.5 21.5t-21.5 52.5z" />
<glyph unicode="&#xf9;" d="M72 974v26h239v-26h-46v-783q2 -82 68 -131q43 -32 98 -34h4q95 0 170 54v894h-45v26h239v-26h-45v-950h45v-26h-194v50q-78 -49 -170 -49h-4h-2q-101 2 -185 64q-58 43 -92 110t-35 141v660h-45zM240 1272l109 109l283 -283l-11 -16z" />
<glyph unicode="&#xfa;" d="M72 974v26h239v-26h-46v-783q2 -82 68 -131q43 -32 98 -34h4q95 0 170 54v894h-45v26h239v-26h-45v-950h45v-26h-194v50q-78 -49 -170 -49h-4h-1q-102 1 -186 64q-58 43 -92 110t-35 141v660h-45zM238 1098l284 283l108 -109l-380 -190z" />
<glyph unicode="&#xfb;" d="M72 974v26h239v-26h-46v-783q2 -82 68 -131q43 -32 98 -34h4q95 0 170 54v894h-45v26h239v-26h-45v-950h45v-26h-194v50q-78 -49 -170 -49h-4h-1q-102 1 -186 64q-58 43 -92 110t-35 141v660h-45zM238 1141l197 197l197 -197l-11 -16l-186 93l-185 -93z" />
<glyph unicode="&#xfc;" d="M72 974v26h239v-26h-46v-783q2 -82 68 -131q43 -32 98 -34h4q95 0 170 54v894h-45v26h239v-26h-45v-950h45v-26h-194v50q-78 -49 -170 -49h-4h-1q-102 1 -186 64q-58 43 -92 110t-35 141v660h-45zM239 1233q0 31 21.5 52.5t52.5 21.5t52.5 -21.5t21.5 -52.5t-21.5 -53 t-52.5 -22t-52.5 22t-21.5 53zM483 1233q0 31 21.5 52.5t52.5 21.5t53 -21.5t22 -52.5t-22 -53t-53 -22t-52.5 22t-21.5 53z" />
<glyph unicode="&#x152;" horiz-adv-x="2244" d="M72 745q0 150 58 289q57 136 157 236q103 103 235 160q136 58 287 60h16q151 -2 287 -60q132 -57 235 -160q29 -28 67 -78v272h-46v27h804v-256h-26v10q0 87 -60 150.5t-147 68.5h-377v-706h237q54 3 90.5 42.5t36.5 93.5v10h27v-317h-27v9q0 54 -36.5 93.5t-90.5 42.5 h-237v-706h377q87 5 147 69t60 151v10h26v-256h-804v26h46v273q-38 -50 -67 -78q-103 -103 -235 -160q-139 -60 -287 -61h-16q-148 1 -287 61q-132 57 -235 160q-100 100 -157 236q-58 139 -58 288zM220 745q0 -143 44.5 -273.5t128.5 -232.5q83 -101 190.5 -156.5 t225.5 -56.5h16q118 1 225.5 56.5t190.5 156.5q84 102 128.5 232.5t44.5 273.5t-44.5 273.5t-128.5 232.5q-83 101 -190.5 156.5t-225.5 56.5h-16q-118 -1 -225.5 -56.5t-190.5 -156.5q-84 -102 -128.5 -232.5t-44.5 -273.5z" />
<glyph unicode="&#x153;" horiz-adv-x="1968" d="M72 504q0 189 125 331q71 80 164 123q99 45 207 47h5q106 -2 202 -47q93 -43 164 -123q25 -28 51 -69q26 41 51 69q70 79 165 123q99 46 206 47h6q105 -1 201 -47q95 -44 165 -123q77 -86 108 -200l4 -17h-831v-242q2 -143 103 -244t244 -103q105 2 196 44q88 41 156 117 q73 82 102 189l3 10l25 -7l-2 -9q-31 -115 -108 -201q-70 -79 -165 -123q-97 -46 -202 -47h-5q-107 1 -206 47q-95 44 -165 123q-25 28 -51 69q-26 -41 -51 -69q-71 -80 -164 -123q-99 -45 -207 -47q-108 2 -207 47q-93 43 -164 123q-125 142 -125 332zM220 376 q2 -142 104 -244q101 -101 244 -103q143 2 244 103q102 102 104 244v242h-696v-242zM221 644h695q-8 135 -104 231q-101 101 -244 103q-143 -2 -244 -103q-95 -95 -103 -231zM1065 644h695q-8 136 -103 231q-101 101 -244 103q-144 -2 -245 -103q-95 -95 -103 -231z" />
<glyph unicode="&#x2000;" horiz-adv-x="934" />
<glyph unicode="&#x2001;" horiz-adv-x="1869" />
<glyph unicode="&#x2002;" horiz-adv-x="934" />
<glyph unicode="&#x2003;" horiz-adv-x="1869" />
<glyph unicode="&#x2004;" horiz-adv-x="623" />
<glyph unicode="&#x2005;" horiz-adv-x="467" />
<glyph unicode="&#x2006;" horiz-adv-x="311" />
<glyph unicode="&#x2007;" horiz-adv-x="311" />
<glyph unicode="&#x2008;" horiz-adv-x="233" />
<glyph unicode="&#x2009;" horiz-adv-x="373" />
<glyph unicode="&#x200a;" horiz-adv-x="103" />
<glyph unicode="&#x2010;" horiz-adv-x="665" d="M72 496v40h520v-40h-520z" />
<glyph unicode="&#x2011;" horiz-adv-x="665" d="M72 496v40h520v-40h-520z" />
<glyph unicode="&#x2012;" horiz-adv-x="665" d="M72 496v40h520v-40h-520z" />
<glyph unicode="&#x2013;" horiz-adv-x="1169" d="M72 496v40h1024v-40h-1024z" />
<glyph unicode="&#x2014;" horiz-adv-x="2193" d="M72 496v40h2048v-40h-2048z" />
<glyph unicode="&#x201c;" horiz-adv-x="659" d="M72 1194v148q5 49 41 84q38 38 94 38h10v-26h-10q-45 0 -76 -31q-27 -27 -32 -65h121v-148h-148zM438 1194v148q5 49 41 84q38 38 94 38h10v-26h-10q-45 0 -76 -31q-27 -27 -32 -65h121v-148h-148z" />
<glyph unicode="&#x201d;" horiz-adv-x="659" d="M72 1316v148h148v-148h-1q-5 -49 -40 -84q-38 -38 -94 -38h-10v26h10q45 0 76 31q27 27 32 65h-121zM438 1316v148h148v-148h-1q-5 -49 -40 -84q-38 -38 -94 -38h-10v26h10q45 0 76 31q27 27 32 65h-121z" />
<glyph unicode="&#x202f;" horiz-adv-x="373" />
<glyph unicode="&#x205f;" horiz-adv-x="467" />
<glyph unicode="&#x20ac;" horiz-adv-x="1712" d="M72 610v26h121q-8 58 -8 109t8 109h-121v26h126q17 89 45 154q57 135 158 236q104 104 234 160q136 58 288 60h14h2q237 -3 429 -142q92 -66 159 -156q71 -97 107 -198l6 -18h-144l-3 10q-61 210 -212 341q-154 134 -342 137h-16q-118 -1 -225.5 -56.5t-190.5 -156.5 q-130 -159 -163 -371h946v-26h-949q-7 -50 -7 -109t7 -109h949v-26h-946q33 -212 163 -371q83 -101 190.5 -156.5t225.5 -56.5h15h2q187 3 341 137q151 131 212 342l3 9h144l-6 -17q-25 -68 -55 -120l-1 -2q-77 -144 -226 -245q-87 -60 -188 -93q-112 -37 -241 -37 q-149 1 -288 61q-130 56 -234 160q-101 101 -158 236q-28 66 -45 153h-126z" />
<glyph unicode="&#x25fc;" horiz-adv-x="1003" d="M0 0v1004h1004v-1004h-1004z" />
</font>
</defs>
</svg>
